<?xml version="1.0" encoding="UTF-8"?>
<svg width="32px" height="32px" viewBox="0 0 32 32" version="1.1" xmlns="http://www.w3.org/2000/svg" xmlns:xlink="http://www.w3.org/1999/xlink">
    <!-- Generator: Sketch 57.1 (83088) - https://sketch.com -->
    <title>bnt</title>
    <desc>Created with Sketch.</desc>
    <g id="bnt" stroke="none" stroke-width="1" fill="none" fill-rule="evenodd">
        <path d="M16,32 C24.8368,32 32,24.8368 32,16 C32,7.1632 24.8368,0 16,0 C7.1632,0 0,7.1632 0,16 C0,24.8368 7.1632,32 16,32 Z" id="Oval" fill="#070A0E" fill-rule="nonzero"></path>
        <g transform="translate(10.000000, 7.000000)" fill="#FFFFFF" fill-rule="nonzero" id="Shape">
            <path d="M5.00126823,0 L1.06198478,2.45231355 L5.00126823,4.90555355 L9.01466392,2.45231355 L5.00126823,0 Z M5.64909639,13.0944464 L5.64909639,18 L11,14.756498 L11,9.85001801 L5.64909639,13.0944464 L5.64909639,13.0944464 Z M9.66249207,3.99485305 L9.66249207,8.90133306 L5.64822448,11.3545731 L5.64822448,6.44809306 L9.66249207,3.99485305 Z M0,8.90133306 L4.0142676,11.3545731 L4.0142676,6.44809306 L0,3.99485305 L0,8.90133306 Z M0,15.5476864 L4.0142676,18 L4.0142676,13.0944464 L0,10.6421329 L0,15.54676 L0,15.5476864 Z"></path>
        </g>
    </g>
</svg>