<?xml version="1.0" encoding="UTF-8"?>
<svg width="32px" height="32px" viewBox="0 0 32 32" version="1.1" xmlns="http://www.w3.org/2000/svg" xmlns:xlink="http://www.w3.org/1999/xlink">
    <!-- Generator: Sketch 57.1 (83088) - https://sketch.com -->
    <title>cel</title>
    <desc>Created with Sketch.</desc>
    <g id="cel" stroke="none" stroke-width="1" fill="none" fill-rule="evenodd">
        <path d="M16,0 C7.14186851,0 0,7.14186851 0,16 C0,24.8581315 7.14186851,32 16,32 C24.8581315,32 32,24.8581315 32,16 C32,7.14186851 24.8027682,0 16,0 Z" id="Oval" fill="#732394" fill-rule="nonzero"></path>
        <g transform="translate(6.000000, 6.000000)" fill="#FFFFFF" fill-rule="nonzero" id="Shape">
            <path d="M16.9183984,15.8861111 C15.08025,17.8916667 12.4311539,19 9.72799459,19 L9.72799459,19 C6.97077209,19 4.32167596,17.8388889 2.48352762,15.8333333 C0.591316101,13.775 -0.219631695,11.1888889 0.0506842372,8.44444444 C0.537252914,4.06388889 4.10542321,0.580555556 8.59266768,0.0527777778 C8.97110998,0 9.34955229,0 9.72799459,0 C11.890522,0 13.9449231,0.686111111 15.6749451,2.00555556 C15.7830715,2.05833333 15.8371347,2.21666667 15.8371347,2.32222222 C15.8371347,2.48055556 15.7830715,2.58611111 15.6749451,2.69166667 L14.6477446,3.58888889 C14.5396182,3.69444444 14.3774286,3.74722222 14.2152391,3.74722222 C14.1071127,3.74722222 13.9449231,3.69444444 13.8908599,3.64166667 C12.6474067,2.79722222 11.1877006,2.375 9.72799459,2.375 C7.61953033,2.375 5.61919243,3.27222222 4.26761277,4.80277778 C2.86196993,6.33333333 2.21321169,8.33888889 2.48352762,10.3972222 C2.86196993,13.6694444 5.56512924,16.3083333 8.9170468,16.6777778 C9.18736273,16.7305556 9.45767866,16.7305556 9.78205778,16.7305556 C11.7283325,16.7305556 13.5664808,15.9916667 14.9721237,14.6194444 C15.08025,14.5138889 15.2424396,14.4611111 15.4046292,14.4611111 C15.5127555,14.4611111 15.6208819,14.5138889 15.7290083,14.5666667 L16.8643352,15.3055556 C16.9724616,15.3583333 17.0265248,15.4638889 17.0805879,15.6222222 C17.0265248,15.675 16.9724616,15.7805556 16.9183984,15.8861111 Z M17.6212198,8.49722222 C16.3237033,8.49722222 15.2424396,7.44166667 15.2424396,6.175 C15.2424396,4.90833333 16.3237033,3.85277778 17.6212198,3.85277778 C18.9187363,3.85277778 20,4.90833333 20,6.175 C20,7.44166667 18.9187363,8.49722222 17.6212198,8.49722222 Z"></path>
        </g>
    </g>
</svg>