<?xml version="1.0" encoding="UTF-8"?>
<svg width="32px" height="32px" viewBox="0 0 32 32" version="1.1" xmlns="http://www.w3.org/2000/svg" xmlns:xlink="http://www.w3.org/1999/xlink">
    <!-- Generator: Sketch 57.1 (83088) - https://sketch.com -->
    <title>ceth</title>
    <desc>Created with Sketch.</desc>
    <defs>
        <linearGradient x1="45.9256426%" y1="5.53940196%" x2="58.847297%" y2="92.464467%" id="linearGradient-1">
            <stop stop-color="#27D3A2" offset="0%"></stop>
            <stop stop-color="#9388FD" offset="100%"></stop>
        </linearGradient>
    </defs>
    <g id="ceth" stroke="none" stroke-width="1" fill="none" fill-rule="evenodd">
        <circle id="Oval" fill="#D8D8D8" cx="16" cy="16" r="16"></circle>
        <g fill-rule="nonzero" id="Group">
            <g>
                <ellipse id="Oval" fill="#EDF0F2" cx="16.0125" cy="15.9626459" rx="15.9875" ry="15.9252918"></ellipse>
                <path d="M26.1625,28.2521401 C23.725,30.2568093 20.7375,31.4894942 17.5875,31.7883268 C13.375,32.1992218 9.1625,30.9291829 5.875,28.2521401 C2.6,25.5750973 0.525,21.7151751 0.1,17.5066148 C-0.2125,14.3688716 0.4125,11.218677 1.9,8.44202335 C3.3875,5.66536965 5.675,3.38677043 8.4625,1.90505837 C11.25,0.423346304 14.4125,-0.211673152 17.5625,0.0996108949 C20.7125,0.410894942 23.6875,1.6311284 26.1375,3.63579767 L22.9125,7.55797665 C21.25,6.20077821 19.2125,5.3540856 17.0625,5.15486381 C14.9125,4.94319066 12.7625,5.37898833 10.8625,6.38754864 C8.9625,7.39610895 7.4125,8.95252918 6.3875,10.8451362 C5.375,12.7377432 4.95,14.8918288 5.1625,17.0210117 C5.45,19.8848249 6.8625,22.5245136 9.1,24.3424125 C11.3375,26.1727626 14.2125,27.0319066 17.0875,26.7455253 C19.2375,26.5338521 21.2625,25.6871595 22.925,24.3299611 L26.1625,28.2521401 Z" id="Path" fill="url(#linearGradient-1)"></path>
                <path d="M16.0625,28.9992218 C23.275,28.9992218 29.1125,23.1719844 29.1125,16 C29.1125,8.8155642 23.275,2.98832685 16.0625,2.98832685 C8.85,2.98832685 3,8.8155642 3,16 C3,23.1844358 8.85,28.9992218 16.0625,28.9992218 Z" id="Path" fill="#FFFFFF"></path>
            </g>
            <g transform="translate(12.000000, 9.000000)">
                <polygon id="Path" fill="#AAB8C1" points="3.9641791 8.97850467 7.91641791 6.64579439 3.2238806 4.19158879"></polygon>
                <polygon id="Path" fill="#AAB8C1" points="0.023880597 6.65794393 3.9761194 8.99065421 3.9761194 4.68971963"></polygon>
                <polygon id="Path" fill="#283947" points="3.9641791 0.109345794 0.0119402985 6.65794393 5.18208955 4.31308411"></polygon>
                <polygon id="Path" fill="#657786" points="3.9641791 0.109345794 3.9641791 4.85981308 7.91641791 6.65794393"></polygon>
                <polygon id="Path" fill="#283947" points="3.9641791 12.9635514 4.47761194 10.0233645 0.023880597 7.39906542"></polygon>
                <polygon id="Path" fill="#657786" points="3.9641791 9.7317757 3.9641791 12.9635514 7.91641791 7.39906542"></polygon>
            </g>
        </g>
    </g>
</svg>