<?xml version="1.0" encoding="UTF-8"?>
<svg width="32px" height="32px" viewBox="0 0 32 32" version="1.1" xmlns="http://www.w3.org/2000/svg" xmlns:xlink="http://www.w3.org/1999/xlink">
    <!-- Generator: Sketch 57.1 (83088) - https://sketch.com -->
    <title>combo</title>
    <desc>Created with Sketch.</desc>
    <g id="combo" stroke="none" stroke-width="1" fill="none" fill-rule="evenodd">
        <path d="M16,32 C24.8368,32 32,24.8368 32,16 C32,7.1632 24.8368,0 16,0 C7.1632,0 0,7.1632 0,16 C0,24.8368 7.1632,32 16,32 Z" id="Oval" fill="#070A0E" fill-rule="nonzero"></path>
        <g transform="translate(6.500000, 5.000000)" fill="#FFFFFF" fill-rule="nonzero" id="token">
            <g transform="translate(1.000000, 1.000000)">
                <path d="M8.20283423,18.1398448 L7.72528641,18.9706141 L8.35919937,19.3361525 C8.43848703,19.3863732 8.53113005,19.4123902 8.62544285,19.4109217 C8.71557433,19.4095655 8.80402899,19.3867608 8.88323416,19.3444602 L9.51714712,18.9789218 L9.04382546,18.1481525 L8.20283423,18.1398448 Z" id="Path"></path>
                <polygon id="Path" points="10.9962775 7.68046099 9.65660799 8.461384 10.1890949 9.36692238 11.5203123 8.59015323"></polygon>
                <polygon id="Path" points="14.630712 6.8206149 14.1066772 5.91092266 12.7670078 6.69184568 13.2994947 7.59323023"></polygon>
                <path d="M17.0057727,4.63569198 L16.3760858,4.27430739 L15.8562772,5.03861503 L16.3507293,5.8693842 L17.2677901,5.80292267 L17.2677901,5.08015348 C17.2646916,4.89738667 17.1655556,4.72922166 17.0057727,4.63569198 L17.0057727,4.63569198 Z" id="Path"></path>
                <polygon id="Path" points="12.0866078 1.87338448 10.9117557 1.18384607 10.3834949 2.09353832 11.5625731 2.77892288"></polygon>
                <polygon id="Path" points="14.7490425 3.40615361 13.5741904 2.71661519 13.0459295 3.62630744 14.2250077 4.311692"></polygon>
                <path d="M8.36765155,0.0747692255 L7.73373858,0.444461507 L8.27045163,1.35415375 L8.63389503,1.13399992 L9.00156459,1.34584606 L9.53827756,0.440307662 L8.90859068,0.0747692255 C8.74248042,-0.0247121245 8.53376189,-0.0247121245 8.36765155,0.0747692255 L8.36765155,0.0747692255 Z" id="Path"></path>
                <polygon id="Path" points="16.2112684 10.5175377 16.2197206 11.8799992 17.2677901 11.8758453 17.263564 10.5133838"></polygon>
                <polygon id="Path" points="16.2112684 7.45615332 16.2197206 8.81446092 17.2677901 8.81446092 17.263564 7.45199948"></polygon>
                <path d="M16.2070423,13.9153836 L15.8435989,14.1313836 L16.3803119,15.036922 L17.0099988,14.6672298 C17.1701012,14.5705574 17.2676958,14.3991481 17.2677901,14.2144605 L17.2677901,13.4833837 L16.2070423,13.4833837 L16.2070423,13.9153836 Z" id="Path"></path>
                <polygon id="Path" points="13.1980686 15.5727682 13.7221034 16.4824604 14.8969555 15.7970758 14.3729207 14.8873835"></polygon>
                <polygon id="Path" points="10.5314079 17.138768 11.0596688 18.0443064 12.2345209 17.3589218 11.7104861 16.4492296"></polygon>
                <polygon id="Path" points="8.10563423 16.7441527 9.15792981 16.7399988 9.15370372 15.3775374 8.10140815 15.3816912"></polygon>
                <polygon id="Path" points="9.15370372 9.96507623 8.10140815 9.96923008 8.10563423 11.3316915 9.15792981 11.3275377"></polygon>
                <polygon id="Path" points="8.10563423 14.039999 9.15792981 14.0358452 9.15370372 12.6733837 8.10140815 12.6775375"></polygon>
                <polygon id="Path" points="1.05652166 8.893384 1.05229558 7.53092255 0 7.53507639 0.00422608666 8.89753785"></polygon>
                <polygon id="Path" points="1.05652166 11.9630761 1.05229558 10.6006146 0 10.6047685 0.00422608666 11.9672299"></polygon>
                <path d="M1.06074775,13.4833837 L0,13.4833837 L0,14.2144605 C0.00181186469,14.3997625 0.100902165,14.5709918 0.262017373,14.6672298 L0.891704285,15.036922 L1.42841729,14.1313836 L1.06074775,13.9153836 L1.06074775,13.4833837 Z" id="Path"></path>
                <polygon id="Path" points="2.35815636 15.7970758 3.53300845 16.4824604 4.05704319 15.5727682 2.8821911 14.8873835"></polygon>
                <polygon id="Path" points="5.01636487 17.3589218 6.19544304 18.0443064 6.71947778 17.138768 5.5446257 16.4492296"></polygon>
                <polygon id="Path" points="6.88006908 2.09353832 6.35603434 1.18384607 5.18540833 1.87338448 5.70944307 2.78307672"></polygon>
                <polygon id="Path" points="4.22186057 3.62630744 3.69359974 2.71661519 2.51452156 3.40615361 3.04700848 4.311692"></polygon>
                <polygon id="Path" points="5.74325177 8.59015323 7.08292124 9.36692238 7.60695598 8.45723015 6.2715126 7.68046099"></polygon>
                <polygon id="Path" points="2.63285199 6.8206149 3.97252146 7.59323023 4.4965562 6.69184568 3.16111282 5.91092266"></polygon>
                <path d="M1.41573903,5.03861503 L0.895930372,4.27430739 L0.266243459,4.63569198 C0.105356365,4.73070971 0.00495503545,4.89988412 0,5.08430733 L0,5.80707652 L0.921286894,5.87353805 L1.41573903,5.03861503 Z" id="Path"></path>
            </g>
        </g>
    </g>
</svg>