<?xml version="1.0" encoding="UTF-8"?>
<svg width="32px" height="32px" viewBox="0 0 32 32" version="1.1" xmlns="http://www.w3.org/2000/svg" xmlns:xlink="http://www.w3.org/1999/xlink">
    <!-- Generator: Sketch 57.1 (83088) - https://sketch.com -->
    <title>comp</title>
    <desc>Created with Sketch.</desc>
    <g id="comp" stroke="none" stroke-width="1" fill="none" fill-rule="evenodd">
        <path d="M16,32 C24.8368,32 32,24.8368 32,16 C32,7.1632 24.8368,0 16,0 C7.1632,0 0,7.1632 0,16 C0,24.8368 7.1632,32 16,32 Z" id="Oval" fill="#070A0E" fill-rule="nonzero"></path>
        <g transform="translate(8.000000, 6.000000)" fill="#00D395" id="Shape">
            <path d="M0.768985322,15.0285069 C0.291959158,14.7542491 0,14.2671791 0,13.7426423 L0,10.8142281 C0,10.4665352 0.301531589,10.1847839 0.671665603,10.1862767 C0.78972559,10.1862767 0.906190172,10.2162562 1.00829611,10.2717072 L8.04243778,14.1248049 C8.45405233,14.3496064 8.70772706,14.7632411 8.70772706,15.2113454 L8.70772706,18.244667 C8.70931717,18.6612991 8.35035099,19 7.90682833,19 C7.75845565,19 7.61167837,18.9610344 7.48564135,18.8890979 L0.768985322,15.0285069 Z M11.2539885,9.46991518 C11.6656031,9.69471668 11.9176771,10.1098501 11.9192725,10.5564558 L11.9192725,16.7130194 C11.9192725,16.8943593 11.8155712,17.0622111 11.6464582,17.150633 L10.1068922,17.9644144 C10.0877473,17.9749052 10.067007,17.9823986 10.0446713,17.9883933 L10.0446713,14.5699118 C10.0446713,14.1278022 9.79738354,13.7171648 9.39215061,13.489366 L3.21474154,10.0184308 L3.21474154,6.15933846 C3.21474154,5.81164548 3.51627313,5.52989427 3.88640715,5.53138699 C4.00446713,5.53138699 4.12093172,5.56136648 4.22303765,5.61681751 L11.2539885,9.46991518 Z M14.3331206,4.92293023 C14.7463306,5.14773172 15,5.56286515 15,6.01096947 L15,15.0030294 C14.9984046,15.1873666 14.889917,15.3567171 14.7176133,15.445139 L13.2578175,16.1854853 L13.2578175,9.92551288 C13.2578175,9.48340327 13.0105297,9.07426455 12.6084876,8.8464657 L6.29387364,5.28860733 L6.29387364,1.62883895 C6.29387364,1.51793688 6.32578175,1.40853348 6.38321634,1.31261818 C6.56987875,1.01288285 6.97989789,0.910972833 7.29897894,1.08481932 L14.3331206,4.92293023 Z"></path>
        </g>
    </g>
</svg>