<?xml version="1.0" encoding="UTF-8"?>
<svg width="32px" height="32px" viewBox="0 0 32 32" version="1.1" xmlns="http://www.w3.org/2000/svg" xmlns:xlink="http://www.w3.org/1999/xlink">
    <!-- Generator: Sketch 57.1 (83088) - https://sketch.com -->
    <title>creth2</title>
    <desc>Created with Sketch.</desc>
    <g id="creth2" stroke="none" stroke-width="1" fill="none" fill-rule="evenodd">
        <path d="M16,32 C24.8368,32 32,24.8368 32,16 C32,7.1632 24.8368,0 16,0 C7.1632,0 0,7.1632 0,16 C0,24.8368 7.1632,32 16,32 Z" id="Oval" fill="#69E2DC" fill-rule="nonzero"></path>
        <g transform="translate(6.393116, 5.859900)" fill-rule="nonzero">
            <path d="M10.8954177,10.8953 L16.5060844,16.5059667 C16.723087,16.7241586 16.8357433,17.0251553 16.8153276,17.3322075 C16.7949118,17.6392597 16.6433973,17.9226919 16.3994177,18.1102333 C12.2376617,21.378994 6.2617722,20.8966434 2.67816126,17.0027069 C-0.905449678,13.1087704 -0.89098379,7.11346317 2.71137643,3.23686545 C6.31373664,-0.639732266 12.2918843,-1.09323931 16.4378177,2.19556668 C16.67023,2.38639133 16.8104714,2.66709074 16.8234983,2.96752344 C16.8365252,3.26795614 16.7211069,3.55974106 16.5060844,3.76996668 L10.891151,9.38490001 C10.7924469,9.48388966 10.714163,9.60131556 10.660751,9.73050001 C10.6064116,9.8661475 10.5788816,10.0110422 10.5796844,10.1571667 C10.5780135,10.3037882 10.6070825,10.4491331 10.6650177,10.5838333 C10.717402,10.7135632 10.7958148,10.8311825 10.8954177,10.9294333 L10.8954177,10.8953 Z" id="Path" fill="#FFFFFF"></path>
            <g id="eth" transform="translate(5.606884, 3.140100)">
                <polygon id="Path" fill="#AAB8C1" points="3.9641791 8.97850467 7.91641791 6.64579439 3.2238806 4.19158879"></polygon>
                <polygon id="Path" fill="#AAB8C1" points="0.023880597 6.65794393 3.9761194 8.99065421 3.9761194 4.68971963"></polygon>
                <polygon id="Path" fill="#283947" points="3.9641791 0.109345794 0.0119402985 6.65794393 5.18208955 4.31308411"></polygon>
                <polygon id="Path" fill="#657786" points="3.9641791 0.109345794 3.9641791 4.85981308 7.91641791 6.65794393"></polygon>
                <polygon id="Path" fill="#283947" points="3.9641791 12.9635514 4.47761194 10.0233645 0.023880597 7.39906542"></polygon>
                <polygon id="Path" fill="#657786" points="3.9641791 9.7317757 3.9641791 12.9635514 7.91641791 7.39906542"></polygon>
            </g>
        </g>
    </g>
</svg>