<?xml version="1.0" encoding="UTF-8"?>
<svg width="32px" height="32px" viewBox="0 0 32 32" version="1.1" xmlns="http://www.w3.org/2000/svg" xmlns:xlink="http://www.w3.org/1999/xlink">
    <!-- Generator: Sketch 57.1 (83088) - https://sketch.com -->
    <title>cro</title>
    <desc>Created with Sketch.</desc>
    <g id="cro" stroke="none" stroke-width="1" fill="none" fill-rule="evenodd">
        <circle id="Oval" fill="#103F68" fill-rule="nonzero" cx="16" cy="16" r="16"></circle>
        <g transform="translate(6.000000, 5.000000)" fill="#FFFFFF" fill-rule="nonzero" id="Shape">
            <path d="M9.97894737,0 L20,5.48748976 L20,16.4964971 L9.99052632,22 L9.90947368,21.9809844 L0,16.4964971 L0,5.48748976 L9.90947368,0 L9.97894737,0 Z M9.94631579,1.13893185 L1.05263158,6.0629606 L1.05263158,15.9210263 L9.94526316,20.8440542 L11.0315789,20.2465654 L18.9473684,15.9180238 L18.9473684,6.06496224 L11.0315789,1.71140024 L9.94631579,1.13893185 Z M2.43052632,11.7576199 L5.06315789,9.88608862 L7.39052632,11.2992448 L7.39052632,13.8413247 L9.15157895,15.4546447 L9.15052632,16.2112638 L7.45368421,17.7225002 L6.02105263,17.7225002 L2.43157895,11.7576199 L2.43052632,11.7576199 Z M10.7494737,16.2132654 L10.7463158,15.4526431 L12.5010526,13.8413247 L12.5010526,11.2992448 L14.8031579,9.86807388 L17.4305263,11.7586207 L13.8589474,17.7054863 L12.4442105,17.7054863 L10.7494737,16.2132654 Z M8.25473684,11.2992448 L7.39789474,9.16649986 L12.4905263,9.16649986 L11.6505263,11.2992448 L11.8989474,13.6831953 L9.93368421,13.6871986 L7.99157895,13.6902011 L8.25473684,11.2992448 L8.25473684,11.2992448 Z M9.93368421,8.58202165 L5.09368421,8.58002002 L5.99368421,4.756892 L13.8505263,4.756892 L14.7978947,8.58502411 L9.93368421,8.58202165 Z"></path>
        </g>
    </g>
</svg>