<?xml version="1.0" encoding="UTF-8"?>
<svg width="32px" height="32px" viewBox="0 0 32 32" version="1.1" xmlns="http://www.w3.org/2000/svg" xmlns:xlink="http://www.w3.org/1999/xlink">
    <!-- Generator: Sketch 57.1 (83088) - https://sketch.com -->
    <title>cudc</title>
    <desc>Created with Sketch.</desc>
    <defs>
        <linearGradient x1="45.9256426%" y1="5.53940196%" x2="58.847297%" y2="92.464467%" id="linearGradient-1">
            <stop stop-color="#27D3A2" offset="0%"></stop>
            <stop stop-color="#9388FD" offset="100%"></stop>
        </linearGradient>
    </defs>
    <g id="cudc" stroke="none" stroke-width="1" fill="none" fill-rule="evenodd">
        <circle id="Oval" fill="#D8D8D8" cx="16" cy="16" r="16"></circle>
        <g fill-rule="nonzero" id="Group">
            <g>
                <ellipse id="Oval" fill="#EDF0F2" cx="16.0125" cy="15.9626459" rx="15.9875" ry="15.9252918"></ellipse>
                <path d="M26.1625,28.2521401 C23.725,30.2568093 20.7375,31.4894942 17.5875,31.7883268 C13.375,32.1992218 9.1625,30.9291829 5.875,28.2521401 C2.6,25.5750973 0.525,21.7151751 0.1,17.5066148 C-0.2125,14.3688716 0.4125,11.218677 1.9,8.44202335 C3.3875,5.66536965 5.675,3.38677043 8.4625,1.90505837 C11.25,0.423346304 14.4125,-0.211673152 17.5625,0.0996108949 C20.7125,0.410894942 23.6875,1.6311284 26.1375,3.63579767 L22.9125,7.55797665 C21.25,6.20077821 19.2125,5.3540856 17.0625,5.15486381 C14.9125,4.94319066 12.7625,5.37898833 10.8625,6.38754864 C8.9625,7.39610895 7.4125,8.95252918 6.3875,10.8451362 C5.375,12.7377432 4.95,14.8918288 5.1625,17.0210117 C5.45,19.8848249 6.8625,22.5245136 9.1,24.3424125 C11.3375,26.1727626 14.2125,27.0319066 17.0875,26.7455253 C19.2375,26.5338521 21.2625,25.6871595 22.925,24.3299611 L26.1625,28.2521401 Z" id="Path" fill="url(#linearGradient-1)"></path>
                <path d="M16.0625,28.9992218 C23.275,28.9992218 29.1125,23.1719844 29.1125,16 C29.1125,8.8155642 23.275,2.98832685 16.0625,2.98832685 C8.85,2.98832685 3,8.8155642 3,16 C3,23.1844358 8.85,28.9992218 16.0625,28.9992218 Z" id="Path" fill="#FFFFFF"></path>
            </g>
            <g transform="translate(10.000000, 10.000000)">
                <path d="M8.86831683,7.15051546 C8.86831683,5.93814433 8.0960396,5.52989691 6.59009901,5.3443299 C5.48316832,5.19587629 5.26435644,4.94845361 5.26435644,4.45360825 C5.26435644,3.95876289 5.63762376,3.66185567 6.35841584,3.66185567 C7.01485149,3.66185567 7.38811881,3.87216495 7.54257426,4.37938144 C7.55544554,4.42886598 7.59405941,4.47835052 7.64554455,4.51546392 C7.6970297,4.55257732 7.74851485,4.56494845 7.81287129,4.56494845 L8.39207921,4.56494845 C8.43069307,4.56494845 8.46930693,4.55257732 8.4950495,4.54020619 C8.53366337,4.52783505 8.55940594,4.50309278 8.58514851,4.47835052 C8.61089109,4.45360825 8.62376238,4.41649485 8.63663366,4.39175258 C8.64950495,4.35463918 8.64950495,4.31752577 8.63663366,4.28041237 C8.45643564,3.48865979 7.89009901,3.0185567 7.01485149,2.87010309 L7.01485149,2.04123711 C7.01485149,1.96701031 6.98910891,1.90515464 6.93762376,1.8556701 C6.88613861,1.80618557 6.82178218,1.7814433 6.74455446,1.7814433 L6.19108911,1.7814433 C6.11386139,1.7814433 6.04950495,1.80618557 5.9980198,1.8556701 C5.94653465,1.90515464 5.92079208,1.96701031 5.92079208,2.04123711 L5.92079208,2.84536082 C4.82673267,2.99381443 4.13168317,3.6742268 4.13168317,4.55257732 C4.13168317,5.69072165 4.86534653,6.12371134 6.38415842,6.32164948 C7.42673267,6.48247423 7.72277228,6.69278351 7.72277228,7.24948454 C7.72277228,7.80618557 7.22079208,8.17731959 6.51287129,8.17731959 C5.56039604,8.17731959 5.23861386,7.7814433 5.12277228,7.2742268 C5.10990099,7.21237113 5.07128713,7.1628866 5.03267327,7.1257732 C4.98118812,7.08865979 4.91683168,7.06391753 4.86534653,7.06391753 L4.23465347,7.06391753 C4.1960396,7.06391753 4.15742574,7.07628866 4.13168317,7.08865979 C4.09306931,7.10103093 4.06732673,7.1257732 4.04158416,7.15051546 C4.01584158,7.17525773 4.0029703,7.21237113 3.99009901,7.2371134 C3.97722772,7.2742268 3.97722772,7.31134021 3.99009901,7.33608247 C4.14455446,8.20206186 4.73663366,8.83298969 5.93366337,8.9814433 L5.93366337,9.79793814 C5.93366337,9.87216495 5.95940594,9.93402062 6.01089109,9.98350515 C6.06237624,10.0329897 6.12673267,10.057732 6.2039604,10.057732 L6.75742574,10.057732 C6.83465347,10.057732 6.8990099,10.0329897 6.95049505,9.98350515 C7.0019802,9.93402062 7.02772277,9.87216495 7.02772277,9.79793814 L7.02772277,8.9814433 C8.14752475,8.80824742 8.86831683,8.07835052 8.86831683,7.15051546 Z" id="Path" fill="#283947"></path>
                <path d="M4.71089109,10.8618557 C3.66831683,10.5030928 2.76732673,9.83505155 2.12376238,8.96907216 C1.48019802,8.10309278 1.14554455,7.06391753 1.14554455,6.01237113 C1.14554455,4.96082474 1.49306931,3.92164948 2.12376238,3.0556701 C2.76732673,2.18969072 3.66831683,1.52164948 4.71089109,1.1628866 C4.77524752,1.13814433 4.83960396,1.08865979 4.87821782,1.02680412 C4.91683168,0.964948454 4.94257426,0.903092784 4.94257426,0.828865979 L4.94257426,0.346391753 C4.94257426,0.309278351 4.94257426,0.259793814 4.91683168,0.222680412 C4.9039604,0.18556701 4.86534653,0.148453608 4.82673267,0.12371134 C4.78811881,0.0989690722 4.74950495,0.0865979381 4.6980198,0.0742268041 C4.64653465,0.0618556701 4.60792079,0.0742268041 4.56930693,0.0989690722 C3.25643564,0.494845361 2.11089109,1.28659794 1.28712871,2.35051546 C0.476237624,3.41443299 0.0386138614,4.68865979 0.0386138614,6.01237113 C0.0386138614,7.32371134 0.476237624,8.61030928 1.28712871,9.6742268 C2.0980198,10.7381443 3.24356436,11.5175258 4.56930693,11.9257732 C4.60792079,11.9381443 4.65940594,11.9505155 4.6980198,11.9505155 C4.73663366,11.9505155 4.78811881,11.9257732 4.82673267,11.9010309 C4.86534653,11.8762887 4.89108911,11.8391753 4.91683168,11.8020619 C4.92970297,11.7649485 4.94257426,11.7154639 4.94257426,11.6783505 L4.94257426,11.1958763 C4.94257426,11.1216495 4.91683168,11.0597938 4.87821782,10.9979381 C4.83960396,10.9360825 4.78811881,10.8865979 4.71089109,10.8618557 L4.71089109,10.8618557 Z" id="Path" fill="#657786"></path>
                <path d="M8.44356436,0.111340206 C8.4049505,0.0989690722 8.35346535,0.0865979381 8.31485149,0.0865979381 C8.27623762,0.0865979381 8.22475248,0.111340206 8.18613861,0.136082474 C8.14752475,0.160824742 8.12178218,0.197938144 8.0960396,0.235051546 C8.08316832,0.272164948 8.07029703,0.321649485 8.07029703,0.358762887 L8.07029703,0.841237113 C8.07029703,0.915463918 8.0960396,0.977319588 8.13465347,1.03917526 C8.17326733,1.10103093 8.23762376,1.13814433 8.3019802,1.17525773 C9.34455446,1.53402062 10.2455446,2.20206186 10.8891089,3.06804124 C11.5326733,3.93402062 11.8673267,4.97319588 11.8673267,6.02474227 C11.8673267,7.07628866 11.519802,8.11546392 10.8891089,8.9814433 C10.2455446,9.84742268 9.34455446,10.5154639 8.3019802,10.8742268 C8.23762376,10.8989691 8.17326733,10.9484536 8.13465347,10.9979381 C8.0960396,11.0597938 8.07029703,11.1216495 8.07029703,11.1958763 L8.07029703,11.6783505 C8.07029703,11.7154639 8.07029703,11.7649485 8.0960396,11.8020619 C8.10891089,11.8391753 8.14752475,11.8762887 8.18613861,11.9010309 C8.22475248,11.9257732 8.26336634,11.9381443 8.31485149,11.9505155 C8.35346535,11.9505155 8.4049505,11.9505155 8.44356436,11.9257732 C9.75643564,11.5298969 10.9019802,10.7381443 11.7257426,9.6742268 C12.5366337,8.61030928 12.9742574,7.33608247 12.9742574,6.01237113 C12.9742574,4.70103093 12.5366337,3.41443299 11.7257426,2.35051546 C10.9019802,1.29896907 9.75643564,0.507216495 8.44356436,0.111340206 L8.44356436,0.111340206 Z" id="Path" fill="#657786"></path>
            </g>
        </g>
    </g>
</svg>