<?xml version="1.0" encoding="UTF-8"?>
<svg width="32px" height="32px" viewBox="0 0 32 32" version="1.1" xmlns="http://www.w3.org/2000/svg" xmlns:xlink="http://www.w3.org/1999/xlink">
    <!-- Generator: Sketch 57.1 (83088) - https://sketch.com -->
    <title>cuni</title>
    <desc>Created with Sketch.</desc>
    <defs>
        <linearGradient x1="45.9256426%" y1="5.53940196%" x2="58.847297%" y2="92.464467%" id="linearGradient-1">
            <stop stop-color="#27D3A2" offset="0%"></stop>
            <stop stop-color="#9388FD" offset="100%"></stop>
        </linearGradient>
    </defs>
    <g id="cuni" stroke="none" stroke-width="1" fill="none" fill-rule="evenodd">
        <circle id="Oval" fill="#D8D8D8" cx="16" cy="16" r="16"></circle>
        <g>
            <g id="Group" fill-rule="nonzero">
                <ellipse id="Oval" fill="#EDF0F2" cx="16.0125" cy="15.9626459" rx="15.9875" ry="15.9252918"></ellipse>
                <path d="M26.1625,28.2521401 C23.725,30.2568093 20.7375,31.4894942 17.5875,31.7883268 C13.375,32.1992218 9.1625,30.9291829 5.875,28.2521401 C2.6,25.5750973 0.525,21.7151751 0.1,17.5066148 C-0.2125,14.3688716 0.4125,11.218677 1.9,8.44202335 C3.3875,5.66536965 5.675,3.38677043 8.4625,1.90505837 C11.25,0.423346304 14.4125,-0.211673152 17.5625,0.0996108949 C20.7125,0.410894942 23.6875,1.6311284 26.1375,3.63579767 L22.9125,7.55797665 C21.25,6.20077821 19.2125,5.3540856 17.0625,5.15486381 C14.9125,4.94319066 12.7625,5.37898833 10.8625,6.38754864 C8.9625,7.39610895 7.4125,8.95252918 6.3875,10.8451362 C5.375,12.7377432 4.95,14.8918288 5.1625,17.0210117 C5.45,19.8848249 6.8625,22.5245136 9.1,24.3424125 C11.3375,26.1727626 14.2125,27.0319066 17.0875,26.7455253 C19.2375,26.5338521 21.2625,25.6871595 22.925,24.3299611 L26.1625,28.2521401 Z" id="Path" fill="url(#linearGradient-1)"></path>
                <path d="M16.0625,28.9992218 C23.275,28.9992218 29.1125,23.1719844 29.1125,16 C29.1125,8.8155642 23.275,2.98832685 16.0625,2.98832685 C8.85,2.98832685 3,8.8155642 3,16 C3,23.1844358 8.85,28.9992218 16.0625,28.9992218 Z" id="Path" fill="#FFFFFF"></path>
            </g>
            <g id="ic/explore/uniswap" transform="translate(8.500000, 7.500000)" fill="#445564">
                <path d="M4.90106752,3.13759193 C4.74553638,3.11294556 4.73813014,3.1047301 4.81219258,3.09651464 C4.95291123,3.07186827 5.27878599,3.1047301 5.50837957,3.1622383 C6.04162918,3.30190109 6.52303507,3.66338123 7.03406594,4.29597147 L7.16737835,4.46849609 L7.3599407,4.43563426 C8.18203385,4.28775602 9.02634572,4.40277242 9.72993895,4.76425257 C9.92250131,4.86283806 10.2261573,5.06000905 10.2631886,5.10930179 C10.278001,5.12573271 10.3002198,5.23253366 10.3150323,5.33933461 C10.366876,5.72546112 10.3446573,6.01300215 10.2335636,6.23481951 C10.1743136,6.35805137 10.1743136,6.3909132 10.2113448,6.49771415 C10.2409698,6.57986873 10.3298448,6.63737694 10.4113135,6.63737694 C10.5890633,6.63737694 10.7742194,6.32518954 10.8630944,5.88977028 L10.9001256,5.71724567 L10.9667818,5.79940024 C11.3445003,6.26768134 11.64075,6.9167025 11.6851875,7.37676813 L11.7,7.5 L11.6333438,7.39319905 C11.5222501,7.20424352 11.4185627,7.08101165 11.2778441,6.9742107 C11.0260317,6.78525517 10.7594069,6.72774697 10.0558137,6.68666968 C9.41887668,6.64559239 9.0559707,6.58808419 8.70047096,6.45663686 C8.09315891,6.23481951 7.78209664,5.94727848 7.06369092,4.88748443 C6.74522241,4.41920334 6.54525381,4.16452415 6.3452852,3.95092225 C5.90831678,3.48264116 5.47134835,3.23617742 4.90106752,3.13759193 Z" id="Path" fill-rule="nonzero"></path>
                <path d="M10.5527298,4.72440966 C10.5678255,4.44630078 10.6055646,4.26333442 10.6885908,4.09500536 C10.7187821,4.02913747 10.7489734,3.97058824 10.7565212,3.97058824 C10.7640691,3.97058824 10.7489734,4.02181882 10.7263299,4.08036805 C10.6659473,4.24137846 10.6583994,4.46825675 10.6961386,4.72440966 C10.7489734,5.05374912 10.7716169,5.09766104 11.1339127,5.45627512 C11.299965,5.62460418 11.4962086,5.83684516 11.5716869,5.92466902 L11.7,6.08567942 L11.5716869,5.96858094 C11.4131825,5.82220785 11.0508866,5.54409898 10.9678605,5.5075057 C10.9150257,5.47823108 10.9074778,5.47823108 10.8697387,5.51482436 C10.8395474,5.54409898 10.8319995,5.5880109 10.8319995,5.80025189 C10.8244517,6.12959134 10.7791647,6.33451367 10.6659473,6.54675466 C10.6055646,6.65653448 10.5980168,6.63457851 10.6508516,6.51016138 C10.6885908,6.41501887 10.6961386,6.37110695 10.6961386,6.0564048 C10.6961386,5.41968185 10.6206603,5.2659901 10.1602426,5.00983719 C10.0470252,4.9439693 9.8507816,4.84882679 9.73756415,4.79759621 C9.61679886,4.74636562 9.5262249,4.7024537 9.53377273,4.7024537 C9.54886839,4.68781639 9.99419037,4.81223352 10.1677905,4.88542006 C10.4319645,4.98788123 10.4772515,4.99519988 10.5074428,4.98788123 C10.5300863,4.96592526 10.545182,4.90737602 10.5527298,4.72440966 Z" id="Path" fill-rule="nonzero"></path>
                <path d="M5.15832371,5.59589243 C4.90062326,5.19645327 4.73495868,4.57663387 4.77177303,4.11521276 L4.78404448,3.97058824 L4.84540173,3.984362 C4.95584478,4.00502265 5.14605226,4.08766523 5.23808813,4.14964717 C5.48351713,4.31493235 5.59396018,4.54219946 5.69826751,5.1069238 C5.72894614,5.27220897 5.77189621,5.46504167 5.79030339,5.52702361 C5.82098201,5.63032685 5.93756079,5.87136772 6.03573239,6.02287913 C6.10322536,6.13306925 6.06027529,6.1881643 5.90688216,6.17439054 C5.67372461,6.14684301 5.36080263,5.90580213 5.15832371,5.59589243 Z" id="Path" fill-rule="nonzero"></path>
                <path d="M10.3715517,9.04861945 C8.7918232,8.39381207 8.23333333,7.82904071 8.23333333,6.87138492 C8.23333333,6.73223835 8.24131176,6.61764706 8.24131176,6.61764706 C8.24929019,6.61764706 8.30513917,6.66675761 8.37694501,6.72405326 C8.69608208,6.98597621 9.05511128,7.1005675 10.0524146,7.24789916 C10.6348397,7.33793517 10.9699337,7.40341591 11.2731139,7.50982211 C12.2385035,7.8372258 12.8368855,8.50840336 12.9804972,9.4169486 C13.0203893,9.67887155 12.996454,10.1781622 12.9326266,10.4400851 C12.8767776,10.6447124 12.7172091,11.0212267 12.677317,11.0294118 C12.6693385,11.0294118 12.6533817,10.9884863 12.6533817,10.9230056 C12.6374248,10.5792317 12.4698779,10.251828 12.1906329,9.99809015 C11.855539,9.70342683 11.424704,9.48242934 10.3715517,9.04861945 Z" id="Path" fill-rule="nonzero"></path>
                <path d="M9.25238542,8.81435136 C9.23535827,8.70066756 9.1927904,8.55666809 9.16724968,8.49603673 L9.12468182,8.38235294 L9.20130398,8.46572106 C9.31198043,8.57940485 9.39711616,8.7158254 9.47373832,8.90529839 C9.53333333,9.04929786 9.53333333,9.09477138 9.53333333,9.32971789 C9.53333333,9.55708548 9.52481976,9.61013791 9.47373832,9.73897955 C9.38860259,9.94361038 9.28643971,10.0876098 9.11616824,10.2467672 C8.80967961,10.5271872 8.40954167,10.6787656 7.83913226,10.7469759 C7.73696938,10.7545548 7.44750789,10.7772915 7.19210069,10.7924494 C6.5535827,10.822765 6.12790404,10.8833964 5.74479324,11.0046591 C5.6937118,11.019817 5.64263036,11.0349748 5.63411679,11.0273959 C5.61708964,11.012238 5.88101042,10.8758175 6.09384975,10.7848704 C6.39182481,10.6560288 6.69831345,10.5878185 7.37088573,10.4817137 C7.70291509,10.4362401 8.04345802,10.3756088 8.12859375,10.3452931 C8.9714375,10.1103466 9.38860259,9.5267698 9.25238542,8.81435136 Z" id="Path" fill-rule="nonzero"></path>
                <path d="M10.1589178,10.6045227 C9.96173715,10.1605136 9.91623393,9.73987348 10.0224081,9.34260221 C10.0375759,9.30365405 10.0527436,9.26470588 10.0679113,9.26470588 C10.0830791,9.26470588 10.1285823,9.28807478 10.1740855,9.31923331 C10.265092,9.38155037 10.4546887,9.49060523 10.9400564,9.76324238 C11.5543499,10.1059862 11.9032079,10.3708337 12.1458918,10.6746294 C12.3582401,10.9394769 12.4871659,11.2432726 12.5478369,11.617175 C12.5857562,11.827495 12.5630046,12.3338212 12.5099175,12.5441413 C12.3430724,13.20626 11.9638789,13.7359551 11.4102564,14.0397507 C11.3268338,14.0864885 11.258579,14.1176471 11.2509951,14.1176471 C11.2434112,14.1176471 11.2737467,14.0397507 11.3192499,13.9462751 C11.5012628,13.5490039 11.5240144,13.1673119 11.3875047,12.7388821 C11.3040822,12.4740346 11.1296532,12.1546596 10.7807951,11.617175 C10.3636823,10.9940043 10.265092,10.8304221 10.1589178,10.6045227 Z" id="Path" fill-rule="nonzero"></path>
                <path d="M4.06331134,12.8404985 C4.63878938,12.3739859 5.34647183,12.0429125 5.99971718,11.937571 C6.27967947,11.8924246 6.74628329,11.9074734 7.00291539,11.975193 C7.41508209,12.0805345 7.78836515,12.3062664 7.98278341,12.584669 C8.16942493,12.8555472 8.25496897,13.0888035 8.340513,13.6079868 C8.37161992,13.8111455 8.41050357,14.0218286 8.4182803,14.0669749 C8.48049414,14.3378532 8.60492183,14.5485363 8.76045643,14.6614022 C9.00153507,14.8344633 9.42147851,14.8419877 9.83364522,14.6914998 C9.90363579,14.6689266 9.96584963,14.6463534 9.96584963,14.6538778 C9.98140309,14.6689266 9.77143137,14.8043657 9.63145023,14.8720853 C9.43703197,14.9699024 9.28149736,15 9.07152565,15 C8.69824259,15 8.37939665,14.8118901 8.12276455,14.4356703 C8.06832744,14.3604264 7.95945321,14.1422189 7.86613245,13.9390602 C7.59394689,13.3295842 7.45396574,13.1489987 7.1351198,12.94584 C6.85515751,12.7727789 6.49742792,12.7351569 6.22524236,12.8630716 C5.86751276,13.0286083 5.774192,13.4725477 6.02304737,13.7434259 C6.12414486,13.8562919 6.31078639,13.9465846 6.466321,13.9691578 C6.75406002,14.0067798 7.00291539,13.7885723 7.00291539,13.5101697 C7.00291539,13.3295842 6.93292482,13.2242426 6.74628329,13.1414743 C6.49742792,13.0361327 6.22524236,13.1565231 6.23301909,13.3897793 C6.23301909,13.4875965 6.27967947,13.5477916 6.38077696,13.592938 C6.44299081,13.6230356 6.44299081,13.6230356 6.39633042,13.6155112 C6.17080525,13.5703648 6.11636813,13.2994866 6.29523293,13.1264255 C6.51298138,12.9157424 6.97180847,13.0060352 7.12734307,13.2994866 C7.18955691,13.4198769 7.19733365,13.6606576 7.14289653,13.8111455 C7.01069212,14.1422189 6.63740906,14.31528 6.25634928,14.2174629 C5.99971718,14.1497433 5.89084296,14.0820237 5.57977374,13.7735235 C5.03540262,13.231767 4.82543091,13.1264255 4.04775788,13.0135596 L3.9,12.9909864 L4.06331134,12.8404985 Z" id="Path" fill-rule="nonzero"></path>
                <path d="M0.268588179,0.336159272 C2.10680233,2.54855634 4.9390722,5.98832563 5.08108016,6.17594941 C5.19942012,6.33230256 5.15208414,6.48083805 4.95485086,6.59028526 C4.84440022,6.65282652 4.61560962,6.71536778 4.50515898,6.71536778 C4.37892969,6.71536778 4.2290324,6.65282652 4.12647109,6.55119697 C4.05546711,6.48083805 3.7477832,6.03523158 3.05352206,4.9642125 C2.52493688,4.14335847 2.075245,3.46322226 2.06735567,3.45540461 C2.03579835,3.43976929 2.03579835,3.43976929 2.99829674,5.14401862 C3.60577524,6.2150377 3.80300852,6.59810292 3.80300852,6.64500886 C3.80300852,6.74663841 3.77145119,6.80136201 3.64522189,6.94207984 C3.43220995,7.17660957 3.33753798,7.44240992 3.266534,7.9974636 C3.18764069,8.61505855 2.97462875,9.05284736 2.36715025,9.79552483 C2.01213035,10.2333136 1.95690504,10.3114902 1.87012239,10.4912963 C1.75967176,10.7101908 1.72811443,10.8352733 1.71233577,11.1167089 C1.69655711,11.4137799 1.72811443,11.6014037 1.81489708,11.8828394 C1.89379039,12.1330044 1.98057303,12.2971752 2.19358497,12.6176992 C2.37503959,12.8991348 2.48549022,13.1102116 2.48549022,13.1883882 C2.48549022,13.2509294 2.50126888,13.2509294 2.7852848,13.1883882 C3.46376728,13.032035 4.02390979,12.7662347 4.3315937,12.4378931 C4.52093765,12.234634 4.56827363,12.1251868 4.56827363,11.8437511 C4.56827363,11.663945 4.5603843,11.6248567 4.51304832,11.5154095 C4.434155,11.343421 4.28425771,11.2027032 3.96079514,10.9838088 C3.53477126,10.6945554 3.35331664,10.4600257 3.30598066,10.1473194 C3.266534,9.88151906 3.31386999,9.70171294 3.55054992,9.20920051 C3.79511918,8.70105278 3.85823383,8.48997603 3.89768049,7.97401063 C3.92134848,7.64566902 3.96079514,7.51276884 4.05546711,7.41113929 C4.15802842,7.30169209 4.24481106,7.2626038 4.48938032,7.23133317 C4.89173621,7.17660957 5.15208414,7.07498002 5.35720674,6.87953858 C5.53866136,6.71536778 5.61755467,6.55119697 5.625444,6.30884959 L5.63333333,6.12904347 L5.53077203,6.01959626 C5.15997347,5.59744276 0.0240189145,0 0.00035092121,0 C-0.0075384099,0 0.118690888,0.148535492 0.268588179,0.336159272 Z M2.69061283,11.4528682 C2.77739547,11.3043327 2.73005949,11.1167089 2.58805153,11.0228971 C2.4539329,10.9369028 2.24881029,10.9759911 2.24881029,11.093256 C2.24881029,11.1245266 2.26458895,11.1557972 2.31192494,11.1714325 C2.38292892,11.2105208 2.39081825,11.2496091 2.33559293,11.3356033 C2.28036761,11.4215976 2.28036761,11.4997742 2.35137159,11.5544978 C2.46182223,11.640492 2.61171952,11.593586 2.69061283,11.4528682 Z" id="Shape"></path>
                <path d="M5.64481468,7.51831807 C5.45431137,7.57077435 5.2717457,7.76561199 5.21618224,7.96044963 C5.18443169,8.08034971 5.20030696,8.29766861 5.25587043,8.36511241 C5.34318444,8.47002498 5.42256082,8.5 5.64481468,8.5 C6.08138476,8.5 6.45445374,8.32014988 6.49414192,8.10283097 C6.53383011,7.92298085 6.36713972,7.67568693 6.13694822,7.5632806 C6.01788366,7.50333056 5.77181689,7.48084929 5.64481468,7.51831807 Z M6.1528235,7.89300583 C6.2163246,7.80308077 6.19251169,7.70566195 6.07344712,7.63821815 C5.8591309,7.51082431 5.53368775,7.61573689 5.53368775,7.81057452 C5.53368775,7.90799334 5.70037815,8.01290591 5.8591309,8.01290591 C5.96232019,8.01290591 6.10519767,7.95295587 6.1528235,7.89300583 Z" id="Shape"></path>
            </g>
        </g>
    </g>
</svg>