<?xml version="1.0" encoding="UTF-8"?>
<svg width="32px" height="32px" viewBox="0 0 32 32" version="1.1" xmlns="http://www.w3.org/2000/svg" xmlns:xlink="http://www.w3.org/1999/xlink">
    <!-- Generator: Sketch 57.1 (83088) - https://sketch.com -->
    <title>cusdt</title>
    <desc>Created with Sketch.</desc>
    <defs>
        <linearGradient x1="45.9572879%" y1="5.53940196%" x2="58.7785804%" y2="92.464467%" id="linearGradient-1">
            <stop stop-color="#27D3A2" offset="0%"></stop>
            <stop stop-color="#9388FD" offset="100%"></stop>
        </linearGradient>
    </defs>
    <g id="cusdt" stroke="none" stroke-width="1" fill="none" fill-rule="evenodd">
        <circle id="Oval" fill="#D8D8D8" cx="16" cy="16" r="16"></circle>
        <g>
            <g id="Group" fill-rule="nonzero">
                <circle id="Oval" fill="#EDF0F2" cx="15.9501946" cy="15.9626459" r="15.9252918"></circle>
                <path d="M26.0607004,28.2521401 C23.6326848,30.2568093 20.6568093,31.4894942 17.5190661,31.7883268 C13.3229572,32.1992218 9.12684825,30.9291829 5.85214008,28.2521401 C2.58988327,25.5750973 0.522957198,21.7151751 0.0996108949,17.5066148 C-0.211673152,14.3688716 0.410894942,11.218677 1.892607,8.44202335 C3.37431907,5.66536965 5.65291829,3.38677043 8.42957198,1.90505837 C11.2062257,0.423346304 14.3564202,-0.211673152 17.4941634,0.0996108949 C20.6319066,0.410894942 23.5953307,1.6311284 26.0357977,3.63579767 L22.8233463,7.55797665 C21.1673152,6.20077821 19.1377432,5.3540856 16.9961089,5.15486381 C14.8544747,4.94319066 12.7128405,5.37898833 10.8202335,6.38754864 C8.92762646,7.39610895 7.38365759,8.95252918 6.36264591,10.8451362 C5.3540856,12.7377432 4.9307393,14.8918288 5.14241245,17.0210117 C5.42879377,19.8848249 6.83579767,22.5245136 9.06459144,24.3424125 C11.2933852,26.1727626 14.1571984,27.0319066 17.0210117,26.7455253 C19.1626459,26.5338521 21.1797665,25.6871595 22.8357977,24.3299611 L26.0607004,28.2521401 Z" id="Path" fill="url(#linearGradient-1)"></path>
                <path d="M16,28.9992218 C23.1844358,28.9992218 28.9992218,23.1719844 28.9992218,16 C28.9992218,8.8155642 23.1844358,2.98832685 16,2.98832685 C8.8155642,2.98832685 2.98832685,8.8155642 2.98832685,16 C2.98832685,23.1844358 8.8155642,28.9992218 16,28.9992218 Z" id="Path" fill="#FFFFFF"></path>
            </g>
            <path d="M17.209826,16.9021372 L17.209826,16.9021372 C17.136131,16.9021372 16.7922211,16.9268841 16.0061412,16.9268841 C15.3797339,16.9268841 14.937564,16.9021372 14.7778915,16.9021372 L14.7778915,16.9021372 C12.3582395,16.7907762 10.5649949,16.3824522 10.5649949,15.8751406 C10.5649949,15.367829 12.370522,14.9595051 14.7778915,14.848144 L14.7778915,16.4938133 C14.937564,16.5061867 15.3920164,16.5309336 16.0184237,16.5309336 C16.7676561,16.5309336 17.1484135,16.4938133 17.209826,16.4938133 L17.209826,14.8605174 C19.6171955,14.9718785 21.4227226,15.3802025 21.4227226,15.8875141 C21.4227226,16.3824522 19.629478,16.8031496 17.209826,16.9021372 L17.209826,16.9021372 L17.209826,16.9021372 Z M17.209826,14.6872891 L17.209826,13.2272216 L20.5752303,13.2272216 L20.5752303,11 L11.4247697,11 L11.4247697,13.2272216 L14.790174,13.2272216 L14.790174,14.6872891 C12.0511771,14.8110236 10,15.3554556 10,15.9988751 C10,16.6422947 12.0511771,17.1867267 14.790174,17.3104612 L14.790174,22 L17.2221085,22 L17.2221085,17.3104612 C19.9488229,17.1867267 22,16.6422947 22,15.9988751 C22,15.3554556 19.9488229,14.8110236 17.209826,14.6872891 L17.209826,14.6872891 L17.209826,14.6872891 Z" id="Shape" fill="#283947"></path>
        </g>
    </g>
</svg>