<?xml version="1.0" encoding="UTF-8"?>
<svg width="32px" height="32px" viewBox="0 0 32 32" version="1.1" xmlns="http://www.w3.org/2000/svg" xmlns:xlink="http://www.w3.org/1999/xlink">
    <!-- Generator: Sketch 57.1 (83088) - https://sketch.com -->
    <title>dai</title>
    <desc>Created with Sketch.</desc>
    <g id="dai" stroke="none" stroke-width="1" fill="none" fill-rule="evenodd">
        <circle id="Oval" fill="#FFA408" fill-rule="nonzero" cx="16" cy="16" r="16"></circle>
        <g transform="translate(8.000000, 9.000000)" fill="#FFFFFF" id="Fill-4">
            <path d="M2.15099987,14.9885969 L2.15099987,14.938282 L2.15099987,12.9738403 L2.15099987,12.3080102 L2.15099987,10.3267069 C2.15099987,10.2169043 2.15099987,10.2004474 2.01346474,10.2004474 L0.146070844,10.2004474 C0.0426785688,10.2004474 0,10.2004474 0,10.0656896 L0,8.46370451 L1.99611797,8.46370451 C2.10763294,8.46370451 2.15099987,8.46370451 2.15099987,8.32044852 L2.15099987,6.73545986 C2.15099987,6.63415548 2.15099987,6.60933523 2.01346474,6.60933523 L0.146070844,6.60933523 C0.0426785688,6.60933523 0,6.60933523 0,6.47457748 L0,4.9910281 C0,4.89808706 0,4.87326681 0.137397457,4.87326681 L1.98744458,4.87326681 C2.11630632,4.87326681 2.15099987,4.87326681 2.15099987,4.71287945 L2.15099987,0.168885599 C2.15099987,0.0341278408 2.15099987,0 2.32322855,0 L8.77622816,0 C9.24459103,0.0183454006 9.70978743,0.0686603595 10.1701653,0.151754233 C11.1187309,0.32360747 12.0301248,0.655578285 12.8633207,1.12972595 C13.4159393,1.4483424 13.9246403,1.83332602 14.3774461,2.27644838 C14.7181863,2.6229876 15.025472,2.99812407 15.2980642,3.39754121 C15.5688666,3.80235405 15.7936863,4.23522457 15.9703205,4.68751963 C15.9919351,4.80528092 16.1071672,4.88473269 16.2273556,4.86463368 L17.7676389,4.86463368 C17.9651994,4.86463368 17.9651994,4.86463368 17.9738728,5.05038086 L17.9738728,6.43330032 C17.9738728,6.56805808 17.9225208,6.60205103 17.7842973,6.60205103 L16.596594,6.60205103 C16.4764057,6.60205103 16.4417121,6.60205103 16.4503855,6.75380526 C16.4974696,7.26734159 16.4974696,7.78263151 16.4503855,8.29630273 C16.4503855,8.43942383 16.4503855,8.45642031 16.6146292,8.45642031 L17.9733221,8.45642031 C18.0333474,8.53236487 17.9733221,8.60817454 17.9733221,8.68479357 C17.9818578,8.78245585 17.9818578,8.88146705 17.9733221,8.97912933 L17.9733221,9.99959224 C17.9733221,10.1427133 17.9305058,10.1853394 17.8009557,10.1853394 L16.1746269,10.1853394 C16.0613222,10.1640264 15.9510463,10.2351148 15.9250261,10.345457 C15.5377525,11.331927 14.9182249,12.2162832 14.1179329,12.9254138 C13.8255159,13.1833286 13.5180925,13.4261354 13.1971772,13.6501921 C12.8527198,13.8444375 12.5176242,14.0466416 12.1643558,14.2067591 C11.5146779,14.4932711 10.8330598,14.7046479 10.1335443,14.8387312 C9.46941072,14.9552785 8.79619071,15.0081564 8.12007958,14.9989837 L2.14838409,14.9989837 L2.14838409,14.9904854 L2.15099987,14.9885969 Z M14.0342278,10.2082712 C13.8880193,10.1924887 13.7405718,10.1924887 13.5943632,10.2082712 L4.05239895,10.2082712 C3.92339953,10.2082712 3.88017027,10.2082712 3.88017027,10.3770219 L3.88017027,13.3029784 C3.88017027,13.4377361 3.88017027,13.4717291 4.05239895,13.4717291 L8.45792864,13.4717291 C8.66843035,13.4875115 8.87906974,13.4729431 9.08544127,13.4297775 C9.72479377,13.3848582 10.3535455,13.2490213 10.9533859,13.0248297 C11.1714596,12.9509086 11.382099,12.8543254 11.5808985,12.7383177 L11.6410615,12.7383177 C12.6737452,12.2121015 13.5125856,11.3853444 14.0416622,10.3704121 C14.0416622,10.3704121 14.1018252,10.2429386 14.0342278,10.2094852 L14.0342278,10.2082712 Z M14.0342278,4.84642317 C14.0490965,4.80824855 14.0490965,4.76643183 14.0342278,4.72866189 C13.9469433,4.54237514 13.8434133,4.36445173 13.723225,4.19758952 C13.5423229,3.91229156 13.3292054,3.64938579 13.0863506,3.41332365 C12.9718068,3.27074212 12.8392279,3.1425941 12.6905413,3.03387062 C11.9458691,2.41282485 11.0604953,1.97347949 10.1089009,1.75252533 C9.62869815,1.64690438 9.13803228,1.59658942 8.64612736,1.60077109 L4.02569042,1.60077109 C3.89682868,1.60077109 3.87948191,1.65108605 3.87948191,1.76088867 L3.87948191,4.75361703 C3.87948191,4.88001144 3.87948191,4.9138695 4.0430372,4.9138695 L13.9722751,4.9138695 C13.9722751,4.9138695 14.0583206,4.89687303 14.0756674,4.84642317 L14.0336771,4.84642317 L14.0342278,4.84642317 Z M9.21499138,8.4546667 L14.4462825,8.4546667 C14.5576598,8.4546667 14.6103885,8.4546667 14.6185112,8.31141071 C14.6611898,7.79005061 14.6611898,7.26545309 14.6185112,6.74341853 C14.6185112,6.64211415 14.5671593,6.60016253 14.4548183,6.60016253 L4.04358789,6.60016253 C3.91486382,6.60016253 3.88017027,6.64211415 3.88017027,6.760415 L3.88017027,8.26096086 C3.88017027,8.4546667 3.88017027,8.4546667 4.08640413,8.4546667 L9.21499138,8.4546667 Z"></path>
        </g>
    </g>
</svg>