<?xml version="1.0" encoding="UTF-8"?>
<svg width="32px" height="32px" viewBox="0 0 32 32" version="1.1" xmlns="http://www.w3.org/2000/svg" xmlns:xlink="http://www.w3.org/1999/xlink">
    <!-- Generator: Sketch 57.1 (83088) - https://sketch.com -->
    <title>dent</title>
    <desc>Created with Sketch.</desc>
    <g id="dent" stroke="none" stroke-width="1" fill="none" fill-rule="evenodd">
        <circle id="Oval" fill="#666666" fill-rule="nonzero" cx="16" cy="16" r="16"></circle>
        <g transform="translate(6.000000, 6.000000)" fill="#FFFFFF" fill-rule="nonzero" id="Shape">
            <path d="M19.129046,14.6818182 C18.7223551,15.3311282 17.8483156,15.5510954 17.1603579,15.1772727 L12.6196434,12.7136364 L12.6196434,11.15 L14.0619545,10.3681818 L18.6017188,12.8309091 C19.2915197,13.2045455 19.5271542,14.0336364 19.129046,14.6809091 L19.129046,14.6818182 Z M11.9412442,18.0081818 C11.9412442,18.7563636 11.2960997,19.3627273 10.4998832,19.3627273 C9.70366673,19.3627273 9.05852232,18.7563636 9.05852232,18.0081818 L9.05852232,13.0818182 L10.4998832,12.3 L11.9412442,13.0818182 L11.9412442,18.0081818 Z M3.8394086,15.1772727 C3.15120559,15.5509368 2.27709378,15.3305477 1.87072052,14.6809091 C1.68018656,14.3695656 1.62872117,13.9979255 1.7279375,13.6498489 C1.82715382,13.3017724 2.06869148,13.0065899 2.39804769,12.8309091 L6.937812,10.3672727 L8.38012305,11.15 L8.38012305,12.7136364 L3.8394086,15.1772727 Z M2.39804769,7.16909091 C2.06869148,6.99341009 1.82715382,6.69822757 1.7279375,6.35015106 C1.62872117,6.00207455 1.68018656,5.63043439 1.87072052,5.31909091 C2.27709378,4.66945229 3.15120559,4.44906323 3.8394086,4.82272727 L8.38012305,7.28636364 L8.38012305,8.85 L6.937812,9.63181818 L2.39804769,7.16909091 Z M9.05852232,1.99181818 C9.05852232,1.24363636 9.70461687,0.637272727 10.4998832,0.637272727 C11.2960997,0.637272727 11.9412442,1.24363636 11.9412442,1.99181818 L11.9412442,6.91727273 L10.4998832,7.7 L9.05852232,6.91818182 L9.05852232,1.99181818 Z M12.6196434,9.58636364 L13.3835552,10 L12.6196434,10.4136364 L12.6196434,9.58636364 Z M11.1782825,8.06818182 L11.9412442,7.65363636 L11.9412442,8.48181818 L11.1782825,8.06818182 Z M9.05852232,8.48181818 L9.05852232,7.65454545 L9.82148397,8.06818182 L9.05852232,8.48181818 Z M8.38012305,10.4136364 L7.61621127,10 L8.38012305,9.58636364 L8.38012305,10.4136364 Z M9.82148397,11.9318182 L9.05852232,12.3463636 L9.05852232,11.5181818 L9.82148397,11.9318182 Z M11.9412442,11.5181818 L11.9412442,12.3454545 L11.1782825,11.9318182 L11.9412442,11.5181818 Z M10.4998832,11.5636364 L9.05852232,10.7818182 L9.05852232,9.21818182 L10.4998832,8.43636364 L11.9412442,9.21818182 L11.9412442,10.7818182 L10.4998832,11.5636364 Z M17.1603579,4.82272727 C17.8485609,4.44906323 18.7226727,4.66945229 19.129046,5.31909091 C19.5281043,5.96636364 19.2905696,6.79545455 18.6017188,7.16909091 L14.0619545,9.63272727 L12.6196434,8.85 L12.6196434,7.28636364 L17.1603579,4.82272727 Z M18.9409184,12.2790909 L14.7403538,10 L18.9409184,7.72090909 C19.4256076,7.46278989 19.7811471,7.02869431 19.9272216,6.51668336 C20.0732961,6.00467241 19.9975817,5.45794307 19.717182,5 C19.1318964,4.04727273 17.8349566,3.72090909 16.8211582,4.27090909 L12.6196434,6.55 L12.6196434,1.99090909 C12.6196434,0.891818182 11.6704545,0 10.4998832,0 C9.32931195,0 8.38012305,0.891818182 8.38012305,1.99181818 L8.38012305,6.55 L4.17860824,4.27090909 C3.16480989,3.72090909 1.86787011,4.04727273 1.2835346,5 C1.00313492,5.45794307 0.927420486,6.00467241 1.07349499,6.51668336 C1.2195695,7.02869431 1.57510904,7.46278989 2.05979819,7.72090909 L6.25941273,10 L2.05979819,12.2790909 C1.5749475,12.5370545 1.21920452,12.9710816 1.07294727,13.4831064 C0.926690017,13.9951312 1.00226066,14.5419455 1.28258446,15 C1.86787011,15.9527273 3.16480989,16.2790909 4.17860824,15.7290909 L8.38012305,13.45 L8.38012305,18.0081818 C8.38012305,19.1081818 9.32931195,20 10.4998832,20 C11.6704545,20 12.6196434,19.1081818 12.6196434,18.0081818 L12.6196434,13.45 L16.8211582,15.7290909 C17.8349566,16.2790909 19.1318964,15.9527273 19.717182,15 C19.9975817,14.5420569 20.0732961,13.9953276 19.9272216,13.4833166 C19.7811471,12.9713057 19.4256076,12.5372101 18.9409184,12.2790909 L18.9409184,12.2790909 Z"></path>
        </g>
    </g>
</svg>