<?xml version="1.0" encoding="UTF-8"?>
<svg width="32px" height="32px" viewBox="0 0 32 32" version="1.1" xmlns="http://www.w3.org/2000/svg" xmlns:xlink="http://www.w3.org/1999/xlink">
    <!-- Generator: Sketch 57.1 (83088) - https://sketch.com -->
    <title>enj</title>
    <desc>Created with Sketch.</desc>
    <g id="enj" stroke="none" stroke-width="1" fill="none" fill-rule="evenodd">
        <circle id="Oval" fill="#7866D5" fill-rule="nonzero" cx="16" cy="16" r="16"></circle>
        <g transform="translate(7.000000, 9.000000)" fill="#FFFFFF" fill-rule="nonzero" id="Group">
            <g>
                <path d="M14.1849462,0.442105263 C14.6236559,0.497368421 15.0806452,0.534210526 15.5193548,0.607894737 C16.3784946,0.773684211 16.6709677,1.21578947 16.5247312,2.1 C16.488172,2.43157895 16.2322581,2.68947368 15.9032258,2.74473684 C15.7021505,2.78157895 15.4827957,2.8 15.2817204,2.78157895 C12.4301075,2.78157895 9.59677419,2.8 6.74516129,2.8 C6.32473118,2.8 5.88602151,2.83684211 5.4655914,2.91052632 C4.05806452,3.13157895 3.50967742,3.72105263 3.4,5.15789474 C3.34516129,5.82105263 3.34516129,5.82105263 4.02150538,5.82105263 L15.3548387,5.82105263 C15.4645161,5.82105263 15.5741935,5.82105263 15.683871,5.82105263 C15.8666667,5.82105263 16.0311828,5.87631579 16.1956989,5.96842105 C16.7075269,6.3 16.5795699,6.83421053 16.5612903,7.31315789 C16.5430108,7.7 16.3053763,7.92105263 15.9032258,7.99473684 C15.7387097,8.03157895 15.5741935,8.03157895 15.3913978,8.03157895 C11.516129,8.03157895 7.64086022,8.03157895 3.7655914,8.03157895 C3.34516129,8.03157895 3.34516129,8.03157895 3.38172043,8.45526316 C3.4,8.84210526 3.43655914,9.22894737 3.52795699,9.61578947 C3.71075269,10.3157895 4.1311828,10.7578947 4.84408602,10.9605263 C5.61182796,11.1815789 6.41612903,11.2184211 7.20215054,11.2368421 C9.96236559,11.2368421 12.7408602,11.2368421 15.5193548,11.2368421 C15.8666667,11.2368421 16.1956989,11.2736842 16.4150538,11.6052632 C16.7623656,12.1578947 16.5795699,12.8763158 16.0311828,13.2263158 C15.9580645,13.2815789 15.8849462,13.3184211 15.7935484,13.3368421 C15.1903226,13.5394737 14.5688172,13.5763158 13.9290323,13.5947368 C11.3150538,13.65 8.71935484,13.65 6.12365591,13.5947368 C5.31935484,13.5763158 4.51505376,13.4842105 3.72903226,13.3184211 C1.8827957,12.9315789 0.950537634,11.9736842 0.639784946,10.0947368 C0.566666667,9.67105263 0.530107527,9.22894737 0.475268817,8.78684211 L0.475268817,5.36052632 C0.511827957,5.02894737 0.548387097,4.67894737 0.584946237,4.34736842 C0.822580645,2.22894737 1.77311828,1.17894737 3.83870968,0.7 C4.56989247,0.534210526 5.33763441,0.497368421 6.0688172,0.423684211 L14.1849462,0.442105263 Z" id="Path"></path>
                <path d="M10.0172043,13.9631579 C8.70107527,13.9631579 7.40322581,13.9447368 6.10537634,13.9263158 C5.2827957,13.9078947 4.46021505,13.8157895 3.65591398,13.6315789 C1.66344086,13.2078947 0.639784946,12.1394737 0.310752688,10.15 C0.255913978,9.83684211 0.219354839,9.52368421 0.201075269,9.22894737 C0.182795699,9.1 0.164516129,8.97105263 0.146236559,8.82368421 L0.146236559,8.78684211 L0.146236559,5.32368421 L0.182795699,4.99210526 C0.201075269,4.75263158 0.237634409,4.53157895 0.255913978,4.31052632 C0.511827957,2.04473684 1.57204301,0.884210526 3.78387097,0.386842105 C4.3688172,0.257894737 4.93548387,0.202631579 5.50215054,0.147368421 C5.68494624,0.128947368 5.86774194,0.110526316 6.05053763,0.0921052632 L6.08709677,0.0921052632 L14.2215054,0.0921052632 L14.2397849,0.0921052632 C14.3677419,0.110526316 14.5139785,0.128947368 14.6419355,0.128947368 C14.9526882,0.165789474 15.2634409,0.184210526 15.5924731,0.257894737 C16.6344086,0.460526316 17.0365591,1.05 16.8537634,2.11842105 C16.7989247,2.57894737 16.4333333,2.96578947 15.9397849,3.03947368 C15.7204301,3.07631579 15.5010753,3.09473684 15.2634409,3.09473684 C12.4301075,3.11315789 9.57849462,3.13157895 6.74516129,3.13157895 C6.34301075,3.13157895 5.92258065,3.16842105 5.52043011,3.24210526 C4.25913978,3.44473684 3.83870968,3.90526316 3.72903226,5.19473684 C3.72903226,5.30526316 3.71075269,5.41578947 3.71075269,5.50789474 C3.78387097,5.50789474 3.91182796,5.50789474 4.02150538,5.50789474 L15.683871,5.50789474 L15.683871,5.50789474 C15.9215054,5.50789474 16.1591398,5.58157895 16.3602151,5.69210526 C16.9817204,6.09736842 16.9268817,6.70526316 16.8903226,7.14736842 C16.8903226,7.20263158 16.872043,7.27631579 16.872043,7.33157895 C16.8354839,7.84736842 16.5247312,8.19736842 15.9580645,8.30789474 C15.7569892,8.34473684 15.5741935,8.34473684 15.3913978,8.34473684 L3.78387097,8.34473684 C3.7655914,8.34473684 3.72903226,8.34473684 3.71075269,8.34473684 C3.71075269,8.36315789 3.71075269,8.38157895 3.71075269,8.4 L3.71075269,8.41842105 C3.72903226,8.80526316 3.7655914,9.17368421 3.85698925,9.54210526 C4.00322581,10.1131579 4.35053763,10.4631579 4.93548387,10.6289474 C5.72150538,10.85 6.52580645,10.8868421 7.22043011,10.8868421 C9.37741935,10.9052632 11.5709677,10.9052632 13.7096774,10.9052632 L15.5376344,10.9052632 C15.811828,10.9052632 16.3784946,10.9052632 16.7075269,11.4394737 C16.9268817,11.7894737 16.9817204,12.1947368 16.8903226,12.5815789 C16.7989247,12.9684211 16.5612903,13.3 16.2139785,13.5210526 C16.1225806,13.5763158 16.0129032,13.6315789 15.9032258,13.6684211 C15.2268817,13.8894737 14.5322581,13.9263158 13.9473118,13.9447368 C12.6494624,13.9447368 11.3333333,13.9631579 10.0172043,13.9631579 Z M0.804301075,8.76842105 C0.822580645,8.89736842 0.840860215,9.02631579 0.840860215,9.15526316 C0.877419355,9.45 0.913978495,9.74473684 0.950537634,10.0394737 C1.24301075,11.7710526 2.0655914,12.6184211 3.78387097,12.9868421 C4.5516129,13.1526316 5.33763441,13.2447368 6.12365591,13.2631579 C8.70107527,13.3184211 11.3333333,13.3184211 13.9290323,13.2631579 C14.4591398,13.2447368 15.0989247,13.2078947 15.683871,13.0236842 C15.7387097,13.0052632 15.7935484,12.9684211 15.8483871,12.95 C16.0311828,12.8210526 16.1774194,12.6368421 16.2322581,12.4157895 C16.2870968,12.1947368 16.2505376,11.9736842 16.1225806,11.7710526 C16.0129032,11.6052632 15.8666667,11.55 15.5193548,11.55 L13.6913978,11.55 C11.5709677,11.55 9.35913978,11.55 7.20215054,11.5315789 C6.47096774,11.5315789 5.61182796,11.4947368 4.75268817,11.2368421 C3.93010753,11.0157895 3.41827957,10.4815789 3.2172043,9.65263158 C3.12580645,9.24736842 3.07096774,8.82368421 3.07096774,8.41842105 L3.07096774,8.4 C3.05268817,8.14210526 3.0344086,7.95789474 3.18064516,7.79210526 C3.32688172,7.62631579 3.52795699,7.62631579 3.78387097,7.62631579 L15.4096774,7.62631579 C15.555914,7.62631579 15.7204301,7.62631579 15.8666667,7.58947368 C16.1591398,7.53421053 16.2322581,7.40526316 16.2505376,7.22105263 C16.2505376,7.14736842 16.2688172,7.09210526 16.2688172,7.01842105 C16.3053763,6.55789474 16.3053763,6.33684211 16.0494624,6.17105263 C15.9580645,6.11578947 15.8301075,6.07894737 15.7204301,6.07894737 L15.7204301,6.07894737 L4.02150538,6.07894737 C3.61935484,6.07894737 3.38172043,6.07894737 3.19892473,5.89473684 C3.01612903,5.71052632 3.05268817,5.45263158 3.07096774,5.06578947 C3.19892473,3.48157895 3.85698925,2.76315789 5.41075269,2.52368421 C5.84946237,2.45 6.28817204,2.41315789 6.74516129,2.39473684 C9.59677419,2.39473684 12.4301075,2.37631579 15.2817204,2.37631579 C15.4827957,2.37631579 15.6655914,2.37631579 15.8483871,2.33947368 C16.0311828,2.32105263 16.1774194,2.17368421 16.1956989,1.98947368 C16.3236559,1.25263158 16.1408602,1.01315789 15.4462366,0.865789474 C15.1537634,0.810526316 14.8612903,0.773684211 14.5688172,0.755263158 C14.4408602,0.736842105 14.2946237,0.718421053 14.1666667,0.718421053 L6.08709677,0.718421053 C5.90430108,0.736842105 5.72150538,0.755263158 5.53870968,0.773684211 C4.97204301,0.828947368 4.44193548,0.865789474 3.89354839,0.994736842 C1.97419355,1.47368421 1.13333333,2.41315789 0.913978495,4.40263158 C0.895698925,4.62368421 0.859139785,4.84473684 0.840860215,5.08421053 L0.804301075,5.39736842 L0.804301075,8.76842105 L0.804301075,8.76842105 Z" id="Shape"></path>
            </g>
        </g>
    </g>
</svg>