<?xml version="1.0" encoding="UTF-8"?>
<svg width="32px" height="32px" viewBox="0 0 32 32" version="1.1" xmlns="http://www.w3.org/2000/svg" xmlns:xlink="http://www.w3.org/1999/xlink">
    <!-- Generator: Sketch 57.1 (83088) - https://sketch.com -->
    <title>eth</title>
    <desc>Created with Sketch.</desc>
    <g id="eth" stroke="none" stroke-width="1" fill="none" fill-rule="evenodd">
        <circle id="Oval" fill="#5B72CF" fill-rule="nonzero" cx="16" cy="16" r="16"></circle>
        <g transform="translate(10.000000, 5.000000)" fill="#FFFFFF" id="ic/coin/eth">
            <g>
                <polygon id="Fill-4" fill-opacity="0.9" points="6.5 0 6.5 0.482862163 6.5 14.0521471 6.5 14.6363636 13 10.7917391 12.9340757 10.6822872"></polygon>
                <polygon id="Fill-6" fill-opacity="0.7" points="6.5 0 0 10.7917391 6.5 14.6363636 6.5 7.83543136"></polygon>
                <path d="M6.78157558,16.1198349 C6.74940463,16.1374377 6.6555461,16.1921062 6.5,16.2838403 L6.5,20.7889644 L6.57907094,21 L13,12.7272727 C8.88655468,14.971378 6.81374654,16.1022321 6.78157558,16.1198349 Z" id="Fill-8" fill-opacity="0.9"></path>
                <polygon id="Fill-10" fill-opacity="0.6" points="6.5 21 6.5 16.2838403 0 12.7272727"></polygon>
                <polygon id="Fill-12" points="6.5 14.6363636 13 10.7917391 6.5 7.63636364"></polygon>
                <polygon id="Fill-14" fill-opacity="0.7" points="0 10.8181818 6.5 14.6363636 6.5 7.63636364"></polygon>
            </g>
        </g>
    </g>
</svg>