<?xml version="1.0" encoding="UTF-8"?>
<svg width="32px" height="32px" viewBox="0 0 32 32" version="1.1" xmlns="http://www.w3.org/2000/svg" xmlns:xlink="http://www.w3.org/1999/xlink">
    <!-- Generator: Sketch 57.1 (83088) - https://sketch.com -->
    <title>fei</title>
    <desc>Created with Sketch.</desc>
    <g id="fei" stroke="none" stroke-width="1" fill="none" fill-rule="evenodd">
        <circle id="Oval" fill="#259F74" fill-rule="nonzero" cx="16" cy="16" r="16"></circle>
        <g transform="translate(5.000000, 5.000000)" fill="#FFFFFF" id="Triangle">
            <path d="M11.836194,1.74736596 L13.1238619,3.883792 C13.4089557,4.35680359 13.2566182,4.97136944 12.7836066,5.25646325 C12.6277969,5.350373 12.4493209,5.4 12.2673986,5.4 L9.62922386,5.4 C9.07693911,5.4 8.62922386,4.95228475 8.62922386,4.4 C8.62922386,4.21084183 8.68287419,4.02556293 8.78394673,3.86567185 L10.1344536,1.72924581 C10.4295549,1.26241214 11.0472252,1.12319554 11.5140589,1.41829683 C11.6455749,1.50143252 11.7558776,1.61410952 11.836194,1.74736596 Z"></path>
            <path d="M7.98818922,7.79396484 L13.9870816,7.79396484 C14.6600531,7.79396484 15.2879056,8.13241509 15.6578271,8.69459712 L19.5045783,14.5406323 C20.1117424,15.4633595 19.8559278,16.7035815 18.9332005,17.3107455 C18.6067772,17.5255354 18.2245845,17.64 17.8338328,17.64 L4.13431577,17.64 C3.02974627,17.64 2.13431577,16.7445695 2.13431577,15.64 C2.13431577,15.2486696 2.24911932,14.8659368 2.464505,14.539213 L6.31837845,8.69317786 C6.68844593,8.13181341 7.31582028,7.79396484 7.98818922,7.79396484 Z"></path>
        </g>
    </g>
</svg>