<?xml version="1.0" encoding="UTF-8"?>
<svg width="32px" height="32px" viewBox="0 0 32 32" version="1.1" xmlns="http://www.w3.org/2000/svg" xmlns:xlink="http://www.w3.org/1999/xlink">
    <!-- Generator: Sketch 57.1 (83088) - https://sketch.com -->
    <title>grt</title>
    <desc>Created with Sketch.</desc>
    <g id="grt" stroke="none" stroke-width="1" fill="none" fill-rule="evenodd">
        <circle id="Oval" fill="#6747ED" fill-rule="nonzero" cx="16" cy="16" r="16"></circle>
        <g transform="translate(8.000000, 7.000000)" fill="#FFFFFF" id="Symbols">
            <g transform="translate(1.000000, 0.000000)">
                <g id="Group">
                    <path d="M6.43333333,10.5482759 C4.06666667,10.5482759 2.16666667,8.68103448 2.16666667,6.35517241 C2.16666667,4.02931034 4.06666667,2.16206897 6.43333333,2.16206897 C8.8,2.16206897 10.7,4.02931034 10.7,6.35517241 C10.7,8.68103448 8.8,10.5482759 6.43333333,10.5482759 L6.43333333,10.5482759 Z M6.43333333,0.0655172414 C9.96666667,0.0655172414 12.8333333,2.88275862 12.8333333,6.35517241 C12.8333333,9.82758621 9.96666667,12.6448276 6.43333333,12.6448276 C2.9,12.6448276 0.0333333333,9.82758621 0.0333333333,6.35517241 C0.0333333333,2.88275862 2.9,0.0655172414 6.43333333,0.0655172414 Z M12.5333333,12.9724138 C12.9666667,13.3982759 12.9666667,14.0534483 12.5333333,14.4465517 L8.26666667,18.6396552 C7.83333333,19.0655172 7.16666667,19.0655172 6.76666667,18.6396552 C6.33333333,18.2137931 6.33333333,17.5586207 6.76666667,17.1655172 L11.0333333,12.9724138 C11.4333333,12.5465517 12.1333333,12.5465517 12.5333333,12.9724138 Z M15,1.1137931 C15,1.70344828 14.5333333,2.16206897 13.9333333,2.16206897 C13.3333333,2.16206897 12.8666667,1.70344828 12.8666667,1.1137931 C12.8666667,0.524137931 13.3333333,0.0655172414 13.9333333,0.0655172414 C14.5,0.0655172414 15,0.524137931 15,1.1137931 Z" id="Fill-19"></path>
                </g>
            </g>
        </g>
    </g>
</svg>