<?xml version="1.0" encoding="UTF-8"?>
<svg width="32px" height="32px" viewBox="0 0 32 32" version="1.1" xmlns="http://www.w3.org/2000/svg" xmlns:xlink="http://www.w3.org/1999/xlink">
    <!-- Generator: Sketch 57.1 (83088) - https://sketch.com -->
    <title>hakka</title>
    <desc>Created with Sketch.</desc>
    <g id="hakka" stroke="none" stroke-width="1" fill="none" fill-rule="evenodd">
        <circle id="Oval" fill="#269F74" fill-rule="nonzero" cx="16" cy="16" r="16"></circle>
        <g transform="translate(6.000000, 6.000000)" fill="#FFFFFF" id="Shape">
            <path d="M19.9090909,7.30593607 C19.9090909,7.30593607 19.9090909,7.39726027 19.8181818,7.39726027 C19.6363636,8.12785388 17.5454545,12.1461187 16.8181818,12.8767123 L16.7272727,12.9680365 L16,13.6986301 L20,15.6164384 L20,15.6164384 C17.7272727,18.2648402 14.1818182,20 10.0909091,20 C6,20 2.45454545,18.2648402 0.181818182,15.6164384 L0,15.43379 L3.81818182,13.6986301 L3.45454545,13.3333333 L3,12.9680365 C2.45454545,12.5114155 0.454545455,8.58447489 0.181818182,7.57990868 C0.181818182,7.57990868 0.0909090909,7.48858447 0.0909090909,7.48858447 C1.27272727,8.31050228 4.54545455,9.13242009 8.45454545,9.31506849 L8.81818182,9.31506849 L9.18181818,9.31506849 L9.81818182,9.31506849 L10.4545455,9.31506849 L10.7272727,9.31506849 L11.0909091,9.31506849 C15,9.13242009 18.0909091,8.40182648 19.4545455,7.57990868 L19.5454545,7.48858447 L19.9090909,7.30593607 L19.9090909,7.30593607 L19.9090909,7.30593607 Z M4.54545455,10.0456621 L4.81818182,10.9589041 C5,11.5068493 5.18181818,12.0547945 5.36363636,12.5114155 L5.54545455,12.8767123 L6,13.6986301 C6.09090909,13.7899543 6.09090909,13.8812785 6.18181818,13.9726027 L6.27272727,14.0639269 L6.63636364,14.3378995 C7.27272727,14.7031963 7.90909091,15.0684932 8.72727273,15.2511416 L9,15.3424658 L9.81818182,15.5251142 L10,15.5251142 L10.0909091,15.5251142 L10.2727273,15.5251142 L11.0909091,15.3424658 C11.9090909,15.1598174 12.5454545,14.8858447 13.1818182,14.5205479 L13.4545455,14.3378995 L13.8181818,14.0639269 C13.9090909,13.9726027 14,13.8812785 14,13.7899543 L14.0909091,13.6986301 L14.5454545,12.8767123 C14.8181818,12.3287671 15,11.8721461 15.1818182,11.3242009 L15.2727273,10.8675799 L15.4545455,10.0456621 C14.9090909,11.0502283 13.9090909,11.6894977 12.7272727,11.8721461 L12.5454545,11.8721461 L12.3636364,11.8721461 C11.4545455,11.7808219 10.6363636,11.2328767 10.1818182,10.5022831 L10.0909091,10.3196347 L10,10.3196347 L9.90909091,10.5022831 C9.45454545,11.2328767 8.63636364,11.6894977 7.72727273,11.8721461 L7.54545455,11.8721461 L7.36363636,11.8721461 L7.18181818,11.8721461 C6,11.7808219 5,11.0502283 4.54545455,10.0456621 Z M10,0 C10.7272727,0 11.7272727,0.547945205 13.1818182,1.73515982 L13.3636364,1.91780822 L14,2.46575342 L15.7272727,3.92694064 L16.9090909,4.29223744 C17.0909091,4.38356164 17.2727273,4.38356164 17.4545455,4.47488584 L17.8181818,4.56621005 L18.0909091,4.56621005 L18.4545455,4.65753425 L18.6363636,4.74885845 L18.8181818,4.84018265 C19.6363636,5.11415525 20,5.47945205 20,5.93607306 L20,6.02739726 L20,6.11872146 L19.9090909,6.21004566 L19.8181818,6.30136986 C18.5454545,7.21461187 15.2727273,8.03652968 11.2727273,8.21917808 L10.9090909,8.21917808 L10.6363636,8.21917808 L10,8.21917808 L9.36363636,8.21917808 L8.90909091,8.21917808 C4.72727273,8.03652968 1.36363636,7.21461187 0.0909090909,6.30136986 C0,6.21004566 0,6.02739726 0,5.93607306 C0,5.38812785 0.454545455,5.02283105 1.36363636,4.65753425 C1.18181818,4.47488584 1.18181818,4.38356164 1,4.20091324 C1.27272727,3.92694064 1.72727273,3.65296804 2.09090909,3.56164384 C2.81818182,3.47031963 3.27272727,3.65296804 3.72727273,3.74429224 C3.36363636,3.56164384 2.63636364,2.83105023 2.45454545,2.55707763 C2.09090909,1.82648402 2.36363636,1.27853881 2.54545455,1.00456621 L2.54545455,0.913242009 L2.63636364,0.821917808 L2.72727273,0.730593607 L2.81818182,0.730593607 C3,0.730593607 3.72727273,0.730593607 4,1.00456621 C4.54545455,1.82648402 4.45454545,2.73972603 4.72727273,3.19634703 C4.90909091,2.73972603 4.81818182,2.28310502 5.18181818,1.73515982 C5.45454545,1.09589041 6.54545455,0.365296804 7.36363636,0.547945205 C7.36363636,0.821917808 7.54545455,1.00456621 7.45454545,1.36986301 C8.54545455,0.456621005 9.36363636,0 10,0 Z"></path>
        </g>
    </g>
</svg>