<?xml version="1.0" encoding="UTF-8"?>
<svg width="32px" height="32px" viewBox="0 0 32 32" version="1.1" xmlns="http://www.w3.org/2000/svg" xmlns:xlink="http://www.w3.org/1999/xlink">
    <!-- Generator: Sketch 57.1 (83088) - https://sketch.com -->
    <title>hbtc</title>
    <desc>Created with Sketch.</desc>
    <defs>
        <polygon id="path-1" points="0.163120471 0.561655396 12.19032 0.561655396 12.19032 12.8003666 0.163120471 12.8003666"></polygon>
        <polygon id="path-3" points="0.191161939 0 6.363144 0 6.363144 21.9999267 0.191161939 21.9999267"></polygon>
    </defs>
    <g id="hbtc" stroke="none" stroke-width="1" fill="none" fill-rule="evenodd">
        <circle id="Oval" fill="#436AF2" fill-rule="nonzero" cx="16" cy="16" r="16"></circle>
        <g transform="translate(7.000000, 4.000000)">
            <g id="Group-3" transform="translate(5.760000, 8.800000)">
                <mask id="mask-2" fill="white">
                    <use xlink:href="#path-1"></use>
                </mask>
                <g id="Clip-2"></g>
                <path d="M6.333624,9.55386667 C7.115544,9.81273333 7.875864,9.91173333 8.460504,9.19673333 C9.031464,8.50006667 9.006264,7.75133333 8.541864,7.00333333 C9.036504,6.51126667 9.243864,5.94073333 9.100584,5.2646 C8.950824,4.5584 8.464824,4.1844 7.795944,4.00253333 C7.893864,3.61973333 7.965144,3.26773333 8.078184,2.9304 C8.175384,2.64073333 8.012664,2.5894 7.808184,2.5322 C7.600104,2.47426667 7.435944,2.44713333 7.376184,2.74046667 C7.304184,3.09833333 7.191144,3.44813333 7.091064,3.8236 C6.836184,3.74806667 6.631704,3.6872 6.412104,3.62266667 C6.512184,3.2406 6.589224,2.88933333 6.698664,2.54833333 C6.787944,2.26673333 6.633864,2.21173333 6.424344,2.1494 C6.204744,2.08486667 6.054264,2.079 5.993784,2.35913333 C5.916744,2.717 5.809464,3.0668 5.710104,3.443 C5.278824,3.3264 4.893624,3.22006667 4.506984,3.11813333 C4.349304,3.0756 4.162104,2.96413333 4.100184,3.2384 C4.052664,3.4496 3.899304,3.663 4.233384,3.82653333 C4.625064,4.0194 4.728024,4.32446667 4.617144,4.7608 C4.411944,5.57626667 4.190184,6.38806667 3.984264,7.20353333 C3.874824,7.63546667 3.699864,7.9442 3.183624,7.964 C3.055464,7.96913333 2.939544,8.27566667 2.818584,8.4436 C2.916504,8.51473333 3.005064,8.61666667 3.114504,8.6526 C3.481704,8.77066667 3.856824,8.86526667 4.254984,8.97673333 C4.154904,9.36246667 4.070664,9.7218 3.964104,10.0752667 C3.874824,10.373 4.071384,10.3942667 4.264344,10.4566 C4.473864,10.5255333 4.611384,10.5152667 4.669704,10.2600667 C4.752504,9.9022 4.854744,9.54946667 4.954824,9.17033333 C5.201784,9.23486667 5.406984,9.28913333 5.640264,9.35073333 C5.538024,9.7416 5.452344,10.1002 5.347944,10.4536667 C5.260824,10.7462667 5.453064,10.7785333 5.648184,10.8394 C5.855544,10.9039333 5.996664,10.8907333 6.053544,10.637 C6.132744,10.2886667 6.231384,9.94546667 6.333624,9.55386667 M6.219864,0.561655396 C9.525384,0.579333333 12.215304,3.34473333 12.190824,6.70193333 C12.165624,10.0914 9.464904,12.8113333 6.134904,12.8003666 C2.864664,12.7886 0.143784,10.0056 0.163120471,6.6902 C0.181944,3.26773333 2.874024,0.544866667 6.219864,0.561655396" id="Fill-1" fill="#FDB262" mask="url(#mask-2)"></path>
            </g>
            <g id="Group-6" transform="translate(1.440000, 0.000000)">
                <mask id="mask-4" fill="white">
                    <use xlink:href="#path-3"></use>
                </mask>
                <g id="Clip-5"></g>
                <path d="M1.983384,20.5545267 C1.881144,20.4877933 1.778904,20.42106 1.675944,20.35506 C1.572984,20.2069267 1.464264,20.06246 1.365624,19.9113933 C1.096344,19.5021933 0.770904,19.11866 0.575064,18.6757267 C0.092664,17.5837933 0.129384,16.42586 0.334584,15.2781933 C0.685944,13.3135933 1.487304,11.5183933 2.425464,9.78552667 C3.203784,8.35039333 3.982824,6.92039333 4.434984,5.33419333 C4.823784,3.97166 5.082984,2.58859333 5.099544,1.16519333 C5.099544,0.80806 5.118984,0.580726667 5.118984,0.22286 L5.118984,-7.33333333e-05 C5.170104,0.06886 6.363144,2.53286 6.363144,2.53286 C6.363144,2.53286 6.216984,3.20386 6.071544,3.76412667 C5.546664,5.89006 5.021064,8.01452667 4.499064,10.14046 C4.469544,10.2585267 4.473864,10.3853933 4.462344,10.50786 L4.463784,10.50566 C4.443624,10.5393933 4.423464,10.5731267 4.401864,10.60686 C3.701304,11.7559933 3.177864,12.97186 3.047544,14.3365933 C2.763864,17.2919267 3.725064,19.7397933 5.934744,21.6779933 C6.037704,21.76746 6.134184,21.86646 6.208344,21.9999267 C4.787064,21.7051267 3.386664,21.3787933 2.115864,20.6505933 C2.071944,20.6183267 2.028024,20.58606 1.983384,20.5545267" id="Fill-4" fill="#C8DDFB" mask="url(#mask-4)"></path>
            </g>
            <path d="M6.539616,1.1649 C6.523056,2.5883 6.263856,3.97136667 5.875056,5.33463333 C5.422896,6.92083333 4.643856,8.35083333 3.865536,9.78596667 C2.926656,11.5181 2.126016,13.3133 1.774656,15.2779 C1.569456,16.4263 1.532736,17.5842333 2.015136,18.6761667 C2.210976,19.1183667 2.535696,19.5026333 2.804976,19.9111 C2.904336,20.0629 3.013056,20.2073667 3.116016,20.3547667 C2.020896,19.6955 1.244736,18.7355667 0.704736,17.5857 C-0.299664,15.4473 -0.193104,13.2839667 0.787536,11.1881 C1.238976,10.2237667 1.845216,9.31883333 2.476656,8.45936667 C3.646656,6.86803333 4.847616,5.29943333 5.684976,3.49323333 C6.031296,2.74596667 6.258096,1.94296667 6.539616,1.1649" id="Fill-7" fill="#95C9FE"></path>
            <path d="M5.902632,10.5077133 C5.914152,10.3852467 5.909832,10.25838 5.939352,10.1403133 C6.460632,8.01511333 6.986952,5.88991333 7.511112,3.76471333 C7.799112,3.59311333 8.085672,3.42224667 8.372952,3.25064667 C8.461512,3.20371333 8.511192,3.17218 8.607672,3.12891333 C8.534232,3.27851333 8.372952,3.67744667 8.334072,3.84611333 C8.045352,4.50244667 8.127432,5.19324667 8.215992,5.86058 C8.313912,6.59464667 8.522712,7.31331333 8.682552,8.03784667 C7.597512,8.67658 6.672312,9.50158 5.902632,10.5077133" id="Fill-9" fill="#95C9FE"></path>
            <path d="M8.682768,8.03777333 C8.522208,7.31324 8.313408,6.59457333 8.216208,5.86050667 C8.127648,5.19317333 8.044848,4.50237333 8.334288,3.84604 C9.090288,4.99737333 9.847008,6.14870667 10.602288,7.29710667 C9.987408,7.53397333 9.334368,7.78624 8.682768,8.03777333" id="Fill-11" fill="#C7DCFB"></path>
            <path d="M3.423384,20.5545267 C3.468024,20.58606 3.511944,20.6183267 3.555864,20.6505933 C3.511944,20.6183267 3.468024,20.5867933 3.423384,20.5545267" id="Fill-13" fill="#95C9FE"></path>
            <path d="M5.842152,10.6065667 C5.863032,10.5728333 5.883912,10.5391 5.904072,10.5053667 C5.883912,10.5391 5.863032,10.5728333 5.842152,10.6065667" id="Fill-15" fill="#95C9FE"></path>
            <path d="M10.972872,16.9788667 C11.105352,16.478 11.223432,16.0292 11.348712,15.5532667 C11.867832,15.6955333 12.363192,15.8143333 12.846312,15.9683333 C13.213512,16.0856667 13.404312,16.4611333 13.320792,16.8182667 C13.228632,17.2091333 12.904632,17.4526 12.502152,17.3704667 C12.005352,17.2692667 11.517912,17.1204 10.972872,16.9788667" id="Fill-17" fill="#FAB164"></path>
            <path d="M11.892528,13.4761733 C12.284208,13.5847067 12.637008,13.6697733 12.981168,13.7827067 C13.375728,13.9125067 13.578048,14.2711067 13.494528,14.6451067 C13.408848,15.0227733 13.074768,15.26844 12.669408,15.1973067 C12.291408,15.12984 11.922768,15.0103067 11.518848,14.9047067 C11.645568,14.42144 11.762928,13.9719067 11.892528,13.4761733" id="Fill-19" fill="#FAB163"></path>
        </g>
    </g>
</svg>