<?xml version="1.0" encoding="UTF-8"?>
<svg width="32px" height="32px" viewBox="0 0 32 32" version="1.1" xmlns="http://www.w3.org/2000/svg" xmlns:xlink="http://www.w3.org/1999/xlink">
    <!-- Generator: Sketch 57.1 (83088) - https://sketch.com -->
    <title>hex</title>
    <desc>Created with Sketch.</desc>
    <defs>
        <linearGradient x1="25.0006853%" y1="86.2157201%" x2="75.0022688%" y2="13.7694521%" id="linearGradient-1">
            <stop stop-color="#FFDC00" offset="0%"></stop>
            <stop stop-color="#E58E2F" offset="33%"></stop>
            <stop stop-color="#DB2D72" offset="67%"></stop>
            <stop stop-color="#FF00FF" offset="100%"></stop>
        </linearGradient>
    </defs>
    <g id="hex" stroke="none" stroke-width="1" fill="none" fill-rule="evenodd">
        <circle id="Oval" fill="#D8D8D8" cx="16" cy="16" r="16"></circle>
        <g transform="translate(2.000000, 4.000000)" fill="url(#linearGradient-1)" fill-rule="nonzero" id="Shape">
            <path d="M4.6849821,20.2444751 C4.62548707,20.1260811 4.62548707,19.987478 4.6849821,19.8690841 L6.79009426,16.3113458 C6.86516236,16.2000041 6.98960617,16.1297036 7.12591961,16.1216321 L11.3353168,16.1216321 C11.4718508,16.1297056 11.5965462,16.1999751 11.6719693,16.3113458 L13.7770814,19.8690841 C13.8374275,19.9887032 13.8374275,20.1288925 13.7770814,20.2485116 L11.6719693,23.8062498 C11.5969672,23.9151658 11.4751393,23.9847236 11.3411069,23.9951562 L7.55686792,23.9951562 C7.16249996,23.9705308 6.80206289,23.7690018 6.58082378,23.4494265 L4.6849821,20.2444751 Z M20.2512319,16.1280904 L16.0575507,9.04167648 C15.9542882,8.8897735 15.784072,8.79386113 15.5976519,8.78253557 L7.21028953,8.78253557 C7.02386941,8.79386113 6.85365322,8.8897735 6.75039077,9.04167648 L2.55670957,16.1313196 C2.47316504,16.2944592 2.47316504,16.4864618 2.55670957,16.6496014 L3.78586347,18.729187 L5.93646921,15.0963705 C6.05465615,14.9193315 6.25216543,14.8078089 6.46833055,14.7960577 L11.993733,14.7960577 C12.2098981,14.8078089 12.4074074,14.9193315 12.5255943,15.0963705 L15.2891227,19.7673652 C15.3867245,19.9559586 15.3867245,20.1785901 15.2891227,20.3671836 L13.138517,24 L15.5951704,24 C15.7818187,23.9887383 15.9521699,23.8924508 16.0550692,23.7400518 L20.2487504,16.651216 C20.3347394,16.4871413 20.3356607,16.2929352 20.2512319,16.1280904 Z M27.8610676,11.438528 L21.4282749,0.559453732 C21.207203,0.229722408 20.8388004,0.0220790115 20.4356877,0 L7.56431232,0 C7.16119959,0.0220790115 6.79279702,0.229722408 6.57172506,0.559453732 L0.13645096,11.438528 C-0.0454836534,11.7900787 -0.0454836534,12.2050776 0.13645096,12.5566282 L1.6112702,15.0495476 L5.887667,7.81943557 C6.03376085,7.60113862 6.27766821,7.46382508 6.54442891,7.44969558 L16.2560681,7.44969558 C16.5228288,7.46382508 16.7667362,7.60113862 16.91283,7.81943557 L21.7690632,16.0287934 C21.8897714,16.2612102 21.8897714,16.5358566 21.7690632,16.7682734 L17.4934936,23.9951562 L20.4356877,23.9951562 C20.8388004,23.9730772 21.207203,23.7654338 21.4282749,23.4357025 L27.863549,12.5566282 C28.0454837,12.2050776 28.0454837,11.7900787 27.863549,11.438528 L27.8610676,11.438528 Z"></path>
        </g>
    </g>
</svg>