<?xml version="1.0" encoding="UTF-8"?>
<svg width="32px" height="32px" viewBox="0 0 32 32" version="1.1" xmlns="http://www.w3.org/2000/svg" xmlns:xlink="http://www.w3.org/1999/xlink">
    <!-- Generator: Sketch 57.1 (83088) - https://sketch.com -->
    <title>hot</title>
    <desc>Created with Sketch.</desc>
    <g id="hot" stroke="none" stroke-width="1" fill="none" fill-rule="evenodd">
        <circle id="Oval" fill="#8F41FE" fill-rule="nonzero" cx="16" cy="16" r="16"></circle>
        <g transform="translate(6.000000, 9.000000)" fill="#FFFFFF" fill-rule="nonzero" id="Path">
            <path d="M0.523378864,1.01431586 C0.220522478,1.03578311 -0.0125748525,1.07871762 0.000526238391,1.1109185 C0.121328505,1.3700589 0.868260827,2.89576719 0.87846947,2.90496744 C0.888678112,2.91416769 1.06222503,2.92490132 1.26639787,2.93256819 C2.17156415,2.9632357 2.88787055,3.12270671 3.66202592,3.46771612 C4.21839692,3.71458953 4.63014549,3.97986343 5.05890846,4.3647406 C5.69014284,4.93208941 6.10189141,5.5623066 6.34349594,6.33359431 C6.37071899,6.42253007 6.39283771,6.50226558 6.39283771,6.51453258 C6.39283771,6.5313997 6.25502104,6.53446645 5.64590539,6.53446645 C5.23415682,6.53446645 4.88025722,6.54059995 4.8581385,6.54826683 C4.82581113,6.55900046 4.74073911,6.72460497 4.38683951,7.45602493 C4.14863786,7.94823836 3.95127078,8.36224965 3.9478679,8.37605003 C3.93595782,8.41591778 4.07887881,8.45118541 4.43618129,8.49872004 C4.50934322,8.50945367 4.94831484,8.52018729 5.46725415,8.52632079 L6.37071899,8.53552104 L6.31627289,8.70419231 C5.70715724,10.5657098 3.81685699,11.8675453 1.50119665,12.0239495 C1.37018574,12.0316164 1.19834026,12.0392833 1.11837256,12.0392833 L0.97375013,12.0392833 L0.527972753,12.9639085 C0.14514867,13.7535967 0.0855982569,13.8885337 0.111119862,13.8962006 C0.226817808,13.934535 0.485436744,13.9483354 1.08434375,13.9483354 C1.84999192,13.9483354 2.22260736,13.9176679 2.85384174,13.8011314 C5.4315239,13.3242517 7.57363733,11.846078 8.54345834,9.87109081 C8.73061678,9.49081377 8.95010259,8.8651967 8.98923572,8.60298955 L9.0011458,8.52785417 L10.9356835,8.52785417 L10.9424893,8.56158842 C11.0820074,9.17800524 11.2334356,9.59354991 11.4954574,10.08423 C12.2832243,11.5624036 13.7600745,12.7691699 15.5891229,13.4315879 C16.6998037,13.8324657 17.8895328,14.0249938 19.0855829,13.9974034 C19.5858063,13.983603 19.9839434,13.9330016 19.9635261,13.885467 C19.9465117,13.8455992 19.0991944,12.0929514 19.0940901,12.0883513 C19.0889858,12.0837512 18.9137374,12.0776177 18.7010574,12.0699508 C18.1038518,12.0484835 17.6546715,11.9856152 17.1476423,11.8552783 C16.3666812,11.6528728 15.5942272,11.2863961 15.002126,10.8386505 C14.2568951,10.2728351 13.7175385,9.5690159 13.4316965,8.78852795 C13.3993692,8.69959219 13.3670418,8.6060563 13.3619375,8.57845555 L13.3500274,8.52938754 L14.0782439,8.52478742 C14.4780824,8.52172067 14.8183704,8.51405379 14.831982,8.50792029 C14.8541007,8.49718666 15.7252381,6.7169381 15.7252381,6.68167047 C15.7252381,6.65866984 15.5057523,6.60040159 15.3066838,6.57126746 C15.1603599,6.54980021 14.9749029,6.5436667 14.2347764,6.53906658 L13.3381173,6.5313997 L13.3721461,6.42253007 C13.8689667,4.83702015 15.3934573,3.57811914 17.3586209,3.13190696 C17.7924882,3.03377095 18.2144454,2.98316957 18.7623092,2.9632357 C19.0889858,2.95096869 19.1298203,2.94636857 19.1502376,2.92183457 C19.1638491,2.90496744 19.3646191,2.49862302 19.596015,2.01867659 C19.8801555,1.43139391 20.0111664,1.141586 19.9992564,1.13391912 C19.9618247,1.11551862 19.723623,1.07718424 19.5364646,1.06031712 C19.2642341,1.03424974 18.4696615,1.03884986 18.1191647,1.06645062 C16.114868,1.22745501 14.3079383,1.95580821 12.9535918,3.14570734 C12.1266918,3.87252717 11.5465006,4.68828276 11.1891981,5.62977511 C11.0973203,5.86744826 10.9867267,6.2415918 10.9526979,6.42253007 L10.9322806,6.53446645 L9.03058072,6.53446645 L9.02377496,6.49919883 C9.01867064,6.48079832 8.99995479,6.39339594 8.97953751,6.30446018 C8.69879985,5.04709254 7.90592863,3.82499254 6.78638087,2.92490132 C5.51200203,1.89907333 3.92285673,1.25658914 2.17377602,1.06139048 C1.64803095,1.00358224 0.97034725,0.983648358 0.523378864,1.01431586 Z"></path>
        </g>
    </g>
</svg>