<?xml version="1.0" encoding="UTF-8"?>
<svg width="32px" height="32px" viewBox="0 0 32 32" version="1.1" xmlns="http://www.w3.org/2000/svg" xmlns:xlink="http://www.w3.org/1999/xlink">
    <!-- Generator: Sketch 57.1 (83088) - https://sketch.com -->
    <title>ht</title>
    <desc>Created with Sketch.</desc>
    <g id="ht" stroke="none" stroke-width="1" fill="none" fill-rule="evenodd">
        <circle id="Oval" fill="#303666" fill-rule="nonzero" cx="16" cy="16" r="16"></circle>
        <g transform="translate(9.000000, 4.000000)" fill="#FFFFFF" fill-rule="nonzero" id="Path">
            <path d="M9,6.77187563 C9,3.61690603 7.53798178,0.898778364 6.41813804,0.00891514175 C6.41813804,0.00891514175 6.34037111,-0.0396228522 6.34037111,0.0898117983 C6.2470508,6.18941971 3.2763542,7.85589083 1.62769536,10.0724592 C-2.15177728,15.2174866 1.36328781,20.8478939 4.94056643,21.8833711 C6.94695314,22.465827 4.47396487,20.8478939 4.16289717,17.4502343 C3.78961592,13.3245048 9,10.1857145 9,6.77187563"></path>
            <path d="M11.1276702,9.01198367 C11.1112653,8.99600544 11.0784555,8.99600544 11.0456456,9.01198367 C11.0456456,9.01198367 11.0456456,9.01198367 11.0292407,9.0279619 C10.963621,9.77893853 10.1105653,11.4087176 9.04424571,12.8946926 C5.41875897,17.9438121 7.48577856,20.3725025 8.6505277,21.6827171 C9.32312931,22.4496719 8.6505277,21.6827171 10.3402342,20.899784 C10.4714735,20.8358711 13.6212177,19.206092 13.9657209,15.5151217 C14.3102242,11.9200208 11.964321,9.66709095 11.1276702,9.01198367"></path>
        </g>
    </g>
</svg>