<?xml version="1.0" encoding="UTF-8"?>
<svg width="32px" height="32px" viewBox="0 0 32 32" version="1.1" xmlns="http://www.w3.org/2000/svg" xmlns:xlink="http://www.w3.org/1999/xlink">
    <!-- Generator: Sketch 57.1 (83088) - https://sketch.com -->
    <title>iost</title>
    <desc>Created with Sketch.</desc>
    <g id="iost" stroke="none" stroke-width="1" fill="none" fill-rule="evenodd">
        <path d="M16,32 C24.8368,32 32,24.8368 32,16 C32,7.1632 24.8368,0 16,0 C7.1632,0 0,7.1632 0,16 C0,24.8368 7.1632,32 16,32 Z" id="Oval" fill="#070A0E" fill-rule="nonzero"></path>
        <g transform="translate(8.000000, 8.000000)" fill="#FFFFFF" fill-rule="nonzero" id="Path">
            <polygon points="8.67582742 16 0 11.2997316 0.0351654846 9.0140173 8.67080378 13.7095139 12.8354019 11.4285714 10.0422577 9.89680883 8.99734043 10.4694304 7.03812057 9.40053683 8.08806147 8.82314345 6.71660757 8.06919177 5.88770686 8.52728899 3.92346336 7.45839547 4.75738771 7.00029824 0.331560284 4.57142857 8.67080378 0 16.5378251 4.26125857 14.427896 5.42558902 8.67080378 2.29048613 4.50620567 4.57142857 6.83717494 5.85028333 8.02777778 5.19176857 9.99202128 6.26066209 8.79137116 6.91917686 10.1628251 7.67312854 11.1374113 7.13390993 13.1016548 8.20280346 12.1170213 8.74679392 17 11.4237996 8.67582742 16"></polygon>
        </g>
    </g>
</svg>