<?xml version="1.0" encoding="UTF-8"?>
<svg width="32px" height="32px" viewBox="0 0 32 32" version="1.1" xmlns="http://www.w3.org/2000/svg" xmlns:xlink="http://www.w3.org/1999/xlink">
    <!-- Generator: Sketch 57.1 (83088) - https://sketch.com -->
    <title>kcs</title>
    <desc>Created with Sketch.</desc>
    <g id="kcs" stroke="none" stroke-width="1" fill="none" fill-rule="evenodd">
        <path d="M16,32 C24.8368,32 32,24.8368 32,16 C32,7.1632 24.8368,0 16,0 C7.1632,0 0,7.1632 0,16 C0,24.8368 7.1632,32 16,32 Z" id="Oval" fill="#22B78B" fill-rule="nonzero"></path>
        <g transform="translate(8.000000, 6.000000)" fill="#FFFFFF" id="Shape">
            <path d="M6.08411215,10.5 L11.2679128,16.0635359 L14.5576324,12.5994475 C15.1557632,11.9696133 16.0529595,11.9696133 16.5514019,12.5994475 C16.5514019,12.5994475 16.5514019,12.5994475 16.5514019,12.5994475 C17.1495327,13.2292818 17.1495327,14.2790055 16.5514019,14.9088398 L12.2647975,19.5276243 C11.6666667,20.1574586 10.7694704,20.1574586 10.1713396,19.5276243 C10.1713396,19.5276243 10.1713396,19.5276243 10.1713396,19.5276243 L3.99065421,12.8093923 L3.99065421,16.7983425 C3.99065421,17.6381215 3.29283489,18.3729282 2.4953271,18.3729282 C1.69781931,18.3729282 1,17.6381215 1,16.7983425 L1,4.20165746 C1,3.36187845 1.69781931,2.62707182 2.4953271,2.62707182 C3.29283489,2.62707182 3.99065421,3.36187845 3.99065421,4.20165746 L3.99065421,8.19060773 L10.1713396,1.47237569 C10.7694704,0.842541436 11.6666667,0.842541436 12.2647975,1.47237569 C12.2647975,1.47237569 12.2647975,1.47237569 12.2647975,1.47237569 L16.5514019,6.09116022 C17.1495327,6.72099448 17.1495327,7.77071823 16.5514019,8.40055249 C15.953271,9.03038674 15.0560748,9.03038674 14.5576324,8.40055249 C14.5576324,8.40055249 14.5576324,8.40055249 14.5576324,8.40055249 L11.2679128,4.83149171 L6.08411215,10.5 Z M11.2679128,8.92541436 C12.0654206,8.92541436 12.7632399,9.66022099 12.7632399,10.5 C12.7632399,11.339779 12.0654206,12.0745856 11.2679128,12.0745856 C10.470405,12.0745856 9.77258567,11.339779 9.77258567,10.5 C9.77258567,9.66022099 10.470405,8.92541436 11.2679128,8.92541436 Z"></path>
        </g>
    </g>
</svg>