<?xml version="1.0" encoding="UTF-8"?>
<svg width="32px" height="32px" viewBox="0 0 32 32" version="1.1" xmlns="http://www.w3.org/2000/svg" xmlns:xlink="http://www.w3.org/1999/xlink">
    <!-- Generator: Sketch 57.1 (83088) - https://sketch.com -->
    <title>knc</title>
    <desc>Created with Sketch.</desc>
    <g id="knc" stroke="none" stroke-width="1" fill="none" fill-rule="evenodd">
        <path d="M16,32 C24.8368,32 32,24.8368 32,16 C32,7.1632 24.8368,0 16,0 C7.1632,0 0,7.1632 0,16 C0,24.8368 7.1632,32 16,32 Z" id="Oval" fill="#21B78B" fill-rule="nonzero"></path>
        <g transform="translate(10.000000, 6.000000)" fill="#FFFFFF" fill-rule="nonzero" id="Path">
            <path d="M5.6875,9.80397727 L12.4583333,13.8721591 C12.569126,13.9420137 12.7072388,13.94369 12.8195428,13.8765432 C12.9318467,13.8093965 13.0008467,13.6838869 13.0000283,13.5482955 L13.0000283,6.05397727 C13.0016327,5.91811006 12.9325441,5.7921087 12.8197634,5.72526843 C12.7069828,5.65842816 12.5684387,5.66137442 12.4583333,5.73295455 L5.6875,9.80397727 Z"></path>
            <path d="M12.3147917,3.93181818 L7.68625,0.360795455 C7.58855215,0.282457768 7.46002854,0.26043012 7.34364127,0.302075783 C7.227254,0.343721446 7.13835717,0.443546425 7.10666667,0.568181818 L5.41666667,8.52272727 L12.2741667,4.54545455 C12.3802886,4.48819174 12.4501827,4.37693757 12.4584886,4.25205946 C12.4667944,4.12718135 12.4123052,4.00682448 12.3147917,3.93465909"></path>
            <path d="M7.68083333,19.2443182 L12.3147917,15.6732955 C12.4123181,15.6002096 12.4669342,15.4794646 12.4592175,15.3539999 C12.4515007,15.2285352 12.382546,15.1161528 12.276875,15.0568182 L5.41666667,11.0795455 L7.10666667,19.0340909 C7.1351446,19.1596357 7.22190558,19.2617403 7.33754185,19.3057962 C7.45317812,19.3498521 7.58218421,19.329952 7.68083333,19.2528409"></path>
            <path d="M3.92708333,9.65909091 L5.6875,1.01988636 C5.71500295,0.873489747 5.65514381,0.724219074 5.53614876,0.642461987 C5.41715371,0.560704899 5.26278465,0.562787311 5.14583333,0.647727273 L0.636458333,4.27556818 C0.40499674,4.46183365 0.269756145,4.75080928 0.270833333,5.05681818 L0.270833333,14.2613636 C0.265476604,14.5723496 0.401159818,14.8675423 0.636458333,15.0568182 L5.12416667,18.6704545 C5.24111798,18.7553945 5.39548704,18.7574769 5.51448209,18.6757198 C5.63347714,18.5939627 5.69333629,18.4446921 5.66583333,18.2982955 L3.92708333,9.65909091 Z"></path>
        </g>
    </g>
</svg>