<?xml version="1.0" encoding="UTF-8"?>
<svg width="32px" height="32px" viewBox="0 0 32 32" version="1.1" xmlns="http://www.w3.org/2000/svg" xmlns:xlink="http://www.w3.org/1999/xlink">
    <!-- Generator: Sketch 57.1 (83088) - https://sketch.com -->
    <title>ldo</title>
    <desc>Created with Sketch.</desc>
    <defs>
        <linearGradient x1="50%" y1="99.3018037%" x2="50%" y2="20.8339166%" id="linearGradient-1">
            <stop stop-color="#A8CEDB" offset="0.09765625%"></stop>
            <stop stop-color="#4A98ED" offset="100%"></stop>
        </linearGradient>
        <radialGradient cx="50%" cy="26.7952934%" fx="50%" fy="26.7952934%" r="100%" gradientTransform="translate(0.500000,0.267953),scale(0.507623,1.000000),rotate(90.000000),translate(-0.500000,-0.267953)" id="radialGradient-2">
            <stop stop-color="#BDE1F1" offset="0%"></stop>
            <stop stop-color="#76C3EF" offset="100%"></stop>
        </radialGradient>
        <radialGradient cx="50%" cy="50%" fx="50%" fy="50%" r="55.7662128%" gradientTransform="translate(0.500000,0.500000),scale(0.615385,1.000000),rotate(90.000000),translate(-0.500000,-0.500000)" id="radialGradient-3">
            <stop stop-color="#ABDFFD" offset="0%"></stop>
            <stop stop-color="#37A7E1" offset="100%"></stop>
        </radialGradient>
    </defs>
    <g id="ldo" stroke="none" stroke-width="1" fill="none" fill-rule="evenodd">
        <circle id="Oval" fill="#F99588" cx="16" cy="16" r="16"></circle>
        <g transform="translate(7.000000, 3.000000)">
            <g id="ic/coin/LIDO">
                <path d="M9.13529497,15.6172376 L1.68186495,11.4705882 C0.624008094,12.9423695 0,14.7392006 0,16.6809455 C0,21.6603463 4.09020992,25.6973039 9.13529497,25.6973039 C14.18038,25.6973039 18.2710997,21.6603463 18.2710997,16.6809455 C18.2710997,14.7517799 17.6547388,12.9650123 16.6091174,11.4987659 L9.13529497,15.6172376 Z" id="Fill-2" fill="url(#linearGradient-1)"></path>
                <polygon id="Path-10" fill="url(#radialGradient-2)" points="9.10585883 15.6878553 1.68186495 11.4705882 8.83535385 8.125 16.5804284 11.5412059"></polygon>
                <polygon id="Path" fill="#4A90E2" points="8.86504489 0 2.33248082 9.88023126 8.86504489 13.7647059 15.5498721 9.88023126"></polygon>
            </g>
            <path d="M2,9.88785191 L8.42512058,6 L15,9.88785191 L8.42512058,14 L2,9.88785191 Z" id="Combined-Shape" fill="url(#radialGradient-3)"></path>
            <polygon id="Path-8" fill-opacity="0.5" fill="#6BC8E8" points="9 0 9 14 2 10.0491241"></polygon>
            <polygon id="Path-9" fill-opacity="0.5" fill="#4E86C1" points="9.079721 0 9 14 16 10.0491241"></polygon>
        </g>
    </g>
</svg>