<?xml version="1.0" encoding="UTF-8"?>
<svg width="32px" height="32px" viewBox="0 0 32 32" version="1.1" xmlns="http://www.w3.org/2000/svg" xmlns:xlink="http://www.w3.org/1999/xlink">
    <!-- Generator: Sketch 57.1 (83088) - https://sketch.com -->
    <title>leo</title>
    <desc>Created with Sketch.</desc>
    <defs>
        <linearGradient x1="49.9690594%" y1="0.0307692308%" x2="49.9690594%" y2="99.9589744%" id="linearGradient-1">
            <stop stop-color="#F6E93D" offset="0%"></stop>
            <stop stop-color="#F8E330" offset="13%"></stop>
            <stop stop-color="#F7C730" offset="35%"></stop>
            <stop stop-color="#F59C2E" offset="64%"></stop>
            <stop stop-color="#EB5E2C" offset="98%"></stop>
            <stop stop-color="#EB5C2C" offset="100%"></stop>
        </linearGradient>
        <linearGradient x1="50.0199734%" y1="0.049382716%" x2="50.0199734%" y2="99.9876543%" id="linearGradient-2">
            <stop stop-color="#F6E93D" offset="0%"></stop>
            <stop stop-color="#F8E330" offset="13%"></stop>
            <stop stop-color="#F7C730" offset="35%"></stop>
            <stop stop-color="#F59C2E" offset="64%"></stop>
            <stop stop-color="#EB5E2C" offset="98%"></stop>
            <stop stop-color="#EB5C2C" offset="100%"></stop>
        </linearGradient>
        <linearGradient x1="49.9960815%" y1="-0.0110619469%" x2="49.9960815%" y2="100.033186%" id="linearGradient-3">
            <stop stop-color="#F6E93D" offset="0%"></stop>
            <stop stop-color="#F8E330" offset="13%"></stop>
            <stop stop-color="#F7C730" offset="35%"></stop>
            <stop stop-color="#F59C2E" offset="64%"></stop>
            <stop stop-color="#EB5E2C" offset="98%"></stop>
            <stop stop-color="#EB5C2C" offset="100%"></stop>
        </linearGradient>
        <linearGradient x1="49.9950593%" y1="0.0426136364%" x2="49.9950593%" y2="100.014205%" id="linearGradient-4">
            <stop stop-color="#F6E93D" offset="0%"></stop>
            <stop stop-color="#F8E330" offset="13%"></stop>
            <stop stop-color="#F7C730" offset="35%"></stop>
            <stop stop-color="#F59C2E" offset="64%"></stop>
            <stop stop-color="#EB5E2C" offset="98%"></stop>
            <stop stop-color="#EB5C2C" offset="100%"></stop>
        </linearGradient>
        <linearGradient x1="50.0754717%" y1="-0.0187090739%" x2="50.0754717%" y2="100.009355%" id="linearGradient-5">
            <stop stop-color="#F6E93D" offset="0%"></stop>
            <stop stop-color="#F8E330" offset="13%"></stop>
            <stop stop-color="#F7C730" offset="35%"></stop>
            <stop stop-color="#F59C2E" offset="64%"></stop>
            <stop stop-color="#EB5E2C" offset="98%"></stop>
            <stop stop-color="#EB5C2C" offset="100%"></stop>
        </linearGradient>
        <linearGradient x1="49.9876695%" y1="0%" x2="49.9876695%" y2="100.027273%" id="linearGradient-6">
            <stop stop-color="#F6E93D" offset="0%"></stop>
            <stop stop-color="#F8E330" offset="13%"></stop>
            <stop stop-color="#F7C730" offset="35%"></stop>
            <stop stop-color="#F59C2E" offset="64%"></stop>
            <stop stop-color="#EB5E2C" offset="98%"></stop>
            <stop stop-color="#EB5C2C" offset="100%"></stop>
        </linearGradient>
        <linearGradient x1="49.8941799%" y1="0.272373541%" x2="49.8941799%" y2="100.233463%" id="linearGradient-7">
            <stop stop-color="#F6E93D" offset="0%"></stop>
            <stop stop-color="#F8E330" offset="13%"></stop>
            <stop stop-color="#F7C730" offset="35%"></stop>
            <stop stop-color="#F59C2E" offset="64%"></stop>
            <stop stop-color="#EB5E2C" offset="98%"></stop>
            <stop stop-color="#EB5C2C" offset="100%"></stop>
        </linearGradient>
        <linearGradient x1="48.7942197%" y1="62.6950854%" x2="72.3780347%" y2="17.4980493%" id="linearGradient-8">
            <stop stop-color="#F6E93D" offset="0%"></stop>
            <stop stop-color="#F8E330" offset="13%"></stop>
            <stop stop-color="#F7C730" offset="35%"></stop>
            <stop stop-color="#F59C2E" offset="64%"></stop>
            <stop stop-color="#EB5E2C" offset="98%"></stop>
            <stop stop-color="#EB5C2C" offset="100%"></stop>
        </linearGradient>
    </defs>
    <g id="leo" stroke="none" stroke-width="1" fill="none" fill-rule="evenodd">
        <path d="M16,32 C24.8368,32 32,24.8368 32,16 C32,7.1632 24.8368,0 16,0 C7.1632,0 0,7.1632 0,16 C0,24.8368 7.1632,32 16,32 Z" id="Oval" fill="#070A0E" fill-rule="nonzero"></path>
        <g transform="translate(6.000000, 5.000000)" fill-rule="nonzero" id="Path">
            <polygon fill="url(#linearGradient-1)" points="4.65656566 9.39192825 4.66666667 9.39192825 4.83838384 9.45112108 5 9.5103139 5.17171717 9.55964126 5.33333333 9.62869955 5.50505051 9.68789238 5.66666667 9.7470852 5.83838384 9.80627803 6 9.86547085 6.16161616 9.92466368 6.32323232 9.9838565 6.49494949 10.0430493 6.65656566 10.1121076 6.82828283 10.161435 6.98989899 10.2206278 7.16161616 10.2798206 7.32323232 10.3488789 7.49494949 10.4080717 7.65656566 10.4573991 7.81818182 10.5165919 7.98989899 10.5856502 8.16161616 10.644843 8.16161616 10.3883408 8.16161616 10.3488789 8.16161616 10.141704 8.16161616 10.141704 8.16161616 9.99372197 8.16161616 9.88520179 8.16161616 9.62869955 8.16161616 9.38206278 8.16161616 9.12556054 8.16161616 8.87892377 8.16161616 8.61255605 8.16161616 8.36591928 8.16161616 8.33632287 8.16161616 8.33632287 8.16161616 8.33632287 7.95959596 8.33632287 7.76767677 8.33632287 7.76767677 8.33632287 7.74747475 8.33632287 7.53535354 8.33632287 7.37373737 8.33632287 7.37373737 8.33632287 7.31313131 8.33632287 7.1010101 8.33632287 6.98989899 8.33632287 6.98989899 8.33632287 6.87878788 8.33632287 6.65656566 8.33632287 6.5959596 8.33632287 6.5959596 8.33632287 6.44444444 8.33632287 6.23232323 8.33632287 6.22222222 8.33632287 6.21212121 8.33632287 6.01010101 8.33632287 5.82828283 8.33632287 5.82828283 8.33632287 5.7979798 8.33632287 5.57575758 8.33632287 5.43434343 8.33632287 5.43434343 8.33632287 5.05050505 8.33632287 5.05050505 8.33632287 4.66666667 8.33632287 4.65656566 8.33632287 4.43434343 8.33632287 4.27272727 8.41524664 3.88888889 8.61255605 3.49494949 8.81973094 3.1010101 9.00717489 2.72727273 9.2044843 2.33333333 9.41165919 1.93939394 9.59910314 1.55555556 9.80627803 1.16161616 10.0035874 0.777777778 10.1910314 0.393939394 10.3982063 0.0404040404 10.5757848 0 16.2286996 0.393939394 16.4950673 0.777777778 16.761435 1.16161616 17.0179372 1.55555556 17.2941704 1.93939394 17.5605381 2.33333333 17.8269058 2.50505051 17.955157 2.72727273 17.6789238 3.1010101 17.1856502 3.14141414 17.1363229 3.1010101 17.1067265 2.72727273 16.8403587 2.33333333 16.573991 1.93939394 16.3076233 1.55555556 16.0412556 1.16161616 15.7650224 1.06060606 15.7058296 1.09090909 11.1282511 1.16161616 11.0887892 1.55555556 10.9013453 1.93939394 10.7139013 2.33333333 10.5264574 2.72727273 10.3390135 3.1010101 10.141704 3.49494949 9.95426009 3.88888889 9.77668161 4.27272727 9.5793722"></polygon>
            <polygon fill="url(#linearGradient-2)" points="11.3434343 20.1748879 11.020202 20.303139 10.6565657 20.4511211 10.2929293 20.5892377 9.92929293 20.7372197 9.76767677 20.7964126 9.57575758 20.7076233 9.21212121 20.5201794 8.84848485 20.3524664 8.49494949 20.1650224 8.13131313 19.9874439 7.76767677 19.8197309 7.4040404 19.632287 7.04040404 19.4547085 6.67676768 19.27713 6.31313131 19.0995516 5.94949495 18.9121076 5.60606061 18.7443946 5.24242424 18.5668161 5.2020202 18.5470852 5.2020202 13.9300448 4.87878788 13.9300448 4.51515152 13.9300448 4.15151515 13.9300448 4.15151515 19.1784753 4.51515152 19.3461883 4.87878788 19.5237668 5.24242424 19.7112108 5.60606061 19.8789238 5.94949495 20.0663677 6.31313131 20.2439462 6.67676768 20.4215247 7.04040404 20.5991031 7.4040404 20.7766816 7.76767677 20.9542601 8.13131313 21.1318386 8.49494949 21.3192825 8.84848485 21.4869955 9.21212121 21.6744395 9.57575758 21.8421525 9.71717172 21.9210762 9.92929293 21.8224215 10.2929293 21.6941704 10.6565657 21.5461883 11.020202 21.3982063 11.3737374 21.2600897 11.7373737 21.1219731 11.3737374 20.2340807"></polygon>
            <polygon fill="url(#linearGradient-3)" points="17.7979798 13.7623318 17.8181818 15.9327354 17.7272727 16.0116592 17.1111111 16.426009 16.4949495 16.8600897 15.8787879 17.2941704 15.2626263 17.7183857 14.6464646 18.1426009 14.040404 18.5766816 13.4242424 19.0008969 13.0606061 19.2573991 12.8080808 19.0699552 12.2020202 18.606278 11.5858586 18.1524664 10.969697 17.6887892 10.3636364 17.2349776 10.2525253 17.1560538 10.2525253 14.8179372 10.3636364 14.7192825 10.969697 14.0878924 11.5858586 13.4663677 12.2020202 12.8349776 12.8080808 12.2134529 13.4040404 11.6017937 12.8080808 11.6017937 12.2020202 11.6017937 11.5858586 11.6017937 10.969697 11.6017937 10.3636364 11.6017937 9.73737374 11.6017937 9.12121212 11.6017937 8.51515152 11.6017937 7.8989899 11.6017937 7.28282828 11.6017937 6.67676768 11.6017937 6.06060606 11.6017937 6.67676768 12.2331839 7.28282828 12.8547085 7.8989899 13.4762332 8.51515152 14.1076233 9.12121212 14.729148 9.21212121 14.8179372 9.21212121 17.6493274 9.73737374 18.0538117 10.3636364 18.5174888 10.969697 18.9713004 11.5858586 19.4349776 12.2020202 19.8887892 12.8080808 20.3524664 13.030303 20.5201794 13.4242424 20.2439462 14.040404 19.8295964 14.6464646 19.3955157 15.2626263 18.961435 15.8787879 18.5470852 16.4949495 18.1130045 17.1111111 17.6789238 17.7272727 17.264574 18.3434343 16.8304933 18.8484848 16.4654709 18.9494949 13.8017937 18.3434343 13.7820628"></polygon>
            <polygon fill="url(#linearGradient-4)" points="1 8.71121076 1.07070707 8.71121076 1.08080808 5.81076233 1.47474747 5.56412556 1.96969697 5.27802691 2.45454545 4.99192825 2.93939394 4.69596413 3.42424242 4.40986547 3.91919192 4.11390135 4.39393939 3.82780269 4.88888889 3.54170404 5.37373737 3.24573991 5.86868687 2.94977578 5.87878788 2.94977578 6.34343434 3.2161435 6.83838384 3.48251121 7.32323232 3.75874439 7.80808081 4.02511211 8.29292929 4.29147982 8.77777778 4.55784753 9.26262626 4.83408072 9.73737374 5.10044843 9.75757576 5.06098655 10.2424242 4.20269058 9.75757576 3.9264574 9.26262626 3.66008969 8.77777778 3.39372197 8.29292929 3.12735426 7.80808081 2.85112108 7.32323232 2.58475336 6.83838384 2.31838565 6.34343434 2.04215247 5.86868687 1.77578475 5.84848485 1.76591928 5.37373737 2.04215247 4.88888889 2.33811659 4.39393939 2.63408072 3.91919192 2.93004484 3.42424242 3.2161435 2.93939394 3.50224215 2.45454545 3.79820628 1.96969697 4.08430493 1.47474747 4.38026906 1 4.66636771 0.505050505 4.95246637 0.0404040404 5.23856502 0.0202020202 8.70134529 0.505050505 8.70134529"></polygon>
            <polygon fill="url(#linearGradient-5)" points="19.989899 6.0573991 19.7373737 5.86008969 19.4848485 5.66278027 19.2323232 5.45560538 18.979798 5.25829596 18.7272727 5.06098655 18.4646465 4.86367713 18.2121212 4.66636771 17.959596 4.4690583 17.6969697 4.26188341 17.5050505 4.12376682 17.4343434 4.20269058 17.1818182 4.50852018 16.9292929 4.82421525 16.8585859 4.90313901 16.9292929 4.97219731 17.1818182 5.1793722 17.4343434 5.38654709 17.6969697 5.59372197 17.959596 5.80089686 18.2121212 6.01793722 18.4646465 6.22511211 18.7272727 6.432287 18.8484848 6.5309417 18.8585859 11.1973094 18.7272727 11.2860987 18.4646465 11.4439462 18.2121212 11.6017937 17.959596 11.7596413 17.6969697 11.9174888 17.4343434 12.0753363 17.1818182 12.2331839 16.9292929 12.3910314 16.6767677 12.5488789 16.4242424 12.7067265 16.1717172 12.864574 15.9090909 13.0224215 15.6565657 13.1802691 15.4040404 13.3381166 15.1515152 13.4959641 14.8888889 13.6538117 14.6363636 13.8116592 14.8888889 14.206278 15.1515152 14.6008969 15.1919192 14.6699552 15.4040404 14.541704 15.6565657 14.393722 15.9090909 14.2358744 16.1717172 14.0878924 16.4242424 13.9201794 16.6767677 13.7721973 16.9292929 13.6143498 17.1818182 13.4663677 17.4343434 13.3085202 17.6969697 13.1605381 17.959596 12.9928251 18.2121212 12.844843 18.4646465 12.6869955 18.7272727 12.5390135 18.979798 12.3811659 19.2323232 12.2331839 19.4848485 12.0654709 19.7373737 11.9174888 19.989899 11.7596413"></polygon>
            <polyline fill="url(#linearGradient-6)" points="11.6565657 8.83946188 11.6565657 9.09596413 11.6565657 9.35246637 11.6565657 9.60896861 11.6565657 9.87533632 11.6565657 10.141704 11.6565657 10.3982063 11.6565657 10.6547085 11.6565657 10.8520179 11.7373737 10.8224215 12.0808081 10.6941704 12.4242424 10.5560538 12.7575758 10.4278027 13.1010101 10.2896861 13.4444444 10.1515695 13.7777778 10.0233184 14.1212121 9.88520179 14.4646465 9.75695067 14.7979798 9.61883408 15.1414141 9.49058296 15.4747475 9.35246637 15.4747475 9.09596413 15.4747475 9.09596413 15.4747475 8.99730942 15.4747475 8.31659193 15.4747475 3.24573991 15.0909091 3.00896861 14.6969697 2.79192825 14.3030303 2.57488789 13.9191919 2.33811659 13.5252525 2.12107623 13.1313131 1.90403587 12.7474747 1.67713004 12.3535354 1.45022422 11.969697 1.22331839 11.5757576 1.00627803 11.1818182 0.779372197 10.7979798 0.552466368 10.4141414 0.335426009 10.020202 0.11838565 9.80808081 0 9.62626263 0.0986547085 9.23232323 0.305829596 8.83838384 0.503139013 8.46464646 0.720179372 8.07070707 0.92735426 7.67676768 1.12466368 7.28282828 1.34170404 7.67676768 1.55874439 8.07070707 1.77578475 8.31313131 1.92376682 8.46464646 1.84484305 8.83838384 1.64753363 9.23232323 1.44035874 9.62626263 1.24304933 9.77777778 1.16412556 10.020202 1.30224215 10.4141414 1.51928251 10.7979798 1.73632287 11.1818182 1.9632287 11.5757576 2.19013453 11.969697 2.40717489 12.3535354 2.63408072 12.7474747 2.86098655 13.1313131 3.07802691 13.5252525 3.29506726 13.9191919 3.53183857 14.3030303 3.74887892 14.4343434 3.81793722 14.4343434 8.31659193 14.3434343 8.31659193 14.3030303 8.31659193 14.1212121 8.31659193 13.9191919 8.31659193 13.8989899 8.31659193 13.6666667 8.31659193 13.5252525 8.31659193 13.4444444 8.31659193 13.2222222 8.31659193 13.1313131 8.31659193 13 8.31659193 12.7777778 8.31659193 12.7474747 8.31659193 12.5555556 8.31659193 12.3535354 8.31659193 12.3333333 8.31659193 12.1010101 8.31659193 11.969697 8.31659193 11.8787879 8.31659193 11.7070707 8.31659193 11.6767677 8.31659193"></polyline>
            <polyline fill="url(#linearGradient-7)" points="11.6565657 10.8520179 15.4747475 9.35246637 11.6565657 8.31659193"></polyline>
            <polyline fill="url(#linearGradient-8)" points="8.16161616 10.8520179 8.16161616 8.35605381 4.66666667 9.37219731 8.16161616 10.8421525"></polyline>
        </g>
    </g>
</svg>