<?xml version="1.0" encoding="UTF-8"?>
<svg width="32px" height="32px" viewBox="0 0 32 32" version="1.1" xmlns="http://www.w3.org/2000/svg" xmlns:xlink="http://www.w3.org/1999/xlink">
    <!-- Generator: Sketch 57.1 (83088) - https://sketch.com -->
    <title>link</title>
    <desc>Created with Sketch.</desc>
    <g id="link" stroke="none" stroke-width="1" fill="none" fill-rule="evenodd">
        <path d="M16,32 C24.8368,32 32,24.8368 32,16 C32,7.1632 24.8368,0 16,0 C7.1632,0 0,7.1632 0,16 C0,24.8368 7.1632,32 16,32 Z" id="Oval" fill="#3562DB" fill-rule="nonzero"></path>
        <g transform="translate(7.000000, 6.000000)" fill="#FEFEFE" id="Fill-4">
            <path d="M3.80950278,12.8898716 L3.80950278,7.11012838 L9.00006852,4.22019075 L14.1904972,7.11012838 L14.1904972,12.8898716 L9.00006852,15.7799413 L3.80950278,12.8898716 Z M9.00006852,0 L7.09538565,1.05501469 L1.90481991,3.94495231 L0,4.999967 L0,14.999901 L1.90481991,16.0550477 L7.14280059,18.9449853 L9.04775754,20 L10.9524404,18.9449853 L16.0951801,16.0550477 L18,14.999901 L18,4.999967 L16.0951801,3.94495231 L10.9047514,1.05501469 L9.00006852,0 Z"></path>
        </g>
    </g>
</svg>