<?xml version="1.0" encoding="UTF-8"?>
<svg width="32px" height="32px" viewBox="0 0 32 32" version="1.1" xmlns="http://www.w3.org/2000/svg" xmlns:xlink="http://www.w3.org/1999/xlink">
    <!-- Generator: Sketch 57.1 (83088) - https://sketch.com -->
    <title>max</title>
    <desc>Created with Sketch.</desc>
    <g id="max" stroke="none" stroke-width="1" fill="none" fill-rule="evenodd">
        <path d="M16,32 C24.8368,32 32,24.8368 32,16 C32,7.1632 24.8368,0 16,0 C7.1632,0 0,7.1632 0,16 C0,24.8368 7.1632,32 16,32 Z" id="Oval" fill="#2D4692" fill-rule="nonzero"></path>
        <g transform="translate(4.000000, 6.000000)" fill="#FFFFFF" fill-rule="nonzero" id="Combined-Shape">
            <path d="M16.7245462,-3.73034936e-14 C16.7747435,0.00235283737 16.8252565,0.00382336073 16.8757695,0.00676440745 C16.8887135,0.0073526168 16.9016575,0.00852903548 16.91397,0.0094113495 C16.993528,0.0144111289 17.0724546,0.0241165831 17.1520126,0.0361748746 C17.1779006,0.04029234 17.2044199,0.0441157008 17.2303078,0.0491154802 C17.2675612,0.0558798877 17.3038674,0.0641148185 17.3408051,0.0726438539 C17.3840568,0.0820552034 17.4276243,0.0938193903 17.4715075,0.106171787 C17.5018153,0.114994927 17.5318074,0.123523962 17.5627466,0.133523521 C17.6208366,0.152640325 17.6773481,0.173815861 17.7348066,0.196167816 C17.7556433,0.204696852 17.7761642,0.213225887 17.7976322,0.222637237 C17.8636148,0.25057718 17.9289661,0.281458171 17.9930545,0.315868418 C17.9949487,0.317044836 17.9974743,0.31792715 17.9993686,0.318809464 L17.9993686,0.318809464 C18.0950276,0.370865991 18.1783741,0.424981251 18.2579321,0.480272929 C18.280663,0.496448686 18.3018153,0.513212652 18.3239148,0.529388409 C18.3873717,0.577033366 18.4476717,0.62703116 18.5051302,0.679087687 C18.5205998,0.692910607 18.5360695,0.706733526 18.5509077,0.721732865 C18.6986582,0.862609003 18.8252565,1.01907269 18.9288082,1.18553593 C18.9294396,1.18700646 18.930071,1.18818287 18.9307024,1.18877108 L18.9307024,1.18877108 L18.9325967,1.18818287 L23.6584057,8.81284649 C23.681768,8.85460936 23.7048145,8.8954899 23.7275454,8.93725277 C23.7344909,8.94842875 23.7398579,8.96078114 23.7461721,8.97254533 C23.7799526,9.03754246 23.809629,9.10430422 23.8374112,9.1722424 C23.8471981,9.1972413 23.8573007,9.22135788 23.8664562,9.24665088 C23.878453,9.27870829 23.8888713,9.31105981 23.8992897,9.34429363 C23.9122336,9.38664471 23.9245462,9.42987809 23.9349645,9.47311148 C23.9412786,9.49840448 23.947277,9.52399159 23.9529597,9.5495787 C23.9652723,9.60781142 23.9747435,9.66751467 23.9820047,9.72810023 L23.9820047,9.72810023 L23.9886346,9.78692117 C23.9952644,9.85780039 24,9.92809141 24,10.0004412 C24,10.0727909 23.9955801,10.1430819 23.9889503,10.213667 L23.9889503,10.213667 L23.9823204,10.2730762 C23.9747435,10.3336618 23.965588,10.3936591 23.9532755,10.4518918 C23.9475927,10.4768907 23.9415943,10.5010073 23.9352802,10.5260062 C23.9248619,10.5698278 23.9125493,10.6142376 23.898974,10.6571769 C23.8888713,10.6895284 23.878453,10.7218799 23.8674033,10.7536432 C23.8573007,10.7798185 23.846251,10.8056997 23.8364641,10.8318751 C23.8099448,10.8971663 23.7812155,10.960987 23.748382,11.0236313 C23.7411208,11.0380424 23.7348066,11.0518654 23.7275454,11.0645119 C23.7051302,11.1056865 23.6823994,11.1453906 23.6584057,11.1850948 C23.6577743,11.1853889 23.6571429,11.1865653 23.6571429,11.1865653 L23.6571429,11.1865653 L23.6590371,11.1874476 L18.9332281,18.8124053 L18.9313339,18.811523 L18.8189775,18.9769515 C18.7390687,19.0844848 18.6491976,19.1863104 18.5496448,19.2812082 C18.5367009,19.2941488 18.5224941,19.305913 18.5089187,19.3182654 C18.4495659,19.3726747 18.3873717,19.4241431 18.3220205,19.4726703 L18.3220205,19.4726703 L18.2604578,19.5182565 C18.1786898,19.5759011 18.0934491,19.6308986 18.0022099,19.6800141 C18.0015785,19.6803082 18.0009471,19.6808964 18.0003157,19.6811905 C17.9996843,19.6811905 17.9990529,19.6820728 17.9977901,19.6820728 L17.897869,19.732953 L17.897869,19.732953 L17.7960537,19.7785392 C17.7761642,19.7870682 17.7572218,19.7953031 17.7373323,19.803244 C17.6776638,19.8276547 17.6164167,19.8503007 17.5554854,19.8694175 C17.5302289,19.8770642 17.5056038,19.8850051 17.4803473,19.8917695 C17.4329913,19.9050042 17.3859511,19.9179448 17.3385951,19.9285326 C17.3035517,19.9361793 17.268824,19.9444142 17.2337806,19.9505904 C17.2041042,19.9564725 17.1741121,19.96059 17.1438043,19.9650015 C17.069929,19.9767657 16.9963694,19.9844125 16.9224941,19.9905887 C16.9067088,19.9911769 16.8899763,19.9926474 16.8738753,19.9935297 C16.8252565,19.9964707 16.7756906,19.9979413 16.7277032,19.9979413 L16.7277032,19.9979413 L16.725809,19.9979413 L16.725809,20 L7.274191,20 L7.274191,19.9979413 C7.22494081,19.9979413 7.17600631,19.9964707 7.12675612,19.9935297 C7.11033938,19.9926474 7.09423836,19.9911769 7.07750592,19.9897063 C7.00489345,19.9844125 6.93196527,19.9767657 6.8593528,19.9652956 C6.82841358,19.96059 6.79715864,19.9558843 6.765588,19.9502963 L6.765588,19.9502963 L6.66329913,19.9285326 C6.61404893,19.9179448 6.56448303,19.904416 6.51523283,19.890299 C6.4937648,19.8838287 6.47261247,19.8785348 6.45114444,19.8711822 C6.38674033,19.851183 6.32328335,19.8279488 6.26045777,19.8020676 C6.24246251,19.7953031 6.22478295,19.7879505 6.2074191,19.7797156 C6.13733228,19.750011 6.06819258,19.7185418 6.00031571,19.6814846 C5.90781373,19.6320751 5.82162589,19.5753129 5.73764799,19.516786 C5.71902131,19.5038454 5.70134175,19.4900225 5.68271507,19.4761996 C5.61420679,19.4253195 5.54885556,19.3709101 5.48729282,19.3141479 C5.47624309,19.3041483 5.46456196,19.2941488 5.45414365,19.283561 C5.30292028,19.1400379 5.17411208,18.9815155 5.06929755,18.811523 L5.06929755,18.811523 L5.06740331,18.8124053 L0.341594317,11.1874476 L0.343488556,11.1862712 C0.318863457,11.1453906 0.295185478,11.1053924 0.27308603,11.0639237 C0.266140489,11.0518654 0.259826361,11.0386306 0.253196527,11.02569 L0.205958958,10.9290767 L0.205958958,10.9290767 L0.163220205,10.8298163 C0.153433307,10.8045233 0.14269929,10.7798185 0.133543804,10.7539373 C0.122178374,10.722174 0.11112865,10.6895284 0.100710339,10.6568828 C0.0877663773,10.6148258 0.0760852407,10.5710042 0.0656669298,10.5280649 C0.0587213891,10.5021837 0.0527229676,10.4763025 0.0470402526,10.4504213 C0.0347277032,10.3916004 0.0252565114,10.3327794 0.0179952644,10.2730762 C0.016101026,10.2536653 0.0135753749,10.2327838 0.0116811365,10.2127847 C0.00505130229,10.1424937 4.47641924e-13,10.0722027 4.47641924e-13,10.0004412 L4.47641924e-13,10.0004412 L0.00335438043,9.89283561 L0.00335438043,9.89283561 L0.0116811365,9.78662706 L0.0116811365,9.78662706 L0.0179952644,9.72692381 C0.0255722178,9.66722056 0.0347277032,9.60839963 0.0470402526,9.55075511 C0.0527229676,9.52399159 0.0596685083,9.49752217 0.0662983425,9.47105275 C0.0760852407,9.42870167 0.0877663773,9.38546829 0.100710339,9.34458774 C0.11112865,9.3104716 0.122178374,9.27753187 0.133859511,9.24488626 L0.133859511,9.24488626 L0.16101026,9.17488934 C0.189423836,9.10489243 0.220994475,9.03636604 0.255406472,8.96931018 C0.261089187,8.95901651 0.265824783,8.94813464 0.271507498,8.93872329 C0.294554065,8.89607811 0.317916338,8.85490346 0.343804262,8.81372881 L0.343804262,8.81372881 L0.341278611,8.81255239 L5.06708761,1.18788877 L5.06898185,1.18847698 L5.18133824,1.02324462 C5.26124704,0.915776592 5.35111813,0.813885662 5.45067088,0.718791818 C5.46424625,0.705851212 5.47782163,0.694087026 5.491397,0.681734629 C5.5507498,0.62761937 5.61294396,0.576739262 5.67829519,0.527917886 C5.69913181,0.512330338 5.71902131,0.496448686 5.73985793,0.481743452 C5.8222573,0.423510727 5.90749803,0.368807259 5.99873717,0.319397674 C5.99936859,0.319397674 5.99936859,0.319103569 6,0.318809464 C6.06787687,0.28263459 6.13575375,0.25116539 6.20299921,0.222049027 C6.22320442,0.213225887 6.24372534,0.204696852 6.26393054,0.196756025 C6.32202052,0.173815861 6.3804262,0.151463906 6.43977901,0.132935312 C6.46850829,0.123229858 6.49755328,0.114994927 6.52659826,0.106759996 C6.57048145,0.0944075997 6.61468035,0.0820552034 6.65982636,0.0726438539 C6.69581689,0.0641148185 6.73212313,0.056468097 6.76906077,0.0494095849 C6.7949487,0.0441157008 6.82146803,0.0408805494 6.84735596,0.0361748746 C6.92691397,0.0241165831 7.00647198,0.0144111289 7.08602999,0.0094113495 C7.09834254,0.00852903548 7.11065509,0.00764672147 7.12296764,0.00676440745 C7.17442778,0.00382336073 7.22430939,0.00235283737 7.274191,0.00235283737 L7.274191,0.00235283737 L7.274191,-3.73034936e-14 L16.7245462,-3.73034936e-14 Z M18.3068666,3.60807611 L5.69408051,3.60807611 C5.2789266,3.60807611 5.0866614,3.91835654 5.0866614,4.30186904 C5.0866614,4.68420511 5.2792423,4.99507375 5.69408051,4.99507375 L5.69408051,4.99507375 L10.3475927,4.99507375 C10.4400947,4.99507375 10.5152328,5.06477655 10.5152328,5.15183154 L10.5152328,5.15183154 L10.5152328,6.36295458 C10.5152328,6.44883314 10.4400947,6.51883005 10.3475927,6.51883005 L10.3475927,6.51883005 L7.44467245,6.51883005 C6.14775059,6.51883005 5.09707972,7.49849271 5.09707972,8.70579239 L5.09707972,8.70579239 L5.09707972,13.3064718 C5.09707972,14.5137715 6.1480663,15.4925518 7.44467245,15.4925518 L7.44467245,15.4925518 L8.68097869,15.4925518 C9.0961326,15.4925518 9.28776638,15.1790362 9.28776638,14.7922886 C9.28776638,14.4055409 9.09581689,14.0923195 8.68097869,14.0923195 L8.68097869,14.0923195 L7.44467245,14.0923195 C6.97048145,14.0923195 6.58626677,13.7467465 6.58626677,13.3064718 L6.58626677,13.3064718 L6.58626677,8.70579239 C6.58626677,8.26434128 6.97048145,7.90671 7.44467245,7.90671 L7.44467245,7.90671 L10.3475927,7.90671 C10.4400947,7.90671 10.5152328,7.97641281 10.5152328,8.06317368 L10.5152328,8.06317368 L10.5152328,15.9498846 C10.5152328,16.2028146 10.7349645,16.4066291 11.0061563,16.4066291 L11.0061563,16.4066291 L11.4970797,16.4066291 C11.5902131,16.4066291 11.6653512,16.3372204 11.6653512,16.2510477 L11.6653512,16.2510477 L11.6653512,8.06258547 C11.6659826,7.97641281 11.7398579,7.90671 11.8329913,7.90671 L11.8329913,7.90671 L12.1689029,7.90671 C12.2614049,7.90671 12.3359116,7.97641281 12.3359116,8.06317368 L12.3359116,8.06317368 L12.336543,16.2510477 C12.336543,16.3372204 12.4116811,16.4066291 12.5041831,16.4066291 L12.5041831,16.4066291 L12.9951066,16.4066291 C13.266614,16.4066291 13.48603,16.2025205 13.48603,15.9498846 L13.48603,15.9498846 L13.48603,8.06258547 C13.4872928,7.97641281 13.5617995,7.90671 13.6543015,7.90671 L13.6543015,7.90671 L16.555959,7.90671 C17.03015,7.90671 17.4143646,8.26434128 17.4143646,8.70579239 L17.4143646,8.70579239 L17.4143646,13.3064718 C17.4143646,13.7467465 17.03015,14.0923195 16.555959,14.0923195 L16.555959,14.0923195 L15.324704,14.0923195 C14.9095501,14.0923195 14.7172849,14.4055409 14.7172849,14.7922886 C14.7172849,15.1790362 14.9098658,15.4925518 15.324704,15.4925518 L15.324704,15.4925518 L16.555959,15.4925518 C17.8528808,15.4925518 18.9035517,14.5134773 18.9035517,13.3064718 L18.9035517,13.3064718 L18.9035517,8.70579239 C18.9035517,7.49819861 17.8525651,6.51883005 16.555959,6.51883005 L16.555959,6.51883005 L13.6543015,6.51883005 C13.5617995,6.51883005 13.4857143,6.44883314 13.4863457,6.36295458 L13.4863457,6.36295458 L13.4863457,5.15124333 C13.4876085,5.06477655 13.5621152,4.99507375 13.6546172,4.99507375 L13.6546172,4.99507375 L18.3068666,4.99507375 C18.7220205,4.99507375 18.9142857,4.68449921 18.9142857,4.30186904 C18.9142857,3.91865065 18.7217048,3.60807611 18.3068666,3.60807611 L18.3068666,3.60807611 Z M12.1685872,4.99477964 C12.2610892,4.99477964 12.3359116,5.06477655 12.3355959,5.15153743 L12.3355959,5.15153743 L12.3362273,6.36266047 C12.3362273,6.44853904 12.2610892,6.51853595 12.1685872,6.51853595 L12.1685872,6.51853595 L11.8326756,6.51853595 C11.7395422,6.51853595 11.6650355,6.44853904 11.6650355,6.36266047 L11.6650355,6.36266047 L11.6650355,5.15153743 C11.6650355,5.06448245 11.7395422,4.99477964 11.8326756,4.99477964 L11.8326756,4.99477964 Z"></path>
        </g>
    </g>
</svg>