<?xml version="1.0" encoding="UTF-8"?>
<svg width="32px" height="32px" viewBox="0 0 32 32" version="1.1" xmlns="http://www.w3.org/2000/svg" xmlns:xlink="http://www.w3.org/1999/xlink">
    <!-- Generator: Sketch 57.1 (83088) - https://sketch.com -->
    <title>mith</title>
    <desc>Created with Sketch.</desc>
    <g id="mith" stroke="none" stroke-width="1" fill="none" fill-rule="evenodd">
        <circle id="Oval" fill="#00316D" fill-rule="nonzero" cx="16" cy="16" r="16"></circle>
        <g transform="translate(5.000000, 9.000000)" fill="#FFFFFF" fill-rule="nonzero" id="Shape">
            <path d="M13.1557928,11.8869751 C13.1427929,11.8629746 13.1407929,11.8529744 13.1357929,11.8499743 C12.5157944,11.5569678 11.8957959,11.2629612 11.2737975,10.9739547 C11.2407975,10.9579544 11.1737977,10.9619545 11.1527978,10.984955 C10.8827984,11.2749614 10.6187991,11.5719681 10.3507997,11.8689747 C10.5447993,12.0119779 12.9937932,12.0129779 13.1557928,11.8869751 M7.48180681,4.72381505 L7.41980697,4.59381214 C7.3678071,4.63081297 7.29980726,4.65781357 7.26580735,4.70781469 C6.69294135,5.56014091 6.12360455,6.414834 5.55781156,7.27187199 C5.52281165,7.3258732 5.52481164,7.40487496 5.50781168,7.47187646 C5.57781151,7.45787615 5.65581132,7.46087621 5.71281118,7.42587543 C6.19858172,7.13373231 6.67996742,6.83435898 7.15680762,6.52785536 C7.24061926,6.468763 7.2983142,6.37953073 7.31780722,6.2788498 C7.38180706,5.77883863 7.42580695,5.27582738 7.48180681,4.72381505 M19.4787772,11.9739771 L20.3047752,11.9739771 C20.4637748,11.9739771 20.5247747,11.9139757 20.4237749,11.7609723 C19.8987762,10.9589544 19.3757775,10.1559364 18.8487788,9.35691859 C18.8207789,9.3129176 18.756779,9.29391718 18.7087791,9.26391651 C18.6837792,9.31391763 18.6407793,9.36391874 18.6357793,9.41691993 C18.5747795,10.1989374 18.5197796,10.9809549 18.4597797,11.7629724 C18.4487798,11.9119757 18.5007796,11.9789772 18.6527793,11.9759771 C18.9277786,11.969977 19.2027779,11.9739771 19.4787772,11.9739771 M1.74482096,11.9139757 C1.87082065,11.9439764 1.9328205,11.971977 1.99382035,11.972977 C2.88681815,11.9749771 3.77981594,11.972977 4.67181374,11.9749771 C4.84481332,11.9749771 4.88881321,11.9139757 4.81581339,11.746972 C4.53566704,11.1116153 4.26165497,10.4735714 3.99381542,9.83292922 C3.91581561,9.64592504 3.84381579,9.65492525 3.72081609,9.7869282 C3.24482096,10.3009397 2.76481845,10.8099511 2.28681963,11.3209625 C2.11982004,11.5009665 1.95682044,11.6809705 1.74482096,11.9139757 M14.9397884,7.30087264 C14.9977883,7.41387516 15.0167882,7.46287626 15.0457882,7.5048772 L16.2537852,9.2589164 C16.752784,9.9839326 17.2507827,10.7089488 17.7537815,11.4309649 C17.7877814,11.4809661 17.8537812,11.5079667 17.9037811,11.5449675 C17.9297811,11.4849661 17.9717809,11.4279649 17.9797809,11.3659635 C17.9997809,11.1959597 18.0037809,11.0259559 18.0147808,10.8559521 C18.0687807,10.0809348 18.1287806,9.30691747 18.1747804,8.53290017 C18.1947804,8.2028928 18.0517807,8.032889 17.7387815,7.95488725 C16.9037836,7.74588258 16.0687856,7.53587789 15.2327877,7.32887326 C15.1577879,7.31087286 15.0787881,7.31387293 14.9397884,7.30087264 M14.7277889,2.16575788 L14.6517891,2.17875817 C14.6417892,2.33176159 14.6267892,2.48576503 14.6217892,2.6407685 L14.5107895,6.41185277 C14.5057895,6.54985586 14.5467894,6.62185746 14.689789,6.65585822 C15.5557869,6.86586292 16.4197848,7.08686786 17.2857826,7.29987262 C17.3607825,7.31787302 17.4437822,7.30087264 17.5227821,7.29987262 C17.5027821,7.2228709 17.4987821,7.13586895 17.4617822,7.06786743 C16.5987843,5.49783235 15.7337865,3.92779726 14.8667886,2.35976222 C14.8287887,2.29076068 14.7747888,2.22975931 14.7277889,2.16575788 M10.8427985,9.87293012 C10.8667985,9.73992715 10.8897984,9.65992536 10.8927984,9.57992357 C10.9057984,9.16091421 10.9067984,8.74190484 10.9257983,8.32289548 C10.9437397,8.0036472 10.8488759,7.68825257 10.657799,7.43187557 C9.86381765,6.33018169 9.07215119,5.22682126 8.28280484,4.12180159 C8.24680493,4.07180048 8.23180497,4.00679902 8.20680503,3.94879773 L8.11280526,4.00479898 C8.08980532,4.08880086 8.0538054,4.17180271 8.04480543,4.25680461 C7.9748056,4.93681981 7.91480575,5.616835 7.83980593,6.29485016 C7.81664922,6.43954693 7.86381527,6.58661949 7.96680562,6.69085901 C8.86180341,7.68788129 9.75080122,8.6909037 10.643799,9.69092605 C10.6917989,9.74492726 10.7497988,9.78892824 10.8427985,9.87293012 M11.4197971,9.66392545 L11.479797,9.70392634 C11.5347968,9.66092538 11.5997967,9.62692462 11.6437966,9.57392344 C12.4041373,8.65076378 13.1618053,7.72540589 13.9167909,6.7978614 C13.9630801,6.7390755 13.9902958,6.66754528 13.9947908,6.59285682 C14.0307907,5.35782922 14.0617906,4.12280162 14.0897905,2.88777402 C14.0917905,2.8197725 14.0527906,2.75077096 14.0317907,2.68276944 C13.9767908,2.73577062 13.899791,2.77877158 13.8687911,2.84277301 C13.1687928,4.32480613 12.4997944,5.82183959 11.7657963,7.28487228 C11.3777972,8.05888958 11.4397971,8.85790743 11.4197971,9.66492547 M7.91680574,11.9749771 C8.39780456,11.9749771 8.87980337,11.9819772 9.36080218,11.968977 C9.47058823,11.9637715 9.57488209,11.9194278 9.65480146,11.8439742 C9.98980063,11.4929663 10.3037999,11.120958 10.637799,10.7689501 C10.7627987,10.6389472 10.7347988,10.5589454 10.6287991,10.4429429 C10.0644453,9.8308361 9.50509477,9.21413512 8.95080319,8.59290151 C8.81680352,8.44289816 8.73980371,8.44389818 8.61980401,8.60790185 C7.85880588,9.64892511 7.08980778,10.6829482 6.32480967,11.7219714 C6.28680976,11.7739726 6.2728098,11.8429741 6.24680986,11.9039755 C6.31380969,11.927976 6.38080953,11.970977 6.44880936,11.970977 C6.93880815,11.9769771 7.42680695,11.9749771 7.91680574,11.9749771 M8.41480451,8.00888846 C8.14880517,7.69988156 7.88780581,7.40887505 7.64080642,7.10386824 C7.53680668,6.9768654 7.45680688,6.96386511 7.31680722,7.05086705 C6.48080928,7.57687881 5.63581137,8.08889025 4.80181342,8.61790207 C4.6508138,8.71390422 4.53181409,8.86290755 4.4038144,8.99391047 C4.2848147,9.1159132 4.30081466,9.2499162 4.3658145,9.39991955 C4.6908137,10.1429362 5.00781292,10.8889528 5.32881212,11.6339695 C5.45081182,11.9139757 5.49681171,11.9189758 5.68381125,11.6689703 C6.17881003,11.0089555 6.67180881,10.3459407 7.1648076,9.68492592 L8.41480451,8.00888846 M14.2097902,7.22087085 C14.1447904,7.3258732 14.1137905,7.38987463 14.0697906,7.44187579 C13.2777925,8.40789738 12.4847945,9.37391897 11.6867964,10.3359405 C11.5567968,10.492944 11.6237966,10.5549454 11.7707962,10.6219469 C12.687794,11.0419562 13.6007917,11.4689658 14.5197895,11.8869751 C14.6374887,11.9399914 14.764723,11.9685688 14.8937885,11.970977 C15.6497867,11.9779772 16.4067848,11.9759771 17.1637829,11.971977 C17.2337828,11.971977 17.3047826,11.9399763 17.3757824,11.9219759 C17.3507825,11.8479743 17.3397825,11.7629724 17.2957826,11.6999709 C16.5981765,10.6812004 15.8985101,9.66384226 15.1967878,8.64790274 C14.8867886,8.19789269 14.5747893,7.74788263 14.2097902,7.22087085 M10.9927982,12.998 C7.55080664,12.998 4.10881513,12.9969999 0.66682362,13 C0.398824281,13 0.156824878,12.9699993 0.0408251637,12.6819929 C-0.0691745651,12.4089868 0.0588251193,12.2069823 0.237824678,12.015978 C1.26582214,10.9179535 2.30781957,9.8319292 3.30781711,8.70990413 C3.68981617,8.28189456 3.98481544,7.77288319 4.30781464,7.29187244 C5.34281209,5.74383784 6.36980956,4.18980311 7.40980699,2.64576861 C7.51180674,2.49476523 7.66780636,2.34176182 7.83180595,2.28176047 C8.05780539,2.1977586 8.25080492,2.3277615 8.39480456,2.53376611 C9.2318025,3.72979283 10.0748004,4.92181947 10.9157983,6.11584616 C11.0887979,6.35985161 11.1507978,6.35185143 11.2787975,6.07384522 L13.8727911,0.423718952 C13.9747908,0.201713991 14.1097905,0.0127097669 14.3727898,0.000709498731 C14.6477891,-0.0122907918 14.8147887,0.15471294 14.9437884,0.390718214 C16.2457852,2.752771 17.5177821,5.13482423 18.8707787,7.46687635 C19.6887767,8.87690786 20.6357744,10.2079376 21.5247722,11.5749682 C21.6347719,11.7429719 21.7457716,11.9099756 21.8537714,12.0799794 C21.9837711,12.284984 22.0607709,12.509989 21.9387712,12.7369941 C21.8187715,12.956999 21.596772,12.999 21.3637726,12.999 C17.9067811,12.9969999 14.4497896,12.998 10.9927982,12.998"></path>
        </g>
    </g>
</svg>