<?xml version="1.0" encoding="UTF-8"?>
<svg width="32px" height="32px" viewBox="0 0 32 32" version="1.1" xmlns="http://www.w3.org/2000/svg" xmlns:xlink="http://www.w3.org/1999/xlink">
    <!-- Generator: Sketch 57.1 (83088) - https://sketch.com -->
    <title>mkr</title>
    <desc>Created with Sketch.</desc>
    <g id="mkr" stroke="none" stroke-width="1" fill="none" fill-rule="evenodd">
        <circle id="Oval" fill="#54AFA1" fill-rule="nonzero" cx="16" cy="16" r="16"></circle>
        <g transform="translate(6.000000, 11.000000)" fill="#FFFFFF" fill-rule="nonzero" id="Shape">
            <path d="M2.48070235,10 L2.48070235,2.15230463 L8.28002964,6.63138232 L8.28002964,10 L9.76019041,10 L9.76019041,6.3151402 C9.75963919,6.03756055 9.63234225,5.77629258 9.41628185,5.60929225 L2.38321646,0.175374566 C2.12089203,-0.0245705931 1.77127087,-0.0560787044 1.47900279,0.0938861784 C1.18673471,0.243851061 1.0015246,0.549785 1,0.885113022 L1,10 L2.48070235,10 Z M18.5192976,10 L18.5192976,2.15230463 L12.7199704,6.63138232 L12.7199704,10 L11.2398096,10 L11.2398096,6.3151402 C11.2403608,6.03756055 11.3676578,5.77629258 11.5837181,5.60929225 L18.6167835,0.17759771 C18.878795,-0.0221165853 19.2279318,-0.0538106891 19.5200379,0.0956016401 C19.8121441,0.245013969 19.9976648,0.550185374 20,0.885113022 L20,10 L18.5192976,10 Z"></path>
        </g>
    </g>
</svg>