<?xml version="1.0" encoding="UTF-8"?>
<svg width="32px" height="32px" viewBox="0 0 32 32" version="1.1" xmlns="http://www.w3.org/2000/svg" xmlns:xlink="http://www.w3.org/1999/xlink">
    <!-- Generator: Sketch 57.1 (83088) - https://sketch.com -->
    <title>nexo</title>
    <desc>Created with Sketch.</desc>
    <defs>
        <linearGradient x1="0.757495777%" y1="0.757495777%" x2="100%" y2="100%" id="linearGradient-1">
            <stop stop-color="#3E60C7" offset="0%"></stop>
            <stop stop-color="#2D4692" offset="100%"></stop>
        </linearGradient>
    </defs>
    <g id="nexo" stroke="none" stroke-width="1" fill="none" fill-rule="evenodd">
        <path d="M16,32 C24.8368,32 32,24.8368 32,16 C32,7.1632 24.8368,0 16,0 C7.1632,0 0,7.1632 0,16 C0,24.8368 7.1632,32 16,32 Z" id="Oval" fill="url(#linearGradient-1)" fill-rule="nonzero"></path>
        <g transform="translate(6.000000, 7.000000)" fill-rule="nonzero" id="Path">
            <path d="M5.136,0.1134 L14.84,5.7834 L14.84,11.5668 L0,2.8917 L4.756,0.1134 C4.87458054,0.0485923295 5.01741946,0.0485923295 5.136,0.1134 Z" fill="#BBC6E1"></path>
            <polygon fill="#E9ECF5" points="14.84 0 9.892 2.8917 14.84 5.7834"></polygon>
            <path d="M14.84,0 L19.6,2.7783 C19.7163401,2.8499549 19.7886846,2.97661438 19.792,3.11445 L19.792,14.45445 L14.84,11.5668 L14.84,0 Z" fill="#FFFFFF"></path>
            <path d="M19.788,14.4585 L15.032,17.2368 C14.9082396,17.3091463 14.7557604,17.3091463 14.632,17.2368 L4.932,11.5668 L4.932,5.7753 L19.788,14.4585 Z" fill="#E9ECF5"></path>
            <path d="M-6.81019643e-06,2.8917 L-6.81019643e-06,14.2317 C-0.000817731739,14.3738741 0.0720554296,14.5060706 0.192,14.58 L4.948,17.3583 L4.948,5.7753 L-6.81019643e-06,2.8917 Z" fill="#A3B3D6"></path>
            <polygon fill="#BBC6E1" points="4.948 17.3502 9.892 14.4585 4.948 11.5668"></polygon>
        </g>
    </g>
</svg>