<?xml version="1.0" encoding="UTF-8"?>
<svg width="32px" height="32px" viewBox="0 0 32 32" version="1.1" xmlns="http://www.w3.org/2000/svg" xmlns:xlink="http://www.w3.org/1999/xlink">
    <!-- Generator: Sketch 57.1 (83088) - https://sketch.com -->
    <title>omg</title>
    <desc>Created with Sketch.</desc>
    <g id="omg" stroke="none" stroke-width="1" fill="none" fill-rule="evenodd">
        <path d="M16,32 C24.8368,32 32,24.8368 32,16 C32,7.1632 24.8368,0 16,0 C7.1632,0 0,7.1632 0,16 C0,24.8368 7.1632,32 16,32 Z" id="Oval" fill="#070A0E" fill-rule="nonzero"></path>
        <g transform="translate(3.000000, 12.000000)" fill="#FFFFFF" fill-rule="nonzero" id="Group">
            <g transform="translate(12.500000, 4.500000) scale(-1, 1) rotate(-180.000000) translate(-12.500000, -4.500000) ">
                <path d="M2.61338645,8.63856574 C0.956015936,8.03936255 -0.102151394,5.98677291 0.280318725,4.07442231 C0.471553785,3.11824701 0.688286853,2.67203187 1.28749004,2.04733068 C2.07792829,1.19314741 2.58788845,1.00191235 3.97752988,1.00191235 C5.08669323,1.00191235 5.25243028,1.04015936 5.86438247,1.37163347 C6.99904382,2.00908367 7.62374502,3.01625498 7.76398406,4.44414343 C7.94247012,6.40749004 6.80780876,8.24334661 5.13768924,8.71505976 C4.48749004,8.89354582 3.23808765,8.8552988 2.61338645,8.63856574 Z M5.40541833,7.04494024 C6.15760956,6.49673307 6.54007968,5.23458167 6.2723506,4.12541833 C5.76239044,1.98358566 2.94486056,1.56286853 1.97593625,3.48796813 C1.38948207,4.63537849 1.69545817,6.43298805 2.58788845,7.05768924 C3.32733068,7.59314741 4.64047809,7.58039841 5.40541833,7.04494024 Z" id="Shape"></path>
                <path d="M19.8627888,8.58756972 C17.4659761,7.63139442 16.7902789,4.09992032 18.6006375,1.95808765 C19.5823108,0.785179283 21.9026295,0.568446215 22.9352988,1.56286853 L23.2157769,1.83059761 L23.2540239,1.4736255 C23.2922709,1.1549004 23.3305179,1.12940239 23.9297211,1.12940239 L24.5671713,1.12940239 L24.6054183,3.14374502 L24.6436653,5.14533865 L22.8460558,5.14533865 L21.0611952,5.14533865 L21.0611952,4.50788845 L21.0611952,3.87043825 L22.1448606,3.87043825 C23.3177689,3.87043825 23.3560159,3.84494024 23.0245418,3.15649402 C22.7950598,2.68478088 21.9791235,2.21306773 21.3671713,2.21306773 C19.9010359,2.21306773 19.0213546,3.24573705 19.0213546,4.91585657 C19.0341036,6.76446215 20.219761,7.82262948 21.8388845,7.44015936 C22.4635857,7.28717131 23.1010359,6.73896414 23.1010359,6.34374502 C23.1010359,6.21625498 23.2922709,6.16525896 23.8659761,6.16525896 L24.6181673,6.16525896 L24.4396813,6.73896414 C24.0444622,8.07760956 23.0627888,8.75330677 21.4436653,8.80430279 C20.7297211,8.8298008 20.334502,8.77880478 19.8627888,8.58756972 Z" id="Path"></path>
                <path d="M8.82215139,4.89035857 L8.82215139,1.06565737 L9.45960159,1.06565737 L10.0970518,1.06565737 L10.1225498,3.64095618 L10.1607968,6.22900398 L11.1042231,3.64095618 L12.0476494,1.05290837 L12.6850996,1.09115538 L13.3225498,1.12940239 L14.2532271,3.67920319 L15.1839044,6.22900398 L15.2221514,3.67920319 L15.2603984,1.12940239 L15.9360956,1.09115538 L16.5990438,1.05290837 L16.5735458,4.85211155 L16.5352988,8.65131474 L15.6556175,8.65131474 L14.7631873,8.65131474 L13.7432669,5.82103586 C13.1823108,4.25290837 12.6850996,3.01625498 12.6468526,3.08 C12.5958566,3.13099602 12.1368924,4.34215139 11.6269323,5.78278884 C11.1169721,7.22342629 10.63251,8.47282869 10.5687649,8.56207171 C10.4922709,8.65131474 10.1352988,8.71505976 9.63808765,8.71505976 L8.82215139,8.71505976 L8.82215139,4.89035857 Z" id="Path"></path>
            </g>
        </g>
    </g>
</svg>