<?xml version="1.0" encoding="UTF-8"?>
<svg width="32px" height="32px" viewBox="0 0 32 32" version="1.1" xmlns="http://www.w3.org/2000/svg" xmlns:xlink="http://www.w3.org/1999/xlink">
    <!-- Generator: Sketch 57.1 (83088) - https://sketch.com -->
    <title>one</title>
    <desc>Created with Sketch.</desc>
    <g id="one" stroke="none" stroke-width="1" fill="none" fill-rule="evenodd">
        <circle id="Oval" fill="#35D4D2" cx="16" cy="16" r="16"></circle>
        <g transform="translate(7.000000, 7.000000)" fill="#FFFFFF" fill-rule="nonzero" id="Shape">
            <path d="M14.117,1.19648117e-06 C11.9763112,-0.00166402135 10.2385152,1.73507391 10.233,3.8816375 L10.233,8.18542926 C9.833,8.21250344 9.424,8.22955014 9,8.22955014 C8.576,8.22955014 8.169,8.24659685 7.767,8.27066279 L7.767,3.8816375 C7.73297163,1.7553089 6.0042758,0.0494576348 3.8835,0.0494576348 C1.7627242,0.0494576348 0.0340283719,1.7553089 0,3.8816375 L0,14.1678201 C0.0340283719,16.2941487 1.7627242,18.0000012 3.8835,18.0000012 C6.0042758,18.0000012 7.73297163,16.2941487 7.767,14.1678201 L7.767,9.86402837 C8.167,9.8369542 8.576,9.81990749 9,9.81990749 C9.424,9.81990749 9.831,9.80286078 10.233,9.77879485 L10.233,14.1678201 C10.2670284,16.2941487 11.9957242,18.0000012 14.1165,18.0000012 C16.2372758,18.0000012 17.9659716,16.2941487 18,14.1678201 L18,3.8816375 C17.9944855,1.7354656 16.2572985,-0.00111072179 14.117,1.19648117e-06 Z M3.883,1.59035951 C5.14633521,1.58980245 6.17169152,2.61483565 6.175,3.8816375 L6.175,8.43912435 C5.03878195,8.604221 3.92922453,8.91878501 2.875,9.37468765 C2.41823384,9.57570733 1.98824953,9.83305932 1.595,10.1407867 L1.595,3.8816375 C1.59830344,2.61640037 2.62122618,1.5920122 3.883,1.59035951 Z M6.175,14.1678201 C6.175,15.4371345 5.14883665,16.4661171 3.883,16.4661171 C2.61716335,16.4661171 1.591,15.4371345 1.591,14.1678201 L1.591,13.1359931 C1.591,12.2244957 2.311,11.3611302 3.518,10.8236576 C4.36847451,10.4557328 5.26083571,10.1940582 6.175,10.0445229 L6.175,14.1678201 L6.175,14.1678201 Z M14.117,16.4590981 C12.8536648,16.4596552 11.8283085,15.434622 11.825,14.1678201 L11.825,9.61033329 C12.961218,9.44523663 14.0707755,9.13067263 15.125,8.67476998 C15.5817662,8.47375031 16.0117505,8.21639832 16.405,7.90867098 L16.405,14.1678201 C16.4016966,15.4330573 15.3787738,16.4574454 14.117,16.4590981 L14.117,16.4590981 Z M14.482,7.21978353 C13.6315255,7.58770831 12.7391643,7.84938298 11.825,7.99891825 L11.825,3.8816375 C11.825,2.61232312 12.8511634,1.58334051 14.117,1.58334051 C15.3828366,1.58334051 16.409,2.61232312 16.409,3.8816375 L16.409,4.91346456 C16.409,5.82095094 15.689,6.68431643 14.482,7.21978353 Z"></path>
        </g>
    </g>
</svg>