<?xml version="1.0" encoding="UTF-8"?>
<svg width="32px" height="32px" viewBox="0 0 32 32" version="1.1" xmlns="http://www.w3.org/2000/svg" xmlns:xlink="http://www.w3.org/1999/xlink">
    <!-- Generator: Sketch 57.1 (83088) - https://sketch.com -->
    <title>perp</title>
    <desc>Created with Sketch.</desc>
    <defs>
        <linearGradient x1="0%" y1="0%" x2="100%" y2="100%" id="linearGradient-1">
            <stop stop-color="#334379" offset="0%"></stop>
            <stop stop-color="#1A2340" offset="100%"></stop>
        </linearGradient>
    </defs>
    <g id="perp" stroke="none" stroke-width="1" fill="none" fill-rule="evenodd">
        <circle id="Oval" fill="url(#linearGradient-1)" cx="16" cy="16" r="16"></circle>
        <g transform="translate(6.000000, 7.000000)">
            <path d="M6.9218107,0.499061728 C7.51875367,-0.127777778 8.48665491,-0.127777778 9.08371546,0.499061728 L14.0831276,5.74846914 L12.0563198,7.87654321 L8.00270429,3.62033333 L3.94908877,7.87654321 L5.97589653,10.0046914 L8.00270429,7.87654321 L10.0295121,10.0046914 L8.00270429,12.1328395 L11.0429159,15.3250617 C11.6025867,15.912716 11.6025867,16.8655556 11.0429159,17.4532099 C10.4832451,18.0408642 9.57577895,18.0408642 9.01610817,17.4532099 L0.976484421,9.01160494 C0.379541446,8.38481481 0.379541446,7.36839506 0.976484421,6.74159259 L6.9218107,0.499061728 Z" id="Path" fill="#3CEAAA"></path>
            <path d="M10.9753086,0.499061728 C11.5722516,-0.127777778 12.5402704,-0.127777778 13.1372134,0.499061728 L19.0825397,6.74159259 C19.6794827,7.36839506 19.6794827,8.38481481 19.0825397,9.01160494 L11.1104056,17.3822222 C10.5134627,18.0091358 9.54556143,18.0091358 8.94850088,17.3822222 L8.00270429,16.3891358 L12.0563198,12.1328395 L8.00270429,7.87654321 L10.0295121,5.74846914 L14.08301,10.0046914 L16.1098178,7.87654321 L10.0295121,1.49219753 L10.9753086,0.499061728 Z" id="Path" fill="#03BCE4"></path>
            <polygon id="Rectangle" fill="#029ABB" fill-rule="nonzero" transform="translate(8.002704, 5.748509) rotate(45.000000) translate(-8.002704, -5.748509) " points="6.4978833 4.24368763 9.43586714 4.31534577 9.50752528 7.25332961 6.56954145 7.18167147"></polygon>
            <polygon id="Rectangle" fill="#3CEAAA" fill-rule="nonzero" opacity="0.95" transform="translate(12.056320, 5.748509) rotate(45.000000) translate(-12.056320, -5.748509) " points="10.5514988 4.24368763 13.4894827 4.31534577 13.5611408 7.25332961 10.623157 7.18167147"></polygon>
        </g>
    </g>
</svg>