<?xml version="1.0" encoding="UTF-8"?>
<svg width="32px" height="32px" viewBox="0 0 32 32" version="1.1" xmlns="http://www.w3.org/2000/svg" xmlns:xlink="http://www.w3.org/1999/xlink">
    <!-- Generator: Sketch 57.1 (83088) - https://sketch.com -->
    <title>pundix</title>
    <desc>Created with Sketch.</desc>
    <g id="pundix" stroke="none" stroke-width="1" fill="none" fill-rule="evenodd">
        <path d="M16,32 C24.8368,32 32,24.8368 32,16 C32,7.1632 24.8368,0 16,0 C7.1632,0 0,7.1632 0,16 C0,24.8368 7.1632,32 16,32 Z" id="Oval" fill="#070A0E" fill-rule="nonzero"></path>
        <g transform="translate(7.000000, 7.000000)" fill="#F6D30C" fill-rule="nonzero" id="Shape">
            <path d="M9.74618182,7.03636364 L16.2523636,0.517090909 L17.5745455,1.85236364 L11.0683636,8.35854545 L9.74618182,7.03636364 Z M0.412363636,16.3570909 L6.93163636,9.83781818 L8.25381818,11.1730909 L1.74763636,17.6792727 L0.412363636,16.3570909 Z M9.74618182,11.1730909 L11.0683636,9.83781818 L17.5876364,16.3570909 L16.2523636,17.6792727 L9.74618182,11.1730909 Z M0.412363636,1.85236364 L1.74763636,0.517090909 L8.25381818,7.02327273 L6.93163636,8.35854545 L0.412363636,1.85236364 Z M7.66472727,9.09163636 L9,7.75636364 L10.3352727,9.09163636 L9,10.4269091 L7.66472727,9.09163636 Z"></path>
        </g>
    </g>
</svg>