<?xml version="1.0" encoding="UTF-8"?>
<svg width="32px" height="32px" viewBox="0 0 32 32" version="1.1" xmlns="http://www.w3.org/2000/svg" xmlns:xlink="http://www.w3.org/1999/xlink">
    <!-- Generator: Sketch 57.1 (83088) - https://sketch.com -->
    <title>rari</title>
    <desc>Created with Sketch.</desc>
    <g id="rari" stroke="none" stroke-width="1" fill="none" fill-rule="evenodd">
        <path d="M16,32 C24.8368,32 32,24.8368 32,16 C32,7.1632 24.8368,0 16,0 C7.1632,0 0,7.1632 0,16 C0,24.8368 7.1632,32 16,32 Z" id="Oval" fill="#FDD901" fill-rule="nonzero"></path>
        <g transform="translate(9.000000, 11.000000)" fill="#FFFFFF" id="Fill-4">
            <path d="M4.03826332,3.16881495 L4.03826332,4.23173117 C5.71799518,4.23173117 7.33998364,4.25409074 8.96029433,4.20648158 C9.19028925,4.19978892 9.41189529,3.85359584 9.63727633,3.66468027 C9.44489152,3.49934113 9.25516319,3.19512928 9.05984228,3.19071821 C7.39423168,3.15253962 5.7277822,3.16881495 4.03826332,3.16881495 M12.2467749,5.41465896 C13.4265299,5.92193222 13.9020392,6.80581976 13.8043088,8.12062339 C13.7406932,8.97469817 13.7922848,9.83896404 13.7922848,10.7502306 L9.89649248,10.7502306 C9.89649248,9.93813711 9.90977486,9.1345615 9.89271749,8.33174642 C9.8755203,7.51934866 9.57184312,7.16904872 8.81978072,7.15870551 C7.23903755,7.13695437 5.65787493,7.15201285 4.00456801,7.15201285 L4.00456801,10.7561628 L0,10.7561628 L0,0.039387622 C0.171412624,0.0281317834 0.371067785,0.00364272928 0.570583132,0.00349062335 C3.59868641,0.00105692853 6.62678968,-0.00487520261 9.65489296,0.00805380115 C10.1885651,0.0101832841 10.7248936,0.0688961718 11.2547907,0.144797029 C12.6599268,0.34603317 13.4684743,1.07796689 13.7097942,2.33010288 C13.9699891,3.6806514 13.5871769,4.51114976 12.2467749,5.41465896"></path>
        </g>
    </g>
</svg>