<?xml version="1.0" encoding="UTF-8"?>
<svg width="32px" height="32px" viewBox="0 0 32 32" version="1.1" xmlns="http://www.w3.org/2000/svg" xmlns:xlink="http://www.w3.org/1999/xlink">
    <!-- Generator: Sketch 57.1 (83088) - https://sketch.com -->
    <title>renbtc</title>
    <desc>Created with Sketch.</desc>
    <g id="renbtc" stroke="none" stroke-width="1" fill="none" fill-rule="evenodd">
        <circle id="Oval" fill="#8E8F93" cx="16" cy="16" r="16"></circle>
        <g transform="translate(7.000000, 5.000000)" fill="#FFFFFF" fill-rule="nonzero" id="Shape">
            <path d="M15.9608116,9.04018433 C16.272856,6.93865059 14.6844336,5.80899709 12.512384,5.0554059 L13.2170127,2.20869451 L11.4966305,1.77690212 L10.8106999,4.54866348 C10.3584195,4.43504203 9.89395461,4.3279816 9.4323251,4.22184743 L10.1232367,1.43179239 L8.40392735,1 L7.69891548,3.84578512 C7.32464614,3.75995153 6.95704376,3.67512138 6.60039971,3.58573711 L6.60239213,3.57678325 L4.22995057,2.98003906 L3.77230591,4.83086459 C3.77230591,4.83086459 5.04868391,5.12557023 5.02178618,5.14370952 C5.71844519,5.3188502 5.84442774,5.78337051 5.82350728,6.15155959 L5.0208666,9.39463386 C5.06883806,9.40690683 5.13106302,9.42466018 5.19972504,9.45244803 C5.14232788,9.43809097 5.0812524,9.42242171 5.01787796,9.40713839 L3.89284761,13.9502211 C3.80770976,14.1634157 3.5916083,14.483362 3.10453706,14.3618673 C3.1217792,14.3870308 1.8541372,14.0475558 1.8541372,14.0475558 L1,16.0311456 L3.23879584,16.5933093 C3.65528926,16.6985172 4.06342983,16.808588 4.46536323,16.9120978 L3.7534545,19.7914599 L5.4718443,20.2232523 L6.17685617,17.3744568 C6.64630211,17.5028212 7.10187772,17.6212284 7.54787435,17.7328429 L6.84523807,20.5682076 L8.56569692,21 L9.27752901,18.1260411 C12.2111447,18.6852717 14.4169889,18.4598041 15.3454589,15.7870756 C16.0936144,13.6352149 15.3082159,12.3940241 13.7648529,11.5846256 C14.8889637,11.3234969 15.7356676,10.5787824 15.9614247,9.04041589 L15.9608883,9.04002995 L15.9608116,9.04018433 Z M12.0301406,14.5920434 C11.4984697,16.743904 7.90152976,15.5806735 6.73534818,15.2889783 L7.68006408,11.4743232 C8.84616904,11.7675623 12.5857972,12.3478654 12.0302172,14.5920434 L12.0301406,14.5920434 Z M12.5621946,9.00900018 C12.0771924,10.9663458 9.08342086,9.97192655 8.11226701,9.72808812 L8.96877979,6.26842296 C9.93993364,6.51226139 13.0674276,6.96736471 12.5623479,9.00900018 L12.5621946,9.00900018 Z"></path>
        </g>
    </g>
</svg>