<?xml version="1.0" encoding="UTF-8"?>
<svg width="32px" height="32px" viewBox="0 0 32 32" version="1.1" xmlns="http://www.w3.org/2000/svg" xmlns:xlink="http://www.w3.org/1999/xlink">
    <!-- Generator: Sketch 57.1 (83088) - https://sketch.com -->
    <title>snx</title>
    <desc>Created with Sketch.</desc>
    <defs>
        <linearGradient x1="100%" y1="100%" x2="0%" y2="0%" id="linearGradient-1">
            <stop stop-color="#090220" offset="0%"></stop>
            <stop stop-color="#170659" offset="100%"></stop>
        </linearGradient>
    </defs>
    <g id="snx" stroke="none" stroke-width="1" fill="none" fill-rule="evenodd">
        <circle id="Oval" fill="url(#linearGradient-1)" fill-rule="nonzero" cx="16" cy="16" r="16"></circle>
        <g transform="translate(6.000000, 8.000000)" fill="#00D1FF" fill-rule="nonzero" id="Group">
            <g transform="translate(0.000000, 1.000000)">
                <path d="M4.84051724,3.2695122 C4.71551724,3.11585366 4.52586207,3.0304878 4.32327586,3.0304878 L0.146551724,3.0304878 C0.112068966,3.0304878 0.0818965517,3.01768293 0.0560344828,2.99634146 C0.0344827586,2.975 0.0215517241,2.94939024 0.0215517241,2.9195122 L0.0215517241,0.132317073 C0.0215517241,0.102439024 0.0344827586,0.0768292683 0.0560344828,0.0554878049 C0.0818965517,0.0298780488 0.112068966,0.0170731707 0.146551724,0.0213414634 L4.56034483,0.0213414634 C5.67241379,0.0213414634 6.63362069,0.473780488 7.44396552,1.37439024 L8.51724138,2.67195122 L6.42672414,5.1945122 L4.84051724,3.2695122 Z M12.5560345,1.36158537 C13.362069,0.469512195 14.3275862,0.0213414634 15.4525862,0.0213414634 L19.8534483,0.0213414634 C19.8836207,0.0170731707 19.9137931,0.0298780488 19.9353448,0.0469512195 C19.9568966,0.0682926829 19.9655172,0.0981707317 19.9612069,0.132317073 L19.9612069,2.9195122 C19.9612069,2.94939024 19.9525862,2.975 19.9353448,2.99634146 C19.9137931,3.02195122 19.8836207,3.0347561 19.8534483,3.0304878 L15.6767241,3.0304878 C15.4784483,3.02621951 15.2887931,3.11585366 15.1594828,3.2695122 L12.0818966,6.97865854 L15.1724138,10.7134146 C15.2974138,10.8542683 15.4827586,10.9396341 15.6724138,10.9353659 L19.8491379,10.9353659 C19.8793103,10.9310976 19.9137931,10.9481707 19.9310345,10.9695122 C19.9482759,10.995122 19.9612069,11.0292683 19.9568966,11.0591463 L19.9568966,13.8463415 C19.9568966,13.8762195 19.9482759,13.9018293 19.9310345,13.9231707 C19.9094828,13.9487805 19.8793103,13.9615854 19.8491379,13.9573171 L15.4525862,13.9573171 C14.3275862,13.9573171 13.3706897,13.504878 12.5689655,12.6042683 L10.0086207,9.5097561 L7.44827586,12.6042683 C6.64224138,13.504878 5.67672414,13.9573171 4.55172414,13.9573171 L0.146551724,13.9573171 C0.11637931,13.9615854 0.0818965517,13.9445122 0.0646551724,13.9231707 C0.0431034483,13.897561 0.0344827586,13.8634146 0.0387931034,13.8335366 L0.0387931034,11.0463415 C0.0387931034,11.0164634 0.0474137931,10.9908537 0.0646551724,10.9695122 C0.0862068966,10.9439024 0.11637931,10.9310976 0.146551724,10.9353659 L4.32327586,10.9353659 C4.52155172,10.9353659 4.7112069,10.8457317 4.84051724,10.6963415 L7.86206897,7.04268293 L12.5560345,1.36158537 Z" id="Shape"></path>
            </g>
        </g>
    </g>
</svg>