<?xml version="1.0" encoding="UTF-8"?>
<svg width="32px" height="32px" viewBox="0 0 32 32" version="1.1" xmlns="http://www.w3.org/2000/svg" xmlns:xlink="http://www.w3.org/1999/xlink">
    <!-- Generator: Sketch 57.1 (83088) - https://sketch.com -->
    <title>steth</title>
    <desc>Created with Sketch.</desc>
    <g id="steth" stroke="none" stroke-width="1" fill="none" fill-rule="evenodd">
        <circle id="Oval" fill="#D8D8D8" cx="16" cy="16" r="16"></circle>
        <g transform="translate(7.000000, 3.000000)">
            <g id="ic/coin/LIDO">
                <polygon id="Fill-1" fill="#4A90E2" points="9.02664727 0 2.375 9.88023126 9.02664727 13.7647059 15.8333333 9.88023126"></polygon>
                <path d="M9.30182378,15.6172376 L1.71252395,11.4705882 C0.635383242,12.9423695 0,14.7392006 0,16.6809455 C0,21.6603463 4.16477104,25.6973039 9.30182378,25.6973039 C14.4388765,25.6973039 18.6041667,21.6603463 18.6041667,16.6809455 C18.6041667,14.7517799 17.97657,12.9650123 16.9118878,11.4987659 L9.30182378,15.6172376 Z" id="Fill-2" fill="#66C8FF"></path>
                <path d="M9.30182378,15.6172376 L1.71252395,11.4705882 C0.635383242,12.9423695 0,14.7392006 0,16.6809455 C0,21.6603463 4.16477104,25.6973039 9.30182378,25.6973039 C9.30182378,23.7024389 9.30182378,20.3424167 9.30182378,15.6172376 Z" id="Fill-2" fill="#01A3FF"></path>
                <polygon id="Path-2" fill="#67C8FF" points="1.71252395 11.4705882 9.30208333 15.6172376 9.30208333 25.6973039"></polygon>
                <polygon id="Path-2" fill="#CDEDFF" transform="translate(13.106856, 18.598035) scale(-1, 1) translate(-13.106856, -18.598035) " points="9.30182378 11.4987659 16.9116282 15.6172376 16.9118878 25.6973039"></polygon>
            </g>
            <polygon id="Path-7" fill="#67C8FF" points="9.02664727 6.20763442 2.375 9.88023126 9.02664727 13.7647059"></polygon>
            <polygon id="Path-7" fill="#CDEDFF" transform="translate(12.429990, 9.986170) scale(-1, 1) translate(-12.429990, -9.986170) " points="15.8333333 6.20763442 9.02664727 9.88023126 15.8333333 13.7647059"></polygon>
            <polygon id="Path-8" fill="#00A3FF" points="9.02664727 1.50990331e-14 9.02664727 6.20763442 2.375 9.88023126"></polygon>
            <polygon id="Path-9" fill="#66C8FF" points="9.10416667 1.50990331e-14 9.02664727 6.20763442 15.8333333 9.88023126"></polygon>
        </g>
    </g>
</svg>