<?xml version="1.0" encoding="UTF-8"?>
<svg width="32px" height="32px" viewBox="0 0 32 32" version="1.1" xmlns="http://www.w3.org/2000/svg" xmlns:xlink="http://www.w3.org/1999/xlink">
    <!-- Generator: Sketch 57.1 (83088) - https://sketch.com -->
    <title>sushi</title>
    <desc>Created with Sketch.</desc>
    <defs>
        <linearGradient x1="35.5353448%" y1="7.58842963%" x2="51.4344828%" y2="54.0757417%" id="linearGradient-1">
            <stop stop-color="#03B8FF" offset="0%"></stop>
            <stop stop-color="#FA52A0" offset="100%"></stop>
        </linearGradient>
        <linearGradient x1="36.5085128%" y1="15.6728657%" x2="55.5162467%" y2="63.7678373%" id="linearGradient-2">
            <stop stop-color="#03B8FF" offset="0%"></stop>
            <stop stop-color="#FA52A0" offset="100%"></stop>
        </linearGradient>
        <linearGradient x1="28.7245071%" y1="-2.52525946%" x2="47.7931559%" y2="45.2559436%" id="linearGradient-3">
            <stop stop-color="#03B8FF" offset="0%"></stop>
            <stop stop-color="#FA52A0" offset="100%"></stop>
        </linearGradient>
    </defs>
    <g id="sushi" stroke="none" stroke-width="1" fill="none" fill-rule="evenodd">
        <circle id="Oval" fill="#D8D8D8" cx="16" cy="16" r="16"></circle>
        <g transform="translate(3.000000, 5.000000)">
            <polygon id="Path" fill="url(#linearGradient-1)" fill-rule="nonzero" points="5.29934762 1.39393939 24.4540541 14.5577312 19.7168686 21.6060606 0.562162162 8.33861694"></polygon>
            <path d="M25.5620519,14.6996319 C23.8239715,17.1207823 17.9579501,16.1733756 12.4178187,12.3837489 C6.76905735,8.69938966 3.72741661,3.75182151 5.35686701,1.33067114 C7.09494743,-1.09047923 12.9609689,-0.143072565 18.5011002,3.6465541 C24.1498616,7.22564596 27.1915023,12.2784815 25.5620519,14.6996319 Z" id="Path" fill="url(#linearGradient-2)" fill-rule="nonzero"></path>
            <path d="M20.6410733,21.6780101 C18.8974228,24.083365 13.0126022,23.1421392 7.45471618,19.3772358 C1.89683011,15.6123324 -1.26353648,10.8016225 0.480114049,8.2916869 C2.22376458,5.88633195 8.10858513,6.8275578 13.6664712,10.5924612 C19.2243573,14.3573646 22.2757457,19.2726551 20.6410733,21.6780101 Z" id="Path" fill="url(#linearGradient-3)" fill-rule="nonzero"></path>
            <path d="M25.5889852,14.7120334 C25.5889852,14.7120334 25.5889852,14.7120334 25.5889852,14.7120334 L20.5472038,21.7230856 L20.5472038,21.7230856 C18.7935407,24.094471 12.8749278,23.0634339 7.28512664,19.454804 C6.1890872,18.7330781 5.20265171,18.0113521 4.21621622,17.1865224 C4.98344382,17.0834187 5.96987931,16.6710039 6.95631481,15.6399668 C8.7099779,13.8872037 9.58680945,13.4747889 10.3540371,13.5778926 C11.1212647,13.5778926 11.9980962,14.2996185 13.4229475,16.0523816 C14.8477987,17.8051447 16.8206697,18.3206632 18.0263131,17.3927298 C18.135917,17.2896261 18.245521,17.2896261 18.3551249,17.1865224 C19.3415604,16.4647964 19.6703723,16.1554853 21.5336393,12.8561666 C21.9720551,12.0313369 23.5065103,10.6909887 25.5889852,11.3096109 C26.1370049,12.6499592 26.1370049,13.7841 25.5889852,14.7120334 Z" id="Path" fill="#0E0F23" fill-rule="nonzero"></path>
            <path d="M24.9467724,14.2478257 C23.4061233,16.3605966 18.0138514,15.3042111 12.8416723,11.8181391 C7.55944675,8.33206715 4.47814853,3.89524825 6.01879764,1.78247734 C7.55944675,-0.330293567 12.9517186,0.726091886 18.1238978,4.21216388 C23.2960769,7.69823588 26.3773752,12.1350548 24.9467724,14.2478257 Z M20.1047324,11.0786693 C19.3344078,12.1350548 16.693295,11.6068621 14.0521823,9.91664533 C11.5211159,8.22642861 9.98046678,6.00801915 10.7507913,4.9516337 C11.5211159,3.89524825 14.1622287,4.42344097 16.8033414,6.1136577 C19.3344078,7.80387442 20.8750569,10.0222839 20.1047324,11.0786693 Z" id="Shape" fill="#FFFFFF"></path>
            <path d="M5.10062283,3.66689967 C5.10062283,3.53817004 4.96008229,3.40944041 4.81954175,3.53817004 C4.67900121,3.66689967 4.53846067,3.66689967 4.53846067,3.7956293 C4.67900121,4.18181818 4.81954175,4.43927744 4.81954175,4.69673669 C4.81954175,4.82546632 4.96008229,4.95419595 5.10062283,4.82546632 C5.24116337,4.82546632 5.38170391,4.69673669 5.24116337,4.56800707 C5.24116337,4.31054781 5.24116337,4.05308855 5.10062283,3.66689967 Z" id="Path" fill="#FFFFFF" fill-rule="nonzero"></path>
            <path d="M5.26274545,5.72059458 C5.26274545,5.61817935 5.1481366,5.51576412 5.03352776,5.61817935 C4.91891892,5.72059458 4.91891892,5.72059458 4.91891892,5.82300981 C6.17961619,8.38339056 8.81561957,11.1486018 12.2538849,13.1969064 C12.3684937,13.2993216 12.4831025,13.1969064 12.5977114,13.1969064 C12.7123202,13.0944911 12.5977114,12.9920759 12.5977114,12.8896607 C9.04483726,10.8413561 6.52344272,8.1785601 5.26274545,5.72059458 Z" id="Path" fill="#FFFFFF" fill-rule="nonzero"></path>
            <path d="M19.1891892,15.6121212 C19.0810811,15.6121212 18.972973,15.6121212 18.972973,15.7515152 C18.972973,15.8909091 18.972973,16.030303 19.0810811,16.030303 C19.4054054,16.169697 19.8378378,16.3090909 20.1621622,16.4484848 C20.2702703,16.4484848 20.3783784,16.4484848 20.3783784,16.3090909 C20.3783784,16.169697 20.3783784,16.030303 20.2702703,16.030303 C19.9459459,15.8909091 19.5135135,15.7515152 19.1891892,15.6121212 Z" id="Path" fill="#FFFFFF" fill-rule="nonzero"></path>
            <path d="M21.2818533,16.3499184 C21.1814672,16.3499184 21.0810811,16.4893124 21.0810811,16.6287063 C21.0810811,16.7681003 21.1814672,16.9074942 21.2818533,16.9074942 C22.0849421,17.0468881 22.988417,17.1862821 23.6911197,17.0468881 C23.7915058,17.0468881 23.8918919,16.9074942 23.8918919,16.7681003 C23.8918919,16.6287063 23.7915058,16.4893124 23.6911197,16.4893124 C22.8880309,16.6287063 22.0849421,16.4893124 21.2818533,16.3499184 Z" id="Path" fill="#FFFFFF" fill-rule="nonzero"></path>
        </g>
    </g>
</svg>