<?xml version="1.0" encoding="UTF-8"?>
<svg width="32px" height="32px" viewBox="0 0 32 32" version="1.1" xmlns="http://www.w3.org/2000/svg" xmlns:xlink="http://www.w3.org/1999/xlink">
    <!-- Generator: Sketch 57.1 (83088) - https://sketch.com -->
    <title>theta</title>
    <desc>Created with Sketch.</desc>
    <defs>
        <linearGradient x1="23.7388201%" y1="7.7671083%" x2="76.2586605%" y2="92.22884%" id="linearGradient-1">
            <stop stop-color="#2AB8E6" offset="0%"></stop>
            <stop stop-color="#29CAD2" offset="53%"></stop>
            <stop stop-color="#2EE4BE" offset="100%"></stop>
        </linearGradient>
        <linearGradient x1="32.683279%" y1="20.1732852%" x2="67.3209129%" y2="79.833935%" id="linearGradient-2">
            <stop stop-color="#2AB8E6" offset="0%"></stop>
            <stop stop-color="#29CAD2" offset="53%"></stop>
            <stop stop-color="#2EE4BE" offset="100%"></stop>
        </linearGradient>
    </defs>
    <g id="theta" stroke="none" stroke-width="1" fill="none" fill-rule="evenodd">
        <path d="M16,32 C24.8368,32 32,24.8368 32,16 C32,7.1632 24.8368,0 16,0 C7.1632,0 0,7.1632 0,16 C0,24.8368 7.1632,32 16,32 Z" id="Oval" fill="#252B3B" fill-rule="nonzero"></path>
        <g transform="translate(10.000000, 6.000000)" fill-rule="nonzero" id="ic/coin/THETA">
            <g>
                <path d="M0,0.993387634 L0.960143905,0 L11.0398561,0 L12,0.993387634 L12,19.0066124 L11.0398561,20 L0.960143905,20 L0,19.0066124 L0,0.993387634 Z M1.92028781,1.98677527 L1.92028781,18.0132247 L10.0797122,18.0132247 L10.0797122,1.98677527 L1.92028781,1.98677527 Z" id="Path" fill="url(#linearGradient-1)"></path>
                <path d="M9,12.7617329 L6.93269679,12.7617329 L6.93269679,15 L5.06730321,15 L5.06730321,12.7617329 L3,12.7617329 L3,10.833935 L9,10.833935 L9,12.7617329 Z M9,7.23826715 L6.93269679,7.23826715 L6.93269679,5 L5.06730321,5 L5.06730321,7.23826715 L3,7.23826715 L3,9.16606498 L9,9.16606498 L9,7.23826715 Z" id="Shape" fill="url(#linearGradient-2)"></path>
            </g>
        </g>
    </g>
</svg>