<?xml version="1.0" encoding="UTF-8"?>
<svg width="32px" height="32px" viewBox="0 0 32 32" version="1.1" xmlns="http://www.w3.org/2000/svg" xmlns:xlink="http://www.w3.org/1999/xlink">
    <!-- Generator: Sketch 57.1 (83088) - https://sketch.com -->
    <title>torn</title>
    <desc>Created with Sketch.</desc>
    <g id="torn" stroke="none" stroke-width="1" fill="none" fill-rule="evenodd">
        <path d="M16,32 C24.8368,32 32,24.8368 32,16 C32,7.1632 24.8368,0 16,0 C7.1632,0 0,7.1632 0,16 C0,24.8368 7.1632,32 16,32 Z" id="Oval" fill="#0C0C0C" fill-rule="nonzero"></path>
        <g transform="translate(3.000000, 3.000000)" fill="#94FEBF" id="Shape">
            <path d="M19.11,5.59 C22.815,5.915 25.74,8.905 25.935,12.61 C25.74,6.5 20.67,1.625 14.495,1.82 C10.855,1.95 7.475,3.77 5.525,6.825 C5.85,3.12 8.84,0.195 12.545,0 C6.37,0.26 1.625,5.525 1.885,11.7 C2.015,15.21 3.835,18.46 6.76,20.41 C3.055,20.085 0.195,17.095 0,13.39 C0.13,19.5 5.265,24.375 11.375,24.245 C15.015,24.18 18.33,22.295 20.345,19.305 C20.02,22.945 17.03,25.805 13.39,26 C19.5,25.805 24.31,20.67 24.115,14.495 C23.985,10.92 22.165,7.54 19.11,5.59 Z M12.935,17.68 C11.7,17.68 10.53,17.225 9.685,16.315 C7.865,14.495 7.93,11.57 9.685,9.815 C11.44,8.06 14.43,8.06 16.185,9.815 C17.94,11.57 17.94,14.56 16.185,16.315 C15.34,17.225 14.17,17.68 12.935,17.68 Z"></path>
        </g>
    </g>
</svg>