<?xml version="1.0" encoding="UTF-8"?>
<svg width="32px" height="32px" viewBox="0 0 32 32" version="1.1" xmlns="http://www.w3.org/2000/svg" xmlns:xlink="http://www.w3.org/1999/xlink">
    <!-- Generator: Sketch 57.1 (83088) - https://sketch.com -->
    <title>tusd</title>
    <desc>Created with Sketch.</desc>
    <g id="tusd" stroke="none" stroke-width="1" fill="none" fill-rule="evenodd">
        <circle id="Oval" fill="#35388F" fill-rule="nonzero" cx="16" cy="16" r="16"></circle>
        <g transform="translate(4.000000, 2.000000)" fill="#FFFFFF" fill-rule="nonzero" id="Group">
            <g transform="translate(0.000000, 1.000000)">
                <path d="M13.1,16 L13.1,10.1 L13.9,10.1 C16.4,10.1 17.1,7.7 17.1,7.7 L10.4,7.7 C7.2,7.7 6.7,10.1 6.7,10.1 L10.6,10.1 L10.6,19 C10.5,19 13.1,18.2 13.1,16 Z" id="Path"></path>
                <path d="M20.4,20.6 C22.6,18.3 23.5,15 22.7,11.9 C22.3,10.3 21.4,8.8 20.2,7.6 C20.1,7.5 20,7.4 19.9,7.3 L19.8,7.2 C19.7,7.1 19.6,7.1 19.6,7 L19.5,6.9 L19.3,6.7 L19,6.7 C18.9,6.6 18.8,6.6 18.7,6.5 L18.5,6.4 C18.4,6.4 18.4,6.3 18.3,6.3 L18.1,6.2 C18.2,6.1 18.1,6 18,6 L17.8,5.9 C17.7,5.9 17.7,5.8 17.6,5.8 L17.5,5.8 C17.8,6 18,6.1 18.2,6.3 C21.6,9.7 21.7,15.2 18.3,18.7 C18.3,18.7 18.3,18.7 18.2,18.8 C13.8,23.2 6.7,23.2 2.3,18.8 C2.1,18.6 2,18.5 1.8,18.3 L1.7,18.2 C1.6,18.1 1.5,18 1.4,17.9 C2,19 2.7,20 3.6,20.9 C8.2,25.4 15.6,25.4 20.2,20.9 C20.3,20.7 20.3,20.7 20.4,20.6 L20.4,20.6 Z" id="Path"></path>
                <path d="M6.4,19.4 C6.2,19.2 6,19.1 5.8,18.9 C2.4,15.5 2.3,9.9 5.7,6.5 C5.7,6.5 5.7,6.5 5.8,6.4 C10.2,2 17.3,2 21.7,6.4 C22,6.7 22.3,7 22.6,7.4 C22,6.3 21.3,5.3 20.4,4.4 C15.8,-0.2 8.4,-0.2 3.8,4.4 C3.7,4.5 3.7,4.5 3.6,4.6 C0.6,7.8 0.1,12.5 2.6,16.1 C3.5,17.5 4.9,18.7 6.4,19.4 Z" id="Path"></path>
            </g>
        </g>
    </g>
</svg>