<?xml version="1.0" encoding="UTF-8"?>
<svg width="32px" height="32px" viewBox="0 0 32 32" version="1.1" xmlns="http://www.w3.org/2000/svg" xmlns:xlink="http://www.w3.org/1999/xlink">
    <!-- Generator: Sketch 57.1 (83088) - https://sketch.com -->
    <title>uma</title>
    <desc>Created with Sketch.</desc>
    <g id="uma" stroke="none" stroke-width="1" fill="none" fill-rule="evenodd">
        <circle id="Oval" fill="#FF5252" fill-rule="nonzero" cx="16" cy="16" r="16"></circle>
        <g transform="translate(2.000000, 12.000000)" fill="#FFFFFF" fill-rule="nonzero">
            <path d="M17.94044,6.36669091 L16.75954,6.36669091 C16.5377504,6.36669091 16.3578461,6.20342658 16.35746,6.0018 L16.35746,3.16361818 L14.28238,4.34254545 C14.1084188,4.44221162 13.8869612,4.44221162 13.713,4.34254545 L11.63792,3.16336364 L11.63792,6.00154545 C11.637611,6.20315146 11.4577468,6.36643656 11.23598,6.36643636 L10.05998,6.36643636 C9.83830395,6.36643636 9.6586,6.20306914 9.6586,6.00154545 L9.6586,6.00154545 L9.6586,0.5306 C9.65904768,0.350202212 9.76916475,0.184811489 9.94476622,0.100791649 C10.1203677,0.0167718085 10.3326754,0.0278922755 10.4965,0.129690909 L13.77376,2.17114545 C13.910639,2.25605254 14.090761,2.25605254 14.22764,2.17114545 L17.50364,0.129690909 C17.6674646,0.0278922755 17.8797723,0.0167718085 18.0553738,0.100791649 C18.2309752,0.184811489 18.3410923,0.350202212 18.3415404,0.5306 L18.3415404,6.00129091 C18.3416886,6.09806602 18.299543,6.19093115 18.2243746,6.25945696 C18.1492063,6.32798277 18.0471726,6.36655598 17.94072,6.36669091 L17.94044,6.36669091 Z" id="Path"></path>
            <path d="M7.88732,6.35549091 L0.53564,6.35549091 C0.239814197,6.35549091 0,6.137478 0,5.86854545 L0,5.86854545 L0,0.364890909 C0,0.163396328 0.179735961,7.02438904e-05 0.40138,0 L1.58284,0 C1.80453871,0 1.9842827,0.163346639 1.98436,0.364890909 L1.98436,0.364890909 L1.98436,4.55038182 L6.4386,4.55038182 L6.4386,0.364890909 C6.43867727,0.163396328 6.61833596,7.02438904e-05 6.83998,0 L8.02088,0 C8.24266957,0 8.42257388,0.163264331 8.42296,0.364890909 L8.42296,5.86854545 C8.42296,6.137478 8.1831458,6.35549091 7.88732,6.35549091 Z" id="Path"></path>
            <path d="M20.11268,0 L27.46436,0 C27.7601858,0 28.0000006,0.218012906 28.0000006,0.486945455 L28.0000006,5.99009091 C28.0001858,6.08687633 27.9580521,6.17976106 27.8828757,6.24829421 C27.8076993,6.31682735 27.7056441,6.35538975 27.59918,6.35549093 L26.41716,6.35549093 C26.3106832,6.35549093 26.2085546,6.31709582 26.133251,6.24866184 C26.0579473,6.18022786 26.01564,6.08739714 26.01564,5.9906 L26.01564,2.04743636 C26.0156772,1.98285303 25.9874724,1.92090516 25.9372384,1.87523784 C25.8870043,1.82957052 25.8188617,1.80392985 25.74782,1.80396364 L21.82992,1.80396364 C21.6825252,1.80354114 21.5626403,1.91178678 21.5621,2.04578182 L21.5621,5.99009091 C21.5621,6.08702307 21.5197337,6.17998328 21.444325,6.24851274 C21.3689164,6.31704219 21.2666454,6.35549093 21.16002,6.35549093 L19.97912,6.35549093 C19.8726674,6.35549093 19.7705748,6.31704716 19.6953015,6.24861684 C19.6200281,6.18018652 19.5777397,6.08737509 19.5777397,5.9906 L19.5777397,0.486945455 C19.5774305,0.218343652 19.8166581,0.000351241918 20.11212,0 L20.11268,0 Z" id="Path"></path>
            <rect id="Rectangle" x="22.79732" y="2.96112727" width="1.98296" height="1.82101818" rx="0.910509091"></rect>
        </g>
    </g>
</svg>