<?xml version="1.0" encoding="UTF-8"?>
<svg width="32px" height="32px" viewBox="0 0 32 32" version="1.1" xmlns="http://www.w3.org/2000/svg" xmlns:xlink="http://www.w3.org/1999/xlink">
    <!-- Generator: Sketch 57.1 (83088) - https://sketch.com -->
    <title>uni</title>
    <desc>Created with Sketch.</desc>
    <g id="uni" stroke="none" stroke-width="1" fill="none" fill-rule="evenodd">
        <circle id="Oval" fill="#FF1484" fill-rule="nonzero" cx="16" cy="16" r="16"></circle>
        <g transform="translate(7.000000, 4.000000)" fill="#FFFFFF">
            <path d="M8.21323212,5.07831253 C7.96647599,5.03920695 7.9547257,5.02617176 8.07222862,5.01313656 C8.29548416,4.97403098 8.812497,5.02617176 9.17675605,5.11741811 C10.0227771,5.33901639 10.786546,5.91256488 11.5973162,6.91627474 L11.8088214,7.19001379 L12.114329,7.13787302 C13.4186114,6.90323955 14.7581447,7.08573225 15.8744224,7.65928074 C16.17993,7.81570305 16.6616919,8.12854769 16.7204434,8.20675884 C16.743944,8.23282923 16.7791948,8.40228674 16.8026954,8.57174425 C16.8849475,9.18439832 16.8496966,9.64063007 16.6734422,9.99258028 C16.5794399,10.1881082 16.5794399,10.2402489 16.6381913,10.4097065 C16.6851925,10.5400584 16.826196,10.6313047 16.9554492,10.6313047 C17.2374562,10.6313047 17.5312135,10.1359674 17.672217,9.44510218 L17.7309685,9.17136312 L17.8367211,9.30171505 C18.435986,10.0447211 18.9059977,11.0745013 18.9764994,11.8044721 L19,12 L18.8942474,11.8305425 C18.717993,11.5307331 18.5534889,11.3352052 18.3302334,11.1657476 C17.9307234,10.8659382 17.5077129,10.7746919 16.3914352,10.7095159 C15.3809101,10.6443399 14.8051458,10.5530936 14.2411318,10.3445305 C13.2776079,9.99258028 12.7840956,9.53634853 11.6443173,7.85480863 C11.1390548,7.11180263 10.8217969,6.70771165 10.504539,6.36879663 C9.81127181,5.62579063 9.11800459,5.23473484 8.21323212,5.07831253 Z" id="Path" fill-rule="nonzero"></path>
            <path d="M16.8819627,7.13910793 C16.9098316,6.71885452 16.9795039,6.44237201 17.1327829,6.18800811 C17.1885207,6.0884744 17.2442586,6 17.258193,6 C17.2721275,6 17.2442586,6.0774151 17.2024552,6.1658895 C17.0909796,6.40919411 17.0770451,6.75203242 17.1467174,7.13910793 C17.2442586,7.63677644 17.2860619,7.70313225 17.9549158,8.24503796 C18.2614738,8.49940187 18.6237697,8.82012158 18.7631143,8.95283318 L19,9.19613779 L18.7631143,9.01918898 C18.4704907,8.79800297 17.8016368,8.37774956 17.6483578,8.32245306 C17.5508166,8.27821586 17.5368821,8.27821586 17.4672099,8.33351236 C17.411472,8.37774956 17.3975376,8.44410537 17.3975376,8.76482507 C17.3836031,9.26249359 17.2999964,9.572154 17.0909796,9.8928737 C16.9795039,10.0587632 16.9655695,10.0255853 17.0631106,9.8375772 C17.1327829,9.6938063 17.1467174,9.6274505 17.1467174,9.15190058 C17.1467174,8.18974146 17.0073728,7.95749615 16.157371,7.57042064 C15.9483542,7.47088694 15.5860583,7.32711604 15.3770415,7.24970093 C15.1540902,7.17228583 14.9868767,7.10593003 15.0008112,7.10593003 C15.0286801,7.08381143 15.850813,7.27181953 16.1713055,7.38241254 C16.6590114,7.53724274 16.7426182,7.54830204 16.798356,7.53724274 C16.8401594,7.50406484 16.8680283,7.41559044 16.8819627,7.13910793 Z" id="Path" fill-rule="nonzero"></path>
            <path d="M8.60254929,9.21041371 C8.20608706,8.66717644 7.95121848,7.82422206 8.00785595,7.19668936 L8.0267351,7 L8.12113087,7.01873232 C8.29104325,7.0468308 8.58367014,7.15922472 8.72526379,7.24352015 C9.10284687,7.46830799 9.27275926,7.77739126 9.43323207,8.54541637 C9.48042995,8.7702042 9.54650699,9.03245667 9.57482572,9.11675211 C9.62202361,9.25724451 9.80137557,9.5850601 9.9524088,9.79111562 C10.0562441,9.94097417 9.99016711,10.0159035 9.75417768,9.99717113 C9.39547376,9.95970649 8.91405533,9.6318909 8.60254929,9.21041371 Z" id="Path" fill-rule="nonzero"></path>
            <path d="M16.5886182,13.8571429 C13.9373256,12.8181818 13,11.9220779 13,10.4025974 C13,10.1818182 13.0133904,10 13.0133904,10 C13.0267807,10 13.1205133,10.0779221 13.2410266,10.1688312 C13.7766412,10.5844156 14.3792077,10.7662338 16.0530035,11 C17.0305003,11.1428571 17.5928957,11.2467532 18.1017296,11.4155844 C19.7219639,11.9350649 20.7262414,13 20.967268,14.4415584 C21.0342198,14.8571429 20.9940487,15.6493506 20.8869258,16.0649351 C20.7931932,16.3896104 20.5253859,16.987013 20.4584341,17 C20.4450437,17 20.418263,16.9350649 20.418263,16.8311688 C20.3914822,16.2857143 20.1102845,15.7662338 19.6416217,15.3636364 C19.0792263,14.8961039 18.3561466,14.5454545 16.5886182,13.8571429 Z" id="Path" fill-rule="nonzero"></path>
            <path d="M14.5677724,13.6527976 C14.5415768,13.4810088 14.4760878,13.2634096 14.4367944,13.1717888 L14.3713054,13 L14.4891856,13.1259785 C14.6594571,13.2977673 14.7904351,13.5039139 14.9083154,13.7902287 C15,14.0078279 15,14.0765434 15,14.4315737 C15,14.7751514 14.9869022,14.8553195 14.9083154,15.0500135 C14.7773373,15.3592335 14.6201637,15.5768327 14.3582076,15.817337 C13.8866866,16.2410829 13.2710897,16.4701346 12.3935368,16.573208 C12.2363631,16.5846605 11.7910378,16.6190183 11.3981036,16.6419235 C10.4157683,16.6877338 9.76087801,16.7793546 9.17147678,16.962596 C9.09288995,16.9855012 9.01430312,17.0084064 9.00120532,16.9969538 C8.97500971,16.9740486 9.38104166,16.767902 9.70848679,16.6304709 C10.16691,16.4357769 10.6384309,16.3327036 11.6731575,16.1723673 C12.1839719,16.1036518 12.7078841,16.0120311 12.8388622,15.9662207 C14.1355449,15.6111904 14.7773373,14.729341 14.5677724,13.6527976 Z" id="Path" fill-rule="nonzero"></path>
            <path d="M17.2957709,17.2086677 C16.9924161,16.4767255 16.9224112,15.7833066 17.0857561,15.1284109 C17.1090911,15.0642055 17.132426,15 17.155761,15 C17.179096,15 17.249101,15.0385233 17.3191059,15.0898876 C17.4591158,15.1926164 17.7508031,15.3723917 18.4975227,15.8218299 C19.4425896,16.3868379 19.9792942,16.823435 20.352654,17.3242376 C20.6793438,17.7608347 20.8776912,18.2616372 20.9710311,18.8780096 C21.0293686,19.2247191 20.9943661,20.05939 20.9126936,20.4060995 C20.6560088,21.4975923 20.0726342,22.3707865 19.2209072,22.8715891 C19.0925648,22.9486356 18.9875574,23 18.9758899,23 C18.9642224,23 19.0108923,22.8715891 19.0808973,22.717496 C19.3609171,22.0626003 19.3959196,21.4333868 19.1859047,20.7271268 C19.0575623,20.2905297 18.78921,19.7640449 18.2525053,18.8780096 C17.6107932,17.8507223 17.4591158,17.5810594 17.2957709,17.2086677 Z" id="Path" fill-rule="nonzero"></path>
            <path d="M6.26919451,20.5036642 C7.21778469,19.7483582 8.38429423,19.2123345 9.46107227,19.0417816 C9.92254858,18.9686875 10.6916757,18.9930522 11.1146957,19.1026934 C11.7940914,19.2732463 12.4093931,19.638717 12.7298628,20.0894641 C13.0375136,20.5280289 13.1785203,20.9056819 13.3195269,21.7462644 C13.3708021,22.0751879 13.434896,22.4162939 13.4477148,22.489388 C13.5502651,22.9279528 13.7553657,23.2690587 14.0117414,23.451794 C14.4091237,23.7319882 15.1013382,23.7441705 15.7807339,23.5005235 C15.8961029,23.4639764 15.9986532,23.4274293 15.9986532,23.4396117 C16.0242908,23.4639764 15.6781836,23.6832588 15.4474454,23.7929 C15.1269758,23.9512706 14.8706001,24 14.5244928,24 C13.9091911,24 13.3836209,23.6954411 12.9606009,23.0863234 C12.8708694,22.9644998 12.6914064,22.6112115 12.537581,22.282288 C12.0889234,21.2955172 11.8581853,21.0031407 11.3326151,20.6742171 C10.8711388,20.394023 10.2814746,20.3331112 9.83281707,20.5402112 C9.24315291,20.808223 9.08932747,21.526982 9.49952863,21.9655467 C9.66617285,22.1482821 9.97382372,22.2944703 10.2301994,22.3310174 C10.7044945,22.3919292 11.1146957,22.0386409 11.1146957,21.5878937 C11.1146957,21.2955172 10.9993266,21.1249643 10.6916757,20.9909584 C10.2814746,20.8204054 9.83281707,21.0153231 9.84563586,21.3929761 C9.84563586,21.5513467 9.92254858,21.6488055 10.0891928,21.7218996 C10.1917431,21.7706291 10.1917431,21.7706291 10.1148304,21.7584467 C9.74308557,21.6853526 9.65335407,21.2467878 9.94818615,20.9665936 C10.3071122,20.6254877 11.0634205,20.771676 11.3197963,21.2467878 C11.4223466,21.4417055 11.4351653,21.8315408 11.3454338,22.0751879 C11.1275145,22.6112115 10.5122127,22.8914057 9.88409222,22.7330351 C9.46107227,22.6233939 9.28160927,22.5137527 8.76885782,22.0142762 C7.87154279,21.1371466 7.52543556,20.9665936 6.24355694,20.7838583 L6,20.7473113 L6.26919451,20.5036642 Z" id="Path" fill-rule="nonzero"></path>
            <path d="M0.429105375,0.533372711 C3.36589721,4.04370939 7.8908254,9.50147667 8.11770202,9.79917307 C8.30676588,10.0472534 8.23114034,10.2829297 7.91603392,10.4565859 C7.73957432,10.5558181 7.37405087,10.6550502 7.19759128,10.6550502 C6.99592317,10.6550502 6.75644229,10.5558181 6.59258695,10.3945659 C6.47914864,10.2829297 5.98758262,9.57590077 4.87840803,7.8765505 C4.03392282,6.57412877 3.31548018,5.49497933 3.30287593,5.48257531 C3.2524589,5.45776728 3.2524589,5.45776728 4.79017823,8.16184288 C5.760706,9.86119315 6.07581242,10.46899 6.07581242,10.5434141 C6.07581242,10.7046663 6.02539539,10.7914944 5.82372729,11.0147667 C5.48341235,11.3868872 5.33216127,11.8086237 5.21872296,12.6893089 C5.09268039,13.6692262 4.75236546,14.3638512 3.78183768,15.5422327 C3.21464613,16.2368576 3.12641633,16.3608978 2.98776951,16.6461902 C2.81130991,16.9935027 2.76089288,17.1919669 2.73568437,17.6385115 C2.71047586,18.1098641 2.76089288,18.4075605 2.89953971,18.8541051 C3.02558228,19.2510337 3.1642291,19.511518 3.50454403,20.0200827 C3.79444194,20.4666273 3.97090154,20.8015357 3.97090154,20.9255759 C3.97090154,21.024808 3.99611005,21.024808 4.44986329,20.9255759 C5.53382938,20.6774956 6.42873161,20.255759 6.92029763,19.7347903 C7.22279979,19.4122859 7.29842533,19.2386297 7.29842533,18.7920851 C7.29842533,18.5067927 7.28582107,18.4447726 7.21019553,18.2711164 C7.08415297,17.998228 6.84467209,17.7749557 6.32789756,17.4276432 C5.64726769,16.9686946 5.35736978,16.5965741 5.28174424,16.1004135 C5.21872296,15.6786769 5.2943485,15.3933845 5.6724762,14.6119315 C6.06320817,13.8056704 6.16404222,13.470762 6.2270635,12.6520969 C6.26487627,12.1311282 6.32789756,11.9202599 6.47914864,11.7590077 C6.64300398,11.5853514 6.7816508,11.5233314 7.17238276,11.4737153 C7.81519986,11.3868872 8.23114034,11.225635 8.55885101,10.9155346 C8.84874892,10.6550502 8.97479149,10.3945659 8.98739574,10.0100413 L9,9.72474897 L8.83614466,9.55109273 C8.24374459,8.88127584 0.0383734138,0 0.000560643354,0 C-0.0120436134,0 0.189624495,0.235676314 0.429105375,0.533372711 Z M4.29861221,18.1718842 C4.43725904,17.9362079 4.3616335,17.6385115 4.13475687,17.4896633 C3.92048451,17.3532191 3.59277383,17.4152392 3.59277383,17.6012995 C3.59277383,17.6509155 3.61798235,17.7005316 3.69360789,17.7253396 C3.8070462,17.7873597 3.81965045,17.8493798 3.73142066,17.985824 C3.64319086,18.1222682 3.64319086,18.2463083 3.75662917,18.3331364 C3.93308877,18.4695806 4.17256964,18.3951565 4.29861221,18.1718842 Z" id="Shape"></path>
            <path d="M9.68433028,12.0183181 C9.39124827,12.0707744 9.11037801,12.265612 9.02489575,12.4604496 C8.97604875,12.5803497 9.00047225,12.7976686 9.08595451,12.8651124 C9.22028376,12.970025 9.34240127,13 9.68433028,13 C10.3559766,13 10.9299288,12.8201499 10.9909876,12.602831 C11.0520463,12.4229808 10.7955996,12.1756869 10.4414588,12.0632806 C10.2582825,12.0033306 9.87971829,11.9808493 9.68433028,12.0183181 Z M10.4658823,12.3930058 C10.5635763,12.3030808 10.5269411,12.2056619 10.3437648,12.1382182 C10.0140475,12.0108243 9.51336577,12.1157369 9.51336577,12.3105745 C9.51336577,12.4079933 9.76981253,12.5129059 10.0140475,12.5129059 C10.1728003,12.5129059 10.3926118,12.4529559 10.4658823,12.3930058 Z" id="Shape"></path>
        </g>
    </g>
</svg>