<?xml version="1.0" encoding="UTF-8"?>
<svg width="32px" height="32px" viewBox="0 0 32 32" version="1.1" xmlns="http://www.w3.org/2000/svg" xmlns:xlink="http://www.w3.org/1999/xlink">
    <!-- Generator: Sketch 57.1 (83088) - https://sketch.com -->
    <title>usdc</title>
    <desc>Created with Sketch.</desc>
    <g id="usdc" stroke="none" stroke-width="1" fill="none" fill-rule="evenodd">
        <circle id="Oval" fill="#3582D6" fill-rule="nonzero" cx="16" cy="16" r="16"></circle>
        <g transform="translate(4.000000, 4.000000)" fill="#FFFFFF" fill-rule="nonzero">
            <path d="M16,14.3568121 C16,12.0332215 14.7462612,11.2365436 12.2387835,10.9046476 C10.447728,10.6390352 10.089517,10.1079698 10.089517,9.17840605 C10.089517,8.24884233 10.6865832,7.65149327 11.8805724,7.65149327 C12.9552057,7.65149327 13.552272,8.0498322 13.8507334,9.04567952 C13.910483,9.24484898 14.0895886,9.37757551 14.2686941,9.37757551 L15.2238282,9.37757551 C15.4626834,9.37757551 15.6417889,9.17840605 15.6417889,8.91295299 L15.6417889,8.84651005 C15.4029337,7.38588088 14.3283005,6.25730703 12.9552057,6.1245805 L12.9552057,4.53122479 C12.9552057,4.2656124 12.7761002,4.06644293 12.4776387,4 L11.5821109,4 C11.3432558,4 11.1641502,4.19916946 11.1044006,4.53122479 L11.1044006,6.05813757 C9.31334515,6.32374996 8.17910555,7.65149327 8.17910555,9.31129191 C8.17910555,11.502156 9.37309476,12.3651175 11.8805724,12.6971728 C13.552272,13.0290688 14.0895886,13.4274077 14.0895886,14.489698 C14.0895886,15.5519882 13.2536672,16.2822231 12.1194276,16.2822231 C10.567084,16.2822231 10.0297673,15.5518289 9.85066179,14.5559816 C9.79105547,14.2905285 9.61194992,14.1576426 9.43284438,14.1576426 L8.41781742,14.1576426 C8.17910555,14.1576426 8,14.3568121 8,14.6224245 L8,14.6888674 C8.23871187,16.3485067 9.19398922,17.5435235 11.1641502,17.8755788 L11.1641502,19.4689345 C11.1641502,19.7343876 11.3432558,19.9335571 11.6417173,20 L12.537245,20 C12.7761002,20 12.9552057,19.8008305 13.0149553,19.4689345 L13.0149553,17.8755788 C14.8060108,17.5435235 16,16.1493373 16,14.3568121 L16,14.3568121 Z" id="Path"></path>
            <path d="M8.89176439,20.9017244 C4.13799227,19.1214711 1.70011166,13.5896536 3.46763726,8.69357546 C4.38182421,6.02304288 6.39303549,3.98840226 8.89176439,3.03464062 C9.13559633,2.90752327 9.25743916,2.71677094 9.25743916,2.39874866 L9.25743916,1.50862201 C9.25743916,1.2542347 9.13559633,1.06348237 8.89176439,1 C8.83076983,1 8.708927,1 8.64793244,1.06348237 C2.85813054,2.97100565 -0.311099624,9.3931024 1.51727427,15.4335419 C2.6142986,18.9942011 5.2350166,21.7283687 8.64793244,22.8728826 C8.89176439,23 9.13559633,22.8728826 9.19644461,22.6184953 C9.25743916,22.555013 9.25743916,22.491378 9.25743916,22.3642606 L9.25743916,21.4739814 C9.25743916,21.2832291 9.07460177,21.0289944 8.89176439,20.9017244 Z M15.3520676,1.06348237 C15.1082356,0.936365024 14.8644037,1.06348237 14.8035554,1.31786968 C14.7425608,1.38150465 14.7425608,1.44498703 14.7425608,1.57225698 L14.7425608,2.46238364 C14.7425608,2.71677094 14.9253982,2.97100565 15.1082356,3.0982756 C19.8620077,4.87852892 22.2998883,10.4103464 20.5323627,15.3064245 C19.6181758,17.9769571 17.6069645,20.0115977 15.1082356,20.9653594 C14.8644037,21.0924767 14.7425608,21.2832291 14.7425608,21.6012513 L14.7425608,22.491378 C14.7425608,22.7457653 14.8644037,22.9365176 15.1082356,23 C15.1692302,23 15.291073,23 15.3520676,22.9365176 C21.1418695,21.0289944 24.3110996,14.6068976 22.4827257,8.56645811 C21.3857014,4.94216389 18.7039888,2.20799634 15.3520676,1.06348237 Z" id="Shape"></path>
        </g>
    </g>
</svg>