<?xml version="1.0" encoding="UTF-8"?>
<svg width="32px" height="32px" viewBox="0 0 32 32" version="1.1" xmlns="http://www.w3.org/2000/svg" xmlns:xlink="http://www.w3.org/1999/xlink">
    <!-- Generator: Sketch 57.1 (83088) - https://sketch.com -->
    <title>usdt</title>
    <desc>Created with Sketch.</desc>
    <defs>
        <linearGradient x1="0%" y1="0%" x2="100%" y2="100%" id="linearGradient-1">
            <stop stop-color="#7FD4BD" offset="0%"></stop>
            <stop stop-color="#44A087" offset="100%"></stop>
        </linearGradient>
    </defs>
    <g id="usdt" stroke="none" stroke-width="1" fill="none" fill-rule="evenodd">
        <circle id="Oval" fill="url(#linearGradient-1)" fill-rule="nonzero" cx="16" cy="16" r="16"></circle>
        <g transform="translate(7.000000, 8.000000)" fill="#FFFFFF" id="Fill-6">
            <path d="M11.3592629,6.04414874 L11.3592629,3.65030588 L16.6508947,3.65030588 L16.6508947,0 L2.24368195,0 L2.24368195,3.65030588 L7.53433335,3.65030588 L7.53433335,6.04313383 C3.23406549,6.24763892 0,7.12942967 0,8.18612388 C0,9.24281808 3.23406549,10.1237631 7.53433335,10.3292831 L7.53433335,18 L11.3582825,18 L11.3582825,10.3264075 C15.6487462,10.1219024 18.8774194,9.2409574 18.8774194,8.18527811 C18.8774194,7.12942967 15.651524,6.24865383 11.3582825,6.04313383 L11.3592629,6.04414874 Z M11.3592629,9.67601703 L11.3592629,9.67601703 C11.2519073,9.68430549 10.6976455,9.7186434 9.46150435,9.7186434 C8.47831053,9.7186434 7.78025436,9.68802684 7.53531377,9.67601703 C3.73554826,9.50280511 0.89920485,8.81807674 0.89920485,7.99836486 C0.89920485,7.17848383 3.73554826,6.49477038 7.53531377,6.31885202 L7.53531377,8.99382594 C7.78384922,9.01260184 8.49530441,9.05607398 9.47849823,9.05607398 C10.6584288,9.05607398 11.2492929,9.00515914 11.355668,8.99484086 L11.355668,6.32088185 C15.1474268,6.49561614 17.9773975,7.18034451 17.9773975,7.99836486 C17.9773975,8.81638522 15.1482438,9.50111359 11.355668,9.67500211 L11.3592629,9.67601703 Z"></path>
        </g>
    </g>
</svg>