<?xml version="1.0" encoding="UTF-8"?>
<svg width="32px" height="32px" viewBox="0 0 32 32" version="1.1" xmlns="http://www.w3.org/2000/svg" xmlns:xlink="http://www.w3.org/1999/xlink">
    <!-- Generator: Sketch 57.1 (83088) - https://sketch.com -->
    <title>ust</title>
    <desc>Created with Sketch.</desc>
    <defs>
        <polygon id="path-1" points="0.2421875 0.0861631373 0.397066406 0.0861631373 0.397066406 1.50065725 0.2421875 1.50065725"></polygon>
        <polygon id="path-3" points="0.0507650023 0.179344828 1.02229256 0.179344828 1.02229256 0.332987886 0.0507650023 0.332987886"></polygon>
        <polygon id="path-5" points="0.0766549209 0.101091798 21.8556577 0.101091798 21.8556577 17.8658118 0.0766549209 17.8658118"></polygon>
        <polygon id="path-7" points="0.112258065 0.0480462563 24.255 0.0480462563 24.255 2.38095238 0.112258065 2.38095238"></polygon>
        <polygon id="path-9" points="0 0.251349206 24.2801613 0.251349206 24.2801613 18.1830952 0 18.1830952"></polygon>
        <polygon id="path-11" points="0.00588709677 0.207301587 24.3016129 0.207301587 24.3016129 18.2311111 0.00588709677 18.2311111"></polygon>
    </defs>
    <g id="ust" stroke="none" stroke-width="1" fill="none" fill-rule="evenodd">
        <circle id="Oval" fill="#D8D8D8" cx="16" cy="16" r="16"></circle>
        <g transform="translate(1.000000, 1.000000)">
            <g id="Group-24" transform="translate(0.000000, 0.000000)">
                <path d="M8.63474901,8.7386902 C8.0064199,8.30968627 7.41610083,7.83840784 6.95853983,7.22526275 C6.83121176,7.05462745 6.72881739,6.8656549 6.61478729,6.68513725 C6.65279732,6.65691765 6.68781531,6.62276863 6.72937147,6.60135686 C7.08753014,6.41622745 7.45255943,6.24328627 7.80506647,6.0480549 C8.68251089,5.56217255 9.51274751,5.00876078 10.2157669,4.28921569 C10.6036244,3.8920549 10.9441632,3.45986667 11.1009685,2.91337255 C11.1846348,2.62162353 11.2332833,2.3295451 11.1201397,2.0356 C10.9741945,1.65655686 10.6545999,1.4951451 10.2885733,1.39313725 C10.1978146,1.36788235 10.1090507,1.33581961 10.0194002,1.30683137 C11.6047399,0.618909804 13.2605589,0.226360784 14.9900707,0.140713725 C15.0174424,0.139286275 15.0439275,0.120509804 15.0707451,0.109858824 L15.2326479,0.109858824 C15.4428666,0.120509804 15.6528637,0.13665098 15.8631933,0.139615686 C15.9765585,0.141262745 16.090367,0.120509804 16.2041754,0.109858824 L16.3337198,0.109858824 C16.5009418,0.129403922 16.6678313,0.154878431 16.8357182,0.167505882 C18.5674464,0.297733333 20.2165056,0.73694902 21.7850012,1.47219608 C22.6689838,1.88648627 23.5003286,2.38872941 24.2761543,2.97936471 C24.3133887,3.00769412 24.3386548,3.05161569 24.3694618,3.0882902 C24.338544,3.08181176 24.3066289,3.07851765 24.2768192,3.06863529 C24.0475401,2.99254118 23.8233584,2.89547451 23.5888709,2.842 C22.7496581,2.65061176 21.9027991,2.61108235 21.0431961,2.70013333 C20.1699627,2.79061176 19.3112462,2.94949804 18.4588463,3.14824314 C17.3736211,3.40134118 16.3108917,3.72899608 15.2694389,4.12330196 C13.7603409,4.69461176 12.3109729,5.38209412 10.9900412,6.31443922 C10.29899,6.80229804 9.65891437,7.34659608 9.1421774,8.01936471 C8.96354133,8.25192941 8.80330078,8.49843922 8.63474901,8.7386902" id="Fill-1" fill="#2845AE"></path>
                <g id="Group-5" transform="translate(0.000000, 13.753710)">
                    <mask id="mask-2" fill="white">
                        <use xlink:href="#path-1"></use>
                    </mask>
                    <g id="Clip-4"></g>
                    <path d="M0.242066406,0.0875905882 C0.265074219,0.0900062745 0.287597656,0.0895670588 0.309878906,0.0861631373 L0.309878906,1.50065725 L0.276457031,1.49780235 L0.242066406,1.4992298 L0.242066406,0.0875905882 Z" id="Fill-3" fill="#A0C3FA" mask="url(#mask-2)"></path>
                </g>
                <g id="Group-8" transform="translate(15.181850, 0.028220)">
                    <mask id="mask-4" fill="white">
                        <use xlink:href="#path-3"></use>
                    </mask>
                    <g id="Clip-7"></g>
                    <path d="M1.02229256,0.179368966 C0.908594915,0.203024138 0.794675634,0.248644828 0.681310436,0.245024138 C0.470980869,0.238506897 0.260983752,0.203024138 0.0507650023,0.179368966 L1.02229256,0.179368966 Z" id="Fill-6" fill="#92A1D5" mask="url(#mask-4)"></path>
                </g>
                <g id="Group-11" transform="translate(8.089599, 2.553710)">
                    <mask id="mask-6" fill="white">
                        <use xlink:href="#path-5"></use>
                    </mask>
                    <g id="Clip-10"></g>
                    <path d="M0.5451503,6.18498039 C0.713702076,5.94472941 0.87394262,5.69821961 1.05257869,5.4656549 C1.56931566,4.79288627 2.20939131,4.24858824 2.9004425,3.76072941 C4.22137424,2.82838431 5.6707422,2.14090196 7.17984022,1.56959216 C8.22129294,1.17528627 9.28402242,0.847631373 10.3692476,0.594533333 C11.2216475,0.395788235 12.080364,0.236901961 12.9535974,0.146423529 C13.8132003,0.057372549 14.6600594,0.0969019608 15.4992722,0.288290196 C15.7337597,0.341764706 15.9579414,0.438831373 16.1872205,0.51492549 C16.2170301,0.524807843 16.2489453,0.528101961 16.2798631,0.534580392 C16.2797522,0.534580392 16.2750979,0.535568627 16.2752088,0.535568627 C16.297372,0.547098039 16.3196461,0.558627451 16.3418094,0.570266667 L16.3397039,0.56894902 C16.3594292,0.580478431 16.3790437,0.592117647 16.3987691,0.603756863 C16.6989708,0.852462745 17.0165706,1.08327059 17.2967145,1.3525098 C19.1119983,3.09663529 20.4118749,5.1604 21.1745135,7.55203922 C21.529791,8.66621961 21.7435559,9.80664314 21.821349,10.9730902 C21.9647454,13.1250275 21.6588921,15.2097647 20.9014619,17.2322431 C20.7874318,17.536949 20.5462952,17.6547686 20.2761248,17.7276784 C20.0130466,17.7987216 19.7367813,17.8217804 19.4662784,17.8658118 C19.1758286,17.8560392 18.8831624,17.8650431 18.5953722,17.832651 C17.9821141,17.7634745 17.3614313,17.7162588 16.761582,17.5819686 C15.5457043,17.3099843 14.3296049,17.026251 13.1356687,16.673451 C11.6661322,16.2392863 10.2190914,15.7307843 8.76296361,15.2522588 C8.42608169,15.1415765 8.09219181,15.0223294 7.75686132,14.9070353 C7.66987043,14.8673961 7.58432016,14.8241333 7.49566702,14.7885569 C5.76061432,14.092949 4.09615168,13.269749 2.61353879,12.122298 C1.76069562,11.4621569 1.00913865,10.7082431 0.520216605,9.73527059 C-0.0486040821,8.60319216 -0.0850626845,7.462 0.496391075,6.31894118 C0.517667827,6.27677647 0.528971102,6.22978039 0.5451503,6.18498039" id="Fill-9" fill="#5492F6" mask="url(#mask-6)"></path>
                </g>
                <path d="M0.141822855,15.2543341 L0.141822855,13.83984 C0.204988215,12.3314635 0.509290106,10.8717302 1.04010076,9.42506353 C1.20566049,9.63380078 1.34961102,9.82387137 1.50242687,10.0066949 C2.22805279,10.8746949 2.95888708,11.7385224 3.68251831,12.6080596 C4.58323418,13.6901773 5.35108116,14.8652988 6.11360895,16.0434949 C6.80632239,17.1138635 7.48197011,18.1937851 8.03173037,19.345738 C8.62681455,20.5924518 9.08891903,21.8831969 9.25735999,23.2570635 C9.32396065,23.8005929 9.319528,24.3562008 9.30456778,24.9051106 C9.28185042,25.7317145 9.22278526,26.5573302 9.1757991,27.3831655 C9.16948256,27.4945067 9.13623764,27.604091 9.12715069,27.7153224 C9.11418517,27.8753067 9.02519958,27.9049537 8.8842411,27.8814557 C8.46214135,27.810742 8.08481144,27.6279184 7.71889562,27.4221459 C5.31340357,26.069142 3.42376197,24.2012675 2.05296285,21.8212675 C1.17640496,20.2994949 0.59772161,18.6700047 0.319239945,16.9408125 C0.229367827,16.3835576 0.199336577,15.8168596 0.141822855,15.2543341" id="Fill-12" fill="#5493F6"></path>
                <path d="M15.8464822,17.4607561 C16.1817019,17.5760502 16.5157026,17.6952973 16.8525845,17.8059796 C18.3087122,18.2843953 19.7557531,18.7930071 21.2252896,19.2271718 C22.4192257,19.5799718 23.6353251,19.8637051 24.8512029,20.1356894 C25.4510522,20.2698698 26.0716241,20.3171953 26.684993,20.3863718 C26.9727833,20.4187639 27.2654494,20.40976 27.5558993,20.4195325 C27.3238497,20.8792816 27.0918001,21.3390306 26.8596397,21.7986698 C26.5971156,21.8939796 26.3341482,21.9877522 26.0721782,22.0845992 C24.6153856,22.6234071 23.2152201,23.2765208 21.9115757,24.1219012 C21.1831794,24.5942776 20.4893578,25.1112345 19.9732857,25.8177129 C19.6105836,26.3142463 19.3399699,26.8444894 19.6698703,27.4735561 C19.2002304,27.6097129 18.7354663,27.767062 18.2592881,27.875109 C17.8733145,27.9628424 17.5023012,27.8270149 17.1468021,27.6807561 C16.4247223,27.3838463 15.8072532,26.9290384 15.2458572,26.4000031 C14.2829733,25.4925835 13.5560176,24.4292424 13.0924725,23.1880188 C12.5064753,21.6189208 12.8795942,20.2562541 13.96083,19.0353443 C14.508928,18.4164894 15.1518849,17.9079875 15.8464822,17.4607561" id="Fill-14" fill="#2845AD"></path>
                <path d="M10.0194223,1.30687529 C10.1090728,1.33586353 10.1978368,1.36781647 10.2885954,1.39318118 C10.6545113,1.49507922 10.9742166,1.65660078 11.1201619,2.03553412 C11.2333054,2.32947922 11.184657,2.62166745 11.1009906,2.91341647 C10.9441854,3.45980078 10.6035357,3.89209882 10.2156782,4.2891498 C9.51276967,5.00880471 8.68253305,5.56221647 7.80508863,6.04809882 C7.4525816,6.2433302 7.08755231,6.41627137 6.72939363,6.60129098 C6.68783748,6.62281255 6.65281949,6.65696157 6.61480946,6.68518118 C6.55895798,6.70099294 6.50033609,6.71065569 6.44791993,6.73393412 C5.31958713,7.23277333 4.16543411,7.65716549 2.95587288,7.91937725 C2.5571554,8.00568314 2.15611077,8.09616157 1.74187899,8.03763608 C1.72082387,8.03467137 1.70043365,8.02841255 1.65566381,8.01831059 C1.69566854,7.93705569 1.7304649,7.86315765 1.76803167,7.79068706 C2.55881764,6.26496157 3.58774811,4.91656941 4.85316082,3.74759686 C5.7074446,2.95832627 6.62378559,2.24569882 7.66634647,1.71556549 C8.35562461,1.36485176 9.10175157,1.24066353 9.87757733,1.32038118 C9.92389859,1.32510275 9.97210374,1.31181647 10.0194223,1.30687529" id="Fill-16" fill="#5493F6"></path>
                <path d="M19.6698593,27.473611 C19.3399588,26.8445443 19.6105725,26.3143012 19.9732746,25.8177678 C20.4894575,25.1111796 21.1831683,24.5942227 21.9115646,24.1219561 C23.215209,23.2765757 24.6153745,22.623462 26.0721671,22.0845443 C26.3341372,21.9878071 26.5971045,21.8939247 26.8596286,21.7987247 C27.1631548,21.7297678 27.4655728,21.6540031 27.7714261,21.5966855 C27.8498842,21.581862 27.9769906,21.5987718 28.0132276,21.6493914 C28.0480239,21.6978149 28.0154439,21.8211247 27.9753284,21.8906306 C27.2999023,23.06136 26.4739875,24.1196502 25.5060061,25.0663796 C24.4676562,26.0819561 23.306965,26.9373286 22.01274,27.6073522 C21.4891324,27.878458 20.9327232,27.99496 20.3404094,27.8655012 C20.0719012,27.8068659 19.8585796,27.6625835 19.6698593,27.473611" id="Fill-18" fill="#5493F6"></path>
                <path d="M24.4313971,3.12395451 C24.4092338,3.1124251 24.3870705,3.10089569 24.3647964,3.08925647 C24.3869597,3.10089569 24.409123,3.1124251 24.4313971,3.12395451" id="Fill-20" fill="#2845AE"></path>
                <path d="M24.4883235,3.15751059 C24.4685981,3.14587137 24.4490944,3.13423216 24.4293691,3.12270275 C24.4490944,3.13423216 24.4685981,3.14587137 24.4883235,3.15751059" id="Fill-22" fill="#2845AE"></path>
            </g>
            <g id="Group-112" transform="translate(7.000000, 11.000000)">
                <g id="Group-3" transform="translate(0.000000, 16.459127)">
                    <mask id="mask-8" fill="white">
                        <use xlink:href="#path-7"></use>
                    </mask>
                    <g id="Clip-2"></g>
                    <path d="M0.112258065,2.38134921 C0.112258065,2.38134921 22.1251613,-0.571031746 24.255,0.166269841 C22.1267742,2.34960317 0.112258065,2.38134921 0.112258065,2.38134921" id="Fill-1" fill="#8A0102" mask="url(#mask-8)"></path>
                </g>
                <g id="Group-6" transform="translate(0.000000, 0.586111)">
                    <mask id="mask-10" fill="white">
                        <use xlink:href="#path-9"></use>
                    </mask>
                    <g id="Clip-5"></g>
                    <path d="M24.2648387,15.9640476 C16.1051613,16.0759524 8.15677419,18.0648413 -0.000483870968,18.1830952 L-0.000483870968,2.3902381 C4.05758065,2.35373016 8.11,2.10134921 12.1374194,1.61007937 C16.1970968,1.11563492 20.1777419,0.379126984 24.2801613,0.251349206 C24.2801613,5.55293651 24.2648387,10.6624603 24.2648387,15.9640476" id="Fill-4" fill="#FFFFFF" mask="url(#mask-10)"></path>
                </g>
                <g id="Group-9" transform="translate(0.000000, 0.586111)">
                    <mask id="mask-12" fill="white">
                        <use xlink:href="#path-11"></use>
                    </mask>
                    <g id="Clip-8"></g>
                    <path d="M24.3018548,1.23190476 C21.9381452,1.14698413 16.8768548,1.90333333 12.1115323,2.57555556 C8.04943548,3.14857143 3.78169355,3.43507937 0.00588709677,3.45888889 L0.00588709677,2.32 C4.06233871,2.28111111 8.11395161,2.02873016 12.141371,1.53984127 C16.1994355,1.04777778 20.2002419,0.335079365 24.3018548,0.207301587 L24.3018548,1.23190476 Z M24.2647581,3.25888889 C16.1075,3.45174603 8.19862903,5.64857143 0.00588709677,5.73587302 L0.00588709677,4.59698413 C8.20508065,4.53904762 16.1171774,2.4152381 24.2647581,2.19222222 L24.2647581,3.25888889 Z M24.2647581,5.39539683 C16.0760484,5.52873016 8.19782258,7.87238095 0.00588709677,8.01285714 L0.00588709677,6.87396825 C8.19540323,6.75492063 16.0937903,4.48190476 24.2647581,4.3215873 L24.2647581,5.39539683 Z M24.2647581,7.65174603 C16.0542742,7.77634921 8.2075,10.185873 0.00588709677,10.3080952 L0.00588709677,9.15174603 C8.2058871,9.01920635 16.0575,6.61126984 24.2647581,6.49460317 L24.2647581,7.65174603 Z M24.2647581,10.4120635 C16.073629,10.5350794 8.19056452,12.8065079 0.00588709677,12.9303175 L0.00588709677,11.5763492 C8.19943548,11.4477778 16.0639516,9.10174603 24.2647581,8.97238095 L24.2647581,10.4120635 Z M24.2647581,13.3787302 C16.0921774,13.4811111 8.17443548,15.5946032 0.00588709677,15.6993651 L0.00588709677,14.3207937 C8.1825,14.2073016 16.0841129,12.0152381 24.2647581,11.9033333 L24.2647581,13.3787302 Z M24.2647581,16.0120635 C16.1075,16.1247619 8.16072581,18.1112698 0.00588709677,18.2311111 L0.00588709677,17.02 C8.16637097,16.9144444 16.1010484,14.8715873 24.2647581,14.7707937 L24.2647581,16.0120635 Z" id="Fill-7" fill="#EA322D" mask="url(#mask-12)"></path>
                </g>
                <path d="M0.00588709677,2.90619048 C3.86395161,2.86968254 7.69379032,2.60222222 11.5284677,2.19746032 C11.548629,4.82603175 11.5623387,7.20698413 11.548629,9.70857143 C7.83491935,10.264127 3.82604839,10.8387302 0.00588709677,10.8934921" id="Fill-10" fill="#082EB2"></path>
                <path d="M0.962822581,3.23404762 C0.9225,3.35865079 0.890241935,3.4602381 0.859596774,3.55547619 C0.766048387,3.55626984 0.666854839,3.55626984 0.545080645,3.55706349 C0.643467742,3.62849206 0.723306452,3.68642857 0.799112903,3.74198413 C0.768467742,3.83563492 0.736209677,3.93563492 0.696693548,4.05785714 L0.963629032,3.86103175 C1.04266129,3.9181746 1.12653226,3.97849206 1.22975806,4.05309524 C1.19024194,3.93166667 1.15798387,3.83325397 1.12733871,3.73960317 L1.38540323,3.54833333 C1.26201613,3.55071429 1.16120968,3.55230159 1.06685484,3.55309524 C1.03620968,3.45865079 1.00314516,3.35785714 0.962822581,3.23404762" id="Fill-12" fill="#FFFFFF"></path>
                <path d="M2.79145161,3.19373016 C2.75112903,3.31992063 2.71806452,3.42230159 2.68741935,3.51833333 C2.59306452,3.52150794 2.49387097,3.52468254 2.37129032,3.52785714 C2.47048387,3.59769841 2.55032258,3.65404762 2.62612903,3.70722222 C2.59548387,3.80246032 2.56322581,3.90325397 2.52209677,4.02626984 L2.79145161,3.82230159 C2.87048387,3.87785714 2.95435484,3.93738095 3.0583871,4.00880952 C3.01887097,3.8881746 2.9866129,3.7897619 2.95677419,3.69769841 L3.21645161,3.50087302 C3.09225806,3.50563492 2.99145161,3.50801587 2.89629032,3.51198413 C2.86564516,3.41753968 2.83258065,3.31753968 2.79145161,3.19373016" id="Fill-14" fill="#FFFFFF"></path>
                <path d="M4.62959677,3.11468254 C4.58846774,3.24166667 4.55459677,3.34484127 4.52314516,3.44166667 C4.42879032,3.44722222 4.32879032,3.45198413 4.20701613,3.45833333 C4.30540323,3.52579365 4.38524194,3.58055556 4.46104839,3.63134921 C4.42959677,3.7265873 4.39653226,3.8281746 4.35540323,3.95277778 L4.62556452,3.74325397 C4.70540323,3.79722222 4.78846774,3.85436508 4.8925,3.9234127 C4.85379032,3.80357143 4.82233871,3.70674603 4.7925,3.61468254 L5.05379032,3.41309524 C4.92959677,3.4202381 4.82798387,3.42579365 4.73282258,3.43055556 C4.70217742,3.33690476 4.66991935,3.23769841 4.62959677,3.11468254" id="Fill-16" fill="#FFFFFF"></path>
                <path d="M6.47016129,3 C6.42822581,3.12777778 6.39435484,3.23174603 6.36209677,3.32857143 C6.26774194,3.33571429 6.16774194,3.34206349 6.04516129,3.35 C6.14354839,3.41507937 6.2233871,3.46904762 6.29919355,3.51904762 C6.26693548,3.61428571 6.23306452,3.71507937 6.19112903,3.84047619 L6.46290323,3.62698413 C6.54193548,3.67777778 6.625,3.73333333 6.72822581,3.8 C6.69032258,3.68174603 6.65967742,3.58571429 6.62983871,3.4952381 L6.89274194,3.28888889 C6.76854839,3.29920635 6.66693548,3.30634921 6.57177419,3.31428571 C6.54193548,3.22063492 6.50967742,3.12142857 6.47016129,3" id="Fill-18" fill="#FFFFFF"></path>
                <path d="M8.3075,2.85349206 C8.26556452,2.98126984 8.2308871,3.0852381 8.19862903,3.18206349 C8.10508065,3.19 8.00508065,3.19952381 7.8825,3.20904762 C7.98008065,3.27253968 8.05991935,3.32412698 8.13491935,3.37174603 C8.10266129,3.46698413 8.06798387,3.56777778 8.02524194,3.6915873 L8.29701613,3.47571429 C8.37604839,3.52571429 8.45830645,3.57809524 8.56072581,3.6415873 C8.52443548,3.52650794 8.49379032,3.43206349 8.46475806,3.34238095 L8.72766129,3.13444444 C8.60346774,3.14555556 8.50266129,3.15507937 8.4075,3.16380952 C8.37846774,3.07174603 8.34701613,2.97412698 8.3075,2.85349206" id="Fill-20" fill="#FFFFFF"></path>
                <path d="M9.96370968,3.19452381 C9.93145161,3.28896825 9.89677419,3.38896825 9.85403226,3.51119048 L10.125,3.29373016 C10.2032258,3.34134921 10.2854839,3.39134921 10.3870968,3.45246032 C10.35,3.3397619 10.3201613,3.24690476 10.2919355,3.15880952 L10.5532258,2.94928571 C10.4306452,2.96277778 10.3298387,2.97388889 10.2354839,2.9834127 C10.2064516,2.89373016 10.175,2.79769841 10.1362903,2.67944444 C10.0943548,2.80642857 10.0604839,2.90960317 10.0282258,3.00563492 C9.93467742,3.01515873 9.83548387,3.02547619 9.71290323,3.0381746 C9.81048387,3.09849206 9.88951613,3.14769841 9.96370968,3.19452381" id="Fill-22" fill="#FFFFFF"></path>
                <path d="M1.87556452,4.01992063 C1.83524194,4.14452381 1.80217742,4.24531746 1.77072581,4.34055556 C1.67798387,4.34214286 1.57798387,4.34452381 1.45620968,4.34611111 C1.55459677,4.41595238 1.63443548,4.47309524 1.71024194,4.52785714 C1.67959677,4.62150794 1.64733871,4.72150794 1.60701613,4.84373016 L1.87475806,4.64452381 C1.95379032,4.70007937 2.03766129,4.75960317 2.1408871,4.8318254 C2.10137097,4.71198413 2.0691129,4.61357143 2.03927419,4.52150794 L2.29814516,4.32865079 C2.17475806,4.3318254 2.07395161,4.33420635 1.97879032,4.33579365 C1.94895161,4.24214286 1.9158871,4.14214286 1.87556452,4.01992063" id="Fill-24" fill="#FFFFFF"></path>
                <path d="M3.7066129,3.9602381 C3.66548387,4.08563492 3.6316129,4.18722222 3.60016129,4.28325397 C3.5066129,4.28722222 3.4066129,4.29119048 3.28483871,4.29595238 C3.38322581,4.3634127 3.46225806,4.41896825 3.53806452,4.47055556 C3.5066129,4.565 3.47354839,4.665 3.43241935,4.78801587 L3.70177419,4.58246032 C3.7816129,4.63722222 3.86467742,4.69357143 3.96709677,4.7634127 C3.92919355,4.64436508 3.89774194,4.54753968 3.86790323,4.45706349 L4.1283871,4.25865079 C4.005,4.265 3.90419355,4.2697619 3.80903226,4.27452381 C3.7783871,4.18087302 3.74693548,4.08166667 3.7066129,3.9602381" id="Fill-26" fill="#FFFFFF"></path>
                <path d="M5.54241935,3.86103175 C5.49967742,3.98642857 5.46580645,4.08880952 5.43354839,4.18404762 C5.33919355,4.19039683 5.23919355,4.19674603 5.11741935,4.20468254 C5.215,4.2697619 5.29483871,4.32214286 5.36983871,4.37214286 C5.33758065,4.4665873 5.30370968,4.5665873 5.26096774,4.68880952 L5.53274194,4.47928571 C5.61177419,4.53166667 5.69403226,4.58563492 5.79645161,4.65230159 C5.76016129,4.53642857 5.72870968,4.44039683 5.69967742,4.35071429 L5.96258065,4.14833333 C5.8383871,4.15706349 5.73758065,4.16420635 5.64241935,4.17134921 C5.61258065,4.07849206 5.58112903,3.98166667 5.54241935,3.86103175" id="Fill-28" fill="#FFFFFF"></path>
                <path d="M7.37741935,3.72539683 C7.33467742,3.85079365 7.3,3.95238095 7.26693548,4.04761905 C7.17258065,4.05555556 7.0733871,4.06428571 6.95080645,4.07301587 C7.0483871,4.13650794 7.1266129,4.18730159 7.2016129,4.23492063 C7.16854839,4.32857143 7.13387097,4.42777778 7.09112903,4.55 L7.36370968,4.33730159 C7.44193548,4.38650794 7.525,4.43809524 7.6266129,4.50238095 C7.59032258,4.38809524 7.56048387,4.2952381 7.53145161,4.20634921 L7.79596774,4.0015873 C7.67096774,4.01269841 7.57016129,4.02142857 7.475,4.03015873 C7.44677419,3.94047619 7.41612903,3.84365079 7.37741935,3.72539683" id="Fill-30" fill="#FFFFFF"></path>
                <path d="M9.20846774,3.55642857 C9.16491935,3.6802381 9.13024194,3.78103175 9.09637097,3.87547619 C9.00282258,3.88579365 8.90362903,3.89611111 8.78185484,3.90722222 C8.87782258,3.96753968 8.95685484,4.01595238 9.03024194,4.06119048 C8.99717742,4.15404762 8.96169355,4.25246032 8.91814516,4.37309524 L9.19153226,4.15880952 C9.26895161,4.20563492 9.35120968,4.25484127 9.45201613,4.31515873 C9.41653226,4.20325397 9.3875,4.11277778 9.35927419,4.02706349 L9.62379032,3.81992063 C9.49959677,3.83420635 9.39879032,3.84452381 9.30443548,3.85404762 C9.27620968,3.76674603 9.24637097,3.67230159 9.20846774,3.55642857" id="Fill-32" fill="#FFFFFF"></path>
                <path d="M1.06596774,5.14761905 C1.03532258,5.0531746 1.00306452,4.9531746 0.962741935,4.83015873 C0.922419355,4.95396825 0.889354839,5.0547619 0.858709677,5.15 C0.76516129,5.15079365 0.666774194,5.15079365 0.545,5.1515873 C0.643387097,5.22301587 0.722419355,5.28095238 0.798225806,5.33492063 C0.767580645,5.42857143 0.735322581,5.52777778 0.695806452,5.65079365 L0.961935484,5.45396825 C1.04096774,5.51111111 1.12403226,5.57063492 1.22725806,5.64444444 C1.18774194,5.52460317 1.15629032,5.42619048 1.12645161,5.33253968 L1.38451613,5.14285714 C1.26032258,5.1452381 1.16032258,5.14603175 1.06596774,5.14761905" id="Fill-34" fill="#FFFFFF"></path>
                <path d="M2.8883871,5.10349206 C2.85854839,5.01063492 2.82629032,4.91222222 2.78677419,4.79 C2.74483871,4.91460317 2.71177419,5.01619048 2.68032258,5.11063492 C2.58677419,5.11380952 2.48758065,5.11698413 2.3666129,5.12015873 C2.46419355,5.1884127 2.54322581,5.2447619 2.61903226,5.29714286 C2.58758065,5.39079365 2.55451613,5.49 2.51419355,5.61301587 L2.78274194,5.41063492 C2.86177419,5.46539683 2.94403226,5.52253968 3.04725806,5.5931746 C3.00854839,5.47412698 2.97709677,5.37809524 2.94725806,5.28603175 L3.20774194,5.09079365 C3.08354839,5.09555556 2.98274194,5.09952381 2.8883871,5.10349206" id="Fill-36" fill="#FFFFFF"></path>
                <path d="M4.71387097,5.01436508 C4.68483871,4.92309524 4.6533871,4.82626984 4.61467742,4.70642857 C4.57274194,4.83103175 4.53806452,4.9318254 4.50580645,5.02706349 C4.41225806,5.0318254 4.31306452,5.03738095 4.19209677,5.04373016 C4.28887097,5.10960317 4.36790323,5.16277778 4.44290323,5.21277778 C4.41064516,5.30642857 4.37677419,5.40642857 4.33564516,5.52785714 L4.60580645,5.32150794 C4.68403226,5.37309524 4.76629032,5.42785714 4.86870968,5.49452381 C4.8316129,5.37865079 4.80096774,5.28420635 4.77193548,5.19452381 L5.03322581,4.99452381 C4.90983871,5.00166667 4.80903226,5.00880952 4.71387097,5.01436508" id="Fill-38" fill="#FFFFFF"></path>
                <path d="M6.54104839,4.88333333 C6.51282258,4.79444444 6.48217742,4.69920635 6.44508065,4.58095238 C6.40153226,4.7047619 6.36604839,4.80555556 6.33298387,4.9 C6.23943548,4.90793651 6.14024194,4.91587302 6.01846774,4.92539683 C6.11524194,4.98730159 6.19346774,5.03809524 6.26846774,5.08571429 C6.23540323,5.17936508 6.20072581,5.27777778 6.15798387,5.39920635 L6.42975806,5.18888889 C6.50798387,5.23809524 6.59024194,5.29047619 6.69185484,5.35396825 C6.65556452,5.23968254 6.62491935,5.14761905 6.5975,5.06031746 L6.86040323,4.85634921 C6.73701613,4.86666667 6.63620968,4.87539683 6.54104839,4.88333333" id="Fill-40" fill="#FFFFFF"></path>
                <path d="M8.36733871,4.71285714 C8.3391129,4.62634921 8.31008065,4.53269841 8.27298387,4.4184127 C8.22862903,4.54063492 8.19314516,4.64063492 8.15927419,4.73428571 C8.06572581,4.74380952 7.96653226,4.75412698 7.84475806,4.7652381 C7.94072581,4.8247619 8.01895161,4.8731746 8.09233871,4.9184127 C8.05927419,5.01047619 8.02379032,5.10809524 7.98024194,5.22873016 L8.25362903,5.01603175 C8.33024194,5.06206349 8.4125,5.11126984 8.51330645,5.17079365 C8.47782258,5.06047619 8.44959677,4.97 8.42137097,4.88507937 L8.6858871,4.67952381 C8.5625,4.69301587 8.46169355,4.70333333 8.36733871,4.71285714" id="Fill-42" fill="#FFFFFF"></path>
                <path d="M10.1889516,4.50587302 C10.1623387,4.42174603 10.1333065,4.33047619 10.0970161,4.21936508 C10.0526613,4.34079365 10.016371,4.4384127 9.98169355,4.53126984 C9.88895161,4.54238095 9.78975806,4.55428571 9.66798387,4.56857143 C9.76395161,4.62412698 9.84137097,4.67015873 9.91475806,4.71222222 C9.88008065,4.80349206 9.84379032,4.89952381 9.80024194,5.01857143 L10.073629,4.80349206 C10.1510484,4.84793651 10.2325,4.8931746 10.3316935,4.94952381 C10.2978226,4.84238095 10.2695968,4.75428571 10.2421774,4.67253968 L10.5075,4.46539683 C10.3841129,4.48126984 10.2833065,4.49396825 10.1889516,4.50587302" id="Fill-44" fill="#FFFFFF"></path>
                <path d="M1.97322581,5.92349206 C1.94258065,5.83063492 1.91032258,5.73142857 1.87080645,5.60920635 C1.82967742,5.73380952 1.7966129,5.83380952 1.76596774,5.92904762 C1.67241935,5.93142857 1.57403226,5.93301587 1.45225806,5.93619048 C1.55064516,6.0052381 1.62967742,6.0615873 1.70467742,6.1147619 C1.67403226,6.2084127 1.64177419,6.30761905 1.60145161,6.43063492 L1.8683871,6.23063492 C1.94741935,6.28539683 2.02967742,6.34333333 2.13209677,6.41555556 C2.0933871,6.29650794 2.06193548,6.19888889 2.03209677,6.1068254 L2.29096774,5.9131746 C2.16758065,5.91793651 2.06677419,5.92111111 1.97322581,5.92349206" id="Fill-46" fill="#FFFFFF"></path>
                <path d="M3.7908871,5.84984127 C3.76185484,5.75857143 3.73040323,5.66095238 3.69169355,5.54111111 C3.64975806,5.66571429 3.6158871,5.76571429 3.58362903,5.86095238 C3.4908871,5.86571429 3.39169355,5.86968254 3.26991935,5.8752381 C3.3675,5.94190476 3.44653226,5.99587302 3.52153226,6.04666667 C3.49008065,6.14031746 3.45701613,6.23952381 3.4158871,6.36253968 L3.68443548,6.15698413 C3.76266129,6.20936508 3.84491935,6.26412698 3.94653226,6.33238095 C3.90862903,6.21571429 3.87798387,6.12047619 3.84895161,6.03079365 L4.10943548,5.83238095 C3.98604839,5.83873016 3.88524194,5.84428571 3.7908871,5.84984127" id="Fill-48" fill="#FFFFFF"></path>
                <path d="M5.6108871,5.73047619 C5.58185484,5.64079365 5.55201613,5.54555556 5.5141129,5.42809524 C5.47056452,5.55111111 5.4358871,5.65111111 5.40282258,5.74634921 C5.31008065,5.75269841 5.2108871,5.75984127 5.08991935,5.76936508 C5.18669355,5.83206349 5.26491935,5.88285714 5.3391129,5.93126984 C5.30685484,6.02412698 5.27217742,6.12333333 5.22943548,6.2447619 L5.50040323,6.03603175 C5.57782258,6.0852381 5.6608871,6.1384127 5.76169355,6.20269841 C5.72459677,6.0884127 5.69475806,5.9947619 5.66653226,5.90746032 L5.92862903,5.70507937 C5.80524194,5.71460317 5.70524194,5.72253968 5.6108871,5.73047619" id="Fill-50" fill="#FFFFFF"></path>
                <path d="M7.43016129,5.56690476 C7.40274194,5.47960317 7.37290323,5.38595238 7.3366129,5.27246032 C7.29225806,5.39468254 7.25596774,5.49388889 7.22290323,5.58753968 C7.12935484,5.59626984 7.03016129,5.6065873 6.90919355,5.61769841 C7.00516129,5.67722222 7.08258065,5.72563492 7.15677419,5.77166667 C7.12290323,5.86373016 7.08822581,5.96214286 7.04387097,6.08277778 L7.31725806,5.87007937 C7.39387097,5.91611111 7.47612903,5.96611111 7.57612903,6.02642857 C7.54064516,5.91531746 7.51241935,5.82484127 7.48419355,5.73912698 L7.74790323,5.53357143 C7.62451613,5.54706349 7.52451613,5.5565873 7.43016129,5.56690476" id="Fill-52" fill="#FFFFFF"></path>
                <path d="M9.24862903,5.3615873 C9.22120968,5.27746032 9.19298387,5.18698413 9.1575,5.07587302 C9.11233871,5.19650794 9.07604839,5.29492063 9.04137097,5.38698413 C8.94862903,5.39809524 8.84943548,5.41079365 8.72766129,5.42428571 C8.82362903,5.47984127 8.90024194,5.52587302 8.97362903,5.56873016 C8.93975806,5.66 8.90346774,5.7568254 8.8591129,5.87587302 L9.13330645,5.66079365 C9.20991935,5.7052381 9.29056452,5.75047619 9.39056452,5.80761905 C9.3558871,5.69968254 9.32846774,5.6115873 9.30104839,5.52904762 L9.56637097,5.32111111 C9.44298387,5.33777778 9.34298387,5.34968254 9.24862903,5.3615873" id="Fill-54" fill="#FFFFFF"></path>
                <path d="M0.978548387,6.41952381 C0.935806452,6.54412698 0.901935484,6.64412698 0.869677419,6.73936508 C0.772903226,6.74015873 0.669677419,6.74174603 0.543870968,6.74253968 C0.645483871,6.81396825 0.728548387,6.87111111 0.806774194,6.92587302 C0.775322581,7.01952381 0.741451613,7.11873016 0.700322581,7.24095238 L0.977741935,7.04253968 C1.06,7.09888889 1.14629032,7.1584127 1.25354839,7.23142857 C1.21241935,7.11079365 1.17935484,7.0131746 1.14870968,6.92111111 L1.41645161,6.72984127 C1.28822581,6.73222222 1.18419355,6.73380952 1.08580645,6.73539683 C1.05435484,6.64174603 1.02048387,6.54253968 0.978548387,6.41952381" id="Fill-56" fill="#FFFFFF"></path>
                <path d="M2.8733871,6.3652381 C2.82983871,6.48904762 2.79516129,6.58984127 2.76209677,6.68507937 C2.66532258,6.68904762 2.56209677,6.69301587 2.43629032,6.69777778 C2.53790323,6.7652381 2.62096774,6.82 2.69758065,6.8715873 C2.66532258,6.9652381 2.63145161,7.0652381 2.58870968,7.18746032 L2.86774194,6.98269841 C2.95,7.03666667 3.03548387,7.09222222 3.14193548,7.16126984 C3.10241935,7.04301587 3.06935484,6.94698413 3.03951613,6.85650794 L3.30887097,6.65888889 C3.18064516,6.6652381 3.0766129,6.67079365 2.97822581,6.67555556 C2.94677419,6.58269841 2.91370968,6.48507937 2.8733871,6.3652381" id="Fill-58" fill="#FFFFFF"></path>
                <path d="M4.76822581,6.25753968 C4.72387097,6.38134921 4.68758065,6.48134921 4.65370968,6.5765873 C4.55693548,6.58293651 4.45370968,6.59087302 4.32790323,6.59880952 C4.42870968,6.66230159 4.51096774,6.71388889 4.58758065,6.76230159 C4.55451613,6.85595238 4.51983871,6.95595238 4.47709677,7.0781746 L4.75693548,6.86785714 C4.83758065,6.91785714 4.92306452,6.97103175 5.02870968,7.03531746 C4.99,6.92103175 4.95854839,6.82738095 4.92870968,6.73849206 L5.20048387,6.53531746 C5.07225806,6.54484127 4.96822581,6.55357143 4.86983871,6.56071429 C4.84,6.47103175 4.80774194,6.375 4.76822581,6.25753968" id="Fill-60" fill="#FFFFFF"></path>
                <path d="M6.66306452,6.09865079 C6.61709677,6.22166667 6.58,6.32166667 6.54532258,6.41531746 C6.44854839,6.42563492 6.34532258,6.43515873 6.21951613,6.44626984 C6.31951613,6.5065873 6.40177419,6.555 6.4783871,6.60103175 C6.44451613,6.69388889 6.40822581,6.79309524 6.36306452,6.91452381 L6.64612903,6.69944444 C6.72596774,6.74626984 6.81145161,6.79626984 6.91467742,6.8565873 C6.8783871,6.74468254 6.84774194,6.6534127 6.81870968,6.56769841 L7.09209677,6.3597619 C6.96387097,6.37404762 6.85983871,6.38436508 6.76145161,6.39468254 C6.73241935,6.30738095 6.70177419,6.21452381 6.66306452,6.09865079" id="Fill-62" fill="#FFFFFF"></path>
                <path d="M8.36814516,6.38769841 C8.33346774,6.4797619 8.29637097,6.57738095 8.25040323,6.69880952 L8.53508065,6.4797619 C8.61572581,6.5234127 8.69959677,6.56944444 8.80362903,6.62579365 C8.76733871,6.51706349 8.7375,6.42896825 8.71008065,6.34563492 L8.98508065,6.13531746 C8.85604839,6.15119048 8.75282258,6.16547619 8.65362903,6.17738095 C8.62540323,6.09325397 8.59556452,6.00357143 8.55846774,5.89166667 C8.51169355,6.01309524 8.47379032,6.11150794 8.43830645,6.20515873 C8.34153226,6.21706349 8.23830645,6.2297619 8.1125,6.24404762 C8.21169355,6.30039683 8.29233871,6.34484127 8.36814516,6.38769841" id="Fill-64" fill="#FFFFFF"></path>
                <path d="M10.2606452,6.125 C10.2243548,6.21547619 10.1864516,6.31230159 10.1404839,6.43134921 L10.4267742,6.20992063 C10.5066129,6.24960317 10.5904839,6.29166667 10.6937097,6.34325397 C10.6582258,6.24007937 10.6291935,6.15436508 10.6025806,6.075 L10.8783871,5.86230159 C10.7493548,5.88214286 10.646129,5.89801587 10.5469355,5.91309524 C10.5187097,5.83214286 10.4896774,5.74484127 10.4533871,5.63849206 C10.4066129,5.75753968 10.3679032,5.85436508 10.3316129,5.94563492 C10.2340323,5.95992063 10.1316129,5.97579365 10.0058065,5.99325397 C10.1041935,6.04484127 10.1840323,6.08611111 10.2606452,6.125" id="Fill-66" fill="#FFFFFF"></path>
                <path d="M1.92201613,7.19063492 C1.87927419,7.31444444 1.84459677,7.4152381 1.81233871,7.51047619 C1.71556452,7.51365079 1.61314516,7.5168254 1.48733871,7.52 C1.58895161,7.58904762 1.67120968,7.64460317 1.74943548,7.69777778 C1.71717742,7.79142857 1.6841129,7.89142857 1.64217742,8.01444444 L1.91959677,7.81126984 C2.00104839,7.8668254 2.08733871,7.92396825 2.19379032,7.99539683 C2.15346774,7.87555556 2.12040323,7.77793651 2.08975806,7.68666667 L2.3575,7.49063492 C2.23008065,7.49619048 2.12604839,7.50015873 2.02766129,7.50412698 C1.99620968,7.41047619 1.96314516,7.31206349 1.92201613,7.19063492" id="Fill-68" fill="#FFFFFF"></path>
                <path d="M3.80975806,7.10079365 C3.76620968,7.22539683 3.73072581,7.32619048 3.69766129,7.42142857 C3.60169355,7.42777778 3.49846774,7.43333333 3.37346774,7.44126984 C3.47427419,7.50634921 3.55653226,7.55873016 3.63314516,7.60873016 C3.6008871,7.7031746 3.56620968,7.8031746 3.52427419,7.92619048 L3.8025,7.71666667 C3.88314516,7.76825397 3.96862903,7.82222222 4.07427419,7.88968254 C4.03475806,7.77301587 4.00330645,7.67777778 3.97266129,7.58730159 L4.24201613,7.38492063 C4.11459677,7.39444444 4.01056452,7.4015873 3.91298387,7.40793651 C3.88233871,7.31666667 3.85008065,7.21984127 3.80975806,7.10079365" id="Fill-70" fill="#FFFFFF"></path>
                <path d="M5.69677419,6.9565873 C5.6516129,7.08039683 5.61532258,7.18119048 5.58145161,7.27563492 C5.48467742,7.28515873 5.38225806,7.29388889 5.25725806,7.30420635 C5.35725806,7.36611111 5.43870968,7.41611111 5.51532258,7.46293651 C5.48145161,7.5565873 5.44596774,7.65738095 5.40322581,7.78039683 L5.68306452,7.56452381 C5.76370968,7.61293651 5.8483871,7.66452381 5.95241935,7.72642857 C5.91532258,7.61214286 5.88387097,7.51928571 5.85483871,7.43277778 L6.125,7.22404762 C5.9983871,7.23674603 5.89435484,7.24626984 5.79596774,7.2565873 C5.76693548,7.16769841 5.73548387,7.07246032 5.69677419,6.9565873" id="Fill-72" fill="#FFFFFF"></path>
                <path d="M7.58370968,6.75896825 C7.53774194,6.88198413 7.49983871,6.98198413 7.46596774,7.07563492 C7.3683871,7.08753968 7.26596774,7.1002381 7.14096774,7.11452381 C7.24016129,7.17166667 7.3216129,7.21769841 7.39741935,7.26134921 C7.36354839,7.355 7.32725806,7.45420635 7.28209677,7.57722222 L7.56516129,7.3565873 C7.64419355,7.4018254 7.72887097,7.44865079 7.83290323,7.5065873 C7.79580645,7.39626984 7.76596774,7.30579365 7.73693548,7.22166667 L8.00951613,7.0081746 C7.88209677,7.02484127 7.77806452,7.03833333 7.68048387,7.0502381 C7.65145161,6.96373016 7.6216129,6.87246032 7.58370968,6.75896825" id="Fill-74" fill="#FFFFFF"></path>
                <path d="M9.47225806,6.51015873 C9.42548387,6.63079365 9.3883871,6.73 9.35209677,6.82365079 C9.25451613,6.83714286 9.15290323,6.85222222 9.02629032,6.87047619 C9.12548387,6.92365079 9.20612903,6.96571429 9.28274194,7.00619048 C9.24725806,7.09825397 9.21016129,7.19666667 9.16419355,7.31888889 L9.44967742,7.09349206 C9.52790323,7.1347619 9.61258065,7.17920635 9.7166129,7.23238095 C9.68032258,7.1252381 9.65129032,7.03873016 9.62306452,6.95619048 L9.89725806,6.74031746 C9.76903226,6.75936508 9.665,6.77603175 9.56741935,6.79111111 C9.53919355,6.70777778 9.50935484,6.61968254 9.47225806,6.51015873" id="Fill-76" fill="#FFFFFF"></path>
                <path d="M1.0825,8.32531746 C1.05104839,8.23166667 1.01717742,8.13166667 0.975241935,8.00944444 C0.933306452,8.13404762 0.899435484,8.23484127 0.867177419,8.33007937 C0.771209677,8.33166667 0.667983871,8.33325397 0.542983871,8.33484127 C0.643790323,8.40547619 0.72766129,8.46261905 0.805080645,8.51579365 C0.773629032,8.6102381 0.739758065,8.7102381 0.698629032,8.83325397 L0.975241935,8.63325397 C1.0575,8.68880952 1.14379032,8.74833333 1.25024194,8.82134921 L1.14459677,8.50944444 L1.41153226,8.3165873 C1.2841129,8.3197619 1.18008065,8.32293651 1.0825,8.32531746" id="Fill-78" fill="#FFFFFF"></path>
                <path d="M2.96395161,8.25246032 C2.93330645,8.16039683 2.90024194,8.06277778 2.8591129,7.94134921 C2.81637097,8.06674603 2.78169355,8.16833333 2.74943548,8.26436508 C2.65346774,8.26912698 2.55104839,8.27309524 2.42604839,8.27944444 C2.52685484,8.34611111 2.60991935,8.40087302 2.68653226,8.45166667 C2.65427419,8.54611111 2.62120968,8.64690476 2.57927419,8.77071429 L2.8558871,8.56357143 C2.93733871,8.61595238 3.02282258,8.67230159 3.12846774,8.74134921 C3.08814516,8.62309524 3.0558871,8.52626984 3.02524194,8.43420635 L3.29217742,8.23420635 C3.16556452,8.24134921 3.06153226,8.24690476 2.96395161,8.25246032" id="Fill-80" fill="#FFFFFF"></path>
                <path d="M4.84145161,8.12071429 C4.81080645,8.0302381 4.77854839,7.935 4.73903226,7.81595238 C4.69548387,7.94055556 4.66,8.04293651 4.62693548,8.1381746 C4.53096774,8.14690476 4.42854839,8.15484127 4.30435484,8.16436508 C4.40435484,8.22785714 4.48580645,8.27865079 4.56241935,8.32706349 C4.53016129,8.42230159 4.49548387,8.52388889 4.45354839,8.64769841 L4.73096774,8.43261905 C4.8116129,8.48261905 4.89629032,8.535 5.00112903,8.60007937 C4.96241935,8.48420635 4.93016129,8.38896825 4.90112903,8.30007937 L5.16887097,8.09134921 C5.04225806,8.10325397 4.93822581,8.11198413 4.84145161,8.12071429" id="Fill-82" fill="#FFFFFF"></path>
                <path d="M6.71741935,7.93087302 C6.68758065,7.84277778 6.65693548,7.74912698 6.61822581,7.63325397 C6.57306452,7.75785714 6.53677419,7.85944444 6.50290323,7.95547619 C6.40693548,7.9665873 6.30451613,7.97769841 6.18032258,7.99039683 C6.27951613,8.04992063 6.36096774,8.09833333 6.43677419,8.14357143 C6.40290323,8.23880952 6.36822581,8.34039683 6.32548387,8.465 L6.60451613,8.24277778 C6.68435484,8.28880952 6.76822581,8.33880952 6.87306452,8.39992063 C6.83516129,8.28563492 6.80370968,8.19277778 6.77548387,8.10626984 L7.04483871,7.89119048 C6.91822581,7.90706349 6.81419355,7.91896825 6.71741935,7.93087302" id="Fill-84" fill="#FFFFFF"></path>
                <path d="M8.59572581,7.68357143 C8.56669355,7.59785714 8.53685484,7.5065873 8.49895161,7.39468254 C8.45298387,7.51849206 8.4158871,7.61928571 8.38120968,7.71452381 C8.28443548,7.72801587 8.18282258,7.74230159 8.05782258,7.7597619 C8.15620968,7.81452381 8.23766129,7.8597619 8.31346774,7.90103175 C8.27879032,7.99626984 8.24330645,8.09706349 8.19975806,8.22166667 L8.48040323,7.99309524 C8.56024194,8.03674603 8.64491935,8.08277778 8.74895161,8.13833333 C8.71185484,8.02880952 8.68120968,7.93833333 8.65298387,7.85420635 L8.92475806,7.63436508 C8.79733871,7.6534127 8.69330645,7.66849206 8.59572581,7.68357143" id="Fill-86" fill="#FFFFFF"></path>
                <path d="M10.4803226,7.37904762 C10.4520968,7.29650794 10.4222581,7.20920635 10.3851613,7.10047619 C10.3383871,7.22349206 10.3004839,7.32269841 10.265,7.41714286 C10.1682258,7.43301587 10.0658065,7.45126984 9.94,7.47190476 C10.0391935,7.52269841 10.1206452,7.5631746 10.1956452,7.60126984 C10.1609677,7.69492063 10.1254839,7.79492063 10.0803226,7.91873016 L10.3641935,7.68619048 C10.4440323,7.72587302 10.5287097,7.76714286 10.6327419,7.81952381 C10.5964516,7.71238095 10.5658065,7.62587302 10.5375806,7.54412698 L10.8109677,7.32031746 C10.6835484,7.34333333 10.5787097,7.36238095 10.4803226,7.37904762" id="Fill-88" fill="#FFFFFF"></path>
                <path d="M2.02201613,9.09261905 C1.99056452,8.99896825 1.95669355,8.8997619 1.91556452,8.77753968 C1.87362903,8.90293651 1.83975806,9.00452381 1.8075,9.10055556 C1.71153226,9.10373016 1.6091129,9.10769841 1.4841129,9.11087302 C1.58491935,9.17912698 1.66798387,9.23626984 1.74540323,9.28865079 C1.71395161,9.38309524 1.6808871,9.48388889 1.63975806,9.60769841 L1.91475806,9.40293651 C1.99620968,9.45769841 2.0825,9.51563492 2.18895161,9.58706349 C2.14782258,9.46722222 2.11475806,9.36880952 2.0841129,9.27595238 L2.34943548,9.07753968 C2.22282258,9.08388889 2.11959677,9.08785714 2.02201613,9.09261905" id="Fill-90" fill="#FFFFFF"></path>
                <path d="M3.89564516,8.98642857 C3.865,8.89436508 3.83193548,8.79674603 3.7916129,8.67531746 C3.74887097,8.80230159 3.71419355,8.90388889 3.68193548,9.00150794 C3.58596774,9.00785714 3.48435484,9.015 3.36016129,9.02293651 C3.46016129,9.08801587 3.54241935,9.14119048 3.61903226,9.19119048 C3.58758065,9.28722222 3.55370968,9.38960317 3.51258065,9.515 L3.78758065,9.30071429 C3.86822581,9.35230159 3.95370968,9.40706349 4.05935484,9.47531746 C4.01903226,9.35626984 3.98677419,9.25944444 3.95612903,9.1681746 L4.22225806,8.96103175 C4.09564516,8.97055556 3.99241935,8.97928571 3.89564516,8.98642857" id="Fill-92" fill="#FFFFFF"></path>
                <path d="M5.76524194,8.81825397 C5.73459677,8.72777778 5.70314516,8.63253968 5.66362903,8.51349206 C5.62008065,8.64047619 5.58459677,8.74285714 5.55153226,8.84047619 C5.45637097,8.85079365 5.35395161,8.86111111 5.23056452,8.87222222 C5.32975806,8.93412698 5.41120968,8.98412698 5.48782258,9.03174603 C5.45556452,9.12857143 5.4208871,9.23174603 5.37895161,9.35793651 L5.65556452,9.13492063 C5.73620968,9.18412698 5.8208871,9.23571429 5.92572581,9.3 C5.88620968,9.18253968 5.85475806,9.08809524 5.82491935,8.9984127 L6.09185484,8.78253968 C5.96524194,8.7968254 5.86201613,8.80793651 5.76524194,8.81825397" id="Fill-94" fill="#FFFFFF"></path>
                <path d="M7.63572581,8.58960317 C7.60669355,8.50150794 7.57524194,8.40785714 7.53653226,8.29198413 C7.49137097,8.4181746 7.4558871,8.52134921 7.42201613,8.61896825 C7.32604839,8.63166667 7.22443548,8.64515873 7.10024194,8.66103175 C7.19943548,8.71896825 7.2808871,8.76579365 7.35669355,8.80944444 C7.32362903,8.90626984 7.28895161,9.0102381 7.24701613,9.13722222 L7.52443548,8.90626984 C7.60508065,8.95309524 7.68895161,9.00150794 7.79379032,9.06103175 C7.75508065,8.94595238 7.72362903,8.85309524 7.69459677,8.76579365 L7.96314516,8.54277778 C7.83653226,8.5618254 7.73330645,8.57611111 7.63572581,8.58960317" id="Fill-96" fill="#FFFFFF"></path>
                <path d="M9.51322581,8.2997619 C9.4833871,8.21404762 9.45274194,8.12198413 9.41483871,8.01087302 C9.36887097,8.13626984 9.33258065,8.23865079 9.29790323,8.33626984 C9.20193548,8.35134921 9.09951613,8.36880952 8.97451613,8.38865079 C9.07370968,8.44261905 9.15516129,8.48547619 9.23177419,8.52674603 C9.19790323,8.62277778 9.16241935,8.72674603 9.12048387,8.85373016 L9.40032258,8.61642857 C9.48096774,8.65849206 9.56564516,8.70373016 9.67048387,8.75928571 C9.63177419,8.6465873 9.60032258,8.55611111 9.57129032,8.47198413 L9.84225806,8.24261905 C9.71483871,8.26484127 9.61080645,8.28309524 9.51322581,8.2997619" id="Fill-98" fill="#FFFFFF"></path>
                <path d="M1.0825,9.92119048 C1.05024194,9.82674603 1.01637097,9.72674603 0.974435484,9.60373016 C0.9325,9.72833333 0.898629032,9.82992063 0.867177419,9.92515873 C0.771209677,9.92674603 0.667983871,9.92833333 0.542983871,9.92992063 C0.644596774,10.0005556 0.72766129,10.0584921 0.805080645,10.1116667 C0.773629032,10.2061111 0.740564516,10.3061111 0.699435484,10.4307143 L0.975241935,10.2299206 C1.0575,10.2862698 1.14379032,10.3465873 1.25104839,10.4203968 C1.20991935,10.2989683 1.17685484,10.1997619 1.14540323,10.1061111 L1.41072581,9.91246032 C1.2841129,9.91563492 1.18008065,9.91880952 1.0825,9.92119048" id="Fill-100" fill="#FFFFFF"></path>
                <path d="M2.95766129,9.84753968 C2.92620968,9.75388889 2.89233871,9.65468254 2.85120968,9.53246032 C2.80927419,9.65944444 2.77620968,9.76261905 2.74395161,9.85944444 C2.64879032,9.86420635 2.54637097,9.86896825 2.42217742,9.87531746 C2.52298387,9.94277778 2.60524194,9.99753968 2.68266129,10.0499206 C2.65120968,10.1459524 2.61814516,10.2483333 2.57701613,10.3729365 L2.85040323,10.1618254 C2.93266129,10.2165873 3.01814516,10.2737302 3.12459677,10.3435714 C3.08427419,10.2237302 3.05040323,10.1253175 3.01975806,10.0316667 L3.28427419,9.82849206 C3.15766129,9.83563492 3.05443548,9.84198413 2.95766129,9.84753968" id="Fill-102" fill="#FFFFFF"></path>
                <path d="M4.8241129,9.71039683 C4.79266129,9.61753968 4.76040323,9.51833333 4.72008065,9.39769841 C4.67733871,9.52626984 4.64346774,9.6302381 4.61120968,9.72865079 C4.51604839,9.73738095 4.41443548,9.74611111 4.29024194,9.75642857 C4.39024194,9.82071429 4.47169355,9.87309524 4.5491129,9.92309524 C4.51766129,10.0207143 4.48459677,10.1238889 4.44427419,10.2500794 L4.71685484,10.0294444 C4.79830645,10.0810317 4.88379032,10.135 4.99024194,10.200873 C4.9491129,10.082619 4.91604839,9.98579365 4.88459677,9.89293651 L5.14991935,9.67944444 C5.02330645,9.69134921 4.9208871,9.70087302 4.8241129,9.71039683" id="Fill-104" fill="#FFFFFF"></path>
                <path d="M6.68830645,9.50809524 C6.65766129,9.41603175 6.62620968,9.31920635 6.5858871,9.20015873 C6.54314516,9.32873016 6.50846774,9.43428571 6.47620968,9.53349206 C6.38024194,9.54539683 6.27943548,9.55730159 6.15524194,9.5715873 C6.25443548,9.63269841 6.3358871,9.68269841 6.4125,9.72873016 C6.38104839,9.82793651 6.34798387,9.93269841 6.30766129,10.0596825 L6.58024194,9.83031746 C6.66169355,9.87952381 6.74717742,9.93031746 6.85362903,9.99222222 C6.8125,9.87555556 6.77943548,9.78031746 6.74879032,9.68984127 L7.01491935,9.4652381 C6.88830645,9.48190476 6.78508065,9.49539683 6.68830645,9.50809524" id="Fill-106" fill="#FFFFFF"></path>
                <path d="M8.55790323,9.24071429 C8.52806452,9.15103175 8.49580645,9.05579365 8.45709677,8.93912698 C8.41274194,9.06769841 8.37725806,9.17404762 8.34419355,9.27404762 C8.24822581,9.28912698 8.1466129,9.30420635 8.02241935,9.32325397 C8.12241935,9.38039683 8.20387097,9.42642857 8.28048387,9.47007937 C8.24822581,9.57007937 8.21516129,9.67563492 8.17483871,9.805 L8.44983871,9.56611111 C8.53048387,9.61134921 8.61677419,9.65896825 8.72322581,9.71769841 C8.68129032,9.60261905 8.64903226,9.5081746 8.6183871,9.42007937 L8.88612903,9.18674603 C8.75951613,9.2081746 8.65548387,9.22484127 8.55790323,9.24071429" id="Fill-108" fill="#FFFFFF"></path>
                <path d="M10.5016129,9.08333333 L10.7709677,8.84285714 C10.6427419,8.86825397 10.5379032,8.88968254 10.4395161,8.90793651 C10.408871,8.82063492 10.3774194,8.72857143 10.3379032,8.61428571 C10.2935484,8.74365079 10.2572581,8.84920635 10.2241935,8.94920635 C10.1274194,8.96746032 10.025,8.98650794 9.9,9.00952381 C10,9.06269841 10.0814516,9.1047619 10.1596774,9.1452381 C10.1274194,9.2452381 10.0935484,9.35238095 10.0532258,9.48253968 L10.3314516,9.23412698 C10.4129032,9.27698413 10.4991935,9.32142857 10.6064516,9.37619048 C10.5645161,9.26269841 10.5314516,9.16984127 10.5016129,9.08333333" id="Fill-110" fill="#FFFFFF"></path>
            </g>
        </g>
    </g>
</svg>