<?xml version="1.0" encoding="UTF-8"?>
<svg width="32px" height="32px" viewBox="0 0 32 32" version="1.1" xmlns="http://www.w3.org/2000/svg" xmlns:xlink="http://www.w3.org/1999/xlink">
    <!-- Generator: Sketch 57.1 (83088) - https://sketch.com -->
    <title>ven</title>
    <desc>Created with Sketch.</desc>
    <defs>
        <radialGradient cx="50%" cy="0%" fx="50%" fy="0%" r="96.0727163%" gradientTransform="translate(0.500000,0.000000),scale(1.000000,0.928571),rotate(90.000000),translate(-0.500000,-0.000000)" id="radialGradient-1">
            <stop stop-color="#6671D1" offset="0%"></stop>
            <stop stop-color="#C84278" offset="100%"></stop>
        </radialGradient>
    </defs>
    <g id="ven" stroke="none" stroke-width="1" fill="none" fill-rule="evenodd">
        <circle id="Oval" fill="#D8D8D8" cx="16" cy="16" r="16"></circle>
        <g transform="translate(3.000000, 2.000000)" fill="url(#radialGradient-1)" id="Fill-1">
            <path d="M20.3010252,9.68172299 L20.3010252,7.84937331 C20.3010252,7.84937331 17.0836752,4.3653657 17.0420346,4.39102015 C17.0420346,5.32824052 17.043482,18.9537522 17.043482,18.9537522 L20.3982237,15.3857845 L20.3982237,14.3295098 L21.8524165,15.8300175 L14.8451024,22.7370617 C14.8451024,22.7370617 14.72263,1.65076947 14.72263,0 C13.8991701,0.747088688 11.4447118,2.97136284 11.4447118,2.97136284 L11.4365841,22.7370617 L4.37237605,15.8645566 L5.70832727,14.3295098 L5.70832727,15.3857845 C5.70832727,15.3857845 8.15777528,17.9401238 9.21771824,18.9537522 C9.21771824,17.7603205 9.21905431,4.39102015 9.21905431,4.39102015 L5.70832727,7.84937331 L5.70832727,9.68172299 L0,15.4420911 C0,15.4420911 12.9508997,28 13.027612,28 C14.3268215,26.7329367 26,15.4420911 26,15.4420911 L20.3010252,9.68172299 Z"></path>
        </g>
    </g>
</svg>