<?xml version="1.0" encoding="UTF-8"?>
<svg width="32px" height="32px" viewBox="0 0 32 32" version="1.1" xmlns="http://www.w3.org/2000/svg" xmlns:xlink="http://www.w3.org/1999/xlink">
    <!-- Generator: Sketch 57.1 (83088) - https://sketch.com -->
    <title>vgx</title>
    <desc>Created with Sketch.</desc>
    <g id="vgx" stroke="none" stroke-width="1" fill="none" fill-rule="evenodd">
        <circle id="Oval" fill="#443AC2" fill-rule="nonzero" cx="16" cy="16" r="16"></circle>
        <g transform="translate(6.000000, 8.000000)" fill="#FFFFFF" fill-rule="nonzero" id="Path">
            <path d="M9.2448448,16.9608706 C9.37504441,17.2492005 9.6329135,17.3818182 9.99245214,17.3818182 L10.0078199,17.3818182 C10.3673586,17.3818182 10.6252276,17.2492005 10.7554272,16.9608707 L10.7636157,16.9455029 L19.6348096,0.654545455 L15.2328622,0.654545455 C15.0748086,0.654545455 14.9472498,0.670551572 14.837184,0.711126974 C14.6768704,0.77022613 14.5553453,0.88406838 14.5108867,1.04069797 L14.5103541,1.04219747 L9.99216553,9.30838044 L5.46388754,1.03710075 C5.44692986,0.986099487 5.42478369,0.940191441 5.39122873,0.893851923 C5.33266256,0.81297183 5.25186207,0.753453555 5.15577363,0.717386787 C5.04549813,0.675994908 4.95293907,0.668966176 4.75204205,0.668966176 L0.365190365,0.668966176 L9.2366895,16.9455651 L9.2448448,16.9608706 Z M14.500732,1.0692848 L14.8794035,1.18773 L14.5242405,1.01679176 L14.5103541,1.04219747 L14.500732,1.0692848 Z M9.23751867,16.9470864 L9.59289008,16.77653 L9.23587516,16.9440368 L9.2366895,16.9455651 L9.23751867,16.9470864 Z M1.67015679,1.4180794 L4.75204205,1.4180794 C4.76006948,1.4180794 4.76771367,1.41809478 4.77499397,1.4181257 L9.99273874,10.9487743 L15.2098672,1.40385646 C15.2171947,1.40365868 15.2248608,1.40365868 15.2328622,1.40365868 L18.3303873,1.40365868 L10.0511483,16.6075571 L10.0381063,16.6320336 C10.0292045,16.6324649 10.019114,16.632705 10.0078199,16.632705 L9.99245214,16.632705 C9.98115802,16.632705 9.97106756,16.6324649 9.96216578,16.6320336 L9.94909066,16.6074949 L1.67015679,1.4180794 Z"></path>
            <path d="M12.7297369,0.654545455 C12.3907405,0.654545455 12.282878,0.697727273 12.1287888,0.985606061 L8.41523775,7.79393939 L4.70168674,0.985606061 C4.62464211,0.726515152 4.43973501,0.798484848 4.10073865,0.798484848 L0.957317876,0.798484848 C0.803228623,0.798484848 0.649139369,0.956818182 0.67995722,1.05757576 L7.79888074,14.1128788 C7.90674321,14.3431818 8.10705924,14.4727273 8.41523775,14.4727273 L8.43064668,14.4727273 C8.73882518,14.4727273 8.95455014,14.3575758 9.04700369,14.1128788 L16.1813361,0.985606061 C16.2275629,0.884848485 16.2275629,0.812878788 16.1813361,0.75530303 C16.1351094,0.697727273 16.0272469,0.654545455 15.9039755,0.654545455 L12.7297369,0.654545455 Z"></path>
        </g>
    </g>
</svg>