<?xml version="1.0" encoding="UTF-8"?>
<svg width="32px" height="32px" viewBox="0 0 32 32" version="1.1" xmlns="http://www.w3.org/2000/svg" xmlns:xlink="http://www.w3.org/1999/xlink">
    <!-- Generator: Sketch 57.1 (83088) - https://sketch.com -->
    <title>wbtc</title>
    <desc>Created with Sketch.</desc>
    <g id="wbtc" stroke="none" stroke-width="1" fill="none" fill-rule="evenodd">
        <path d="M16,32 C24.8368,32 32,24.8368 32,16 C32,7.1632 24.8368,0 16,0 C7.1632,0 0,7.1632 0,16 C0,24.8368 7.1632,32 16,32 Z" id="Oval" fill="#070A0E" fill-rule="nonzero"></path>
        <g transform="translate(4.000000, 4.000000)" fill="#FFFFFF" fill-rule="nonzero">
            <path d="M13.7190487,10.154302 C13.7190487,11.4398297 11.7139152,11.2834596 11.0768737,11.2834596 L11.0768737,9.01872149 C11.7139152,9.01872149 13.7190487,8.81727389 13.7190487,10.154302 M14.2428125,13.6702342 C14.2428125,15.0758129 11.8400389,14.915122 11.0747716,14.915122 L11.0747716,12.4211423 C11.8400389,12.4232443 14.2428125,12.2026446 14.2428125,13.6707013 M15.8247309,9.64642053 C15.6962715,8.30518825 14.5421227,7.85523022 13.082124,7.71812907 L13.082124,5.86901527 L11.9533167,5.86901527 L11.9533167,7.68169333 C11.6562253,7.68169333 11.3527109,7.68169333 11.0512986,7.6924372 L11.0512986,5.86901527 L9.92903108,5.86901527 L9.92903108,7.72887294 L7.64187093,7.72887294 L7.64187093,8.93942704 C7.64187093,8.93942704 8.47557205,8.92436227 8.46272611,8.93942704 C8.77550749,8.90523783 9.05913249,9.12503171 9.10408856,9.4364479 L9.10408856,14.5295104 C9.09765601,14.6354393 9.04940179,14.7344729 8.96994369,14.80482 C8.89048558,14.8751672 8.78633401,14.9110639 8.6804063,14.9046116 C8.67912433,14.9047277 8.67783449,14.9047277 8.67655252,14.9046116 C8.69150052,14.9174576 7.85569734,14.9046116 7.85569734,14.9046116 L7.63124384,16.2567046 L9.90976218,16.2567046 L9.90976218,18.1464582 L11.0384526,18.1464582 L11.0384526,16.2842649 L11.9405876,16.2842649 L11.9405876,18.1375829 L13.0713801,18.1375829 L13.0713801,16.2690834 C14.9781838,16.1533532 16.3078548,15.6819074 16.4745016,13.892936 C16.6092671,12.4532571 15.9333374,11.8109604 14.8541622,11.551239 C15.5104726,11.2170111 15.9230606,10.6277331 15.8247309,9.64642053" id="Shape"></path>
            <path d="M19.5560833,5.07627656 L18.8995699,5.73386603 C22.1467467,9.29321852 22.1467467,14.7488199 18.8995699,18.3076942 L19.5560833,18.9652837 C23.1700755,15.0380397 23.1700755,8.98726007 19.5560833,5.06025529" id="Path"></path>
            <path d="M5.74622607,5.13342706 C9.29720924,1.87847872 14.739898,1.87847872 18.2911203,5.13342706 L18.9476337,4.47523978 C15.0292374,0.852519572 8.99268553,0.852519572 5.07428919,4.47523978" id="Path"></path>
            <path d="M5.13347224,18.3153461 C1.89024095,14.7568306 1.89024095,9.30648987 5.13347224,5.74797432 L4.47683926,5.09038484 C0.862847064,9.01786787 0.862847064,15.0682889 4.47683926,18.9954132" id="Path"></path>
            <path d="M18.2845444,18.922361 C14.7335612,22.1773093 9.29075291,22.1773093 5.73965018,18.922361 L5.0830172,19.5799505 C9.0015331,23.2026707 15.0379654,23.2026707 18.9564813,19.5799505" id="Path"></path>
            <path d="M11.9978402,0.935758863 C5.89080037,0.93947029 0.942960467,5.89302747 0.946678371,12.0000002 C0.950400467,18.106973 5.90400037,23.0547835 12.0106802,23.0510741 C18.1134001,23.0474803 23.05932,18.1003882 23.06172,11.9978452 C23.0544,5.89194996 18.1035601,0.944738121 11.9977202,0.942343652 L11.9978402,0.935758863 Z M11.9978402,24.0000002 C5.37048038,23.9989225 -0.00131951363,18.6253755 2.43128265e-07,11.9978452 C0.00132048632,5.37031495 5.37480038,-0.00131647368 12.0021602,2.420172e-07 C18.6295201,0.00131744192 23.99892,5.37199108 24.0000002,11.9978452 C23.9928,18.6233402 18.6240001,23.9925771 11.9978402,24.0000002 Z" id="Shape"></path>
        </g>
    </g>
</svg>