<?xml version="1.0" encoding="UTF-8"?>
<svg width="32px" height="32px" viewBox="0 0 32 32" version="1.1" xmlns="http://www.w3.org/2000/svg" xmlns:xlink="http://www.w3.org/1999/xlink">
    <!-- Generator: Sketch 57.1 (83088) - https://sketch.com -->
    <title>wfil</title>
    <desc>Created with Sketch.</desc>
    <g id="wfil" stroke="none" stroke-width="1" fill="none" fill-rule="evenodd">
        <path d="M16,32 C24.8368,32 32,24.8368 32,16 C32,7.1632 24.8368,0 16,0 C7.1632,0 0,7.1632 0,16 C0,24.8368 7.1632,32 16,32 Z" id="Oval" fill="#019BF5" fill-rule="nonzero"></path>
        <g transform="translate(0.000000, -0.025195)">
            <path d="M24.1291928,25.9874975 C18.6444313,29.8580016 13.1668697,29.8259544 7.80370737,25.9602574 C7.27971105,26.4361587 6.7741146,26.8968377 6.26771815,27.3575166 C11.7476797,32.3656973 20.6068175,32.0876876 25.5915825,27.4608689 C25.098786,26.9641368 24.6051894,26.4666036 24.1291928,25.9874975 M25.6739819,4.61600173 C20.1684206,-0.418617941 11.1812837,-0.0372559165 6.31251784,4.66086785 C6.7877145,5.16801525 7.26531115,5.67676501 7.74130781,6.18471358 C11.9644782,2.617857 18.8052301,1.80385739 24.2139922,6.12542621 C24.6995888,5.6230859 25.1867854,5.11914322 25.6739819,4.61600173 M25.812381,7.76624433 C29.5899544,12.3473957 29.936352,19.2607842 25.8179809,24.2785791 C26.3179774,24.7785158 26.8163739,25.2776514 27.3139704,25.7759858 C32.502734,20.1516971 31.9419379,11.0526877 27.3243703,6.3169084 C26.8291738,6.79120739 26.3339773,7.26630756 25.812381,7.76624433 M4.60532982,6.33854028 C-0.600233637,12.1591182 0.22216059,21.1635884 4.6509295,25.6630193 C5.14132606,25.187118 5.63172262,24.7104155 6.06931955,24.2849885 C5.41412415,23.192178 4.77172865,22.1169935 4.04773374,20.9096141 C4.83172823,20.9096141 5.37572441,20.9344507 5.91492063,20.8999999 C6.28691802,20.8767657 6.46451677,21.0329959 6.64371551,21.339047 C10.3236897,27.6323216 18.5972316,28.6666459 23.7243956,23.4830066 C26.659575,20.5154332 27.5675686,15.8413448 25.9627799,11.9588231 C24.3107915,7.96093125 20.4076189,5.23371207 16.2164483,5.23210866 C12.0300777,5.23050734 8.85090002,7.08043363 6.6461155,10.6368749 C6.52851632,10.8259535 6.32291777,11.0711148 6.13971905,11.0879396 C5.52452337,11.1440223 4.90052775,11.1095715 4.12213321,11.1095715 C4.46373082,10.4542057 4.72452899,9.89498152 5.03972677,9.3678046 C5.35812454,8.83341706 5.73012193,8.33027556 6.05491965,7.84876595 C5.55572315,7.32879966 5.08052649,6.83366997 4.60532982,6.33854028 M15.9020505,32.0251955 C15.1564558,32.0251955 14.6508593,31.9506857 14.131663,31.8913983 C5.30132494,30.8811094 -1.08903021,22.6497786 0.154961062,13.8840603 C1.41335223,5.01899563 9.37889631,-1.01629876 18.2468341,0.175056975 C26.8619736,1.33276312 33.0811299,9.55127499 31.8427386,18.1423359 C30.7827461,25.4915667 25.1579856,31.0020877 17.8044372,31.8962054 C17.2228413,31.9667093 16.6660452,32.0251955 15.9020505,32.0251955" id="Fill-1" fill="#020405"></path>
            <path d="M16.4871795,14.2382461 L16.1487179,15.9966257 L19.3641026,16.4362206 L19.1384615,17.260461 L15.9794872,16.8208661 C15.7538462,17.5352078 15.6410256,18.3044989 15.3589744,18.9638912 C15.0769231,19.7331823 14.7948718,20.5024733 14.4564103,21.216815 C14.0051282,22.1509542 13.2153846,22.8103465 12.1435897,22.9751946 C11.5230769,23.0850933 10.8461538,23.030144 10.3384615,22.6454984 C10.1692308,22.5355997 10,22.3158023 10,22.1509542 C10,21.9311567 10.1128205,21.6564099 10.2820513,21.5465112 C10.3948718,21.4915618 10.6769231,21.5465112 10.8461538,21.6014606 C11.0153846,21.7663086 11.1846154,21.9861061 11.2974359,22.2059035 C11.6358974,22.6454984 12.0871795,22.7004478 12.5384615,22.3707516 C13.0461538,21.9311567 13.3282051,21.3267138 13.4974359,20.7222708 C13.8358974,19.4034861 14.174359,18.1396508 14.4564103,16.8208661 L14.4564103,16.6010686 L11.4666667,16.1614738 L11.5794872,15.3372333 L14.6820513,15.7768282 L15.0769231,14.073398 L11.8615385,13.5788538 L11.974359,12.699664 L15.3025641,13.1392589 C15.4153846,12.8095627 15.4717949,12.5348159 15.5846154,12.2600691 C15.8666667,11.2709806 16.1487179,10.2818921 16.825641,9.40270227 C17.5025641,8.52351248 18.2923077,7.97401887 19.4769231,8.02896823 C19.9846154,8.02896823 20.4923077,8.19381631 20.8307692,8.57846185 C20.8871795,8.63341121 21,8.74330993 21,8.85320865 C21,9.0730061 21,9.34775291 20.8307692,9.51260099 C20.6051282,9.67744908 20.3230769,9.62249972 20.0974359,9.40270227 C19.9282051,9.23785419 19.8153846,9.0730061 19.6461538,8.90815802 C19.3076923,8.46856312 18.8,8.41361376 18.4051282,8.79825929 C18.1230769,9.0730061 17.8410256,9.45765163 17.6717949,9.84229716 C17.2769231,10.9962338 16.9948718,12.2051197 16.6,13.4140057 L19.7025641,13.8536006 L19.4769231,14.677841 L16.4871795,14.2382461" id="Path" fill="#000000"></path>
            <path d="M4.15519399,16.2564236 C4.39492548,15.1854108 4.63386051,14.114398 4.87598134,13.0251955 L6.12162931,13.0251955 C6.36534304,14.0802013 6.60746388,15.130114 6.85038116,16.1792991 C6.89498236,16.1836646 6.93958357,16.1880302 6.98498123,16.1923957 C7.25577426,15.1483037 7.5249744,14.1034842 7.80293549,13.0317438 L9,13.0317438 C8.48788258,14.7030185 7.98293321,16.3502828 7.47161224,18.017192 L6.33507794,18.017192 C6.0722494,16.8748753 5.80543862,15.7187345 5.53862783,14.561866 C5.50517693,14.5633212 5.47252247,14.5647764 5.43986802,14.565504 C5.17783593,15.7165517 4.91580385,16.8675994 4.65297531,18.0251955 L3.55387416,18.0251955 C3.04255319,16.380114 2.52804642,14.7284842 2,13.0339266 L3.25759472,13.0339266 C3.52679486,14.0969359 3.79679144,15.1650383 4.06678803,16.2324132 C4.09625668,16.2404167 4.12572534,16.2484202 4.15519399,16.2564236" id="Fill-6" fill="#000407"></path>
        </g>
    </g>
</svg>