<?xml version="1.0" encoding="UTF-8"?>
<svg width="32px" height="32px" viewBox="0 0 32 32" version="1.1" xmlns="http://www.w3.org/2000/svg" xmlns:xlink="http://www.w3.org/1999/xlink">
    <!-- Generator: Sketch 57.1 (83088) - https://sketch.com -->
    <title>xdce</title>
    <desc>Created with Sketch.</desc>
    <g id="xdce" stroke="none" stroke-width="1" fill="none" fill-rule="evenodd">
        <circle id="Oval" fill="#D8D8D8" cx="16" cy="16" r="16"></circle>
        <g>
            <path d="M26.99448,15.831961 C27.09048,15.7749854 27.16008,15.731278 27.23128,15.6914732 C28.37368,15.0514732 29.51608,14.4122537 30.65608,13.7667902 C30.70568,13.7394732 30.76248,13.652839 30.75208,13.6067902 C30.58568,12.8762537 30.45048,12.1347902 30.22648,11.4206439 C29.66328,9.62396098 28.75928,7.9966439 27.54888,6.5308878 C26.34888,5.07918049 24.92168,3.88971707 23.26248,2.96796098 C21.29448,1.87449756 19.17288,1.26103415 16.91448,1.12366829 C15.49048,1.03703415 14.07688,1.14630244 12.68328,1.46708293 C11.22568,1.80113171 9.85048,2.33576585 8.55768,3.07566829 C6.72008,4.12776585 5.18488,5.50220488 3.94408,7.18493659 C2.49848,9.14552195 1.60568,11.3293268 1.22648,13.7160585 C1.20408,13.8588878 1.23928,13.945522 1.37528,14.0204488 C2.28968,14.5238634 3.20088,15.0358634 4.11288,15.5463024 C4.27208,15.635278 4.42888,15.7265951 4.60248,15.8257171 C4.55928,15.859278 4.54008,15.8787902 4.51608,15.8920585 C3.52648,16.4469854 2.53688,17.0026927 1.54568,17.5560585 C1.15848,17.7722537 1.15768,17.7691317 1.23208,18.2054244 C1.39608,19.1701073 1.62888,20.116839 1.96808,21.0385951 C2.41768,22.2600585 3.01768,23.4065951 3.77448,24.4727415 C4.63208,25.6824976 5.64808,26.7502049 6.83368,27.6641561 C8.07208,28.6194732 9.42648,29.3718634 10.90808,29.9049366 C12.05768,30.3193756 13.24328,30.5863024 14.46408,30.7111805 C15.57768,30.8251317 16.69048,30.8188878 17.80008,30.6869854 C18.85128,30.5628878 19.87768,30.323278 20.87848,29.9798634 C22.55608,29.4046439 24.07288,28.5585951 25.43928,27.4526439 C26.75608,26.3857171 27.85208,25.1345951 28.73928,23.7063024 C29.30088,22.8017171 29.75528,21.8471805 30.10888,20.8489366 C30.41768,19.9716683 30.63928,19.0709854 30.77848,18.1531317 C30.79848,18.0235707 30.77848,17.9580098 30.65848,17.8916683 C29.62088,17.3172293 28.58728,16.7365463 27.55288,16.1566439 C27.37448,16.055961 27.19848,15.9505951 26.99448,15.831961 M2.33608,15.8280585 C1.88728,15.577522 1.46648,15.3410341 1.04408,15.1045463 C0.73048,14.9289366 0.41848,14.7486439 0.10168,14.5784976 C0.01128,14.5293268 -0.00792,14.4700098 0.00248,14.3771317 C0.22808,12.2791805 0.81768,10.2881561 1.82968,8.42122927 C2.51048,7.1646439 3.34488,6.01498537 4.34088,4.97381463 C6.19288,3.0366439 8.40408,1.6419122 10.97368,0.791180488 C11.97608,0.458692683 13.00408,0.2144 14.06008,0.119180488 C14.78568,0.0528390244 15.51608,-0.00647804878 16.24408,0.000546341463 C18.29048,0.0216195122 20.26168,0.426692683 22.14968,1.20405854 C24.24568,2.06727805 26.06888,3.31449756 27.62488,4.9308878 C29.25048,6.61752195 30.44008,8.56249756 31.20248,10.7548878 C31.57768,11.833522 31.82568,12.9410341 31.96648,14.0727415 C31.98808,14.2538146 31.94568,14.3303024 31.78968,14.4161561 C30.95048,14.8750829 30.11928,15.348839 29.26008,15.8311805 C29.51128,15.9724488 29.74408,16.1051317 29.97688,16.2354732 C30.61448,16.5929366 31.25288,16.9496195 31.89208,17.305522 C31.97128,17.3484488 32.00888,17.3913756 31.99848,17.4983024 C31.80968,19.4346927 31.27768,21.2782049 30.40568,23.027278 C29.69208,24.4579122 28.77768,25.753522 27.66568,26.9172293 C25.80088,28.8661073 23.57448,30.2694244 20.98328,31.1154732 C19.82728,31.4932293 18.63928,31.7289366 17.42168,31.831961 C14.39848,32.0871805 11.53128,31.5548878 8.82408,30.2186927 C6.92568,29.2813268 5.29128,28.0138146 3.90408,26.4426927 C2.42808,24.7708878 1.35768,22.8782049 0.68248,20.7747902 C0.34888,19.735961 0.13928,18.6721561 0.01128,17.588839 C-0.02872,17.2446439 0.06248,17.0846439 0.36328,16.9316683 C0.99448,16.6093268 1.60408,16.2456195 2.22168,15.8990829 C2.25048,15.8826927 2.27768,15.8647415 2.33608,15.8280585" id="Fill-1" fill="#999898"></path>
            <path d="M24.85232,9.38146341 C24.31072,10.3235122 24.02352,10.6997073 23.36912,11.262439 C22.83952,11.7182439 22.26272,12.1069268 21.59152,12.3395122 C20.74192,12.6337561 20.05072,12.4292683 19.58272,11.7393171 C19.14912,11.0977561 19.05072,10.3758049 19.10512,9.62809756 C19.11072,9.55317073 19.20592,9.46029268 19.28432,9.41658537 C19.58832,9.24643902 19.90592,9.10126829 20.21072,8.93268293 C21.05472,8.4675122 21.87872,7.97502439 22.57152,7.30146341 C22.92272,6.95882927 23.18912,6.57170732 23.27392,6.08156098 C23.36672,5.55239024 23.18592,5.11609756 22.76032,4.90770732 C22.44032,4.75082927 22.09712,4.73131707 21.74832,4.77814634 C20.66032,4.92409756 19.79392,5.44780488 19.13552,6.29229268 C18.04032,7.69717073 17.63632,9.28780488 17.86032,11.0306341 C17.94432,11.6854634 18.11312,12.321561 18.48112,12.8874146 C18.92112,13.5640976 19.54112,13.891122 20.37392,13.7880976 C20.97072,13.7147317 21.50432,13.4798049 22.00192,13.1660488 C22.95872,12.5635122 23.67392,11.7354146 24.27152,10.8050732 C24.54032,10.3859512 24.77312,9.9457561 25.02432,9.51180488 C24.94912,9.45482927 24.90592,9.42282927 24.85232,9.38146341 L24.85232,9.38146341 Z M7.32112,11.1555122 C7.36592,11.233561 7.39152,11.2819512 7.42112,11.3272195 C8.69712,13.3276098 9.97232,15.328 11.25312,17.3252683 C11.32992,17.4454634 11.34032,17.5313171 11.26592,17.662439 C9.98912,19.8985366 8.71872,22.1377561 7.44752,24.3761951 C7.33392,24.5767805 7.22032,24.7789268 7.09632,24.9998049 C7.91072,24.9998049 8.69792,25.0013659 9.48352,24.9943415 C9.53232,24.9943415 9.59712,24.9342439 9.62512,24.8850732 C10.40592,23.5363902 11.18432,22.1845854 11.96352,20.8343415 C12.19312,20.4347317 12.42432,20.0359024 12.66112,19.6261463 C12.68912,19.6737561 12.70672,19.7018537 12.72352,19.7307317 C13.68672,21.441561 14.65152,23.1523902 15.61232,24.8647805 C15.66832,24.9646829 15.72672,25.0029268 15.84512,25.002158 C16.68992,24.9966829 17.53392,24.9990244 18.37792,24.9990244 C18.41472,24.9990244 18.45152,24.9943415 18.50832,24.990439 C18.48272,24.9412683 18.46752,24.9077073 18.44832,24.8749268 C17.06912,22.467122 15.69152,20.0593171 14.30832,17.6538537 C14.24272,17.539122 14.23952,17.4556098 14.30752,17.3377561 C15.43312,15.392 16.55312,13.443122 17.67312,11.4950244 C17.73392,11.390439 17.79152,11.2850732 17.85952,11.1640976 C17.78272,11.1601951 17.72832,11.1562927 17.67312,11.1555122 C17.02752,11.1555122 16.38112,11.1594146 15.73552,11.1539512 C15.62032,11.1539512 15.55552,11.1867317 15.49552,11.2858537 C14.65472,12.6844878 13.80832,14.0807805 12.96272,15.4778537 C12.93792,15.5176585 12.90832,15.5543415 12.87312,15.6035122 C12.83392,15.5395122 12.80352,15.4919024 12.77552,15.4450732 C11.93552,14.0573659 11.09552,12.670439 10.25872,11.2819512 C10.20352,11.1906341 10.14672,11.1508293 10.03472,11.1539512 C9.66032,11.1609756 9.28592,11.1555122 8.91232,11.1555122 L7.32112,11.1555122 Z M26.99472,15.8321951 C27.19872,15.9508293 27.37392,16.0561951 27.55312,16.156878 C28.58752,16.7367805 29.62112,17.3174634 30.65872,17.891122 C30.77872,17.9574634 30.79872,18.0230244 30.77872,18.1525854 C30.63872,19.0712195 30.41792,19.971122 30.10832,20.8483902 C29.75552,21.8474146 29.30112,22.8011707 28.73872,23.7065366 C27.85232,25.1348293 26.75632,26.3859512 25.43872,27.4520976 C24.07232,28.5580488 22.55632,29.4040976 20.87872,29.9800976 C19.87712,30.3235122 18.85152,30.563122 17.80032,30.6872195 C16.69072,30.819122 15.57792,30.8253659 14.46432,30.7114146 C13.24272,30.5865366 12.05792,30.3196098 10.90752,29.9051707 C9.42672,29.3713171 8.07152,28.6189268 6.83392,27.6643902 C5.64832,26.750439 4.63232,25.6827317 3.77392,24.4729756 C3.01792,23.4068293 2.41792,22.2602927 1.96832,21.0388293 C1.62912,20.1170732 1.39632,19.1703415 1.23232,18.2056585 C1.15792,17.7693659 1.15872,17.7724878 1.54592,17.5562927 C2.53632,17.0029268 3.52672,16.4472195 4.51632,15.8922927 C4.53952,15.8782439 4.55952,15.8595122 4.60272,15.8259512 C4.42912,15.7268293 4.27152,15.6355122 4.11312,15.5457561 C3.20112,15.0360976 2.28992,14.5240976 1.37472,14.0199024 C1.23872,13.9457561 1.20352,13.8583415 1.22672,13.7162927 C1.60512,11.329561 2.49872,9.14497561 3.94352,7.18517073 C5.18512,5.50165854 6.72032,4.128 8.55792,3.07590244 C9.85072,2.336 11.22592,1.80136585 12.68352,1.46653659 C14.07632,1.1457561 15.49072,1.03726829 16.91472,1.12390244 C19.17232,1.26126829 21.29472,1.87473171 23.26272,2.96741463 C24.92192,3.88995122 26.34912,5.07863415 27.54912,6.53112195 C28.75952,7.99687805 29.66352,9.62419512 30.22672,11.4200976 C30.45072,12.1342439 30.58592,12.8764878 30.75232,13.6070244 C30.76272,13.6530732 30.70512,13.7397073 30.65632,13.7670244 C29.51632,14.4117073 28.37312,15.0517073 27.23152,15.6917073 C27.16032,15.7315122 27.09072,15.774439 26.99472,15.8321951 L26.99472,15.8321951 Z" id="Fill-4" fill="#9D0A0A"></path>
            <path d="M7.32104,11.1559024 L8.91224,11.1559024 C9.28584,11.1559024 9.66024,11.1613659 10.03464,11.153561 C10.14664,11.150439 10.20424,11.1910244 10.25864,11.281561 C11.09544,12.6700488 11.93624,14.0577561 12.77544,15.4446829 C12.80424,15.4922927 12.83384,15.539122 12.87304,15.603122 C12.90824,15.5547317 12.93784,15.5180488 12.96264,15.4774634 C13.80824,14.0811707 14.65464,12.684878 15.49544,11.2862439 C15.55544,11.1863415 15.62024,11.153561 15.73624,11.1543415 C16.38104,11.1598049 17.02744,11.1559024 17.67304,11.1559024 C17.72824,11.1566829 17.78264,11.1605854 17.85944,11.1644878 C17.79144,11.2854634 17.73384,11.3908293 17.67304,11.4954146 C16.55304,13.4435122 15.43304,15.3923902 14.30744,17.3381463 C14.23944,17.4552195 14.24264,17.5395122 14.30824,17.6534634 C15.69144,20.0589268 17.06984,22.4667317 18.44824,24.8745366 C18.46744,24.9073171 18.48264,24.940878 18.50824,24.9908293 C18.45144,24.9939512 18.41464,24.9986341 18.37784,24.9986341 C17.53384,24.9986341 16.68984,24.9962927 15.84504,25.0017678 C15.72664,25.0025366 15.66824,24.9642927 15.61224,24.8643902 C14.65144,23.152 13.68664,21.4419512 12.72344,19.7303415 C12.70664,19.7014634 12.68904,19.6733659 12.66104,19.6265366 C12.42424,20.0362927 12.19304,20.435122 11.96344,20.8339512 C11.18424,22.1849756 10.40584,23.536 9.62504,24.8854634 C9.59704,24.9338537 9.53224,24.9939512 9.48344,24.9939512 C8.69784,25.0009756 7.91064,24.9994146 7.09624,24.9994146 C7.22024,24.7785366 7.33384,24.5763902 7.44744,24.3758049 C8.71864,22.1373659 9.98904,19.8981463 11.26584,17.6628293 C11.34024,17.5317073 11.32984,17.4458537 11.25304,17.324878 C9.97224,15.3283902 8.69704,13.3272195 7.42104,11.3276098 C7.39144,11.281561 7.36584,11.2339512 7.32104,11.1559024" id="Fill-6" fill="#FDFDFC"></path>
            <path d="M22.40856,6.52862439 C22.39096,6.17818537 22.19816,5.84257561 21.80696,5.63886829 C21.43096,5.44296585 21.07976,5.54599024 20.76776,5.7918439 C20.62776,5.9011122 20.49976,6.03145366 20.39336,6.17272195 C19.79096,6.97116098 19.60616,7.91633171 19.43416,8.86306341 C19.41256,8.98481951 19.48456,9.0300878 19.59976,8.97467317 C19.77176,8.89194146 19.94376,8.80842927 20.11176,8.71789268 C20.79976,8.34403902 21.47416,7.95223415 22.03336,7.3980878 C22.25896,7.17564878 22.39816,6.92433171 22.40856,6.52862439 M24.85256,9.38130732 C24.90616,9.42267317 24.94936,9.45467317 25.02456,9.51164878 C24.77336,9.9456 24.54056,10.3857951 24.27176,10.8049171 C23.67416,11.7352585 22.95816,12.5633561 22.00216,13.1658927 C21.50456,13.4796488 20.97096,13.7145756 20.37416,13.788722 C19.54136,13.8917463 18.92136,13.564722 18.48136,12.8872585 C18.11336,12.3214049 17.94456,11.6853073 17.85976,11.0312585 C17.63656,9.28764878 18.04056,7.69701463 19.13576,6.29213659 C19.79336,5.44764878 20.65976,4.92394146 21.74856,4.77799024 C22.09656,4.73116098 22.44056,4.75145366 22.75976,4.90755122 C23.18616,5.11594146 23.36616,5.55223415 23.27416,6.08218537 C23.18936,6.57233171 22.92296,6.95945366 22.57176,7.30130732 C21.87896,7.97564878 21.05496,8.4673561 20.21096,8.93252683 C19.90616,9.1011122 19.58856,9.24628293 19.28456,9.41642927 C19.20616,9.46013659 19.11096,9.55301463 19.10536,9.62872195 C19.05096,10.3764293 19.14936,11.0976 19.58296,11.739161 C20.05096,12.4298927 20.74216,12.6336 21.59176,12.3393561 C22.26216,12.1067707 22.83976,11.7180878 23.36856,11.2622829 C24.02376,10.7003317 24.31096,10.3233561 24.85256,9.38130732" id="Fill-8" fill="#FCFAFA"></path>
            <path d="M22.40856,6.52862439 C22.39816,6.92433171 22.25896,7.17564878 22.03336,7.3980878 C21.47416,7.95223415 20.79976,8.34403902 20.11176,8.71789268 C19.94376,8.80842927 19.77176,8.89194146 19.59976,8.97467317 C19.48456,9.0300878 19.41256,8.98481951 19.43416,8.86306341 C19.60616,7.91633171 19.79096,6.97116098 20.39336,6.17272195 C20.49976,6.03145366 20.62776,5.9011122 20.76776,5.7918439 C21.07976,5.54599024 21.43096,5.44296585 21.80696,5.63886829 C22.19816,5.84257561 22.39096,6.17818537 22.40856,6.52862439" id="Fill-10" fill="#9D0C0C"></path>
        </g>
    </g>
</svg>