<?xml version="1.0" encoding="UTF-8"?>
<svg width="32px" height="32px" viewBox="0 0 32 32" version="1.1" xmlns="http://www.w3.org/2000/svg" xmlns:xlink="http://www.w3.org/1999/xlink">
    <!-- Generator: Sketch 57.1 (83088) - https://sketch.com -->
    <title>xsushi</title>
    <desc>Created with Sketch.</desc>
    <defs>
        <linearGradient x1="35.5353448%" y1="2.79111876%" x2="51.4344828%" y2="54.5367622%" id="linearGradient-1">
            <stop stop-color="#FF985B" offset="0%"></stop>
            <stop stop-color="#FFC865" offset="100%"></stop>
        </linearGradient>
    </defs>
    <g id="xsushi" stroke="none" stroke-width="1" fill="none" fill-rule="evenodd">
        <circle id="Oval" fill="#D8D8D8" cx="16" cy="16" r="16"></circle>
        <g transform="translate(3.000000, 5.000000)">
            <path d="M18.7283396,3.58878018 C24.2059264,7.11116695 27.1553962,12.0839483 25.5753231,14.4667393 C25.154757,15.0613247 24.4849462,15.449484 23.6329956,15.6392656 L21.2449302,19.2457587 C21.3556492,19.9985486 21.2542704,20.6728037 20.9145583,21.2267312 C19.3167982,23.6644583 13.6135718,22.9330245 8.12852908,19.3981741 C2.64348638,15.8633237 -0.56705177,11.2130574 1.02712064,8.67191021 C1.12942781,8.51581859 1.24856759,8.37272069 1.38340488,8.24252048 L1.33300573,8.20650465 L5.92664012,1.37185461 L5.93768586,1.37967075 C5.95217057,1.35607812 5.96708017,1.33271631 5.98241649,1.30958875 C7.66782781,-1.0732023 13.356091,-0.140805805 18.7283396,3.58878018 Z" id="Combined-Shape" fill="url(#linearGradient-1)" fill-rule="nonzero"></path>
            <path d="M25.6014402,14.4789443 C25.6014402,14.4789443 25.6014402,14.4789443 25.6014402,14.4789443 L20.7124401,21.3789175 L20.7124401,21.3789175 C19.0119183,23.7127319 13.2726572,22.69803 7.85224401,19.1465732 C6.78941789,18.4362819 5.83287438,17.7259905 4.87633088,16.914229 C5.62030916,16.8127588 6.57685267,16.406878 7.53339617,15.3921761 C9.23391797,13.6671828 10.0841789,13.261302 10.8281571,13.3627722 C11.5721354,13.3627722 12.4223963,14.0730635 13.8040703,15.7980568 C15.1857442,17.5230501 17.0988312,18.0304011 18.26794,17.1171693 C18.3742226,17.0156991 18.4805052,17.0156991 18.5867878,16.914229 C19.5433313,16.2039376 19.8621792,15.899527 21.6689836,12.6524808 C22.094114,11.8407193 23.5820706,10.5216068 25.6014402,11.1304279 C26.1328533,12.4495404 26.1328533,13.5657126 25.6014402,14.4789443 Z" id="Path" fill="#0E0F23" fill-rule="nonzero"></path>
            <path d="M5.73393729,3.6088034 C5.73393729,3.48211329 5.59765555,3.35542319 5.46137382,3.48211329 C5.32509208,3.6088034 5.18881035,3.6088034 5.18881035,3.73549351 C5.32509208,4.11556384 5.46137382,4.36894406 5.46137382,4.62232428 C5.46137382,4.74901438 5.59765555,4.87570449 5.73393729,4.74901438 C5.87021903,4.74901438 6.00650076,4.62232428 5.87021903,4.49563417 C5.87021903,4.24225395 5.87021903,3.98887373 5.73393729,3.6088034 Z" id="Path" fill="#FFFFFF" fill-rule="nonzero"></path>
            <path d="M5.8911471,5.62996075 C5.8911471,5.52916812 5.78001125,5.4283755 5.66887541,5.52916812 C5.55773956,5.62996075 5.55773956,5.62996075 5.55773956,5.73075337 C6.78023388,8.2505689 9.33635837,10.9719697 12.6704338,12.9878221 C12.7815696,13.0886147 12.8927055,12.9878221 13.0038413,12.9878221 C13.1149772,12.8870295 13.0038413,12.7862369 13.0038413,12.6854442 C9.55863007,10.6695918 7.11364142,8.04898366 5.8911471,5.62996075 Z" id="Path" fill="#FFFFFF" fill-rule="nonzero"></path>
            <path d="M19.3955774,15.3647717 C19.2907453,15.3647717 19.1859132,15.3647717 19.1859132,15.5019571 C19.1859132,15.6391426 19.1859132,15.7763281 19.2907453,15.7763281 C19.6052416,15.9135135 20.02457,16.050699 20.3390663,16.1878844 C20.4438984,16.1878844 20.5487305,16.1878844 20.5487305,16.050699 C20.5487305,15.9135135 20.5487305,15.7763281 20.4438984,15.7763281 C20.1294021,15.6391426 19.7100737,15.5019571 19.3955774,15.3647717 Z" id="Path" fill="#FFFFFF" fill-rule="nonzero"></path>
            <path d="M21.4248274,16.0908797 C21.3274833,16.0908797 21.2301392,16.2280651 21.2301392,16.3652506 C21.2301392,16.5024361 21.3274833,16.6396215 21.4248274,16.6396215 C22.2035802,16.776807 23.0796771,16.9139924 23.7610858,16.776807 C23.8584299,16.776807 23.955774,16.6396215 23.955774,16.5024361 C23.955774,16.3652506 23.8584299,16.2280651 23.7610858,16.2280651 C22.982333,16.3652506 22.2035802,16.2280651 21.4248274,16.0908797 Z" id="Path" fill="#FFFFFF" fill-rule="nonzero"></path>
            <path d="M24.9786884,14.0220913 C23.4847256,16.1013886 18.2558559,15.06174 13.2404095,11.6308993 C8.11825139,8.20005863 5.13032585,3.83353416 6.62428862,1.75423679 C8.11825139,-0.325060584 13.3471211,0.7145881 18.3625676,4.14542876 C23.378014,7.57626942 26.3659396,11.9427939 24.9786884,14.0220913 Z M20.2833768,10.9031452 C19.5363954,11.9427939 16.9753164,11.4229696 14.4142374,9.75953166 C11.95987,8.09609376 10.4659072,5.91283152 11.2128886,4.87318284 C11.95987,3.83353416 14.520949,4.3533585 17.082028,6.01679639 C19.5363954,7.68023429 21.0303582,9.86349653 20.2833768,10.9031452 Z" id="Shape" fill="#FFFFFF"></path>
        </g>
    </g>
</svg>