<?xml version="1.0" encoding="UTF-8"?>
<svg width="32px" height="32px" viewBox="0 0 32 32" version="1.1" xmlns="http://www.w3.org/2000/svg" xmlns:xlink="http://www.w3.org/1999/xlink">
    <!-- Generator: Sketch 57.1 (83088) - https://sketch.com -->
    <title>yfi</title>
    <desc>Created with Sketch.</desc>
    <g id="yfi" stroke="none" stroke-width="1" fill="none" fill-rule="evenodd">
        <path d="M16,0 C24.8352,0 32,7.1648 32,16 C32,24.8352 24.8352,32 16,32 C7.1648,32 0,24.8352 0,16 C0,7.1648 7.1648,0 16,0 Z" id="Oval" fill="#0076E6"></path>
        <g transform="translate(9.000000, 5.000000)" fill="#FFFFFF" fill-rule="nonzero">
            <polygon id="SVGID-2" points="6.35911111 17.7586667 6.35911111 4.58533333 7.76844444 4.58533333 7.76844444 17.7586667"></polygon>
            <path d="M13.5333333,8.97433333 L9.18088889,10.1491667 L8.21022222,5.55116667 L9.50444444,5.2535 L10.0146667,7.43216667 C10.0146667,7.43216667 11.1906667,5.46883333 9.62266667,3.43583333 C8.69866667,2.39083333 8.26,2.3465 7.224,2.18183333 C6.31244444,2.04883333 4.19377778,2.36233333 3.56222222,4.87983333 C3.29466667,6.50116667 3.59644444,7.70133333 5.64977778,9.272 L5.53466667,11.02 C5.53466667,11.02 3.24177778,9.3765 2.65066667,8.22383333 C2.19333333,7.31183333 1.40933333,5.51 2.82488889,3.002 C3.58711111,1.748 5.08977778,0.544666667 7.73733333,0.671333333 C9.06888889,0.728333333 12.32,2.3845 11.816,6.25416667 C11.7288889,6.97933333 11.3586667,7.94516667 11.3586667,7.94516667 L13.1444444,7.53983333 L13.5333333,8.97433333 Z" id="SVGID-3"></path>
            <path d="M11.0475556,19.2818333 C10.2511111,20.5136667 8.71733333,21.6758333 6.076,21.4795 C4.74444444,21.3876667 1.54,19.6428333 2.14355556,15.789 C2.24933333,15.067 2.64444444,14.1138333 2.64444444,14.1138333 L0.849333333,14.4685 L0.497777778,13.0276667 L4.88133333,11.97 L5.73377778,16.5933333 L4.43022222,16.8561667 L3.976,14.6616667 C3.976,14.6616667 2.75022222,16.5901667 4.26222222,18.6675 C5.15822222,19.7378333 5.59377778,19.7916667 6.62977778,19.9848333 C7.53511111,20.1431667 9.66311111,19.8835 10.36,17.385 C10.668,15.7731667 10.3973333,14.5635 8.38755556,12.9358333 L8.54933333,11.191 C8.54933333,11.191 10.7986667,12.8946667 11.3586667,14.0631667 C11.788,14.991 12.5253333,16.815 11.0475556,19.2818333 L11.0475556,19.2818333 Z" id="SVGID-4"></path>
        </g>
    </g>
</svg>