<?xml version="1.0" encoding="UTF-8"?>
<svg width="32px" height="32px" viewBox="0 0 32 32" version="1.1" xmlns="http://www.w3.org/2000/svg" xmlns:xlink="http://www.w3.org/1999/xlink">
    <!-- Generator: Sketch 57.1 (83088) - https://sketch.com -->
    <title>zil</title>
    <desc>Created with Sketch.</desc>
    <g id="zil" stroke="none" stroke-width="1" fill="none" fill-rule="evenodd">
        <path d="M16,0 C24.8352,0 32,7.1648 32,16 C32,24.8352 24.8352,32 16,32 C7.1648,32 0,24.8352 0,16 C0,7.1648 7.1648,0 16,0 Z" id="Oval" fill="#36B1AF"></path>
        <g transform="translate(8.300000, 5.000000)" fill-rule="nonzero">
            <polygon id="path0_fill" fill="#49C1BF" points="14.2977305 8.49511741 11.3846122 9.81511345 3.65649877 13.8128158 11.3846122 17.5889473 11.3846122 11.3472517 14.2977305 10.0131129 14.2977305 19.2342281 11.3846122 20.5542241 0.0058233579 15.0196693 0.0058233579 12.0779638 7.88237591 8.15097558 0.0058233579 4.30412996 0.0058233579 1.31999605 2.96532897 0 14.2977305 5.54398339"></polygon>
            <polygon id="path1_fill" fill="#81D4D2" points="0.0058233579 1.31736132 11.3846122 6.85027888 14.2977305 5.53291755 2.96532897 0"></polygon>
            <polygon id="path2_fill" fill="#BFE9E8" points="11.2931359 6.74112979 14.2950196 5.33087761 14.2950196 8.48379856 11.2931359 9.89405075 11.2931359 6.74112979"></polygon>
            <polygon id="path3_fill" fill="#FFFFFF" points="0.00577369174 1.40673077 0.00577369174 4.36000884 7.81514882 8.16707819 0.00577369174 12.0534615 0.00577369174 14.9647498 11.2875153 20.4420776 11.2875153 17.5121271 3.62531328 13.7703751 11.2875153 9.81400893 11.2875153 6.89338955"></polygon>
            <polygon id="path4_fill" fill="#BFE9E8" points="11.2931359 20.5610958 14.2950196 19.2263797 14.2950196 9.90243471 11.2931359 11.2514513"></polygon>
        </g>
    </g>
</svg>