<?xml version="1.0" encoding="UTF-8"?>
<svg width="32px" height="32px" viewBox="0 0 32 32" version="1.1" xmlns="http://www.w3.org/2000/svg" xmlns:xlink="http://www.w3.org/1999/xlink">
    <!-- Generator: Sketch 57.1 (83088) - https://sketch.com -->
    <title>zrx</title>
    <desc>Created with Sketch.</desc>
    <g id="zrx" stroke="none" stroke-width="1" fill="none" fill-rule="evenodd">
        <path d="M16,32 C24.8368,32 32,24.8368 32,16 C32,7.1632 24.8368,0 16,0 C7.1632,0 0,7.1632 0,16 C0,24.8368 7.1632,32 16,32 Z" id="Oval" fill="#070A0E" fill-rule="nonzero"></path>
        <g transform="translate(6.000000, 6.000000)" fill="#FFFFFF" fill-rule="nonzero" id="Shape">
            <path d="M15.4558123,13.459733 C16.1786962,14.4296885 16.9241702,15.4222012 17.6696441,16.4147139 C16.1786962,18.1741682 14.3263063,19.3020235 12.0898844,19.7757228 C9.60497116,20.2945362 7.25559864,19.9110654 4.97399649,18.6478674 C7.00710732,17.1365413 8.99503791,15.6477723 11.0055586,14.1590033 C11.457361,14.5875883 11.8865733,15.0161733 12.3157856,15.4222012 C12.7901781,15.8733434 12.6094572,15.8959005 13.2193904,15.5575439 C14.0552249,15.0838446 14.7555186,14.4296885 15.2976815,13.6401898 C15.3202716,13.5950756 15.3654519,13.5499614 15.388042,13.5048472 C15.3654519,13.5048472 15.388042,13.5048472 15.4558123,13.459733 L15.4558123,13.459733 Z M6.57789503,15.4447583 C6.01314202,15.8733434 5.49356926,16.2568142 4.97399649,16.6628421 C4.58996444,16.9560845 4.2059324,17.2267697 3.82190035,17.5200121 C3.66376951,17.6553548 3.5508189,17.6553548 3.37009794,17.497455 C1.65324879,15.9635718 0.568923018,14.0687748 0.162300851,11.8130642 C-0.244321315,9.53479647 0.117120611,7.36931425 1.20144639,5.31661758 C1.22403651,5.27150336 1.26921675,5.20383204 1.29180687,5.15871783 C1.29180687,5.13616073 1.31439699,5.13616073 1.35957723,5.11360362 C2.85052517,7.07607187 4.36406324,9.03854013 5.85501118,11.0010084 C5.80983094,11.0686797 5.78724082,11.1137939 5.74206058,11.1589081 C5.29025817,11.6326074 4.83845577,12.1063066 4.36406324,12.5574487 C4.22852252,12.6927914 4.2059324,12.8055769 4.29629288,12.9634766 C4.7706854,13.8657609 5.42579889,14.6101454 6.23904323,15.2191873 C6.35199383,15.2868586 6.44235431,15.3545299 6.57789503,15.4447583 L6.57789503,15.4447583 Z M15.0040099,1.43679528 C14.2811261,1.95560873 13.5582422,2.47442218 12.8353584,2.97067852 C11.5929018,3.85040566 10.3504451,4.75268992 9.13057863,5.63241707 C8.97244779,5.7452026 8.85949719,5.7677597 8.72395647,5.60985996 C8.3173343,5.18127494 7.88812201,4.79780413 7.48149985,4.36921911 C7.36854925,4.25643358 7.25559864,4.23387647 7.0974678,4.30154779 C6.12609263,4.79780413 5.35802853,5.49707443 4.72550516,6.37680158 C4.68032492,6.42191579 4.63514468,6.48958711 4.58996444,6.55725843 C4.22852252,6.08355919 3.88967071,5.65497417 3.5508189,5.20383204 C3.18937698,4.73013281 2.85052517,4.25643358 2.51167337,3.80529145 C2.39872277,3.64739171 2.37613265,3.53460617 2.53426349,3.37670643 C4.27370276,1.45935239 6.41976419,0.331497071 8.99503791,0.0608117951 C11.0281487,-0.164759269 12.9708991,0.241268646 14.7781087,1.21122422 C14.8458791,1.25633843 14.9136494,1.27889554 14.9814198,1.32400975 C14.9814198,1.39168107 14.9814198,1.41423818 15.0040099,1.43679528 L15.0040099,1.43679528 Z M18.6861995,14.9710591 C18.211807,14.3620172 17.7825947,13.7980896 17.3533824,13.2341619 C16.3594171,11.9258497 15.3654519,10.5949805 14.3488964,9.2866683 C14.2133557,9.10621144 14.2133557,8.99342591 14.3714866,8.83552617 C14.8006988,8.40694115 15.207321,7.97835613 15.6365333,7.54977111 C15.7494839,7.43698557 15.7946641,7.32420004 15.7043037,7.1663003 C15.207321,6.21890183 14.5296174,5.42940311 13.6486027,4.79780413 C13.5808323,4.75268992 13.513062,4.6850186 13.4227015,4.63990439 C13.4904719,4.57223307 13.5582422,4.52711885 13.6034225,4.48200464 C14.461847,3.82784856 15.3202716,3.19624958 16.1786962,2.54209349 C16.3142369,2.42930796 16.4271875,2.38419375 16.5853184,2.54209349 C18.7313798,4.48200464 19.8834759,6.89561502 19.9964265,9.80548174 C20.0416068,11.4972647 19.6575747,13.0988193 18.8895106,14.6101454 C18.8217403,14.7003738 18.7539699,14.8131594 18.6861995,14.9710591 L18.6861995,14.9710591 Z"></path>
        </g>
    </g>
</svg>