<svg width="32" height="32" xmlns="http://www.w3.org/2000/svg"><g fill="none" fill-rule="evenodd"><circle fill="#D8D8D8" cx="16" cy="16" r="16"/><g fill-rule="nonzero"><path fill="#FFF" d="m9.962 17.55.647-4.83L5 8.846l5.125 1.727 1.21-1.847L15.755 6l9.74 5.337L26 19.48l-4.34 5.997-3.43.523 1.774-3.229v-3.109l-1.29-2.427-1.31-.864-2.016 2.067v2.187l-1.574 1.465-1.998.24-.886.5-1.452-.461-.605-2.167 1.09-1.523z"/><path d="M19 9.14c-1.068-.183-2.237-.134-2.237-.134s-.384 1.464-2.763 1.85c.017 0 3.143.882 5-1.716Zm.312 15.738c1.382-.99 2.42-2.353 2.898-3.895.022-.058.215-.16.345-.237.215-.119.434-.217.474-.377.086-.454.13-.928.13-1.403 0-.176-.196-.356-.39-.532-.151-.119-.303-.258-.303-.356-.215-1.8-1.123-3.481-2.572-4.705l-.152.139c1.404 1.207 2.313 2.847 2.509 4.586.022.16.193.316.367.475.152.119.326.298.326.376 0 .454-.044.909-.13 1.363-.022.078-.215.16-.367.237-.215.098-.411.197-.452.356-.519 1.681-1.709 3.146-3.287 4.095.281-.553 1.167-2.353 1.642-3.264l-.086-2.926-2.746-2.43-1.557.196-1.709 2.532s.8.93-.326 2.017c-1.1 1.068-1.968 1.306-1.968 1.306l-.8-.397c.236-.278.715-.692 1.082-.97.626-.474 1.252-.515 1.252-1.027.026-1.07-1.23-.776-1.23-.776l-.456.397-.193 1.464-.949 1.088-.107-.02L9 21.875s.953-.455 1.105-.97c.152-.495-.304-2.136-.327-2.234.023.02.456.356.649.909.345-.872.8-1.702.93-1.78.13-.078 1.88-.929 1.88-.929l-.582 1.404.433-.217 1.038-2.333s1.016-.454 1.772-.454c1.36-.02 3.373-1.542 2.465-4.271.26.098 4.755 2.156 5.534 6.19.582 3.102-1.342 6.007-4.585 7.688Z" fill="#94A6C3"/><path d="M14.542 9.353C15.21 8.806 14.95 8 14.95 8L13 10c-.029 0 .694.02 1.542-.647Zm-3.898 10.534.18-.887s-.74 1.287-.805 1.466c-.068.202.046.556.334.533.29-.023.647-.446.647-.754 0-.4-.356-.358-.356-.358Z" fill="#1B314F"/><path d="M22.806 7.407s1.032.041 2.104.162c-2.416-1.856-4.704-2.4-6.56-2.4-2.558 0-4.291 1.031-4.397 1.09l.806-1.252s-3.218-.304-4.354 3.026c-.29-.706-.555-1.736-.555-1.736s-1.673 1.435-.888 3.814c-1.92-.685-4.661-1.636-4.768-1.653-.145-.02-.187.041-.187.041s-.042.06.081.163c.23.176 4.563 3.305 5.514 3.91-.205.726-.205 1.069 0 1.411.29.463.308.705.27 1.048-.043.342-.415 3.309-.496 3.672-.081.363-.948 1.652-.909 2.036.042.384.577 2.016 1.054 2.2.35.12 1.217.383 1.793.383.205 0 .393-.042.474-.121.35-.3.453-.363.7-.363h.06c.103 0 .227.02.372.02.329 0 .764-.062 1.072-.342.452-.442 1.238-1.047 1.485-1.33.311-.385.474-.907.393-1.432-.064-.484.205-.91.516-1.331.393-.505 1.114-1.411 1.114-1.411 1.426 1.044 2.313 2.638 2.313 4.412 0 3.146-2.804 5.687-6.27 5.687-.538 0-1.05-.058-1.567-.18 1.588.543 2.928.727 4.025.727 2.33 0 3.568-.827 3.568-.827s-.431.547-1.135 1.169h.021c3.859-.526 5.737-3.63 5.737-3.63s-.145 1.01-.329 1.694c5.132-3.772 4.266-8.492 4.244-8.651.043.059.56.664.825.989.827-8.312-6.126-10.995-6.126-10.995ZM14.904 20.68c-.081.1-.431.405-.679.626-.247.221-.516.443-.721.647-.082.08-.248.12-.496.12h-.619c.312-.404 1.217-1.33 1.528-1.53.372-.243.56-.485.33-.907-.227-.425-.825-.321-.825-.321s.35-.142.662-.142c-.393-.1-.888 0-1.114.221-.248.221-.206 1.01-.308 1.511-.103.526-.453.788-.99 1.272-.29.263-.496.343-.662.343a7.18 7.18 0 0 1-1.054-.263c-.205-.263-.516-1.13-.598-1.494.06-.2.308-.625.432-.868.247-.463.392-.726.435-.968.081-.342.35-2.461.453-3.347.268.343.64.91.555 1.273.598-.827.166-1.636-.043-1.957-.183-.322-.431-.968-.226-1.653.205-.684.948-2.583.948-2.583s.248.426.598.343c.35-.08 3.176-4.236 3.176-4.236s.764 1.632-.043 2.825c-.824 1.19-1.63 1.41-1.63 1.41s1.135.201 2.186-.546c.431.99.845 2.016.866 2.158-.063.142-.887 2.078-.969 2.199-.042.041-.329.12-.537.162-.35.1-.556.163-.64.222-.146.12-.807 1.894-1.115 2.762a1.71 1.71 0 0 0-1.011.706c.145-.1.597-.163.93-.2.29-.022 1.174.442 1.404 1.31v.041c.046.318-.057.622-.223.864Zm-1.938.242c.187-.262.166-.705.187-.847.022-.141.06-.404.227-.442.166-.042.559.02.559.3 0 .263-.29.322-.496.505-.148.139-.438.443-.477.484Zm8.23-3.855a9.469 9.469 0 0 0 .167-2.641 7.314 7.314 0 0 1 1.443 3.63c.02.163.184.322.35.484.145.121.311.284.311.384 0 .463-.042.927-.124 1.393-.021.06-.205.163-.35.242-.205.1-.392.2-.431.363a7.515 7.515 0 0 1-2.724 3.894c1.917-1.957 2.844-5.187 1.358-7.749Zm-1.298 7.928c1.34-1.01 2.374-2.42 2.826-4.014.022-.059.205-.162.33-.242.204-.1.413-.221.452-.384a8.35 8.35 0 0 0 .124-1.431c0-.18-.188-.363-.372-.543-.102-.12-.268-.263-.268-.363a7.815 7.815 0 0 0-1.691-4.014c-.414-2.42-2.062-3.167-2.105-3.188.043.062 1.115 1.573.372 3.347-.764 1.794-2.724 1.514-2.89 1.532-.166 0-.803.805-1.61 2.299-.102-.042-.537-.142-1.032-.059.372-1.01.93-2.441 1.033-2.562.042-.041.35-.121.559-.18.392-.1.576-.162.64-.242.042-.062.248-.525.453-1.01.187 0 .661-.04.7-.062.042-.041.435-1.027.435-1.148 0-.1-.806-2.057-1.114-2.804.145-.162.29-.363.431-.584 4.23.446 7.534 3.955 7.534 8.208 0 3.268-1.96 6.113-4.807 7.444Z" fill="#1B314F"/><path d="M13.806 14.632c.389-.435.185-1.247-.533-1.386.186-.414.448-1.246.448-1.246s-2.085 3.168-2.267 3.23c-.185.06-.368-.636-.368-.636-.389 1.447.656 1.644.778 1.189.571-.143 1.553-.737 1.942-1.151Z" fill="#1B314F"/><path d="m12 16 1.461-2s.844.34.42.879C13.35 15.507 12 16 12 16Z" fill="#FFD923"/><path d="M24.948 23.739A11.8 11.8 0 0 1 24 25c2.353-5.126.11-9.816.019-10 .166.188.328.393.475.577 1.806 2.271 2.025 5.682.454 8.162ZM28 17c-.915-2.537-2.213-4.698-5.072-6.646-2.759-1.887-5.723-1.74-5.886-1.718H17c.1-.043.202-.064.303-.082.63-.209 1.44-.378 2.254-.482a6.55 6.55 0 0 1 5.806 2.052l.042.044C27.089 12.01 27.962 14.315 28 17Zm-5-9.989c-3.048-.555-5.012-.279-6.426.239-.042-.16-.185-.477-.308-.736a32.09 32.09 0 0 0-1.161 1.471C14.326 8.503 14 9 14 9c.449-1.491 1.76-2.602 3.357-2.88.449-.08.94-.12 1.473-.12 1.41.02 2.82.358 4.17 1.011ZM11 10c-2.791-.08-1.862-2.84-1.813-3 0 .02.188 2.17 1.813 3Zm2-4c-1.829 1.18-1.463 4-1.463 4C9.788 7.14 12.857 6.067 13 6Z" fill="#D82122"/><path d="M9.81 11.315c.14.106.28.299.116.576-.092.149-.232.127-.445.043C9.201 11.807 7.518 10.914 6 10c1.73.554 3.481 1.147 3.762 1.275 0 0 .024.022.048.04Z" fill="#FFF"/></g></g></svg>