<?xml version="1.0" encoding="UTF-8"?>
<svg width="32px" height="32px" viewBox="0 0 32 32" version="1.1" xmlns="http://www.w3.org/2000/svg" xmlns:xlink="http://www.w3.org/1999/xlink">
    <!-- Generator: Sketch 57.1 (83088) - https://sketch.com -->
    <title>1inch</title>
    <desc>Created with Sketch.</desc>
    <g id="1inch" stroke="none" stroke-width="1" fill="none" fill-rule="evenodd">
        <circle id="Oval" fill="#D8D8D8" cx="16" cy="16" r="16"></circle>
        <g transform="translate(4.000000, 5.000000)" fill-rule="nonzero">
            <polygon id="Path" fill="#FFFFFF" points="5.96212745 12.5508941 6.60876009 7.71939477 1 3.84731774 6.12465009 5.5735901 7.33492508 3.72696011 11.7541577 1 21.4951424 6.33700138 22 14.480055 17.6602997 20.477304 14.2300346 21 16.0039519 17.7709766 16.0039519 14.6623109 14.7141446 12.2345254 13.4035897 11.3713893 11.3876173 13.4381018 11.3876173 15.6251719 9.81425984 17.0900963 7.81557714 17.3308116 6.93034744 17.829436 5.47801745 17.3686382 4.87287996 15.2022008 5.96212745 13.6788171"></polygon>
            <path d="M15,4.14001359 C13.9315353,3.95731108 12.7627939,4.00584143 12.7627939,4.00584143 C12.7627939,4.00584143 12.3789765,5.47031624 10,5.85570434 C10.0172891,5.85570434 13.1431535,6.7378149 15,4.14001359 Z" id="Path" fill="#94A6C3"></path>
            <path d="M15.3116724,19.8779661 C16.6942223,18.8881356 17.7320613,17.5254237 18.2102086,15.9830508 C18.232448,15.9254237 18.4251896,15.8237288 18.5549195,15.7457627 C18.7699004,15.6271186 18.9885879,15.5288136 19.0293602,15.3694915 C19.1146112,14.9152542 19.15909,14.440678 19.15909,13.9661017 C19.15909,13.7898305 18.9626419,13.6101695 18.7699004,13.4338983 C18.6179311,13.3152542 18.4659618,13.1762712 18.4659618,13.0779661 C18.2509809,11.2779661 17.3428717,9.59661017 15.8936036,8.37288136 L15.7416343,8.51186441 C17.1464236,9.71864407 18.0545328,11.359322 18.2509809,13.0983051 C18.2732203,13.2576271 18.4437224,13.4135593 18.6179311,13.5728814 C18.7699004,13.6915254 18.9441091,13.8711864 18.9441091,13.9491525 C18.9441091,14.4033898 18.8996303,14.8576271 18.8143792,15.3118644 C18.7921398,15.3898305 18.5993983,15.4711864 18.447429,15.5491525 C18.232448,15.6474576 18.0359999,15.7457627 17.9952277,15.9050847 C17.4763081,17.5864407 16.2864998,19.0508475 14.7075018,20 C14.989201,19.4474576 15.8750707,17.6474576 16.3495114,16.7355932 L16.2642604,13.8101695 L13.5176934,11.379661 L11.9609348,11.5762712 L10.252207,14.1084746 C10.252207,14.1084746 11.0528257,15.0372881 9.92602897,16.1254237 C8.82517825,17.1932203 7.95784132,17.4305085 7.95784132,17.4305085 L7.15722262,17.0338983 C7.39444298,16.7559322 7.87259026,16.3423729 8.2395405,16.0644068 C8.8659505,15.5898305 9.49236051,15.5491525 9.49236051,15.0372881 C9.51830648,13.9661017 8.26177991,14.2610169 8.26177991,14.2610169 L7.80587203,14.6576271 L7.61313049,16.1220339 L6.66424907,17.2101695 L6.55675859,17.1898305 L5,16.8745763 C5,16.8745763 5.952588,16.420339 6.10455729,15.9050847 C6.25652658,15.4101695 5.8006187,13.7694915 5.7783793,13.6711864 C5.8006187,13.6915254 6.23428717,14.0271186 6.42702871,14.579661 C6.77173954,13.7084746 7.22764741,12.8779661 7.3573773,12.8 C7.48710718,12.7220339 9.23660731,11.8711864 9.23660731,11.8711864 L8.65467612,13.2745763 L9.08834459,13.0576271 L10.1261836,10.7254237 C10.1261836,10.7254237 11.1417833,10.2711864 11.8979232,10.2711864 C13.2582337,10.2508475 15.2709001,8.72881356 14.362791,6 C14.6222507,6.09830508 19.1183178,8.1559322 19.8966971,12.1898305 C20.4786283,15.2915254 18.5549195,18.1966102 15.3116724,19.8779661 Z" id="Path" fill="#94A6C3"></path>
            <path d="M10.5416247,4.35289305 C11.2097722,3.8061997 10.9504911,3 10.9504911,3 L9.00089656,4.99992886 C8.97097951,4.99992886 9.69397491,5.02068937 10.5416247,4.35289305 Z" id="Path" fill="#1B314F"></path>
            <path d="M6.64379069,14.8871514 L6.82381045,14 C6.82381045,14 6.08458037,15.2869407 6.01946684,15.465894 C5.95052311,15.6676924 6.06542934,16.0217915 6.35269491,15.9989464 C6.64379069,15.9761013 7,15.5534669 7,15.245058 C7,14.8452688 6.64379069,14.8871514 6.64379069,14.8871514 Z" id="Path" fill="#1B314F"></path>
            <path d="M18.8056594,2.40680748 C18.8056594,2.40680748 19.8384349,2.44829813 20.9101164,2.56931252 C18.494412,0.712605945 16.2060361,0.169769944 14.3491624,0.169769944 C11.7919819,0.169769944 10.0588997,1.20012108 9.95279264,1.2588995 L10.7592064,0.00726489849 C10.7592064,0.00726489849 7.54062518,-0.296999867 6.4052795,3.03262478 C6.1152535,2.32728373 5.84998582,1.2969326 5.84998582,1.2969326 C5.84998582,1.2969326 4.17703097,2.73181757 4.96222331,5.11061482 C3.04168529,4.4260191 0.300585904,3.47519171 0.194478831,3.45790394 C0.0494658311,3.43715862 0.0070230019,3.49939459 0.0070230019,3.49939459 C0.0070230019,3.49939459 -0.0354198273,3.55817301 0.0883717578,3.66189964 C0.318270416,3.8382349 4.65097589,6.9673214 5.60240265,7.57239338 C5.39726231,8.29847975 5.39726231,8.64077761 5.60240265,8.98307547 C5.89242865,9.44638773 5.91011316,9.68841652 5.87120723,10.0307144 C5.8287644,10.3730122 5.45738965,13.3395937 5.37604089,13.7026369 C5.29469214,14.0656801 4.42815104,15.3553478 4.46705697,15.7391363 C4.5094998,16.1229248 5.04357206,17.7548904 5.52105389,17.9381407 C5.87120723,18.0591551 6.73774833,18.3219292 7.31426342,18.3219292 C7.51940377,18.3219292 7.70685959,18.2804386 7.78820835,18.2009148 C8.13836169,17.9001076 8.24093186,17.8378717 8.48851503,17.8378717 C8.50973645,17.8378717 8.53095786,17.8378717 8.54864237,17.8378717 C8.65121254,17.8378717 8.77500413,17.858617 8.92001713,17.858617 C9.24894905,17.858617 9.68398805,17.796381 9.99169856,17.5163191 C10.4444221,17.0737522 11.2296144,16.4686802 11.4771976,16.1851608 C11.788445,15.8013723 11.9511425,15.2792816 11.8697938,14.7537334 C11.8061295,14.2696758 12.0749341,13.8443966 12.3861815,13.422575 C12.7787777,12.9177721 13.5003058,12.0118929 13.5003058,12.0118929 C14.9256775,13.0560743 15.81344,14.6500067 15.81344,16.423732 C15.81344,19.5701063 13.0086763,22.1114086 9.54251196,22.1114086 C9.00490279,22.1114086 8.49205193,22.0526302 7.97566418,21.9316158 C9.56373337,22.4744518 10.9042194,22.6577021 12.0006591,22.6577021 C14.3314778,22.6577021 15.5693937,21.8313467 15.5693937,21.8313467 C15.5693937,21.8313467 15.1378916,22.3776403 14.434048,23 C14.4552694,23 14.4552694,23 14.4552694,23 C18.31403,22.4744518 20.1921252,19.3695681 20.1921252,19.3695681 C20.1921252,19.3695681 20.0471122,20.379174 19.8631932,21.0637697 C24.9952387,17.2915781 24.1286976,12.5720167 24.1074762,12.4129692 C24.149919,12.4717476 24.6663067,13.0768196 24.9315744,13.4018297 C25.7592096,5.0898695 18.8056594,2.40680748 18.8056594,2.40680748 Z M10.9042194,15.6803579 C10.8228706,15.7806269 10.4727173,16.0848917 10.2251341,16.3061752 C9.97755095,16.5274586 9.70874637,16.7487421 9.50360603,16.9527378 C9.42225727,17.0322615 9.25602286,17.0737522 9.00843969,17.0737522 C8.92709093,17.0737522 8.84220527,17.0737522 8.78207793,17.0737522 C8.7396351,17.0737522 8.70072918,17.0737522 8.65828635,17.0737522 C8.61584352,17.0737522 8.5946221,17.0737522 8.57693759,17.0737522 C8.51327335,17.0737522 8.45314601,17.0737522 8.38948176,17.0737522 C8.70072918,16.6692184 9.6061762,15.7425938 9.91742361,15.5420557 C10.2887984,15.3000269 10.4762542,15.0579981 10.2463555,14.6361765 C10.0199938,14.2108973 9.42225727,14.314624 9.42225727,14.314624 C9.42225727,14.314624 9.77241061,14.1728643 10.083658,14.1728643 C9.69106186,14.0725952 9.19589552,14.1728643 8.96953376,14.3941477 C8.72195059,14.6154312 8.76439342,15.4037535 8.66182325,15.9050989 C8.55925308,16.4306471 8.20909974,16.6934212 7.67149057,17.1774788 C7.38146457,17.4402529 7.17632423,17.5197767 7.01008982,17.5197767 C6.65993647,17.4609983 6.24611889,17.3572716 5.95609289,17.2570026 C5.75095255,16.9942284 5.43970514,16.1263823 5.35835638,15.7633392 C5.41848372,15.562801 5.66606689,15.1375219 5.78985848,14.8954931 C6.03744165,14.4321808 6.18245465,14.1694067 6.22489748,13.9273779 C6.30624623,13.58508 6.57505082,11.4655994 6.67762099,10.5804655 C6.94642557,10.9227634 7.31780033,11.4898022 7.23291467,11.8528454 C7.83065118,11.02649 7.39914908,10.2174223 7.19047184,9.89586977 C7.00655291,9.57431723 6.75896974,8.92775461 6.96411008,8.24315889 C7.16925042,7.55856316 7.91199993,5.66036593 7.91199993,5.66036593 C7.91199993,5.66036593 8.15958311,6.0856451 8.50973645,6.0026638 C8.85988979,5.92314005 11.6858748,1.76715996 11.6858748,1.76715996 C11.6858748,1.76715996 12.4498458,3.39912552 11.643432,4.5919817 C10.8193337,5.78138033 10.01292,6.0026638 10.01292,6.0026638 C10.01292,6.0026638 11.1482657,6.20320194 12.1987257,5.45637024 C12.6302278,6.44523073 13.0440454,7.47212431 13.0652668,7.61388403 C13.0016025,7.75564375 12.1775043,9.69187407 12.0961555,9.81288847 C12.0537127,9.85437912 11.7672236,9.93390286 11.5585463,9.97539351 C11.208393,10.0756626 11.0032527,10.1378986 10.918367,10.196677 C10.773354,10.3176914 10.1119532,12.0914167 9.80424274,12.9592627 C9.43286798,13.0595318 9.06149322,13.2635275 8.79268864,13.6646038 C8.93770164,13.5643347 9.39042515,13.5020987 9.72289398,13.4640657 C10.01292,13.4433203 10.8971456,13.9066326 11.1270442,14.7744787 C11.1270442,14.795224 11.1270442,14.795224 11.1270442,14.8159693 C11.173024,15.1340643 11.0704538,15.4383291 10.9042194,15.6803579 Z M8.96599686,15.9223867 C9.15345269,15.6596125 9.13223127,15.2170456 9.15345269,15.0752859 C9.1746741,14.9335262 9.21358003,14.6707521 9.37981444,14.632719 C9.54604886,14.5912283 9.93864503,14.6534643 9.93864503,14.9335262 C9.93864503,15.1963003 9.64861903,15.2550787 9.44347869,15.4383291 C9.29492879,15.5766312 9.00490279,15.880896 8.96599686,15.9223867 Z M17.1963688,12.0672138 C17.4015092,11.0403202 17.4227306,10.1517288 17.3626032,9.4256424 C18.1654801,10.4732813 18.6606464,11.7456612 18.8056594,13.0560743 C18.8268808,13.2185793 18.9895783,13.3776268 19.1558128,13.5401318 C19.3008258,13.6611462 19.4670602,13.8236513 19.4670602,13.9239204 C19.4670602,14.3872326 19.4246173,14.8505449 19.3432686,15.3173147 C19.3220472,15.3760931 19.1381283,15.4798197 18.9931153,15.5593435 C18.7879749,15.6596125 18.6005191,15.7598816 18.5616132,15.9223867 C18.1088896,17.4748285 17.1362415,18.8474775 15.8381983,19.8155926 C17.7551994,17.858617 18.6818678,14.6292614 17.1963688,12.0672138 Z M15.8983256,19.9953854 C17.2388116,18.9857796 18.2715872,17.5750975 18.7243107,15.9811651 C18.7455321,15.9223867 18.929451,15.81866 19.0532426,15.7391363 C19.2583829,15.6388672 19.4670602,15.5178528 19.5059661,15.3553478 C19.5873149,14.8920355 19.6297577,14.4079779 19.6297577,13.9239204 C19.6297577,13.7441275 19.4423019,13.5608772 19.2583829,13.3810844 C19.1558128,13.26007 18.9895783,13.1183102 18.9895783,13.0180412 C18.8233439,11.5451231 18.2256074,10.1551863 17.298939,9.0038208 C16.8851214,6.58353289 15.2369249,5.8367012 15.194482,5.81595587 C15.2369249,5.87819185 16.3086063,7.38914301 15.5658568,9.16286829 C14.8018859,10.9573389 12.8424419,10.677277 12.6762075,10.6945648 C12.5099731,10.6945648 11.8733307,11.5001749 11.0669169,12.9938383 C10.9643467,12.9523476 10.5293077,12.8520786 10.0341414,12.9350599 C10.4055161,11.9254541 10.9643467,10.4940266 11.0669169,10.3730122 C11.1093597,10.3315216 11.4170702,10.2519978 11.6257475,10.1932194 C12.0183437,10.0929504 12.2022626,10.0307144 12.2659268,9.95119064 C12.3083697,9.88895466 12.51351,9.4256424 12.7186503,8.94158482 C12.9061062,8.94158482 13.3800511,8.90009417 13.418957,8.87934885 C13.4613998,8.8378582 13.853996,7.85245527 13.853996,7.73144087 C13.853996,7.6311718 13.0475823,5.67419615 12.7398718,4.92736445 C12.8848848,4.76485941 13.0298978,4.56432127 13.1713738,4.3430378 C17.4015092,4.78906229 20.704976,8.29847975 20.704976,12.5512714 C20.704976,15.81866 18.7455321,18.6642271 15.8983256,19.9953854 Z" id="Shape" fill="#1B314F"></path>
            <path d="M9.80557374,9.6315012 C10.1945364,9.19687907 9.99129464,8.38535805 9.27294022,8.24614315 C9.45866112,7.83189393 9.72147371,7 9.72147371,7 C9.72147371,7 7.63649382,10.1679879 7.4542771,10.2291066 C7.2685562,10.2902254 7.08633947,9.59415086 7.08633947,9.59415086 C6.69737683,11.0406276 7.74161886,11.2375658 7.86426474,10.7825708 C8.4354441,10.6399604 9.41661111,10.0457504 9.80557374,9.6315012 Z" id="Path" fill="#1B314F"></path>
            <path d="M8,11 L9.46114075,9 C9.46114075,9 10.3050339,9.33911368 9.88067621,9.87861272 C9.35022908,10.5067437 8,11 8,11 Z" id="Path" fill="#FFD923"></path>
            <path d="M20.948159,18.7389302 C20.6727861,19.1533829 20.3629916,19.5855473 20,20 C22.3531867,14.8742473 20.1095233,10.1842012 20.0187754,10 C20.184625,10.1877435 20.3473454,10.3931987 20.4944195,10.5773999 C22.2999897,12.848034 22.5190363,16.2592986 20.948159,18.7389302 Z" id="Path" fill="#D82122"></path>
            <path d="M24,12 C23.0850727,9.46252861 21.7874763,7.30244319 18.9278937,5.35441275 C16.1691967,3.46748289 13.2052498,3.61484313 13.0417457,3.63640804 C13.0208729,3.63640804 13,3.63640804 13,3.63640804 C13.1008855,3.59327822 13.201771,3.5717133 13.3026565,3.55374254 C13.9323213,3.34528172 14.7428843,3.17635657 15.556926,3.07212616 C17.7103099,2.75224662 19.8810879,3.50701857 21.3630614,5.12438702 C21.3839342,5.14595193 21.3839342,5.14595193 21.4048071,5.16751684 C23.0885515,7.01131687 23.9617331,9.31516837 24,12 Z" id="Path" fill="#D82122"></path>
            <path d="M19,2.01135074 C15.9520655,1.45629966 13.9879189,1.73212259 12.5744349,2.24971623 C12.5323461,2.08967083 12.3885425,1.77298524 12.2657833,1.51418842 C11.8413874,2.01135074 11.3889322,2.60726447 11.1048324,2.98524404 C10.3261886,3.50283768 10,4 10,4 C10.4489478,2.50851305 11.7607171,1.3984109 13.3565861,1.11918275 C13.8055339,1.04086266 14.2965705,1 14.829696,1 C16.2396726,1.02043133 17.6496493,1.35754824 19,2.01135074 Z" id="Path" fill="#D82122"></path>
            <path d="M7,5 C4.20902766,4.92004635 5.13798766,2.1599073 5.18709568,2 C5.18709568,2.02085747 5.37534308,4.16917729 7,5 Z" id="Path" fill="#D82122"></path>
            <path d="M9,1 C7.17130475,2.18088097 7.5370438,5 7.5370438,5 C5.78846283,2.13964386 8.85718761,1.06747891 9,1 Z" id="Path" fill="#D82122"></path>
            <path d="M5.80970136,6.31499114 C5.94991119,6.42062755 6.09012102,6.61368719 5.92587522,6.89052743 C5.83373733,7.03987546 5.6935275,7.01801965 5.48120976,6.93423905 C5.2007901,6.80674684 3.51827215,5.91430132 2,5 C3.73058989,5.55368048 5.48120976,6.14742995 5.76162942,6.27492216 C5.76162942,6.27492216 5.78566539,6.29677797 5.80970136,6.31499114 Z" id="Path" fill="#FFFFFF"></path>
        </g>
    </g>
</svg>