<?xml version="1.0" encoding="UTF-8"?>
<svg width="32px" height="32px" viewBox="0 0 32 32" version="1.1" xmlns="http://www.w3.org/2000/svg" xmlns:xlink="http://www.w3.org/1999/xlink">
    <!-- Generator: Sketch 57.1 (83088) - https://sketch.com -->
    <title>amp</title>
    <desc>Created with Sketch.</desc>
    <g id="amp" stroke="none" stroke-width="1" fill="none" fill-rule="evenodd">
        <circle id="Oval" fill="#D9327C" fill-rule="nonzero" cx="16" cy="16" r="16"></circle>
        <g transform="translate(7.000000, 7.000000)" fill="#FFFFFF" id="Shape">
            <path d="M8.32200886,2.17947568 C8.18906942,2.28579157 8.0295421,2.47184437 7.92319055,2.817371 C7.816839,3.16289763 7.23190547,4.86395182 6.48744461,6.99026956 L11.4593796,6.99026956 C10.7149188,4.86395182 10.1299852,3.16289763 10.0236337,2.817371 C9.91728213,2.47184437 9.7577548,2.28579157 9.62481536,2.17947568 C9.49187592,2.07315979 9.30576071,1.99342288 8.96011817,1.99342288 C8.61447563,1.99342288 8.4549483,2.07315979 8.32200886,2.17947568 Z M0.983751846,6.99026956 L4.36041359,6.99026956 C5.18463811,4.57158313 5.90251108,2.55158128 6.00886263,2.17947568 C6.22156573,1.54158036 6.56720827,0.983421953 7.09896603,0.584737378 C7.63072378,0.186052802 8.26883309,0 8.93353028,0 C9.59822747,0 10.2363368,0.15947383 10.7680945,0.584737378 C11.2998523,0.983421953 11.6454948,1.54158036 11.8581979,2.17947568 C11.9911374,2.55158128 12.6824225,4.54500416 13.506647,6.99026956 L16.9364845,6.99026956 C17.4948301,6.99026956 17.9468242,7.44211208 17.9468242,8.00027048 C17.9468242,8.55842889 17.4948301,9.01027141 16.9364845,9.01027141 L14.2511078,9.01027141 L12.1506647,9.01027141 L5.79615953,9.01027141 L3.6957164,9.01027141 L0.983751846,9.01027141 C0.425406204,9.01027141 0,8.55842889 0,8.00027048 C0,7.44211208 0.451994092,6.99026956 0.983751846,6.99026956 Z M0.983751846,10.9771153 C0.425406204,10.9771153 0,11.4289578 0,11.9871162 C0,12.5452746 0.451994092,12.9971172 0.983751846,12.9971172 L2.31314623,12.9971172 L1.78138848,14.5386975 L1.24963072,16.0802779 L1.03692762,16.6650153 C0.850812408,17.1965947 1.14327917,17.7547531 1.64844904,17.9408059 C2.18020679,18.1268587 2.73855244,17.83449 2.92466765,17.3294896 L3.13737075,16.7447522 L3.66912851,15.2031718 C3.88183161,14.5652765 4.14771049,13.8210653 4.44017725,12.9971172 L13.5332349,12.9971172 C13.7991137,13.7944863 14.0649926,14.5652765 14.3042836,15.2031718 L14.8360414,16.7447522 L15.0487445,17.3294896 C15.2348597,17.861069 15.7932053,18.1268587 16.3249631,17.9408059 C16.8567208,17.7547531 17.1225997,17.1965947 16.9364845,16.6650153 L16.9364845,16.6650153 L16.7237814,16.0802779 L16.1920236,14.5386975 L15.6602659,12.9971172 L16.9896603,12.9971172 C17.5480059,12.9971172 18,12.5452746 18,11.9871162 C18,11.4289578 17.5480059,10.9771153 16.9896603,10.9771153 L14.9689808,10.9771153 L12.8685377,10.9771153 L5.15805022,10.9771153 L3.05760709,10.9771153 L0.983751846,10.9771153 Z M15.9527326,16.957384 L16.8833087,16.6384363 C16.8833087,16.6384363 16.8833087,16.6384363 15.9527326,16.957384 Z M15.9527326,16.957384 C15.0221566,17.2763316 15.0221566,17.2763316 15.0221566,17.2763316 L15.9527326,16.957384 Z M1.99409158,16.957384 L2.92466765,17.2763316 C2.92466765,17.2763316 2.92466765,17.2763316 1.99409158,16.957384 Z M1.99409158,16.957384 C1.06351551,16.6384363 1.06351551,16.6384363 1.06351551,16.6384363 L1.99409158,16.957384 Z"></path>
        </g>
    </g>
</svg>