<svg width="32" height="32" xmlns="http://www.w3.org/2000/svg"><g fill="none" fill-rule="evenodd"><circle fill="#D9327C" fill-rule="nonzero" cx="16" cy="16" r="16"/><path d="M15.322 9.18c-.133.106-.292.292-.399.637-.106.346-.691 2.047-1.436 4.173h4.972a242.326 242.326 0 0 1-1.435-4.173c-.107-.345-.266-.531-.4-.638-.132-.106-.318-.186-.664-.186-.346 0-.505.08-.638.186Zm-7.338 4.81h3.376c.825-2.418 1.543-4.438 1.649-4.81.213-.638.558-1.197 1.09-1.595.532-.399 1.17-.585 1.835-.585.664 0 1.302.16 1.834.585.532.398.877.957 1.09 1.594.133.373.824 2.366 1.649 4.811h3.43a1.01 1.01 0 1 1 0 2.02H7.983C7.425 16.01 7 15.558 7 15s.452-1.01.984-1.01Zm0 3.987c-.559 0-.984.452-.984 1.01s.452 1.01.984 1.01h1.33L8.78 21.54l-.53 1.54-.213.585c-.186.532.106 1.09.611 1.276a1.009 1.009 0 0 0 1.277-.612l.212-.584.532-1.542c.213-.638.479-1.382.771-2.206h9.093c.266.797.532 1.568.771 2.206l.532 1.542.213.584a.987.987 0 0 0 1.276.612.987.987 0 0 0 .611-1.276l-.212-.585-.532-1.541-.532-1.542h1.33a1.01 1.01 0 1 0 0-2.02H7.984Zm14.969 5.98.93-.319-.93.32Zm0 0-.93.32.93-.32Zm-13.959 0 .93.32-.93-.32Zm0 0-.93-.319.93.32Z" fill="#FFF"/></g></svg>