<?xml version="1.0" encoding="UTF-8"?>
<svg width="32px" height="32px" viewBox="0 0 32 32" version="1.1" xmlns="http://www.w3.org/2000/svg" xmlns:xlink="http://www.w3.org/1999/xlink">
    <!-- Generator: Sketch 57.1 (83088) - https://sketch.com -->
    <title>bnb</title>
    <desc>Created with Sketch.</desc>
    <g id="bnb" stroke="none" stroke-width="1" fill="none" fill-rule="evenodd">
        <circle id="Oval" fill="#FFA100" fill-rule="nonzero" cx="16" cy="16" r="16"></circle>
        <g transform="translate(6.000000, 6.000000)" fill="#FFFFFF" fill-rule="nonzero">
            <path d="M6.11584,8.40416 L10,4.52 L13.886,8.40584 L16.146,6.14584 L10,0 L3.856,6.144 L6.11592,8.404 L6.11584,8.40416 Z M0,10 L2.26008,7.7396 L4.52,9.99952 L2.25992,12.2596 L0,10 Z M6.11584,11.59608 L10,15.48 L13.88592,11.59424 L16.14712,13.85304 L16.146,13.85424 L10,20 L3.856,13.856 L3.8528,13.8528 L6.11608,11.59584 L6.11584,11.59608 Z M15.48,10.00096 L17.74008,7.74088 L20,10.0008 L17.74,12.26088 L15.48,10.00096 Z" id="Shape"></path>
            <polyline id="Path" points="12.4975593 9.99869251 12.4986053 9.99869251 10.0000436 7.5 8.15323129 9.3462571 8.15323129 9.3462571 7.94106623 9.55850563 7.50348669 9.99616471 7.5 9.99956417 7.50348669 10.003138 10.0000436 12.5 12.4987797 10.0013075 12.5 9.99991283 12.4977337 9.99869251"></polyline>
        </g>
    </g>
</svg>