<svg width="32" height="32" xmlns="http://www.w3.org/2000/svg"><g fill="none"><circle fill="#FFA100" cx="16" cy="16" r="16"/><g fill="#FFF"><path d="M12.116 14.404 16 10.52l3.886 3.886 2.26-2.26L16 6l-6.144 6.144 2.26 2.26ZM6 16l2.26-2.26L10.52 16l-2.26 2.26L6 16Zm6.116 1.596L16 21.48l3.886-3.886 2.261 2.259-.001.001L16 26l-6.144-6.144-.003-.003 2.263-2.257Zm9.364-1.595 2.26-2.26L26 16l-2.26 2.26L21.48 16Z"/><path d="M18.498 15.999 16 13.5l-1.847 1.846-.212.213-.438.437L13.5 16l.003.003L16 18.5l2.499-2.499L18.5 16l-.002-.001"/></g></g></svg>