<svg width="32" height="32" xmlns="http://www.w3.org/2000/svg"><defs><linearGradient x1="46.009%" y1="5.539%" x2="58.666%" y2="92.464%" id="a"><stop stop-color="#27D3A2" offset="0%"/><stop stop-color="#9388FD" offset="100%"/></linearGradient><linearGradient x1="50%" y1="-14.096%" x2="50%" y2="110.561%" id="b"><stop stop-color="#283947" offset="0%"/><stop stop-color="#657786" offset="100%"/></linearGradient></defs><g fill="none" fill-rule="evenodd"><circle fill="#D8D8D8" cx="16" cy="16" r="16"/><g fill-rule="nonzero"><circle fill="#EDF0F2" cx="16" cy="16" r="16"/><path d="M26 28.37a15.688 15.688 0 0 1-8.529 3.554c-4.19.413-8.38-.864-11.65-3.554A16.066 16.066 0 0 1 .079 17.571a16.07 16.07 0 0 1 1.79-9.11 15.927 15.927 0 0 1 6.527-6.569A15.801 15.801 0 0 1 17.446.078a15.821 15.821 0 0 1 8.53 3.553l-3.208 3.942a10.73 10.73 0 0 0-5.819-2.415 10.774 10.774 0 0 0-6.166 1.239 10.922 10.922 0 0 0-4.451 4.48 10.975 10.975 0 0 0-1.219 6.206 10.912 10.912 0 0 0 3.917 7.358 10.77 10.77 0 0 0 7.944 2.415 10.802 10.802 0 0 0 5.806-2.428L26 28.37Z" fill="url(#a)"/><path d="M16.006 29C23.188 29 29 23.175 29 16.006 29 8.825 23.188 3 16.006 3 8.825 3 3 8.825 3 16.006 3 23.188 8.825 29 16.006 29Z" fill="#FFF"/><path d="M22 14.246h-1.186C20.167 12.316 18.42 11 16.11 11H12.32v3.246H11v1.16h1.32v1.226H11v1.16h1.32V21h3.789c2.273 0 4.009-1.304 4.681-3.207H22v-1.16h-.941c.024-.21.037-.418.037-.626v-.027c0-.195-.013-.378-.025-.56H22v-1.174Zm-8.617-2.203h2.726c1.687 0 2.945.887 3.532 2.203h-6.258v-2.203Zm2.726 7.914h-2.726v-2.164h6.258c-.587 1.303-1.845 2.164-3.532 2.164Zm3.887-3.924c0 .208-.013.404-.037.6h-6.576v-1.226h6.576c.024.195.037.39.037.586v.04Z" fill="url(#b)"/></g></g></svg>