<svg width="32" height="32" xmlns="http://www.w3.org/2000/svg"><g fill="none"><path d="M16 0C7.142 0 0 7.142 0 16s7.142 16 16 16 16-7.142 16-16S24.803 0 16 0Z" fill="#732394"/><path d="M22.918 21.886C21.08 23.892 18.431 25 15.728 25c-2.757 0-5.406-1.161-7.244-3.167C6.59 19.775 5.78 17.19 6.05 14.444c.486-4.38 4.054-7.863 8.542-8.391C14.97 6 15.35 6 15.728 6c2.163 0 4.217.686 5.947 2.006.108.052.162.21.162.316a.474.474 0 0 1-.162.37l-1.027.897a.622.622 0 0 1-.433.158c-.108 0-.27-.053-.324-.105a7.41 7.41 0 0 0-4.163-1.267c-2.108 0-4.109.897-5.46 2.428-1.406 1.53-2.055 3.536-1.784 5.594.378 3.272 3.081 5.911 6.433 6.28.27.054.54.054.865.054a7.372 7.372 0 0 0 5.19-2.112.622.622 0 0 1 .433-.158c.108 0 .216.053.324.106l1.135.739c.108.052.163.158.217.316a1.166 1.166 0 0 0-.163.264Zm.703-7.389c-1.297 0-2.379-1.055-2.379-2.322 0-1.267 1.082-2.322 2.38-2.322 1.297 0 2.378 1.055 2.378 2.322 0 1.267-1.081 2.322-2.379 2.322Z" fill="#FFF"/></g></svg>