<svg width="32" height="32" xmlns="http://www.w3.org/2000/svg"><g fill="none" fill-rule="evenodd"><circle fill="#FB2020" fill-rule="nonzero" cx="16" cy="16" r="16"/><g transform="translate(6 6)" fill="#FFF"><path d="m18.845 1.222-4.29 9.568.163.122-.473.657-.029-.022-4.394 9.804-4.509-10.059-.272-.38.076-.058L.8 1.222h18.045ZM9.879 8.308 6.115 11.12l3.707 8.27 3.735-8.334-3.678-2.747Zm-7.552-5.64 3.449 7.694 3.426-2.559-6.875-5.135Zm14.932.128-6.704 5.007 3.341 2.495 3.363-7.502Zm-.335-.76H2.835l7.044 5.261 7.045-5.26Z" fill-rule="nonzero"/><ellipse cx="1.4" cy="1.426" rx="1.4" ry="1.426"/><ellipse cx="18.2" cy="1.426" rx="1.4" ry="1.426"/><ellipse cx="14.2" cy="11.204" rx="1.4" ry="1.426"/><ellipse cx="10.04" cy="20.167" rx="1.4" ry="1.426"/><ellipse cx="5.4" cy="11.204" rx="1.4" ry="1.426"/></g></g></svg>