<svg width="32" height="32" xmlns="http://www.w3.org/2000/svg"><g fill="none"><path d="M16 32c8.837 0 16-7.163 16-16S24.837 0 16 0 0 7.163 0 16s7.163 16 16 16Z" fill="#070A0E"/><path d="m15.703 24.14-.478.83.634.366c.08.05.172.076.266.075a.565.565 0 0 0 .258-.067l.634-.365-.473-.83-.841-.01Zm2.793-10.46-1.34.781.533.906 1.331-.777zm3.634-.86-.523-.91-1.34.782.532.901zm2.376-2.184-.63-.362-.52.765.495.83.917-.066v-.723a.526.526 0 0 0-.262-.444Zm-4.919-2.763-1.175-.69-.529.91 1.18.686zm2.662 1.533-1.175-.69-.528.91 1.179.686zm-6.381-3.331-.634.37.536.91.364-.221.368.212.536-.906-.63-.365a.528.528 0 0 0-.54 0Zm7.843 10.443.009 1.362 1.048-.004-.004-1.363zm0-3.062.009 1.358h1.048l-.004-1.362zm-.004 6.459-.363.216.536.906.63-.37a.53.53 0 0 0 .258-.453v-.73h-1.061v.431Zm-3.009 1.658.524.91 1.175-.686-.524-.91zm-2.667 1.566.529.905 1.175-.685-.525-.91zm-2.425-.395 1.052-.004-.004-1.362-1.053.004zm1.048-6.779-1.053.004.005 1.363 1.052-.004zm-1.048 4.075 1.052-.004-.004-1.363-1.053.005zm-7.049-5.147-.005-1.362-1.052.004.004 1.363zm0 3.07-.005-1.362-1.052.004.004 1.362zm.003 1.52H7.5v.731c.002.186.1.357.262.453l.63.37.536-.906-.367-.216v-.432Zm1.298 2.314 1.175.685.524-.91-1.175-.685zm2.658 1.562 1.18.685.523-.905-1.174-.69zM14.38 8.094l-.524-.91-1.17.69.523.91zm-2.658 1.532-.528-.91-1.18.69.533.906zm1.521 4.964 1.34.777.524-.91-1.335-.777zm-3.11-1.77 1.34.773.524-.901-1.336-.781zm-1.217-1.781-.52-.765-.63.362a.538.538 0 0 0-.266.448v.723l.921.067.495-.835Z" fill="#FFF"/></g></svg>