<svg width="32" height="32" xmlns="http://www.w3.org/2000/svg"><g fill="none" fill-rule="evenodd"><path d="M16 32c8.837 0 16-7.163 16-16S24.837 0 16 0 0 7.163 0 16s7.163 16 16 16Z" fill="#070A0E" fill-rule="nonzero"/><path d="M8.769 21.029A1.492 1.492 0 0 1 8 19.743v-2.929c0-.347.302-.63.672-.628a.7.7 0 0 1 .336.086l7.034 3.853c.412.225.666.638.666 1.086v3.034c.001.416-.358.755-.801.755a.854.854 0 0 1-.421-.11l-6.717-3.861Zm10.485-5.56c.412.226.664.64.665 1.087v6.157c0 .181-.103.35-.273.438l-1.54.813a.278.278 0 0 1-.061.024V20.57c0-.442-.248-.853-.653-1.08l-6.177-3.472V12.16c0-.347.301-.63.671-.628.118 0 .235.03.337.086l7.031 3.853Zm3.08-4.546c.412.225.666.64.666 1.088v8.992a.506.506 0 0 1-.282.442l-1.46.74v-6.26c0-.442-.247-.85-.65-1.079l-6.314-3.557v-3.66c0-.111.032-.22.09-.316a.696.696 0 0 1 .915-.228l7.034 3.838Z" fill="#00D395"/></g></svg>