<svg width="32" height="32" xmlns="http://www.w3.org/2000/svg"><g fill="none"><path d="M16 32c8.837 0 16-7.163 16-16S24.837 0 16 0 0 7.163 0 16s7.163 16 16 16Z" fill="#69E2DC"/><path d="m17.289 16.755 5.61 5.61a1.07 1.07 0 0 1-.106 1.605 10.138 10.138 0 1 1 .038-15.915 1.058 1.058 0 0 1 .068 1.575l-5.615 5.615a1.067 1.067 0 0 0-.311.772 1.05 1.05 0 0 0 .085.427c.053.13.13.247.23.345v-.034Z" fill="#FFF"/><path fill="#AAB8C1" d="m15.964 17.979 3.952-2.333-4.692-2.454z"/><path fill="#AAB8C1" d="m12.024 15.658 3.952 2.333V13.69z"/><path fill="#283947" d="m15.964 9.11-3.952 6.548 5.17-2.345z"/><path fill="#657786" d="M15.964 9.11v4.75l3.952 1.798z"/><path fill="#283947" d="m15.964 21.964.514-2.94-4.454-2.625z"/><path fill="#657786" d="M15.964 18.732v3.232l3.952-5.565z"/></g></svg>