<svg width="32" height="32" xmlns="http://www.w3.org/2000/svg"><g fill="none"><circle fill="#103F68" cx="16" cy="16" r="16"/><path d="M15.979 5 26 10.487v11.01L15.99 27l-.08-.019L6 21.496V10.487L15.91 5h.069Zm-.033 1.139-8.893 4.924v9.858l8.892 4.923 1.087-.597 7.915-4.329v-9.853l-7.915-4.354-1.086-.572ZM8.431 16.758l2.632-1.872 2.328 1.413v2.542l1.76 1.614v.756l-1.697 1.512H12.02l-3.59-5.965Zm8.318 4.455-.003-.76 1.755-1.612V16.3l2.302-1.43 2.628 1.89-3.572 5.946h-1.415l-1.695-1.492ZM14.255 16.3l-.857-2.133h5.093l-.84 2.133.248 2.384-1.965.004-1.942.003.263-2.39Zm1.679-2.717-4.84-.002.9-3.823h7.857l.947 3.828-4.864-.003Z" fill="#FFF"/></g></svg>