<svg width="32" height="32" xmlns="http://www.w3.org/2000/svg"><defs><linearGradient x1="45.926%" y1="5.539%" x2="58.847%" y2="92.464%" id="a"><stop stop-color="#27D3A2" offset="0%"/><stop stop-color="#9388FD" offset="100%"/></linearGradient></defs><g fill="none" fill-rule="evenodd"><circle fill="#D8D8D8" cx="16" cy="16" r="16"/><g fill-rule="nonzero"><ellipse fill="#EDF0F2" cx="16.012" cy="15.963" rx="15.988" ry="15.925"/><path d="M26.163 28.252a15.86 15.86 0 0 1-8.576 3.536 16.082 16.082 0 0 1-11.712-3.536A15.939 15.939 0 0 1 .1 17.507a15.851 15.851 0 0 1 1.8-9.065 15.93 15.93 0 0 1 6.563-6.537A16.027 16.027 0 0 1 17.563.1a15.995 15.995 0 0 1 8.575 3.536l-3.226 3.922a10.848 10.848 0 0 0-5.85-2.403 10.925 10.925 0 0 0-10.675 5.69A10.825 10.825 0 0 0 9.1 24.342a10.905 10.905 0 0 0 7.987 2.404 10.92 10.92 0 0 0 5.838-2.416l3.238 3.922Z" fill="url(#a)"/><path d="M16.063 29c7.212 0 13.05-5.828 13.05-13 0-7.184-5.838-13.012-13.05-13.012C8.85 2.988 3 8.816 3 16s5.85 13 13.063 13Z" fill="#FFF"/><path d="M18.868 17.15c0-1.212-.772-1.62-2.278-1.806-1.107-.148-1.326-.396-1.326-.89 0-.495.374-.792 1.094-.792.657 0 1.03.21 1.185.717a.26.26 0 0 0 .103.136.26.26 0 0 0 .167.05h.58a.25.25 0 0 0 .102-.025c.039-.012.064-.037.09-.062.026-.024.039-.062.052-.086a.165.165 0 0 0 0-.112c-.18-.791-.747-1.261-1.622-1.41v-.829a.247.247 0 0 0-.077-.185.268.268 0 0 0-.193-.075h-.554a.268.268 0 0 0-.193.075.247.247 0 0 0-.077.185v.804c-1.094.149-1.79.83-1.79 1.708 0 1.138.734 1.57 2.253 1.769 1.043.16 1.339.37 1.339.927s-.502.928-1.21.928c-.953 0-1.274-.396-1.39-.903a.295.295 0 0 0-.09-.148.31.31 0 0 0-.168-.062h-.63a.25.25 0 0 0-.103.025.217.217 0 0 0-.09.062c-.026.024-.039.061-.052.086a.132.132 0 0 0 0 .1c.155.865.747 1.496 1.944 1.644v.817c0 .074.025.136.077.186a.269.269 0 0 0 .193.074h.553a.268.268 0 0 0 .193-.074.247.247 0 0 0 .078-.186v-.817c1.12-.173 1.84-.903 1.84-1.83Z" fill="#283947"/><path d="M14.71 20.862a5.432 5.432 0 0 1-2.586-1.893 4.956 4.956 0 0 1-.978-2.957c0-1.051.347-2.09.978-2.956a5.432 5.432 0 0 1 2.587-1.893.353.353 0 0 0 .167-.136.364.364 0 0 0 .065-.198v-.483c0-.037 0-.086-.026-.123a.223.223 0 0 0-.09-.1.394.394 0 0 0-.129-.049.154.154 0 0 0-.129.025 6.536 6.536 0 0 0-3.282 2.252 6.02 6.02 0 0 0-1.248 3.661c0 1.312.437 2.598 1.248 3.662.811 1.064 1.957 1.844 3.282 2.252a.49.49 0 0 0 .129.025c.039 0 .09-.025.129-.05a.338.338 0 0 0 .09-.099.425.425 0 0 0 .026-.124v-.482a.364.364 0 0 0-.065-.198.302.302 0 0 0-.167-.136Zm3.734-10.751a.474.474 0 0 0-.13-.024.278.278 0 0 0-.128.05.326.326 0 0 0-.09.098.425.425 0 0 0-.026.124v.482c0 .074.026.136.065.198a.444.444 0 0 0 .167.136 5.432 5.432 0 0 1 2.587 1.893c.644.866.978 1.905.978 2.957a5.04 5.04 0 0 1-.978 2.956 5.432 5.432 0 0 1-2.587 1.893.416.416 0 0 0-.167.124.364.364 0 0 0-.065.198v.482c0 .037 0 .087.026.124a.223.223 0 0 0 .09.099.394.394 0 0 0 .129.05c.038 0 .09 0 .129-.025a6.536 6.536 0 0 0 3.282-2.252 6.02 6.02 0 0 0 1.248-3.662 6.047 6.047 0 0 0-1.248-3.661 6.592 6.592 0 0 0-3.282-2.24Z" fill="#657786"/></g></g></svg>