<svg width="32" height="32" xmlns="http://www.w3.org/2000/svg"><defs><linearGradient x1="45.926%" y1="5.539%" x2="58.847%" y2="92.464%" id="a"><stop stop-color="#27D3A2" offset="0%"/><stop stop-color="#9388FD" offset="100%"/></linearGradient></defs><g fill="none" fill-rule="evenodd"><circle fill="#D8D8D8" cx="16" cy="16" r="16"/><g fill-rule="nonzero"><ellipse fill="#EDF0F2" cx="16.012" cy="15.963" rx="15.988" ry="15.925"/><path d="M26.163 28.252a15.86 15.86 0 0 1-8.576 3.536 16.082 16.082 0 0 1-11.712-3.536A15.939 15.939 0 0 1 .1 17.507a15.851 15.851 0 0 1 1.8-9.065 15.93 15.93 0 0 1 6.563-6.537A16.027 16.027 0 0 1 17.563.1a15.995 15.995 0 0 1 8.575 3.536l-3.226 3.922a10.848 10.848 0 0 0-5.85-2.403 10.925 10.925 0 0 0-10.675 5.69A10.825 10.825 0 0 0 9.1 24.342a10.905 10.905 0 0 0 7.987 2.404 10.92 10.92 0 0 0 5.838-2.416l3.238 3.922Z" fill="url(#a)"/><path d="M16.063 29c7.212 0 13.05-5.828 13.05-13 0-7.184-5.838-13.012-13.05-13.012C8.85 2.988 3 8.816 3 16s5.85 13 13.063 13Z" fill="#FFF"/></g><g fill="#445564"><path d="M13.401 10.638c-.155-.025-.163-.033-.089-.041.14-.025.467.008.696.065.534.14 1.015.501 1.526 1.134l.133.172.193-.032c.822-.148 1.666-.033 2.37.328.193.099.496.296.533.345a.864.864 0 0 1 .052.23c.052.386.03.674-.081.896-.06.123-.06.156-.023.263.03.082.119.14.2.14.178 0 .363-.313.452-.748l.037-.173.067.082c.378.469.674 1.118.718 1.578L20.2 15l-.067-.107a1.338 1.338 0 0 0-.355-.419c-.252-.189-.519-.246-1.222-.287-.637-.041-1-.099-1.356-.23-.607-.222-.918-.51-1.636-1.57-.319-.468-.519-.722-.719-.936-.437-.468-.874-.715-1.444-.813Z" fill-rule="nonzero"/><path d="M19.053 12.224c.015-.278.053-.46.136-.629a.5.5 0 0 1 .068-.124c.007 0-.008.05-.03.11-.061.16-.069.387-.03.643.052.33.075.374.437.732.166.169.362.38.438.469l.128.16-.128-.116c-.159-.147-.521-.425-.604-.461-.053-.03-.06-.03-.098.007-.03.03-.038.073-.038.285-.008.33-.053.535-.166.747-.06.11-.068.088-.015-.037.038-.095.045-.139.045-.454 0-.636-.075-.79-.536-1.046a5.702 5.702 0 0 0-.422-.212 1.694 1.694 0 0 1-.204-.096c.015-.014.46.11.634.183.264.103.31.11.34.103.022-.022.037-.08.045-.264Zm-5.395.872c-.257-.4-.423-1.02-.386-1.48l.012-.145.061.013c.11.021.301.104.393.166.246.165.356.392.46.957.03.165.074.358.092.42.031.103.148.344.246.496.067.11.024.165-.13.151-.232-.027-.545-.268-.748-.578Zm5.214 3.453c-1.58-.655-2.139-1.22-2.139-2.178 0-.139.008-.253.008-.253.008 0 .064.049.136.106.32.262.678.377 1.675.524.583.09.918.155 1.221.262.966.327 1.564.998 1.707 1.907.04.262.016.761-.047 1.023-.056.205-.216.581-.256.59-.008 0-.024-.042-.024-.107-.016-.344-.183-.671-.462-.925-.335-.295-.766-.516-1.82-.95Z" fill-rule="nonzero"/><path d="M17.752 16.314a1.634 1.634 0 0 0-.085-.318l-.042-.114.076.084c.111.113.196.25.273.44.06.143.06.189.06.424 0 .227-.01.28-.06.409a1.36 1.36 0 0 1-.358.508c-.306.28-.706.432-1.277.5-.102.008-.391.03-.647.045-.638.03-1.064.091-1.447.213-.051.015-.102.03-.11.022-.018-.015.246-.151.459-.242.298-.129.604-.197 1.277-.303.332-.046.672-.106.758-.137.842-.235 1.26-.818 1.123-1.53Zm.907 1.791c-.197-.444-.243-.865-.137-1.262.016-.04.03-.078.046-.078.015 0 .06.023.106.054.091.063.28.172.766.444.614.343.963.608 1.206.912.212.264.341.568.402.942.038.21.015.717-.038.927-.167.662-.546 1.192-1.1 1.496a1.041 1.041 0 0 1-.159.078.63.63 0 0 1 .068-.172c.182-.397.205-.779.069-1.207-.084-.265-.258-.584-.607-1.122-.417-.623-.516-.787-.622-1.012Zm-6.096 2.235c.576-.466 1.283-.797 1.937-.902.28-.046.746-.03 1.003.037.412.106.785.331.98.61.186.27.272.504.358 1.023.03.203.07.414.077.459.062.27.187.482.342.594.242.173.661.181 1.074.03.07-.022.132-.045.132-.037.015.015-.195.15-.335.218-.194.098-.35.128-.56.128-.373 0-.692-.188-.948-.564a4.178 4.178 0 0 1-.257-.497c-.272-.61-.412-.79-.73-.993-.28-.173-.639-.21-.91-.083-.358.166-.452.61-.203.88a.804.804 0 0 0 .443.226.47.47 0 0 0 .537-.459c0-.18-.07-.286-.257-.369-.249-.105-.52.016-.513.249 0 .098.047.158.148.203.062.03.062.03.015.023-.225-.046-.28-.317-.1-.49.217-.21.676-.12.831.173.063.12.07.362.016.512-.132.331-.506.504-.887.406-.256-.067-.365-.135-.676-.443-.545-.542-.755-.648-1.532-.76l-.148-.023.163-.15Z" fill-rule="nonzero"/><path d="M8.769 7.836a834.21 834.21 0 0 1 4.812 5.84c.118.156.071.305-.126.414-.11.063-.34.125-.45.125a.572.572 0 0 1-.379-.164c-.07-.07-.378-.516-1.072-1.587-.53-.82-.979-1.5-.987-1.509-.031-.015-.031-.015.931 1.689.608 1.071.805 1.454.805 1.501 0 .102-.032.156-.158.297-.213.235-.307.5-.378 1.055-.08.618-.292 1.056-.9 1.799-.355.437-.41.515-.497.695-.11.22-.142.344-.158.626a1.94 1.94 0 0 0 .103.766c.079.25.166.414.379.735.181.281.291.492.291.57 0 .063.016.063.3 0 .679-.156 1.239-.422 1.547-.75.189-.203.236-.313.236-.594 0-.18-.008-.22-.055-.329-.079-.172-.229-.312-.552-.531-.426-.29-.608-.524-.655-.837-.04-.265.008-.445.245-.938.244-.508.307-.719.347-1.235.023-.328.063-.461.157-.563.103-.11.19-.148.434-.18.403-.054.663-.156.868-.351a.732.732 0 0 0 .268-.571l.008-.18-.102-.11C13.66 13.098 8.524 7.5 8.5 7.5c-.009 0 .118.149.268.336Zm2.422 11.117a.321.321 0 0 0-.103-.43c-.134-.086-.34-.047-.34.07 0 .032.017.063.064.078.07.04.079.079.024.165-.056.086-.056.164.015.218.11.086.26.04.34-.101Z"/><path d="M14.145 15.018a.682.682 0 0 0-.429.442c-.032.12-.016.338.04.405.087.105.167.135.389.135.436 0 .81-.18.85-.397.039-.18-.128-.427-.358-.54a.851.851 0 0 0-.492-.045Zm.508.375c.063-.09.04-.187-.08-.255-.214-.127-.54-.022-.54.173 0 .097.167.202.326.202.103 0 .246-.06.294-.12Z"/></g></g></svg>