<svg width="32" height="32" xmlns="http://www.w3.org/2000/svg"><defs><linearGradient x1="45.957%" y1="5.539%" x2="58.779%" y2="92.464%" id="a"><stop stop-color="#27D3A2" offset="0%"/><stop stop-color="#9388FD" offset="100%"/></linearGradient></defs><g fill="none" fill-rule="evenodd"><circle fill="#D8D8D8" cx="16" cy="16" r="16"/><g fill-rule="nonzero"><circle fill="#EDF0F2" cx="15.95" cy="15.963" r="15.925"/><path d="M26.06 28.252a15.765 15.765 0 0 1-8.54 3.536 15.98 15.98 0 0 1-11.668-3.536A15.957 15.957 0 0 1 .1 17.507a15.904 15.904 0 0 1 1.793-9.065A15.9 15.9 0 0 1 8.43 1.905 15.912 15.912 0 0 1 17.494.1a15.9 15.9 0 0 1 8.542 3.536l-3.213 3.922a10.783 10.783 0 0 0-5.827-2.403 10.849 10.849 0 0 0-6.176 1.233 10.903 10.903 0 0 0-4.457 4.457 10.861 10.861 0 0 0-1.22 6.176 10.837 10.837 0 0 0 3.922 7.321 10.855 10.855 0 0 0 13.771-.012l3.225 3.922Z" fill="url(#a)"/><path d="M16 29c7.184 0 13-5.828 13-13 0-7.184-5.816-13.012-13-13.012S2.988 8.816 2.988 16 8.816 29 16 29Z" fill="#FFF"/></g><path d="M17.21 16.902c-.074 0-.418.025-1.204.025-.626 0-1.068-.025-1.228-.025-2.42-.111-4.213-.52-4.213-1.027 0-.507 1.806-.915 4.213-1.027v1.646c.16.012.614.037 1.24.037.75 0 1.13-.037 1.192-.037V14.86c2.407.11 4.213.52 4.213 1.027 0 .494-1.794.915-4.213 1.014Zm0-2.215v-1.46h3.365V11h-9.15v2.227h3.365v1.46C12.051 14.811 10 15.355 10 16c0 .643 2.051 1.188 4.79 1.311V22h2.432v-4.69C19.95 17.187 22 16.642 22 16c0-.644-2.051-1.188-4.79-1.312Z" fill="#283947"/></g></svg>