<svg width="32" height="32" xmlns="http://www.w3.org/2000/svg"><g fill="none" fill-rule="evenodd"><circle fill="#FFA408" fill-rule="nonzero" cx="16" cy="16" r="16"/><path d="M10.151 23.989v-4.662c0-.11 0-.127-.138-.127H8.146c-.103 0-.146 0-.146-.134v-1.602h1.996c.112 0 .155 0 .155-.144v-1.585c0-.1 0-.126-.138-.126H8.146c-.103 0-.146 0-.146-.134V13.99c0-.093 0-.118.137-.118h1.85c.13 0 .164 0 .164-.16V9.169c0-.135 0-.169.172-.169h6.453c.469.018.934.069 1.394.152a8.52 8.52 0 0 1 2.693.978 7.568 7.568 0 0 1 1.514 1.146c.341.347.648.722.921 1.122.27.404.496.837.672 1.29a.223.223 0 0 0 .257.177h1.54c.198 0 .198 0 .207.185v1.383c0 .135-.051.17-.19.17h-1.187c-.12 0-.155 0-.147.15a8.44 8.44 0 0 1 0 1.543c0 .143 0 .16.165.16h1.358c.06.076 0 .152 0 .229.009.097.009.196 0 .294V19c0 .144-.042.186-.172.186h-1.626a.215.215 0 0 0-.25.16 6.742 6.742 0 0 1-1.807 2.58c-.292.258-.6.501-.92.725-.345.194-.68.397-1.034.557a9.433 9.433 0 0 1-2.03.632c-.665.116-1.338.17-2.014.16h-5.972v-.009l.003-.001Zm11.883-4.78a2.05 2.05 0 0 0-.44 0h-9.542c-.129 0-.172 0-.172.168v2.926c0 .135 0 .169.172.169h4.406c.21.016.421 0 .627-.042a6.668 6.668 0 0 0 1.868-.405c.218-.074.43-.17.628-.287h.06a5.533 5.533 0 0 0 2.4-2.368s.06-.127-.007-.16v-.002Zm0-5.363a.161.161 0 0 0 0-.117 3.311 3.311 0 0 0-.31-.531 4.314 4.314 0 0 0-.638-.785 2.094 2.094 0 0 0-.395-.38 6.232 6.232 0 0 0-2.582-1.28 6.55 6.55 0 0 0-1.463-.152h-4.62c-.13 0-.147.05-.147.16v2.993c0 .126 0 .16.164.16h9.93s.085-.017.103-.068h-.042Zm-4.819 3.609h5.231c.112 0 .164 0 .173-.144a9.617 9.617 0 0 0 0-1.568c0-.1-.052-.143-.164-.143H12.044c-.13 0-.164.042-.164.16v1.501c0 .194 0 .194.206.194h5.129Z" fill="#FFF"/></g></svg>