<svg width="32" height="32" xmlns="http://www.w3.org/2000/svg"><g fill="none"><circle fill="#666" cx="16" cy="16" r="16"/><path d="M25.129 20.682c-.407.65-1.28.87-1.969.495l-4.54-2.463V17.15l1.442-.782 4.54 2.463c.69.374.925 1.203.527 1.85Zm-7.188 3.326c0 .748-.645 1.355-1.441 1.355s-1.441-.607-1.441-1.355v-4.926l1.44-.782 1.442.782v4.926Zm-8.102-2.83c-.688.373-1.562.153-1.968-.497a1.291 1.291 0 0 1-.143-1.031c.1-.348.34-.643.67-.82l4.54-2.463 1.442.783v1.564l-4.54 2.463Zm-1.441-8.009c-.33-.176-.57-.47-.67-.819-.1-.348-.048-.72.143-1.03.406-.65 1.28-.87 1.968-.497l4.541 2.463v1.564l-1.442.782-4.54-2.463Zm6.66-5.177c0-.748.647-1.355 1.442-1.355.796 0 1.441.607 1.441 1.355v4.925L16.5 13.7l-1.441-.782V7.992Zm3.562 7.594.764.414-.764.414v-.828Zm-1.442-1.518.763-.414v.828l-.763-.414Zm-2.12.414v-.827l.763.413-.762.414Zm-.678 1.932L13.616 16l.764-.414v.828Zm1.441 1.518-.762.414v-.828l.762.414Zm2.12-.414v.827l-.763-.413.763-.414Zm-1.441.046-1.441-.782v-1.564l1.44-.782 1.442.782v1.564l-1.441.782Zm6.66-6.741c.689-.374 1.563-.154 1.969.496.4.647.162 1.476-.527 1.85l-4.54 2.464-1.442-.783v-1.564l4.54-2.463Zm1.78 7.456L20.74 16l4.2-2.28a1.99 1.99 0 0 0 .987-1.203 1.899 1.899 0 0 0-.21-1.517c-.585-.953-1.882-1.28-2.896-.73l-4.201 2.28V7.99c0-1.098-.95-1.99-2.12-1.99-1.17 0-2.12.892-2.12 1.992v4.558l-4.201-2.28c-1.014-.55-2.311-.223-2.895.73a1.899 1.899 0 0 0-.21 1.517c.146.512.501.946.986 1.204L12.26 16l-4.2 2.28a1.99 1.99 0 0 0-.987 1.203A1.899 1.899 0 0 0 7.283 21c.585.953 1.882 1.28 2.896.73l4.201-2.28v4.558c0 1.1.95 1.992 2.12 1.992 1.17 0 2.12-.892 2.12-1.992V19.45l4.201 2.28c1.014.55 2.31.223 2.896-.73.28-.458.356-1.005.21-1.517a1.99 1.99 0 0 0-.986-1.204Z" fill="#FFF"/></g></svg>