<svg width="32" height="32" xmlns="http://www.w3.org/2000/svg"><g fill="none"><circle fill="#7866D5" cx="16" cy="16" r="16"/><g fill="#FFF"><path d="M21.185 9.442c.439.055.896.092 1.334.166.86.166 1.152.608 1.006 1.492a.74.74 0 0 1-.622.645c-.2.037-.42.055-.621.037-2.852 0-5.685.018-8.537.018-.42 0-.859.037-1.28.11-1.407.222-1.955.811-2.065 2.248-.055.663-.055.663.622.663h11.662c.183 0 .347.055.512.147.512.332.384.866.365 1.345-.018.387-.256.608-.658.682-.164.037-.329.037-.512.037H10.766c-.42 0-.42 0-.384.423a6.3 6.3 0 0 0 .146 1.16c.183.7.603 1.143 1.316 1.346.768.22 1.572.257 2.358.276h8.317c.348 0 .677.037.896.368.347.553.165 1.271-.384 1.621a.565.565 0 0 1-.237.11c-.604.203-1.225.24-1.865.259-2.614.055-5.21.055-7.805 0a13.071 13.071 0 0 1-2.395-.277c-1.846-.386-2.778-1.344-3.09-3.223-.072-.424-.109-.866-.164-1.308V14.36l.11-1.014c.238-2.118 1.188-3.168 3.254-3.647.73-.166 1.499-.203 2.23-.276l8.116.018Z"/><path d="M17.017 22.963c-1.316 0-2.614-.018-3.912-.037a12.196 12.196 0 0 1-2.45-.294c-1.992-.424-3.015-1.493-3.344-3.482a8.408 8.408 0 0 1-.11-.921 22.544 22.544 0 0 1-.055-.405v-3.5l.037-.332c.018-.24.055-.46.073-.681.256-2.266 1.316-3.427 3.528-3.924.585-.13 1.151-.184 1.718-.24l.549-.055h8.189c.128.019.274.037.402.037.31.037.621.055.95.129 1.042.203 1.445.792 1.262 1.86a1.07 1.07 0 0 1-.914.921c-.22.037-.439.056-.677.056-2.833.018-5.685.037-8.518.037-.402 0-.822.036-1.225.11-1.26.203-1.681.663-1.791 1.953 0 .11-.018.22-.018.313h11.973c.238 0 .475.074.676.184.622.405.567 1.013.53 1.455 0 .056-.018.13-.018.185-.037.515-.347.865-.914.976-.201.037-.384.037-.567.037h-11.68v.073c.018.387.055.756.146 1.124.146.571.494.921 1.078 1.087.787.221 1.59.258 2.285.258 2.157.018 4.351.018 6.49.018h1.828c.274 0 .84 0 1.17.534.219.35.274.756.182 1.143a1.524 1.524 0 0 1-.987 1.086c-.676.221-1.37.258-1.956.277-1.298 0-2.614.018-3.93.018Zm-9.213-5.195c.019.13.037.258.037.387l.11.884c.292 1.732 1.115 2.58 2.833 2.948a12.44 12.44 0 0 0 2.34.276c2.577.055 5.21.055 7.805 0 .53-.018 1.17-.055 1.755-.24.055-.018.11-.055.164-.073a.944.944 0 0 0 .384-.534.812.812 0 0 0-.11-.645c-.11-.166-.255-.221-.603-.221h-1.828c-2.12 0-4.332 0-6.489-.018-.731 0-1.59-.037-2.45-.295-.822-.221-1.334-.755-1.535-1.584a5.69 5.69 0 0 1-.146-1.235V17.4c-.018-.258-.037-.442.11-.608.146-.166.347-.166.603-.166H22.41c.146 0 .31 0 .457-.037.292-.055.365-.184.384-.368 0-.074.018-.129.018-.203.036-.46.036-.681-.22-.847a.68.68 0 0 0-.329-.092H11.022c-.403 0-.64 0-.823-.184-.183-.184-.146-.442-.128-.83.128-1.583.786-2.302 2.34-2.541.438-.074.877-.11 1.334-.13 2.852 0 5.685-.018 8.537-.018.2 0 .384 0 .566-.037a.39.39 0 0 0 .348-.35c.128-.736-.055-.976-.75-1.123a7.139 7.139 0 0 0-.877-.11 2.967 2.967 0 0 0-.402-.038h-8.08l-.548.056c-.567.055-1.097.092-1.645.22-1.92.48-2.76 1.42-2.98 3.409-.018.22-.055.442-.073.681l-.037.313v3.371Z"/></g></g></svg>