<svg width="32" height="32" xmlns="http://www.w3.org/2000/svg"><g fill="none" fill-rule="evenodd"><circle fill="#13B5EC" fill-rule="nonzero" cx="16" cy="16" r="16"/><path d="m17.2 12.935 3.6-2.11v4.22l-3.6-2.11Zm3.6 9.045L16 24.794l-4.8-2.814v-4.925L16 19.87l4.8-2.814v4.925Zm-9.6-11.156 3.6 2.11-3.6 2.111v-4.22Zm5.4 3.116 3.6 2.11-3.6 2.11v-4.22Zm-1.2 4.22-3.6-2.11 3.6-2.11v4.22Zm4.8-8.34L16 12.23 11.8 9.82 16 7.307l4.2 2.512ZM10 9.416v13.166L16 26l6-3.417V9.417L16 6l-6 3.417Z" fill="#FFF"/></g></svg>