<svg width="32" height="32" xmlns="http://www.w3.org/2000/svg"><g fill="none" fill-rule="evenodd"><circle fill="#6747ED" fill-rule="nonzero" cx="16" cy="16" r="16"/><path d="M15.433 17.548c-2.366 0-4.266-1.867-4.266-4.193 0-2.326 1.9-4.193 4.266-4.193 2.367 0 4.267 1.867 4.267 4.193 0 2.326-1.9 4.193-4.267 4.193Zm0-10.482c3.534 0 6.4 2.817 6.4 6.29 0 3.472-2.866 6.289-6.4 6.289-3.533 0-6.4-2.817-6.4-6.29 0-3.472 2.867-6.29 6.4-6.29Zm6.1 12.906c.434.426.434 1.081 0 1.475l-4.266 4.193c-.434.426-1.1.426-1.5 0-.434-.426-.434-1.081 0-1.474l4.266-4.194a1.04 1.04 0 0 1 1.5 0ZM24 8.114c0 .59-.467 1.048-1.067 1.048-.6 0-1.066-.459-1.066-1.048 0-.59.466-1.048 1.066-1.048.567 0 1.067.458 1.067 1.048Z" fill="#FFF"/></g></svg>