<svg width="32" height="32" xmlns="http://www.w3.org/2000/svg"><g fill="none" fill-rule="evenodd"><circle fill="#269F74" fill-rule="nonzero" cx="16" cy="16" r="16"/><path d="M25.91 13.306s0 .091-.092.091c-.182.73-2.273 4.75-3 5.48l-.09.091-.728.73 4 1.918C23.727 24.265 20.182 26 16.09 26c-4.09 0-7.635-1.735-9.908-4.384L6 21.434l3.818-1.735-.363-.366L9 18.968c-.545-.457-2.545-4.384-2.818-5.388l-.091-.091c1.182.822 4.454 1.643 8.364 1.826h2.636c3.909-.183 7-.913 8.364-1.735l.09-.091.364-.183Zm-15.365 2.74.273.913c.182.548.364 1.096.546 1.552l.181.366.455.822c.09.091.09.182.182.274l.09.09.364.275c.637.365 1.273.73 2.091.913l.273.091.818.183h.455l.818-.183a7.15 7.15 0 0 0 2.09-.821l.274-.183.363-.274c.091-.091.182-.183.182-.274l.09-.091.455-.822a11.17 11.17 0 0 0 .637-1.553l.09-.456.183-.822c-.546 1.004-1.546 1.643-2.728 1.826h-.363a2.971 2.971 0 0 1-2.182-1.37l-.091-.182H16l-.09.182c-.455.73-1.274 1.187-2.183 1.37h-.545a3.161 3.161 0 0 1-2.637-1.826ZM16 6c.727 0 1.727.548 3.182 1.735l.182.183.636.548 1.727 1.46 1.182.366c.182.092.364.092.546.183l.363.091h.273l.364.092.181.09.182.092c.818.274 1.182.64 1.182 1.096v.183l-.09.091-.092.091c-1.273.914-4.545 1.736-8.545 1.918h-2.364c-4.182-.182-7.545-1.004-8.818-1.918C6 12.21 6 12.027 6 11.936c0-.548.455-.913 1.364-1.278-.182-.183-.182-.274-.364-.457.273-.274.727-.548 1.09-.64.728-.09 1.183.092 1.637.183-.363-.182-1.09-.913-1.272-1.187-.364-.73-.091-1.278.09-1.552v-.092l.091-.091.091-.091h.091c.182 0 .91 0 1.182.274.545.821.455 1.735.727 2.191.182-.456.091-.913.455-1.46.273-.64 1.363-1.37 2.182-1.188 0 .274.181.457.09.822C14.546 6.457 15.365 6 16 6Z" fill="#FFF"/></g></svg>