<svg width="32" height="32" xmlns="http://www.w3.org/2000/svg" xmlns:xlink="http://www.w3.org/1999/xlink"><defs><path id="a" d="M.163.562H12.19V12.8H.163z"/><path id="c" d="M.191 0h6.172v22H.191z"/></defs><g fill="none" fill-rule="evenodd"><circle fill="#436AF2" fill-rule="nonzero" cx="16" cy="16" r="16"/><g transform="translate(12.76 12.8)"><mask id="b" fill="#fff"><use xlink:href="#a"/></mask><path d="M6.334 9.554c.782.259 1.542.358 2.127-.357.57-.697.545-1.446.08-2.194.496-.492.703-1.062.56-1.738-.15-.707-.636-1.08-1.305-1.262.098-.383.17-.735.282-1.073.097-.29-.065-.34-.27-.398-.208-.058-.372-.085-.432.208-.072.358-.185.708-.285 1.084l-.679-.201c.1-.382.177-.734.287-1.075.089-.281-.065-.336-.275-.399-.22-.064-.37-.07-.43.21-.077.358-.185.708-.284 1.084-.431-.117-.816-.223-1.203-.325-.158-.042-.345-.154-.407.12-.047.212-.2.425.133.589.392.192.495.497.384.934-.205.815-.427 1.627-.633 2.443-.11.431-.284.74-.8.76-.129.005-.244.312-.365.48.098.07.186.173.296.209.367.118.742.212 1.14.324-.1.385-.184.745-.29 1.098-.09.298.106.32.3.382.209.069.346.058.405-.197.083-.358.185-.71.285-1.09.247.065.452.12.685.18-.102.392-.188.75-.292 1.104-.087.292.105.325.3.385.208.065.349.052.406-.202.079-.348.177-.692.28-1.083M6.22.562c3.305.017 5.995 2.783 5.97 6.14-.024 3.39-2.725 6.11-6.055 6.098-3.27-.01-5.991-2.794-5.972-6.11C.182 3.268 2.874.545 6.22.562" fill="#FDB262" mask="url(#b)"/></g><g transform="translate(8.44 4)"><mask id="d" fill="#fff"><use xlink:href="#c"/></mask><path d="M1.983 20.555a44.452 44.452 0 0 0-.307-.2c-.103-.148-.212-.293-.31-.444-.27-.409-.595-.792-.79-1.235-.483-1.092-.447-2.25-.241-3.398.35-1.964 1.152-3.76 2.09-5.492.779-1.436 1.558-2.866 2.01-4.452.389-1.362.648-2.745.665-4.169 0-.357.019-.584.019-.942V0c.051.069 1.244 2.533 1.244 2.533s-.146.67-.291 1.231c-.525 2.126-1.05 4.25-1.573 6.376-.03.119-.025.245-.037.368l.002-.002c-.02.033-.04.067-.062.1-.7 1.15-1.224 2.366-1.354 3.73-.284 2.956.677 5.404 2.887 7.342.103.09.2.188.273.322-1.42-.295-2.821-.621-4.092-1.35l-.133-.095" fill="#C8DDFB" mask="url(#d)"/></g><path d="M13.54 5.165c-.017 1.423-.276 2.806-.665 4.17-.452 1.586-1.231 3.016-2.01 4.451-.938 1.732-1.739 3.527-2.09 5.492-.206 1.148-.242 2.306.24 3.398.196.442.52.827.79 1.235.1.152.208.296.311.444-1.095-.66-1.871-1.62-2.411-2.77-1.005-2.138-.898-4.301.083-6.397.451-.964 1.057-1.87 1.689-2.729 1.17-1.591 2.37-3.16 3.208-4.966.346-.747.573-1.55.855-2.328m-.637 9.343c.011-.123.007-.25.036-.368.522-2.125 1.048-4.25 1.572-6.375l.862-.514c.089-.047.138-.079.235-.122-.074.15-.235.548-.274.717-.289.656-.207 1.347-.118 2.015.098.734.307 1.452.467 2.177a9.612 9.612 0 0 0-2.78 2.47" fill="#95C9FE"/><path d="M15.683 12.038c-.16-.725-.37-1.443-.467-2.177-.088-.668-.171-1.359.118-2.015a5632.17 5632.17 0 0 0 2.268 3.451c-.615.237-1.268.49-1.92.74" fill="#C7DCFB"/><path d="M10.423 24.555c.045.031.089.063.133.096-.044-.033-.088-.064-.133-.096m2.419-9.948.062-.102-.062.102" fill="#95C9FE"/><path d="m17.973 20.979.376-1.426c.519.143 1.014.261 1.497.415a.714.714 0 0 1 .475.85c-.092.391-.416.635-.819.552-.497-.1-.984-.25-1.53-.391" fill="#FAB164"/><path d="M18.893 17.476c.391.109.744.194 1.088.307.395.13.597.488.514.862a.7.7 0 0 1-.826.552c-.378-.067-.746-.187-1.15-.292l.374-1.429" fill="#FAB163"/></g></svg>