<svg width="32" height="32" xmlns="http://www.w3.org/2000/svg"><g fill="none"><circle fill="#8F41FE" cx="16" cy="16" r="16"/><path d="M6.523 10.014c-.302.022-.536.065-.522.097.12.26.867 1.785.877 1.794.01.01.184.02.388.028.906.03 1.622.19 2.396.535.556.247.968.512 1.397.897.631.567 1.043 1.197 1.284 1.969.028.089.05.168.05.18 0 .017-.138.02-.747.02-.412 0-.766.007-.788.014-.032.011-.117.177-.471.908a60.36 60.36 0 0 0-.44.92c-.011.04.132.075.49.123.072.01.511.021 1.03.027l.904.01-.055.168c-.609 1.862-2.5 3.164-4.815 3.32a8.623 8.623 0 0 1-.383.015h-.144l-.446.925c-.383.79-.442.925-.417.932.116.039.374.052.973.052.766 0 1.139-.03 1.77-.147 2.578-.477 4.72-1.955 5.69-3.93.187-.38.406-1.006.445-1.268l.012-.075h1.935l.006.034c.14.616.291 1.032.553 1.522.788 1.478 2.265 2.685 4.094 3.348 1.11.4 2.3.593 3.497.565.5-.013.898-.064.878-.112a298.48 298.48 0 0 0-.87-1.797c-.005-.004-.18-.01-.393-.018a6.834 6.834 0 0 1-1.553-.215 6.264 6.264 0 0 1-2.146-1.016c-.745-.566-1.284-1.27-1.57-2.05a2.383 2.383 0 0 1-.07-.21l-.012-.05.728-.004c.4-.003.74-.01.754-.017.022-.01.893-1.791.893-1.826 0-.023-.22-.082-.418-.11-.147-.022-.332-.028-1.072-.033l-.897-.008.034-.108c.497-1.586 2.021-2.845 3.987-3.291a7.297 7.297 0 0 1 1.403-.169c.327-.012.368-.017.388-.041.014-.017.215-.423.446-.903.284-.588.415-.877.403-.885a2.766 2.766 0 0 0-.463-.074 12.544 12.544 0 0 0-1.417.006c-2.004.161-3.811.89-5.165 2.08-.827.727-1.407 1.542-1.765 2.484a5.8 5.8 0 0 0-.236.793l-.02.111H15.03l-.007-.035-.044-.195c-.281-1.257-1.074-2.479-2.194-3.38-1.274-1.025-2.863-1.667-4.612-1.863a10.544 10.544 0 0 0-1.65-.047Z" fill="#FFF"/></g></svg>