<svg width="32" height="32" xmlns="http://www.w3.org/2000/svg"><g fill="none"><circle fill="#303666" cx="16" cy="16" r="16"/><g fill="#FFF"><path d="M18 10.772c0-3.155-1.462-5.873-2.582-6.763 0 0-.078-.049-.078.08-.093 6.1-3.064 7.767-4.712 9.983-3.78 5.145-.265 10.776 3.313 11.811 2.006.583-.467-1.035-.778-4.433C12.79 17.325 18 14.186 18 10.772"/><path d="M20.128 13.012c-.017-.016-.05-.016-.082 0l-.017.016c-.065.75-.918 2.38-1.985 3.867-3.625 5.049-1.558 7.478-.393 8.788.672.767 0 0 1.69-.783.13-.064 3.28-1.694 3.625-5.385.344-3.595-2.002-5.848-2.838-6.503"/></g></g></svg>