<svg width="40" height="40" viewBox="0 0 40 40" xmlns="http://www.w3.org/2000/svg">
    <defs>
        <linearGradient x1="0%" y1="0%" x2="100%" y2="100%" id="a">
            <stop stop-color="#EBEBEB" offset="0%"/>
            <stop stop-color="#D8D8D8" offset="100%"/>
        </linearGradient>
    </defs>
    <g fill="none" fill-rule="evenodd">
        <circle fill="url(#a)" cx="20" cy="20" r="20"/>
        <g fill-rule="nonzero">
            <path fill="#FFF" d="m12.144 21.439.8-6.04L6 10.56l6.345 2.158 1.498-2.308L19.315 7l12.06 6.671.625 10.18-5.373 7.496L22.38 32l2.196-4.036v-3.886l-1.597-3.035-1.622-1.079-2.496 2.584v2.733l-1.948 1.832-2.475.3-1.096.624-1.798-.576-.749-2.708 1.349-1.904z"/>
            <path d="M24 11.21c-1.282-.274-2.685-.201-2.685-.201s-.46 2.196-3.315 2.775c.02 0 3.772 1.323 6-2.574zM24.374 30.843c1.66-1.273 2.904-3.025 3.478-5.008.027-.074.258-.204.414-.305.258-.152.52-.279.57-.484.102-.584.155-1.194.155-1.804 0-.227-.236-.457-.467-.684-.182-.153-.365-.331-.365-.458a9.594 9.594 0 0 0-3.087-6.05l-.182.18c1.686 1.551 2.775 3.66 3.011 5.896.027.205.231.406.44.61.183.153.392.384.392.484 0 .584-.053 1.168-.156 1.752-.026.1-.258.205-.44.305-.258.127-.494.253-.543.458-.622 2.162-2.05 4.045-3.945 5.265.338-.71 1.401-3.025 1.97-4.197l-.102-3.761-3.296-3.125-1.868.252-2.05 3.256s.96 1.194-.392 2.593c-1.32 1.373-2.362 1.678-2.362 1.678l-.96-.51c.284-.357.858-.889 1.298-1.246.752-.61 1.504-.663 1.504-1.32.031-1.378-1.477-.999-1.477-.999l-.547.51-.231 1.883-1.139 1.4-.129-.027L12 26.982s1.143-.584 1.325-1.247c.183-.636-.364-2.746-.39-2.872.026.026.546.458.777 1.168.414-1.12.961-2.188 1.117-2.288.156-.1 2.255-1.194 2.255-1.194l-.698 1.804.52-.279 1.245-2.998s1.22-.584 2.127-.584c1.632-.027 4.047-1.984 2.957-5.492.312.126 5.707 2.772 6.641 7.958.698 3.988-1.61 7.723-5.502 9.885z" fill="#94A6C3"/>
            <path d="M18.542 11.03c.668-.82.408-2.03.408-2.03L17 12c-.029 0 .694.031 1.542-.97zM12.644 24.887l.18-.887s-.74 1.287-.805 1.466c-.068.202.046.556.334.533.29-.023.647-.446.647-.754 0-.4-.356-.358-.356-.358z" fill="#1B314F"/>
            <path d="M28.319 9.035s1.28.052 2.61.205c-2.996-2.341-5.834-3.026-8.136-3.026-3.17 0-5.32 1.3-5.452 1.373l1-1.578s-3.99-.383-5.398 3.815c-.36-.89-.689-2.189-.689-2.189s-2.074 1.81-1.1 4.809c-2.382-.863-5.781-2.062-5.913-2.084-.18-.026-.232.052-.232.052s-.053.074.1.205c.286.223 5.658 4.168 6.838 4.93-.254.916-.254 1.348 0 1.78.36.584.382.889.333 1.32-.052.432-.513 4.172-.614 4.63-.1.458-1.175 2.084-1.127 2.568.053.484.715 2.542 1.307 2.773.434.152 1.509.484 2.224.484.254 0 .487-.053.587-.153.435-.38.562-.458.869-.458h.074c.128 0 .281.026.46.026.409 0 .948-.078 1.33-.431.561-.558 1.535-1.321 1.842-1.679a2.351 2.351 0 0 0 .487-1.804c-.08-.61.254-1.147.64-1.679.487-.636 1.381-1.779 1.381-1.779 1.768 1.317 2.869 3.327 2.869 5.563 0 3.967-3.478 7.172-7.776 7.172a8.278 8.278 0 0 1-1.943-.227c1.969.684 3.631.915 4.99.915 2.891 0 4.426-1.042 4.426-1.042s-.535.69-1.408 1.474h.027c4.784-.663 7.113-4.578 7.113-4.578s-.18 1.273-.408 2.137c6.364-4.757 5.29-10.707 5.263-10.908.053.074.693.837 1.022 1.247 1.026-10.48-7.596-13.863-7.596-13.863zM18.521 25.77c-.1.126-.535.51-.842.789-.307.279-.64.558-.895.815-.1.1-.307.153-.614.153h-.767c.386-.51 1.509-1.679 1.895-1.931.46-.306.693-.61.407-1.143-.28-.536-1.021-.405-1.021-.405s.434-.179.82-.179c-.487-.126-1.101 0-1.382.28-.307.278-.254 1.272-.381 1.904-.128.663-.562.994-1.228 1.605-.36.33-.614.431-.82.431a8.782 8.782 0 0 1-1.307-.331c-.255-.331-.64-1.426-.742-1.883.075-.253.382-.79.535-1.095.307-.584.487-.915.54-1.22.1-.432.434-3.104.561-4.22.334.431.794 1.146.689 1.604.741-1.042.206-2.062-.053-2.468-.228-.405-.535-1.22-.28-2.083.254-.864 1.175-3.257 1.175-3.257s.307.536.741.432c.434-.1 3.938-5.34 3.938-5.34s.948 2.057-.052 3.56c-1.022 1.5-2.022 1.78-2.022 1.78s1.408.252 2.71-.69c.535 1.248 1.049 2.542 1.075 2.721-.079.179-1.1 2.62-1.202 2.773-.052.052-.408.152-.666.205-.435.126-.689.205-.794.279-.18.152-1 2.389-1.382 3.483-.46.126-.92.384-1.254.89.18-.127.741-.206 1.153-.254.36-.026 1.456.558 1.742 1.653v.052c.057.401-.07.785-.277 1.09zm-2.403.305c.232-.331.206-.89.232-1.068.027-.179.075-.51.281-.558.206-.052.693.026.693.38 0 .33-.36.405-.614.636-.184.174-.544.558-.592.61zm10.205-4.86c.255-1.296.281-2.416.207-3.331.995 1.32 1.61 2.925 1.789 4.577.026.205.228.405.434.61.18.153.386.358.386.484 0 .584-.052 1.169-.153 1.757-.027.074-.255.205-.435.305-.254.127-.486.253-.535.458a9.477 9.477 0 0 1-3.377 4.909c2.377-2.468 3.527-6.54 1.684-9.77zm-1.61 9.996c1.663-1.273 2.944-3.052 3.505-5.062.026-.074.255-.205.408-.305.254-.126.513-.279.561-.484.101-.584.154-1.194.154-1.805 0-.226-.233-.458-.46-.684-.128-.153-.334-.332-.334-.458a9.94 9.94 0 0 0-2.096-5.061c-.513-3.052-2.557-3.994-2.61-4.02.053.079 1.382 1.984.46 4.22-.947 2.263-3.376 1.91-3.583 1.931-.206 0-.995 1.016-1.995 2.9-.127-.053-.667-.18-1.28-.075.46-1.273 1.153-3.077 1.28-3.23.053-.052.434-.153.693-.227.487-.126.715-.205.794-.305.052-.078.307-.662.561-1.273.233 0 .82-.052.869-.078.052-.053.539-1.295.539-1.448 0-.126-1-2.594-1.382-3.535.18-.205.36-.458.536-.737 5.245.562 9.341 4.987 9.341 10.35 0 4.12-2.43 7.707-5.96 9.386z" fill="#1B314F"/>
            <path d="M17.74 18.29c.52-.544.248-1.558-.71-1.732.248-.518.599-1.558.599-1.558s-2.78 3.96-3.023 4.036c-.248.077-.49-.793-.49-.793-.52 1.808.873 2.054 1.036 1.485.762-.178 2.07-.92 2.589-1.439z" fill="#1B314F"/>
            <path d="m15 19 1.461-2s.844.34.42.879C16.35 18.507 15 19 15 19z" fill="#FFD923"/>
            <path d="M31.422 29.487A15.013 15.013 0 0 1 30 31c3.53-6.15.164-11.779.028-12 .249.225.493.472.714.693 2.708 2.725 3.037 6.818.68 9.794zM35 21c-1.164-3.101-2.816-5.741-6.455-8.122-3.511-2.307-7.284-2.127-7.492-2.1H21c.128-.053.257-.08.385-.101.802-.255 1.833-.461 2.87-.589 2.74-.39 5.503.532 7.389 2.508l.053.053C33.84 14.903 34.951 17.72 35 21zM28 8.348c-3.725-.74-6.126-.372-7.853.318-.052-.213-.228-.635-.378-.98a42.458 42.458 0 0 0-1.419 1.961C17.4 10.337 17 11 17 11c.549-1.989 2.152-3.469 4.102-3.841A9.638 9.638 0 0 1 22.903 7c1.723.027 3.447.477 5.097 1.348zM13 13c-2.791-.107-1.862-3.787-1.813-4 0 .028.188 2.892 1.813 4zM17 7c-2.743 1.476-2.194 5-2.194 5-2.623-3.575 1.98-4.916 2.194-5z" fill="#D82122"/>
            <path d="M12.762 13.972c.175.159.35.449.145.864-.115.224-.29.191-.555.065C12 14.711 9.898 13.371 8 12c2.163.83 4.352 1.721 4.702 1.912 0 0 .03.033.06.06z" fill="#FFF"/>
        </g>
    </g>
</svg>
