<svg width="32" height="32" xmlns="http://www.w3.org/2000/svg"><g fill="none"><path d="M16 32c8.837 0 16-7.163 16-16S24.837 0 16 0 0 7.163 0 16s7.163 16 16 16Z" fill="#070A0E"/><path d="M16.676 24 8 19.3l.035-2.286 8.636 4.696 4.164-2.281-2.793-1.532-1.045.572-1.959-1.068 1.05-.578-1.371-.754-.83.458-1.964-1.069.834-.458-4.425-2.429L16.67 8l7.867 4.261-2.11 1.165-5.757-3.136-4.165 2.281 2.331 1.28 1.19-.66 1.965 1.07-1.2.658 1.37.754.975-.54 1.965 1.07-.985.544L25 19.424 16.676 24z" fill="#FFF"/></g></svg>