<svg width="32" height="32" xmlns="http://www.w3.org/2000/svg"><g fill="none" fill-rule="evenodd"><path d="M16 32c8.837 0 16-7.163 16-16S24.837 0 16 0 0 7.163 0 16s7.163 16 16 16Z" fill="#22B78B" fill-rule="nonzero"/><path d="m14.084 16.5 5.184 5.564 3.29-3.465c.598-.63 1.495-.63 1.993 0 .599.63.599 1.68 0 2.31l-4.286 4.619c-.598.63-1.496.63-2.094 0l-6.18-6.719v3.99c0 .84-.698 1.574-1.496 1.574-.797 0-1.495-.735-1.495-1.575V10.202c0-.84.698-1.575 1.495-1.575.798 0 1.496.735 1.496 1.575v3.989l6.18-6.719c.598-.63 1.496-.63 2.094 0l4.286 4.62c.599.629.599 1.679 0 2.309-.598.63-1.495.63-1.993 0l-3.29-3.57-5.184 5.669Zm5.184-1.575c.797 0 1.495.735 1.495 1.575s-.698 1.575-1.495 1.575c-.798 0-1.495-.735-1.495-1.575s.697-1.575 1.495-1.575Z" fill="#FFF"/></g></svg>