<svg width="32" height="32" xmlns="http://www.w3.org/2000/svg"><g fill="none"><path d="M16 32c8.837 0 16-7.163 16-16S24.837 0 16 0 0 7.163 0 16s7.163 16 16 16Z" fill="#21B78B"/><g fill="#FFF"><path d="m15.688 15.804 6.77 4.068c.111.07.25.072.362.005a.379.379 0 0 0 .18-.329v-7.494a.376.376 0 0 0-.18-.329.34.34 0 0 0-.362.008l-6.77 4.071Zm6.627-5.872L17.686 6.36a.354.354 0 0 0-.342-.059.38.38 0 0 0-.237.266l-1.69 7.955 6.857-3.978a.36.36 0 0 0 .184-.293.365.365 0 0 0-.143-.317m-4.635 15.31 4.635-3.57a.37.37 0 0 0 .144-.32.365.365 0 0 0-.182-.297l-6.86-3.977 1.69 7.954a.378.378 0 0 0 .23.272.352.352 0 0 0 .344-.053"/><path d="m13.927 15.66 1.76-8.64a.374.374 0 0 0-.15-.378.336.336 0 0 0-.391.006l-4.51 3.628a.998.998 0 0 0-.365.78v9.205a.998.998 0 0 0 .365.796l4.488 3.613a.336.336 0 0 0 .39.006.374.374 0 0 0 .152-.378l-1.739-8.639Z"/></g></g></svg>