<svg width="32" height="32" xmlns="http://www.w3.org/2000/svg"><defs><radialGradient cx="50%" cy="26.795%" fx="50%" fy="26.795%" r="100%" gradientTransform="matrix(0 1 -.50762 0 .636 -.232)" id="b"><stop stop-color="#BDE1F1" offset="0%"/><stop stop-color="#76C3EF" offset="100%"/></radialGradient><radialGradient cx="50%" cy="50%" fx="50%" fy="50%" r="55.766%" gradientTransform="matrix(0 1 -.61538 0 .808 0)" id="c"><stop stop-color="#ABDFFD" offset="0%"/><stop stop-color="#37A7E1" offset="100%"/></radialGradient><linearGradient x1="50%" y1="99.302%" x2="50%" y2="20.834%" id="a"><stop stop-color="#A8CEDB" offset=".098%"/><stop stop-color="#4A98ED" offset="100%"/></linearGradient></defs><g fill="none" fill-rule="evenodd"><circle fill="#F99588" cx="16" cy="16" r="16"/><path d="m9.135 15.617-7.453-4.146A8.894 8.894 0 0 0 0 16.68c0 4.98 4.09 9.016 9.135 9.016s9.136-4.037 9.136-9.016c0-1.93-.616-3.716-1.662-5.182l-7.474 4.118Z" fill="url(#a)" transform="translate(7 3)"/><path fill="url(#b)" d="M9.106 15.688 1.682 11.47l7.153-3.346 7.745 3.416z" transform="translate(7 3)"/><path fill="#4A90E2" d="m15.865 3-6.533 9.88 6.533 3.885 6.685-3.885z"/><path d="M2 9.888 8.425 6 15 9.888 8.425 14 2 9.888Z" fill="url(#c)" transform="translate(7 3)"/><path fill-opacity=".5" fill="#6BC8E8" d="M16 3v14l-7-3.95z"/><path fill-opacity=".5" fill="#4E86C1" d="M16.08 3 16 17l7-3.95z"/></g></svg>