<svg width="32" height="32" xmlns="http://www.w3.org/2000/svg"><defs><linearGradient x1="49.969%" y1=".031%" x2="49.969%" y2="99.959%" id="a"><stop stop-color="#F6E93D" offset="0%"/><stop stop-color="#F8E330" offset="13%"/><stop stop-color="#F7C730" offset="35%"/><stop stop-color="#F59C2E" offset="64%"/><stop stop-color="#EB5E2C" offset="98%"/><stop stop-color="#EB5C2C" offset="100%"/></linearGradient><linearGradient x1="50.02%" y1=".049%" x2="50.02%" y2="99.988%" id="b"><stop stop-color="#F6E93D" offset="0%"/><stop stop-color="#F8E330" offset="13%"/><stop stop-color="#F7C730" offset="35%"/><stop stop-color="#F59C2E" offset="64%"/><stop stop-color="#EB5E2C" offset="98%"/><stop stop-color="#EB5C2C" offset="100%"/></linearGradient><linearGradient x1="49.996%" y1="-.011%" x2="49.996%" y2="100.033%" id="c"><stop stop-color="#F6E93D" offset="0%"/><stop stop-color="#F8E330" offset="13%"/><stop stop-color="#F7C730" offset="35%"/><stop stop-color="#F59C2E" offset="64%"/><stop stop-color="#EB5E2C" offset="98%"/><stop stop-color="#EB5C2C" offset="100%"/></linearGradient><linearGradient x1="49.995%" y1=".043%" x2="49.995%" y2="100.014%" id="d"><stop stop-color="#F6E93D" offset="0%"/><stop stop-color="#F8E330" offset="13%"/><stop stop-color="#F7C730" offset="35%"/><stop stop-color="#F59C2E" offset="64%"/><stop stop-color="#EB5E2C" offset="98%"/><stop stop-color="#EB5C2C" offset="100%"/></linearGradient><linearGradient x1="50.075%" y1="-.019%" x2="50.075%" y2="100.009%" id="e"><stop stop-color="#F6E93D" offset="0%"/><stop stop-color="#F8E330" offset="13%"/><stop stop-color="#F7C730" offset="35%"/><stop stop-color="#F59C2E" offset="64%"/><stop stop-color="#EB5E2C" offset="98%"/><stop stop-color="#EB5C2C" offset="100%"/></linearGradient><linearGradient x1="49.988%" y1="0%" x2="49.988%" y2="100.027%" id="f"><stop stop-color="#F6E93D" offset="0%"/><stop stop-color="#F8E330" offset="13%"/><stop stop-color="#F7C730" offset="35%"/><stop stop-color="#F59C2E" offset="64%"/><stop stop-color="#EB5E2C" offset="98%"/><stop stop-color="#EB5C2C" offset="100%"/></linearGradient><linearGradient x1="49.894%" y1=".272%" x2="49.894%" y2="100.233%" id="g"><stop stop-color="#F6E93D" offset="0%"/><stop stop-color="#F8E330" offset="13%"/><stop stop-color="#F7C730" offset="35%"/><stop stop-color="#F59C2E" offset="64%"/><stop stop-color="#EB5E2C" offset="98%"/><stop stop-color="#EB5C2C" offset="100%"/></linearGradient><linearGradient x1="48.794%" y1="62.695%" x2="72.378%" y2="17.498%" id="h"><stop stop-color="#F6E93D" offset="0%"/><stop stop-color="#F8E330" offset="13%"/><stop stop-color="#F7C730" offset="35%"/><stop stop-color="#F59C2E" offset="64%"/><stop stop-color="#EB5E2C" offset="98%"/><stop stop-color="#EB5C2C" offset="100%"/></linearGradient></defs><g fill="none"><path d="M16 32c8.837 0 16-7.163 16-16S24.837 0 16 0 0 7.163 0 16s7.163 16 16 16Z" fill="#070A0E"/><path fill="url(#a)" d="M4.657 9.392h.01l.171.06L5 9.51l.172.05.161.069.172.059.162.06.171.058.162.06.162.059.161.059.172.059.162.07.171.048.162.06.172.059.161.069.172.06.162.048.161.06.172.069.172.059V8.336H4.434l-.161.08-.384.197-.394.207-.394.187-.374.197-.394.208-.394.187-.383.207-.394.198-.384.187-.384.207-.354.178L0 16.229l.394.266.384.266.384.257.394.276.383.267.394.266.172.128.222-.276.374-.493.04-.05-.04-.03-.374-.266-.394-.266-.394-.266-.383-.267-.394-.276-.101-.06.03-4.577.07-.04.395-.187.383-.187.394-.188.394-.187.374-.197.394-.188.394-.177.384-.198z" transform="translate(6 5)"/><path fill="url(#b)" d="m11.343 20.175-.323.128-.363.148-.364.138-.364.148-.161.06-.192-.09-.364-.187-.364-.168-.353-.187-.364-.178-.363-.167-.364-.188-.364-.177-.363-.178-.364-.177-.364-.188-.343-.168-.364-.177-.04-.02V13.93h-1.05v5.248l.363.168.364.178.363.187.364.168.343.187.364.178.364.178.363.177.364.178.364.177.363.178.364.187.353.168.364.187.364.168.141.08.212-.1.364-.128.364-.148.363-.148.354-.138.363-.138-.363-.888z" transform="translate(6 5)"/><path fill="url(#c)" d="m17.798 13.762.02 2.17-.09.08-.617.414-.616.434-.616.434-.616.424-.617.425-.606.434-.616.424-.363.256-.253-.187-.606-.464-.616-.454-.616-.463-.606-.454-.111-.079v-2.338l.11-.099.607-.631.616-.622.616-.631.606-.622.596-.611H6.061l.616.631.606.622.616.621.616.632.606.621.091.089v2.831l.525.405.627.463.606.454.616.464.616.454.606.463.222.168.394-.276.616-.414.606-.434.617-.435.616-.414.616-.434.616-.434.616-.414.616-.435.505-.365.101-2.663-.606-.02z" transform="translate(6 5)"/><path fill="url(#d)" d="M1 8.711h.07l.01-2.9.395-.247.495-.286.485-.286.484-.296.485-.286.495-.296.475-.286.495-.286.485-.296.495-.296h.01l.464.266.495.267.485.276.485.266.485.266.485.267.485.276.474.266.02-.039.485-.858-.484-.277-.495-.266-.485-.266-.485-.267-.485-.276-.485-.266-.485-.267-.495-.276-.474-.266-.02-.01-.475.276-.485.296-.495.296-.475.296-.495.286-.485.286-.484.296-.485.286-.495.296L1 4.666l-.495.286-.465.287L.02 8.7h.485z" transform="translate(6 5)"/><path fill="url(#e)" d="m19.99 6.057-.253-.197-.252-.197-.253-.207-.252-.198-.253-.197-.262-.197-.253-.198-.252-.197-.263-.207-.192-.138-.07.079-.253.306-.253.315-.07.08.07.068.253.207.252.208.263.207.263.207.252.217.253.207.262.207.121.099.01 4.666-.13.09-.263.157-.253.158-.252.158-.263.157-.263.158-.252.158-.253.158-.252.158-.253.158-.252.158-.263.157-.252.158-.253.158-.252.158-.263.158-.253.158.253.394.263.395.04.069.212-.128.253-.148.252-.158.263-.148.252-.168.253-.148.252-.158.253-.148.252-.157.263-.148.263-.168.252-.148.253-.158.262-.148.253-.158.252-.148.253-.168.252-.148.253-.157z" transform="translate(6 5)"/><path fill="url(#f)" d="M11.657 8.84v2.012l.08-.03.344-.128.343-.138.334-.128.343-.138.343-.138.334-.129.343-.138.344-.128.333-.138.343-.128.334-.139V3.246l-.384-.237-.394-.217-.394-.217-.384-.237-.394-.217-.394-.217-.384-.227-.393-.227-.384-.227-.394-.217-.394-.227-.384-.227-.384-.217-.394-.217L9.808 0l-.182.099-.394.207-.394.197-.373.217-.394.207-.394.198-.394.217.394.217.394.217.242.148.152-.08.373-.196.394-.208.394-.197.152-.079.242.138.394.217.384.217.384.227.394.227.394.217.384.227.393.227.384.217.394.217.394.237.384.217.131.069v4.499h-2.757" transform="translate(6 5)"/><path fill="url(#g)" d="m11.657 10.852 3.818-1.5-3.818-1.035" transform="translate(6 5)"/><path fill="url(#h)" d="M8.162 10.852V8.356L4.667 9.372l3.495 1.47" transform="translate(6 5)"/></g></svg>