<svg width="32" height="32" xmlns="http://www.w3.org/2000/svg"><g fill="none"><path d="M16 32c8.837 0 16-7.163 16-16S24.837 0 16 0 0 7.163 0 16s7.163 16 16 16Z" fill="#2D4692"/><path d="m20.725 6 .15.007.039.002c.08.005.158.015.238.027l.078.013a2.375 2.375 0 0 1 .242.057l.09.028a3.433 3.433 0 0 1 .236.089c.066.028.131.058.195.093l.006.003c.096.052.18.106.259.161.023.016.044.033.066.05.063.047.124.097.181.15a2.375 2.375 0 0 1 .426.51v-.001h.002l4.725 7.624.07.124.018.036c.034.065.064.131.091.2l.03.074a1.89 1.89 0 0 1 .068.226l.018.077c.012.058.022.118.029.178l.007.059a2.276 2.276 0 0 1 0 .427l-.007.06a2.166 2.166 0 0 1-.115.48l-.03.078a2.17 2.17 0 0 1-.089.192l-.02.04a3.489 3.489 0 0 1-.07.121v.002h.001l-4.726 7.625h-.002l-.112.165c-.08.107-.17.21-.27.304-.012.013-.027.025-.04.037a2.52 2.52 0 0 1-.187.155l-.062.045a2.528 2.528 0 0 1-.258.162l-.002.001-.002.001-.1.051-.102.046-.059.024a2.31 2.31 0 0 1-.182.066l-.075.023a2.79 2.79 0 0 1-.141.037l-.105.022-.09.014c-.074.012-.148.02-.222.026l-.048.003a2.441 2.441 0 0 1-.146.004h-.002V26h-9.452v-.002c-.05 0-.098-.002-.147-.004l-.05-.004a2.618 2.618 0 0 1-.218-.025l-.093-.015-.103-.021a2.282 2.282 0 0 1-.148-.039c-.021-.006-.042-.011-.064-.019a2.261 2.261 0 0 1-.244-.091 2.309 2.309 0 0 1-.47-.263l-.054-.04a2.399 2.399 0 0 1-.196-.163l-.033-.03a2.356 2.356 0 0 1-.385-.472h-.002l-4.725-7.625h.001a2.676 2.676 0 0 1-.07-.123l-.02-.038-.047-.097-.043-.1-.03-.075a2.227 2.227 0 0 1-.116-.48c0-.02-.003-.041-.005-.061A2.251 2.251 0 0 1 4 16l.003-.107.009-.106.006-.06c.008-.06.017-.119.029-.176l.02-.08a1.669 1.669 0 0 1 .067-.226l.027-.07c.028-.07.06-.139.094-.206.006-.01.01-.02.017-.03.023-.043.046-.084.072-.125l-.003-.001 4.726-7.625h.002l.112-.165c.08-.107.17-.21.27-.304l.04-.037a2.78 2.78 0 0 1 .187-.154c.021-.016.041-.032.062-.046a2.56 2.56 0 0 1 .259-.163H10a2.764 2.764 0 0 1 .44-.186c.029-.01.058-.018.087-.026a1.994 1.994 0 0 1 .242-.058l.078-.013c.08-.012.16-.022.239-.027l.037-.002c.051-.003.101-.005.151-.005V6h9.45Zm1.582 3.608H9.694c-.415 0-.607.31-.607.694 0 .382.192.693.607.693h4.654c.092 0 .167.07.167.157v1.211c0 .086-.075.156-.167.156h-2.903c-1.297 0-2.348.98-2.348 2.187v4.6c0 1.208 1.051 2.187 2.348 2.187h1.236c.415 0 .607-.314.607-.7 0-.387-.192-.7-.607-.7h-1.236c-.475 0-.859-.346-.859-.787v-4.6c0-.442.384-.8.859-.8h2.903c.092 0 .167.07.167.157v7.887c0 .253.22.457.491.457h.491c.093 0 .168-.07.168-.156v-8.188c.001-.087.075-.156.168-.156h.336c.092 0 .167.07.167.156v8.188c0 .086.076.156.168.156h.491c.272 0 .491-.204.491-.457v-7.887c.001-.087.076-.156.168-.156h2.902c.474 0 .858.357.858.799v4.6c0 .44-.384.786-.858.786h-1.231c-.415 0-.608.314-.608.7 0 .387.193.7.608.7h1.231c1.297 0 2.348-.979 2.348-2.186v-4.6c0-1.208-1.051-2.187-2.348-2.187h-2.902c-.092 0-.168-.07-.168-.156v-1.212a.163.163 0 0 1 .169-.156h4.652c.415 0 .607-.31.607-.693 0-.383-.192-.694-.607-.694Zm-6.138 1.387c.092 0 .167.07.167.157v1.21c0 .087-.075.157-.167.157h-.336c-.093 0-.168-.07-.168-.156v-1.211c0-.088.075-.157.168-.157Z" fill="#FFF"/></g></svg>