<svg width="32" height="32" xmlns="http://www.w3.org/2000/svg"><g fill="none"><circle fill="#00316D" cx="16" cy="16" r="16"/><path d="M18.156 20.887c-.013-.024-.015-.034-.02-.037-.62-.293-1.24-.587-1.862-.876-.033-.016-.1-.012-.121.011-.27.29-.534.587-.802.884.194.143 2.643.144 2.805.018m-5.674-7.163-.062-.13c-.052.037-.12.064-.154.114a367.98 367.98 0 0 0-1.708 2.564c-.035.054-.033.133-.05.2.07-.014.148-.011.205-.046a57 57 0 0 0 1.444-.898.397.397 0 0 0 .16-.25c.065-.5.109-1.002.165-1.554m11.997 7.25h.826c.159 0 .22-.06.119-.213-.525-.802-1.048-1.605-1.575-2.404-.028-.044-.092-.063-.14-.093-.025.05-.068.1-.073.153-.061.782-.116 1.564-.176 2.346-.011.149.04.216.193.213.275-.006.55-.002.826-.002m-17.734-.06c.126.03.188.058.249.059.893.002 1.786 0 2.678.002.173 0 .217-.061.144-.228a107.99 107.99 0 0 1-.822-1.914c-.078-.187-.15-.178-.273-.046-.476.514-.956 1.023-1.434 1.534-.167.18-.33.36-.542.593m13.195-4.613c.058.113.077.162.106.204l1.208 1.754c.499.725.997 1.45 1.5 2.172.034.05.1.077.15.114.026-.06.068-.117.076-.179.02-.17.024-.34.035-.51.054-.775.114-1.55.16-2.323.02-.33-.123-.5-.436-.578-.835-.21-1.67-.42-2.506-.626-.075-.018-.154-.015-.293-.028m-.212-5.135-.076.013c-.01.153-.025.307-.03.462l-.111 3.77c-.005.139.036.21.179.245.866.21 1.73.43 2.596.644.075.018.158 0 .237 0-.02-.077-.024-.164-.061-.232-.863-1.57-1.728-3.14-2.595-4.708-.038-.07-.092-.13-.14-.194m-3.884 7.707c.024-.133.047-.213.05-.293.013-.42.014-.838.033-1.257a1.363 1.363 0 0 0-.268-.891 969.79 969.79 0 0 1-2.375-3.31c-.036-.05-.051-.115-.076-.173l-.094.056c-.023.084-.06.167-.068.252-.07.68-.13 1.36-.205 2.038a.46.46 0 0 0 .127.396c.895.997 1.784 2 2.677 3 .048.054.106.098.199.182m.577-.21.06.04c.055-.042.12-.076.164-.13.76-.922 1.518-1.848 2.273-2.775a.367.367 0 0 0 .078-.205c.036-1.235.067-2.47.095-3.705.002-.068-.037-.137-.058-.205-.055.053-.132.096-.163.16-.7 1.482-1.37 2.979-2.103 4.442-.388.774-.326 1.573-.346 2.38m-3.503 2.31c.48 0 .963.007 1.444-.006a.46.46 0 0 0 .294-.125c.335-.351.649-.723.983-1.075.125-.13.097-.21-.01-.326a153.074 153.074 0 0 1-1.677-1.85c-.134-.15-.211-.15-.331.015-.761 1.04-1.53 2.075-2.295 3.114-.038.052-.052.121-.078.182.067.024.134.067.202.067.49.006.978.004 1.468.004m.498-3.966c-.266-.31-.527-.6-.774-.905-.104-.127-.184-.14-.324-.053-.836.526-1.681 1.038-2.515 1.567-.151.096-.27.245-.398.376-.12.122-.103.256-.038.406.325.743.642 1.489.963 2.234.122.28.168.285.355.035.495-.66.988-1.323 1.48-1.984l1.25-1.676m5.796-.788c-.065.105-.096.169-.14.22-.792.967-1.585 1.933-2.383 2.895-.13.157-.063.219.084.286.917.42 1.83.847 2.749 1.265a.954.954 0 0 0 .374.084c.756.007 1.513.005 2.27.001.07 0 .14-.032.212-.05-.025-.074-.036-.159-.08-.222a915.505 915.505 0 0 0-2.1-3.052l-.986-1.427m-3.217 5.777c-3.442 0-6.884-.001-10.326.002-.268 0-.51-.03-.626-.318-.11-.273.018-.475.197-.666 1.028-1.098 2.07-2.184 3.07-3.306.382-.428.677-.937 1-1.418 1.035-1.548 2.062-3.102 3.102-4.646.102-.151.258-.304.422-.364.226-.084.419.046.563.252.837 1.196 1.68 2.388 2.52 3.582.174.244.236.236.364-.042l2.594-5.65c.102-.222.237-.411.5-.423.275-.013.442.154.57.39 1.303 2.362 2.575 4.744 3.928 7.076.818 1.41 1.765 2.74 2.654 4.108.11.168.22.335.329.505.13.205.207.43.085.657-.12.22-.342.262-.575.262-3.457-.002-6.914-.001-10.371-.001" fill="#FFF"/></g></svg>