<svg width="32" height="32" xmlns="http://www.w3.org/2000/svg"><defs><linearGradient x1=".757%" y1=".757%" x2="100%" y2="100%" id="a"><stop stop-color="#3E60C7" offset="0%"/><stop stop-color="#2D4692" offset="100%"/></linearGradient></defs><g fill="none"><path d="M16 32c8.837 0 16-7.163 16-16S24.837 0 16 0 0 7.163 0 16s7.163 16 16 16Z" fill="url(#a)"/><path d="m11.136 7.113 9.704 5.67v5.784L6 9.892l4.756-2.779a.396.396 0 0 1 .38 0Z" fill="#BBC6E1"/><path fill="#E9ECF5" d="m20.84 7-4.948 2.892 4.948 2.891z"/><path d="m20.84 7 4.76 2.778a.406.406 0 0 1 .192.336v11.34l-4.952-2.887V7Z" fill="#FFF"/><path d="m25.788 21.459-4.756 2.778a.396.396 0 0 1-.4 0l-9.7-5.67v-5.792l14.856 8.684Z" fill="#E9ECF5"/><path d="M6 9.892v11.34c0 .142.072.274.192.348l4.756 2.778V12.775L6 9.892Z" fill="#A3B3D6"/><path fill="#BBC6E1" d="m10.948 24.35 4.944-2.892-4.944-2.891z"/></g></svg>