<svg width="32" height="32" xmlns="http://www.w3.org/2000/svg"><g fill="none" fill-rule="evenodd"><circle fill="#D8D8D8" cx="16" cy="16" r="16"/><g transform="translate(5 5)" fill-rule="nonzero"><circle fill="#88BDF3" cx="11" cy="5" r="5"/><circle fill="#3075EE" cx="11" cy="17" r="5"/><circle fill="#5795F1" cx="17" cy="11" r="5"/><circle fill="#205FEC" cx="5" cy="11" r="5"/><path d="M10 10a5.44 5.44 0 0 1-4-4 5.474 5.474 0 0 1 4 4Z" fill="#134BEF"/><path d="M6 16a5.44 5.44 0 0 1 4-4 5.474 5.474 0 0 1-4 4Z" fill="#0932E8"/><path d="M12 12a5.44 5.44 0 0 1 4 4 5.474 5.474 0 0 1-4-4Z" fill="#164BEA"/><path d="M16 6a5.44 5.44 0 0 1-4 4 5.474 5.474 0 0 1 4-4Z" fill="#3170F1"/></g></g></svg>