<svg width="32" height="32" xmlns="http://www.w3.org/2000/svg"><g fill="none"><path d="M16 32c8.837 0 16-7.163 16-16S24.837 0 16 0 0 7.163 0 16s7.163 16 16 16Z" fill="#070A0E"/><path d="M5.613 12.361c-1.657.6-2.715 2.652-2.333 4.565.192.956.408 1.402 1.007 2.027.79.854 1.3 1.045 2.69 1.045 1.11 0 1.275-.038 1.887-.37 1.135-.637 1.76-1.644 1.9-3.072.178-1.963-.956-3.8-2.626-4.271-.65-.179-1.9-.14-2.525.076Zm2.792 1.594c.753.548 1.135 1.81.867 2.92-.51 2.141-3.327 2.562-4.296.637-.587-1.147-.28-2.945.612-3.57.74-.535 2.052-.522 2.817.013Zm14.458-1.543c-2.397.957-3.073 4.488-1.262 6.63.981 1.173 3.302 1.39 4.334.395l.28-.268.039.357c.038.32.077.345.676.345h.637l.038-2.015.039-2.001H24.06v1.275h1.084c1.173 0 1.211.025.88.714-.23.471-1.046.943-1.658.943-1.466 0-2.346-1.033-2.346-2.703.013-1.848 1.199-2.907 2.818-2.524.625.153 1.262.701 1.262 1.096 0 .128.191.179.765.179h.752l-.178-.574c-.396-1.339-1.377-2.014-2.996-2.065-.714-.026-1.11.025-1.581.216ZM11.822 16.11v3.824h1.275l.026-2.575.038-2.588.943 2.588.944 2.588.637-.038.638-.038.93-2.55.93-2.55.04 2.55.037 2.55.676.038.663.038-.025-3.8-.039-3.798h-1.772l-1.02 2.83c-.56 1.568-1.058 2.805-1.096 2.741-.051-.051-.51-1.262-1.02-2.703-.51-1.44-.994-2.69-1.058-2.78-.077-.088-.434-.152-.93-.152h-.817v3.825Z" fill="#FFF"/></g></svg>