<svg width="32" height="32" xmlns="http://www.w3.org/2000/svg"><g fill="none" fill-rule="evenodd"><circle fill="#35D4D2" cx="16" cy="16" r="16"/><path d="M21.117 7a3.886 3.886 0 0 0-3.884 3.882v4.303c-.4.028-.809.045-1.233.045-.424 0-.831.017-1.233.04v-4.388a3.89 3.89 0 0 0-3.883-3.833A3.89 3.89 0 0 0 7 10.882v10.286A3.89 3.89 0 0 0 10.883 25a3.89 3.89 0 0 0 3.884-3.832v-4.304c.4-.027.809-.044 1.233-.044.424 0 .831-.017 1.233-.041v4.389A3.89 3.89 0 0 0 21.117 25 3.89 3.89 0 0 0 25 21.168V10.882A3.886 3.886 0 0 0 21.117 7ZM10.883 8.59a2.294 2.294 0 0 1 2.292 2.292v4.557a13.03 13.03 0 0 0-3.3.936 5.997 5.997 0 0 0-1.28.766v-6.26a2.294 2.294 0 0 1 2.288-2.29Zm2.292 12.578a2.295 2.295 0 0 1-2.292 2.298 2.295 2.295 0 0 1-2.292-2.298v-1.032c0-.912.72-1.775 1.927-2.312.85-.368 1.743-.63 2.657-.78v4.124Zm7.942 2.291a2.294 2.294 0 0 1-2.292-2.291V16.61a13.036 13.036 0 0 0 3.3-.935 5.997 5.997 0 0 0 1.28-.766v6.259a2.294 2.294 0 0 1-2.288 2.291Zm.365-9.24c-.85.369-1.743.63-2.657.78v-4.117a2.295 2.295 0 0 1 2.292-2.299 2.295 2.295 0 0 1 2.292 2.299v1.031c0 .908-.72 1.771-1.927 2.307Z" fill="#FFF" fill-rule="nonzero"/></g></svg>