<svg width="32" height="32" xmlns="http://www.w3.org/2000/svg"><defs><linearGradient x1="0%" y1="0%" x2="100%" y2="100%" id="a"><stop stop-color="#334379" offset="0%"/><stop stop-color="#1A2340" offset="100%"/></linearGradient></defs><g fill="none" fill-rule="evenodd"><circle fill="url(#a)" cx="16" cy="16" r="16"/><path d="M12.922 7.5a1.478 1.478 0 0 1 2.162 0l5 5.248-2.028 2.129-4.053-4.257-4.054 4.257 2.027 2.128 2.027-2.128 2.027 2.128-2.027 2.128 3.04 3.192c.56.588.56 1.54 0 2.128a1.385 1.385 0 0 1-2.027 0l-8.04-8.441a1.663 1.663 0 0 1 0-2.27l5.946-6.243Z" fill="#3CEAAA"/><path d="M16.975 7.5a1.478 1.478 0 0 1 2.162 0l5.946 6.242a1.663 1.663 0 0 1 0 2.27l-7.973 8.37a1.478 1.478 0 0 1-2.161 0l-.946-.993 4.053-4.256-4.053-4.256 2.027-2.129 4.053 4.257 2.027-2.128-6.08-6.385.945-.993Z" fill="#03BCE4"/><path fill="#029ABB" fill-rule="nonzero" d="m14.003 10.62 2.027 2.129-2.027 2.128-2.027-2.128z"/><path fill="#3CEAAA" fill-rule="nonzero" opacity=".95" d="m18.056 10.62 2.027 2.129-2.027 2.128-2.026-2.128z"/></g></svg>