<svg width="32" height="32" xmlns="http://www.w3.org/2000/svg"><g fill="none"><path d="M16 32c8.837 0 16-7.163 16-16S24.837 0 16 0 0 7.163 0 16s7.163 16 16 16Z" fill="#070A0E"/><path d="m16.746 14.036 6.506-6.519 1.323 1.335-6.507 6.507-1.322-1.323Zm-9.334 9.321 6.52-6.52 1.322 1.336-6.506 6.506-1.336-1.322Zm9.334-5.184 1.322-1.335 6.52 6.52-1.336 1.321-6.506-6.506Zm-9.334-9.32 1.336-1.336 6.506 6.506-1.322 1.336-6.52-6.507Zm7.253 7.239L16 14.756l1.335 1.336L16 17.427l-1.335-1.335Z" fill="#F6D30C"/></g></svg>