<svg width="32" height="32" xmlns="http://www.w3.org/2000/svg"><g fill="none" fill-rule="evenodd"><path d="M16 32c8.837 0 16-7.163 16-16S24.837 0 16 0 0 7.163 0 16s7.163 16 16 16Z" fill="#FDD901" fill-rule="nonzero"/><path d="M13.038 14.169v1.063c1.68 0 3.302.022 4.922-.026.23-.006.452-.352.677-.541-.192-.166-.382-.47-.577-.474-1.666-.038-3.332-.022-5.022-.022m8.209 2.246c1.18.507 1.655 1.39 1.557 2.706-.063.854-.012 1.718-.012 2.63h-3.896c0-.813.014-1.616-.003-2.42-.017-.812-.321-1.162-1.073-1.172-1.581-.022-3.162-.007-4.815-.007v3.604H9V11.04c.171-.01.371-.035.57-.036 3.029-.002 6.057-.008 9.085.005.534.002 1.07.06 1.6.137 1.405.201 2.213.933 2.455 2.185.26 1.35-.123 2.181-1.463 3.085" fill="#FFF"/></g></svg>