<svg width="32" height="32" xmlns="http://www.w3.org/2000/svg"><g fill="none" fill-rule="evenodd"><circle fill="#8E8F93" cx="16" cy="16" r="16"/><path d="M22.96 14.04c.313-2.101-1.276-3.231-3.448-3.985l.705-2.846-1.72-.432-.686 2.772a67.899 67.899 0 0 0-1.379-.327l.691-2.79L15.403 6 14.7 8.846c-.374-.086-.742-.17-1.099-.26l.002-.01-2.372-.596-.458 1.85s1.277.296 1.25.314c.696.175.822.64.802 1.008l-.803 3.243c.048.012.11.03.179.057l-.182-.045-1.125 4.543c-.085.213-.301.533-.788.412.017.025-1.25-.314-1.25-.314L8 21.03l2.239.562c.416.106.824.216 1.226.32l-.712 2.878 1.719.432.705-2.849c.47.129.925.247 1.37.359l-.702 2.835 1.72.432.713-2.874c2.933.56 5.139.334 6.067-2.339.749-2.152-.037-3.393-1.58-4.202 1.124-.262 1.97-1.006 2.196-2.545Zm-3.93 5.552c-.532 2.152-4.128.989-5.295.697l.945-3.815c1.166.294 4.906.874 4.35 3.118Zm.532-5.583c-.485 1.957-3.479.963-4.45.72l.857-3.46c.97.243 4.098.698 3.593 2.74Z" fill="#FFF" fill-rule="nonzero"/></g></svg>