<svg width="32" height="32" xmlns="http://www.w3.org/2000/svg"><g fill="none" fill-rule="evenodd"><circle fill="#D8D8D8" cx="16" cy="16" r="16"/><path fill="#4A90E2" d="m16.027 3-6.652 9.88 6.652 3.885 6.806-3.885z"/><path d="m16.302 18.617-7.59-4.146A8.787 8.787 0 0 0 7 19.68c0 4.98 4.165 9.016 9.302 9.016s9.302-4.037 9.302-9.016a8.78 8.78 0 0 0-1.692-5.182l-7.61 4.118Z" fill="#66C8FF"/><path d="m16.302 18.617-7.59-4.146A8.787 8.787 0 0 0 7 19.68c0 4.98 4.165 9.016 9.302 9.016v-10.08Z" fill="#01A3FF"/><path fill="#67C8FF" d="m8.713 14.47 7.59 4.147v10.08z"/><path fill="#CDEDFF" d="m23.912 14.499-7.61 4.118v10.08z"/><path fill="#67C8FF" d="M16.027 9.208 9.375 12.88l6.652 3.885z"/><path fill="#CDEDFF" d="m16.027 9.208 6.806 3.672-6.806 3.885z"/><path fill="#00A3FF" d="M16.027 3v6.208L9.375 12.88z"/><path fill="#66C8FF" d="m16.104 3-.077 6.208 6.806 3.672z"/></g></svg>