<svg width="32" height="32" xmlns="http://www.w3.org/2000/svg"><defs><linearGradient x1="35.535%" y1="7.588%" x2="51.434%" y2="54.076%" id="a"><stop stop-color="#03B8FF" offset="0%"/><stop stop-color="#FA52A0" offset="100%"/></linearGradient><linearGradient x1="36.509%" y1="15.673%" x2="55.516%" y2="63.768%" id="b"><stop stop-color="#03B8FF" offset="0%"/><stop stop-color="#FA52A0" offset="100%"/></linearGradient><linearGradient x1="28.725%" y1="-2.525%" x2="47.793%" y2="45.256%" id="c"><stop stop-color="#03B8FF" offset="0%"/><stop stop-color="#FA52A0" offset="100%"/></linearGradient></defs><g fill="none" fill-rule="evenodd"><circle fill="#D8D8D8" cx="16" cy="16" r="16"/><path fill="url(#a)" fill-rule="nonzero" d="m5.3 1.394 19.154 13.164-4.737 7.048L.562 8.34z" transform="translate(3 5)"/><path d="M25.562 14.7c-1.738 2.42-7.604 1.473-13.144-2.316C6.769 8.699 3.728 3.752 5.357 1.33 7.095-1.09 12.96-.143 18.5 3.647c5.649 3.579 8.69 8.631 7.061 11.053Z" fill="url(#b)" fill-rule="nonzero" transform="translate(3 5)"/><path d="M20.641 21.678c-1.744 2.405-7.628 1.464-13.186-2.3C1.897 15.611-1.264 10.801.48 8.291c1.744-2.406 7.629-1.464 13.186 2.3 5.558 3.765 8.61 8.68 6.975 11.086Z" fill="url(#c)" fill-rule="nonzero" transform="translate(3 5)"/><path d="m28.589 19.712-5.042 7.011c-1.753 2.371-7.672 1.34-13.262-2.268a32.814 32.814 0 0 1-3.069-2.268c.767-.104 1.754-.516 2.74-1.547 1.754-1.753 2.63-2.165 3.398-2.062.767 0 1.644.722 3.069 2.474 1.425 1.753 3.398 2.269 4.603 1.34.11-.102.22-.102.33-.205.986-.722 1.314-1.032 3.178-4.33.438-.826 1.973-2.166 4.055-1.547.548 1.34.548 2.474 0 3.402Z" fill="#0E0F23" fill-rule="nonzero"/><path d="M27.947 19.248c-1.54 2.113-6.933 1.056-12.105-2.43-5.283-3.486-8.364-7.923-6.823-10.036 1.54-2.112 6.933-1.056 12.105 2.43 5.172 3.486 8.253 7.923 6.823 10.036Zm-4.842-3.17c-.77 1.057-3.412.529-6.053-1.161-2.53-1.69-4.072-3.909-3.301-4.965.77-1.057 3.411-.529 6.052 1.162 2.531 1.69 4.072 3.908 3.302 4.965Z" fill="#FFF"/><path d="M8.1 8.667c0-.129-.14-.258-.28-.129-.141.129-.282.129-.282.258.141.386.282.643.282.9 0 .13.14.258.28.13.141 0 .282-.13.141-.258 0-.257 0-.515-.14-.901Zm.163 2.053c0-.102-.115-.204-.23-.102-.114.103-.114.103-.114.205 1.26 2.56 3.897 5.326 7.335 7.374.114.102.23 0 .344 0 .114-.103 0-.205 0-.307-3.553-2.049-6.075-4.711-7.335-7.17Zm13.927 9.892c-.109 0-.217 0-.217.14 0 .139 0 .278.108.278.324.14.757.28 1.081.418.108 0 .216 0 .216-.139 0-.14 0-.279-.108-.279-.324-.14-.756-.278-1.08-.418Zm2.092.738c-.1 0-.2.14-.2.279 0 .14.1.278.2.278.803.14 1.706.28 2.41.14.1 0 .2-.14.2-.279 0-.14-.1-.279-.2-.279-.804.14-1.607 0-2.41-.14Z" fill="#FFF" fill-rule="nonzero"/></g></svg>