<svg width="32" height="32" xmlns="http://www.w3.org/2000/svg"><defs><linearGradient x1="23.739%" y1="7.767%" x2="76.259%" y2="92.229%" id="a"><stop stop-color="#2AB8E6" offset="0%"/><stop stop-color="#29CAD2" offset="53%"/><stop stop-color="#2EE4BE" offset="100%"/></linearGradient><linearGradient x1="32.683%" y1="20.173%" x2="67.321%" y2="79.834%" id="b"><stop stop-color="#2AB8E6" offset="0%"/><stop stop-color="#29CAD2" offset="53%"/><stop stop-color="#2EE4BE" offset="100%"/></linearGradient></defs><g fill="none"><path d="M16 32c8.837 0 16-7.163 16-16S24.837 0 16 0 0 7.163 0 16s7.163 16 16 16Z" fill="#252B3B"/><path d="M0 .993.96 0h10.08l.96.993v18.014l-.96.993H.96L0 19.007V.993Zm1.92.994v16.026h8.16V1.987H1.92Z" fill="url(#a)" transform="translate(10 6)"/><path d="M9 12.762H6.933V15H5.067v-2.238H3v-1.928h6v1.928Zm0-5.524H6.933V5H5.067v2.238H3v1.928h6V7.238Z" fill="url(#b)" transform="translate(10 6)"/></g></svg>