<svg width="32" height="32" xmlns="http://www.w3.org/2000/svg"><g fill="none" fill-rule="evenodd"><path d="M16 32c8.837 0 16-7.163 16-16S24.837 0 16 0 0 7.163 0 16s7.163 16 16 16Z" fill="#0C0C0C" fill-rule="nonzero"/><path d="M22.11 8.59c3.705.325 6.63 3.315 6.825 7.02C28.74 9.5 23.67 4.625 17.495 4.82c-3.64.13-7.02 1.95-8.97 5.005C8.85 6.12 11.84 3.195 15.545 3c-6.175.26-10.92 5.525-10.66 11.7.13 3.51 1.95 6.76 4.875 8.71A7.41 7.41 0 0 1 3 16.39c.13 6.11 5.265 10.985 11.375 10.855 3.64-.065 6.955-1.95 8.97-4.94-.325 3.64-3.315 6.5-6.955 6.695 6.11-.195 10.92-5.33 10.725-11.505-.13-3.575-1.95-6.955-5.005-8.905Zm-6.175 12.09c-1.235 0-2.405-.455-3.25-1.365-1.82-1.82-1.755-4.745 0-6.5s4.745-1.755 6.5 0 1.755 4.745 0 6.5c-.845.91-2.015 1.365-3.25 1.365Z" fill="#94FEBF"/></g></svg>