<svg width="32" height="32" xmlns="http://www.w3.org/2000/svg"><g fill="none"><circle fill="#35388F" cx="16" cy="16" r="16"/><g fill="#FFF"><path d="M17.1 19v-5.9h.8c2.5 0 3.2-2.4 3.2-2.4h-6.7c-3.2 0-3.7 2.4-3.7 2.4h3.9V22c-.1 0 2.5-.8 2.5-3Z"/><path d="M24.4 23.6c2.2-2.3 3.1-5.6 2.3-8.7-.4-1.6-1.3-3.1-2.5-4.3l-.3-.3-.1-.1c-.1-.1-.2-.1-.2-.2l-.1-.1-.2-.2H23c-.1-.1-.2-.1-.3-.2l-.2-.1c-.1 0-.1-.1-.2-.1l-.2-.1c.1-.1 0-.2-.1-.2l-.2-.1c-.1 0-.1-.1-.2-.1h-.1c.3.2.5.3.7.5 3.4 3.4 3.5 8.9.1 12.4l-.1.1c-4.4 4.4-11.5 4.4-15.9 0l-.5-.5-.1-.1-.3-.3c.6 1.1 1.3 2.1 2.2 3 4.6 4.5 12 4.5 16.6 0 .1-.2.1-.2.2-.3Z"/><path d="M10.4 22.4c-.2-.2-.4-.3-.6-.5-3.4-3.4-3.5-9-.1-12.4l.1-.1C14.2 5 21.3 5 25.7 9.4c.3.3.6.6.9 1-.6-1.1-1.3-2.1-2.2-3-4.6-4.6-12-4.6-16.6 0l-.2.2c-3 3.2-3.5 7.9-1 11.5.9 1.4 2.3 2.6 3.8 3.3Z"/></g></g></svg>