<svg width="32" height="32" xmlns="http://www.w3.org/2000/svg"><g fill="none"><circle fill="#FF5252" cx="16" cy="16" r="16"/><g transform="translate(2 12)" fill="#FFF"><path d="M17.94 6.367h-1.18c-.222 0-.402-.164-.403-.365V3.164l-2.075 1.179a.58.58 0 0 1-.569 0l-2.075-1.18v2.839c0 .201-.18.364-.402.364H10.06c-.222 0-.401-.163-.401-.364V.53c0-.18.11-.346.286-.43a.581.581 0 0 1 .551.029l3.278 2.041a.436.436 0 0 0 .454 0L17.504.13a.581.581 0 0 1 .551-.03c.176.085.286.25.287.43v5.471c0 .097-.042.19-.118.258a.423.423 0 0 1-.283.108ZM7.887 6.355H.536C.24 6.355 0 6.137 0 5.87V.365C0 .163.18 0 .401 0h1.182c.222 0 .401.163.401.365V4.55H6.44V.365c0-.202.18-.365.401-.365h1.18c.223 0 .403.163.403.365v5.504c0 .268-.24.486-.536.486ZM20.113 0h7.351c.296 0 .536.218.536.487V5.99c0 .097-.042.19-.117.258a.422.422 0 0 1-.284.107h-1.182a.423.423 0 0 1-.284-.106.349.349 0 0 1-.117-.258V2.047a.233.233 0 0 0-.079-.172.282.282 0 0 0-.19-.071H21.83c-.147 0-.267.108-.268.242V5.99a.35.35 0 0 1-.118.259.423.423 0 0 1-.284.106h-1.18a.423.423 0 0 1-.285-.106.349.349 0 0 1-.117-.258V.487c0-.269.239-.487.534-.487Z"/><rect x="22.797" y="2.961" width="1.983" height="1.821" rx=".911"/></g></g></svg>