<svg width="32" height="32" xmlns="http://www.w3.org/2000/svg"><g fill="none" fill-rule="evenodd"><circle fill="#FF1484" fill-rule="nonzero" cx="16" cy="16" r="16"/><g fill="#FFF"><path d="M15.213 9.078c-.247-.039-.258-.052-.14-.065.222-.039.74.013 1.104.104.846.222 1.61.796 2.42 1.8l.212.273.305-.052c1.305-.235 2.644-.052 3.76.521.306.157.788.47.846.548.024.026.06.195.083.365.082.612.047 1.069-.13 1.42-.094.196-.094.248-.035.418.047.13.188.221.317.221.282 0 .576-.495.717-1.186l.059-.274.106.13c.599.744 1.069 1.774 1.14 2.503L26 16l-.106-.17c-.176-.3-.34-.495-.564-.664-.4-.3-.822-.391-1.939-.456-1.01-.066-1.586-.157-2.15-.365-.963-.352-1.457-.809-2.597-2.49-.505-.743-.822-1.147-1.14-1.486-.693-.743-1.386-1.134-2.29-1.29Z" fill-rule="nonzero"/><path d="M23.882 11.14c.028-.421.098-.698.25-.952.057-.1.112-.188.126-.188.014 0-.014.077-.056.166-.111.243-.125.586-.055.973.097.498.14.564.808 1.106.306.254.669.575.808.708l.237.243-.237-.177c-.293-.221-.961-.641-1.115-.697-.097-.044-.111-.044-.18.012-.057.044-.07.11-.07.43-.014.498-.098.808-.307 1.129-.111.166-.125.133-.028-.055.07-.144.084-.21.084-.686 0-.962-.14-1.195-.99-1.582a11.6 11.6 0 0 0-.78-.32 3.471 3.471 0 0 1-.376-.144c.028-.022.85.166 1.17.276.488.155.572.166.627.155.042-.033.07-.121.084-.398Zm-8.279 2.07c-.397-.543-.652-1.386-.595-2.013l.019-.197.094.019c.17.028.463.14.604.225.378.224.548.533.708 1.301.047.225.114.487.142.572.047.14.226.468.377.674.104.15.038.225-.198.206-.359-.037-.84-.365-1.151-.787Zm7.986 4.647C20.937 16.818 20 15.922 20 14.403c0-.221.013-.403.013-.403.014 0 .108.078.228.169.536.415 1.138.597 2.812.831.978.143 1.54.247 2.049.416 1.62.52 2.624 1.584 2.865 3.026.067.415.027 1.207-.08 1.623-.094.325-.362.922-.429.935-.013 0-.04-.065-.04-.169-.027-.545-.308-1.065-.776-1.467-.563-.468-1.286-.819-3.053-1.507Zm-2.021-.204a2.434 2.434 0 0 0-.131-.481L21.37 17l.118.126c.17.172.301.378.42.664.091.218.091.287.091.642 0 .343-.013.423-.092.618-.13.31-.288.527-.55.767-.471.424-1.087.653-1.964.756-.158.012-.603.046-.996.069-.982.046-1.637.137-2.227.32-.078.024-.157.046-.17.035-.026-.023.38-.23.707-.367.459-.194.93-.297 1.965-.458.511-.068 1.035-.16 1.166-.206 1.297-.355 1.938-1.237 1.729-2.313Zm2.728 3.556c-.304-.732-.374-1.426-.21-2.08.023-.065.046-.129.07-.129.023 0 .093.039.163.09.14.103.432.282 1.179.732.945.565 1.481 1.001 1.855 1.502.326.437.525.938.618 1.554.058.347.023 1.181-.058 1.528-.257 1.092-.84 1.965-1.692 2.466a1.557 1.557 0 0 1-.245.128c-.012 0 .035-.128.105-.283.28-.654.315-1.284.105-1.99-.128-.436-.397-.963-.933-1.849-.642-1.027-.794-1.297-.957-1.67ZM13.27 24.504c.948-.756 2.114-1.292 3.191-1.462.462-.073 1.23-.049 1.654.06.68.171 1.294.537 1.615.987.308.439.449.817.59 1.657.05.33.115.67.128.743.102.439.307.78.564.963.397.28 1.09.292 1.769.049.115-.037.218-.074.218-.061.025.024-.32.243-.552.353-.32.158-.576.207-.923.207-.615 0-1.14-.305-1.563-.914-.09-.122-.27-.475-.423-.804-.45-.986-.68-1.279-1.205-1.608-.462-.28-1.052-.34-1.5-.134-.59.268-.744.987-.333 1.426.166.182.474.328.73.365.474.06.885-.292.885-.743 0-.292-.116-.463-.423-.597-.41-.17-.86.024-.846.402 0 .158.077.256.243.329.103.049.103.049.026.036-.372-.073-.462-.511-.167-.791.36-.342 1.115-.195 1.372.28.102.195.115.585.025.828-.217.536-.833.816-1.46.658-.424-.11-.603-.22-1.116-.719-.897-.877-1.244-1.047-2.525-1.23L13 24.747l.27-.243Z" fill-rule="nonzero"/><path d="M7.43 4.533c2.936 3.51 7.46 8.968 7.688 9.266.189.248.113.484-.202.658a1.954 1.954 0 0 1-.718.198.917.917 0 0 1-.605-.26c-.114-.112-.605-.82-1.715-2.518a160.648 160.648 0 0 0-1.575-2.394c-.05-.025-.05-.025 1.487 2.679.97 1.7 1.286 2.307 1.286 2.381 0 .162-.05.248-.252.472-.34.372-.492.794-.605 1.674-.126.98-.467 1.675-1.437 2.853-.567.695-.656.819-.794 1.104-.177.348-.227.546-.252.993-.026.47.025.769.164 1.215.126.397.264.658.605 1.166.29.447.466.782.466.906 0 .099.025.099.479 0 1.084-.249 1.979-.67 2.47-1.191.303-.323.378-.496.378-.943 0-.285-.012-.347-.088-.52-.126-.274-.365-.497-.882-.844-.68-.46-.97-.831-1.046-1.328-.063-.421.012-.707.39-1.488.391-.806.492-1.141.555-1.96.038-.52.1-.732.252-.893.164-.174.303-.236.693-.285.643-.087 1.06-.248 1.387-.558.29-.26.416-.521.428-.906l.013-.285-.164-.174C15.244 12.881 7.038 4 7.001 4c-.013 0 .189.236.428.533Zm3.869 17.639a.507.507 0 0 0-.164-.682c-.215-.137-.542-.075-.542.111 0 .05.025.1.1.124.114.062.127.124.038.26-.088.137-.088.261.026.348.176.137.416.062.542-.161Zm5.385-6.154c-.293.053-.574.248-.66.442-.048.12-.024.338.062.405.134.105.256.135.598.135.672 0 1.246-.18 1.307-.397.061-.18-.195-.427-.55-.54a1.976 1.976 0 0 0-.757-.045Zm.782.375c.098-.09.06-.187-.122-.255-.33-.127-.83-.022-.83.173 0 .097.256.202.5.202.159 0 .379-.06.452-.12Z"/></g></g></svg>