<svg width="32" height="32" xmlns="http://www.w3.org/2000/svg"><g fill="none"><circle fill="#3582D6" cx="16" cy="16" r="16"/><g fill="#FFF"><path d="M20 18.357c0-2.324-1.254-3.12-3.761-3.452-1.791-.266-2.15-.797-2.15-1.727s.598-1.527 1.792-1.527c1.074 0 1.671.399 1.97 1.395.06.199.239.332.418.332h.955c.239 0 .418-.2.418-.465v-.066c-.24-1.461-1.314-2.59-2.687-2.722V8.53c0-.265-.179-.465-.477-.531h-.896c-.239 0-.418.2-.478.531v1.527c-1.79.266-2.925 1.593-2.925 3.253 0 2.191 1.194 3.054 3.702 3.386 1.671.332 2.209.73 2.209 1.793 0 1.062-.836 1.792-1.97 1.792-1.553 0-2.09-.73-2.27-1.726-.059-.265-.238-.398-.417-.398h-1.015c-.239 0-.418.199-.418.464v.067c.239 1.66 1.194 2.855 3.164 3.187v1.593c0 .265.18.465.478.531h.895c.24 0 .418-.2.478-.531v-1.593c1.791-.332 2.985-1.727 2.985-3.52Z"/><path d="M12.892 24.902C8.138 23.122 5.7 17.59 7.468 12.694c.914-2.671 2.925-4.706 5.424-5.66.244-.126.365-.317.365-.635v-.89c0-.255-.121-.446-.365-.509-.061 0-.183 0-.244.063-5.79 1.908-8.96 8.33-7.13 14.37 1.096 3.561 3.717 6.295 7.13 7.44.244.127.488 0 .548-.255.061-.063.061-.127.061-.254v-.89c0-.19-.182-.445-.365-.572Zm6.46-19.839c-.244-.127-.488 0-.548.255-.061.064-.061.127-.061.254v.89c0 .255.182.509.365.636 4.754 1.78 7.192 7.312 5.424 12.208-.914 2.671-2.925 4.706-5.424 5.66-.244.126-.365.317-.365.635v.89c0 .255.121.446.365.509.061 0 .183 0 .244-.063 5.79-1.908 8.96-8.33 7.13-14.37-1.096-3.625-3.778-6.359-7.13-7.504Z"/></g></g></svg>