<svg width="32" height="32" xmlns="http://www.w3.org/2000/svg"><defs><linearGradient x1="0%" y1="0%" x2="100%" y2="100%" id="a"><stop stop-color="#7FD4BD" offset="0%"/><stop stop-color="#44A087" offset="100%"/></linearGradient></defs><g fill="none" fill-rule="evenodd"><circle fill="url(#a)" fill-rule="nonzero" cx="16" cy="16" r="16"/><path d="M18.36 14.044V11.65h5.29V8H9.245v3.65h5.29v2.393C10.234 14.248 7 15.13 7 16.186c0 1.057 3.234 1.938 7.534 2.143V26h3.824v-7.674c4.29-.204 7.52-1.085 7.52-2.14 0-1.057-3.226-1.937-7.52-2.143l.001.001Zm0 3.632c-.108.008-.662.043-1.898.043-.984 0-1.682-.031-1.927-.043-3.8-.173-6.636-.858-6.636-1.678s2.837-1.503 6.636-1.68v2.676c.249.019.96.062 1.943.062 1.18 0 1.771-.05 1.878-.061V14.32c3.791.175 6.621.86 6.621 1.677 0 .818-2.829 1.503-6.621 1.677l.003.001Z" fill="#FFF"/></g></svg>