<svg width="32" height="32" xmlns="http://www.w3.org/2000/svg" xmlns:xlink="http://www.w3.org/1999/xlink"><defs><path id="a" d="M.242.086h.155v1.415H.242z"/><path id="c" d="M.05.18h.972v.153H.051z"/><path id="e" d="M.077.101h21.779v17.765H.076z"/><path id="g" d="M.112.048h24.143v2.333H.112z"/><path id="i" d="M0 .251h24.28v17.932H0z"/><path id="k" d="M.006.207h24.296v18.024H.006z"/></defs><g fill="none" fill-rule="evenodd"><circle fill="#D8D8D8" cx="16" cy="16" r="16"/><path d="M9.635 9.739c-.629-.43-1.219-.9-1.676-1.514-.128-.17-.23-.36-.344-.54.038-.028.073-.062.114-.084.359-.185.724-.358 1.076-.553.878-.486 1.708-1.04 2.41-1.759.389-.397.73-.83.886-1.376.084-.291.132-.583.02-.877-.147-.38-.466-.54-.832-.643-.091-.025-.18-.057-.27-.086A14.147 14.147 0 0 1 15.99 1.14c.027-.002.054-.02.08-.031h.163c.21.01.42.027.63.03.114.001.227-.02.341-.03h.13c.167.02.334.045.502.058a14.058 14.058 0 0 1 7.44 2.811c.037.029.063.073.093.11-.03-.007-.062-.01-.092-.02-.23-.076-.454-.174-.688-.227a7.76 7.76 0 0 0-2.546-.142c-.873.09-1.732.25-2.584.448a25.188 25.188 0 0 0-3.19.975c-1.509.572-2.958 1.26-4.279 2.191-.691.488-1.331 1.033-1.848 1.705-.178.233-.339.48-.507.72" fill="#2845AE"/><g transform="translate(1 14.754)"><mask id="b" fill="#fff"><use xlink:href="#a"/></mask><path d="M.242.088A.264.264 0 0 0 .31.086v1.415l-.034-.003-.034.001V.088Z" fill="#A0C3FA" mask="url(#b)"/></g><g transform="translate(16.182 1.028)"><mask id="d" fill="#fff"><use xlink:href="#c"/></mask><path d="M1.022.18C.91.202.795.248.682.244.47.239.26.203.05.179h.971Z" fill="#92A1D5" mask="url(#d)"/></g><g transform="translate(9.09 3.554)"><mask id="f" fill="#fff"><use xlink:href="#e"/></mask><path d="M.545 6.185c.169-.24.329-.487.508-.72.516-.672 1.156-1.216 1.847-1.704 1.321-.933 2.77-1.62 4.28-2.191a25.108 25.108 0 0 1 3.19-.975 20.824 20.824 0 0 1 2.584-.449 7.76 7.76 0 0 1 2.545.142c.235.054.459.15.688.227.03.01.062.013.093.02h-.005l.067.035h-.002l.059.035c.3.248.618.48.898.749 1.815 1.744 3.115 3.807 3.878 6.199.355 1.114.569 2.255.646 3.421a14.83 14.83 0 0 1-.92 6.26c-.114.304-.355.422-.625.495-.263.07-.54.094-.81.138-.29-.01-.583-.001-.87-.033-.614-.07-1.235-.117-1.834-.251-1.216-.272-2.432-.556-3.626-.909-1.47-.434-2.917-.942-4.373-1.42-.337-.111-.67-.23-1.006-.346-.087-.04-.173-.083-.261-.118-1.735-.696-3.4-1.52-4.882-2.667-.853-.66-1.605-1.414-2.094-2.387C-.049 8.603-.085 7.462.496 6.32c.022-.042.033-.09.05-.134" fill="#5492F6" mask="url(#f)"/></g><path d="M1.142 16.254V14.84c.063-1.509.367-2.968.898-4.415.166.209.31.399.462.582.726.868 1.457 1.732 2.18 2.601.901 1.082 1.67 2.257 2.432 3.435.692 1.07 1.368 2.15 1.918 3.303.595 1.246 1.057 2.537 1.225 3.911.067.544.063 1.1.048 1.648-.023.827-.082 1.652-.13 2.478-.006.112-.039.221-.048.332-.013.16-.102.19-.243.166-.422-.07-.8-.253-1.165-.459a14.787 14.787 0 0 1-5.666-5.6 14.244 14.244 0 0 1-1.734-4.881c-.09-.557-.12-1.124-.177-1.687" fill="#5493F6"/><path d="M16.846 18.46c.336.116.67.235 1.007.346 1.456.478 2.903.987 4.372 1.421 1.194.353 2.41.637 3.626.909.6.134 1.22.181 1.834.25.288.033.58.024.87.034l-.695 1.379c-.263.095-.526.189-.788.286-1.457.538-2.857 1.192-4.16 2.037-.729.472-1.423.99-1.939 1.696-.362.496-.633 1.026-.303 1.656-.47.136-.935.293-1.41.401-.387.088-.758-.048-1.113-.194-.722-.297-1.34-.752-1.901-1.281a8.412 8.412 0 0 1-2.154-3.212c-.586-1.57-.212-2.932.869-4.153.548-.619 1.19-1.127 1.885-1.574" fill="#2845AD"/><path d="M11.02 2.307c.09.029.178.06.269.086.366.102.685.264.831.643.113.293.065.586-.019.877-.157.547-.497.98-.885 1.376-.703.72-1.533 1.273-2.41 1.76-.353.194-.718.367-1.077.552-.041.022-.076.056-.114.084-.056.016-.115.026-.167.049-1.128.499-2.283.923-3.492 1.185-.399.087-.8.177-1.214.119-.021-.003-.042-.01-.086-.02.04-.08.074-.155.112-.227a14.632 14.632 0 0 1 3.085-4.043c.854-.79 1.77-1.502 2.813-2.032a3.914 3.914 0 0 1 2.212-.396c.046.005.094-.008.141-.013m9.651 26.167c-.33-.63-.06-1.16.303-1.656.516-.707 1.21-1.224 1.939-1.696 1.303-.845 2.703-1.499 4.16-2.037.262-.097.525-.191.788-.286.303-.07.606-.145.911-.202.079-.015.206.002.242.052.035.049.002.172-.038.242a14.71 14.71 0 0 1-2.469 3.175 14.547 14.547 0 0 1-3.493 2.541c-.524.271-1.08.388-1.673.259a1.345 1.345 0 0 1-.67-.392" fill="#5493F6"/><path d="m25.488 4.158-.059-.035.06.035" fill="#2845AE"/><g transform="translate(8 28.46)"><mask id="h" fill="#fff"><use xlink:href="#g"/></mask><path d="M.112 2.381S22.125-.57 24.255.166C22.127 2.35.112 2.381.112 2.381" fill="#8A0102" mask="url(#h)"/></g><g transform="translate(8 12.586)"><mask id="j" fill="#fff"><use xlink:href="#i"/></mask><path d="M24.265 15.964c-8.16.112-16.108 2.1-24.265 2.22V2.39c4.058-.036 8.11-.289 12.137-.78 4.06-.494 8.04-1.23 12.143-1.359 0 5.302-.015 10.411-.015 15.713" fill="#FFF" mask="url(#j)"/></g><g transform="translate(8 12.586)"><mask id="l" fill="#fff"><use xlink:href="#k"/></mask><path d="M24.302 1.232c-2.364-.085-7.425.671-12.19 1.344-4.063.573-8.33.86-12.106.883V2.32c4.056-.039 8.108-.291 12.135-.78C16.2 1.048 20.201.335 24.301.207v1.025Zm-.037 2.027c-8.157.193-16.066 2.39-24.26 2.477V4.597c8.2-.058 16.112-2.182 24.26-2.405V3.26Zm0 2.136C16.076 5.53 8.198 7.872.005 8.013V6.874c8.19-.12 16.089-2.392 24.26-2.552v1.073Zm0 2.257c-8.21.124-16.058 2.534-24.26 2.656V9.152c8.2-.133 16.053-2.54 24.26-2.657v1.157Zm0 2.76c-8.191.123-16.074 2.395-24.26 2.518v-1.354c8.194-.128 16.059-2.474 24.26-2.604v1.44Zm0 2.967c-8.173.102-16.09 2.216-24.26 2.32v-1.378c8.178-.114 16.08-2.306 24.26-2.418v1.476Zm0 2.633c-8.157.113-16.104 2.1-24.26 2.22V17.02c8.161-.106 16.096-2.148 24.26-2.25v1.242Z" fill="#EA322D" mask="url(#l)"/></g><path d="M8.006 14.906c3.858-.036 7.688-.304 11.522-.709.02 2.629.034 5.01.02 7.512-3.713.555-7.722 1.13-11.542 1.184" fill="#082EB2"/><path d="m8.963 15.234-.103.321-.315.002.254.185-.102.316.267-.197.266.192-.103-.313.258-.192a29.2 29.2 0 0 1-.318.005l-.104-.319m1.828-.04-.104.324c-.094.004-.193.007-.316.01l.255.18-.104.318.27-.204.266.187-.101-.311.26-.197-.32.011-.106-.318m1.839-.079-.107.327-.316.016c.098.068.178.123.254.173l-.106.322.27-.21c.08.054.163.111.268.18l-.1-.308.26-.202a42.83 42.83 0 0 1-.32.018l-.103-.316M14.47 15l-.108.329-.317.021.254.169-.108.321.272-.213c.079.05.162.106.265.173l-.098-.305.263-.206-.321.025L14.47 15m1.837-.147-.108.33c-.094.007-.194.017-.317.026l.253.163-.11.32.272-.216.264.166-.096-.3.263-.208-.32.03-.1-.31m1.656.341-.11.316.271-.217.262.158a37.03 37.03 0 0 1-.095-.293l.261-.21c-.122.014-.223.025-.318.034l-.099-.304-.108.327-.315.032.25.157m-8.087.825-.105.32c-.093.002-.193.005-.315.006l.254.182-.103.316.268-.2.266.188-.102-.31.26-.193a35.43 35.43 0 0 1-.32.007l-.103-.316m1.831-.06-.107.323-.315.013.253.175-.106.317.27-.206.265.181-.1-.306.261-.198c-.123.006-.224.01-.319.016l-.102-.315m1.835-.099-.108.323-.317.02.253.168-.109.317.272-.21.263.173-.096-.301.263-.203c-.125.01-.225.016-.32.023l-.1-.31m1.834-.136-.11.323-.316.025.25.162-.11.315.273-.213.263.165a37.22 37.22 0 0 0-.096-.296l.265-.204-.321.028-.098-.305m1.831-.169-.112.32c-.093.01-.192.02-.314.031l.248.154a77.36 77.36 0 0 1-.112.312l.274-.214.26.156a27.221 27.221 0 0 0-.093-.288l.265-.207a21.87 21.87 0 0 1-.32.034l-.096-.298m-8.142 1.592-.103-.318-.104.32c-.094 0-.192 0-.314.002l.253.183-.102.316.266-.197.265.19a30.91 30.91 0 0 1-.1-.311l.258-.19-.319.005m1.822-.045-.101-.313-.107.32c-.093.004-.192.007-.313.01.097.068.176.125.252.177a44.23 44.23 0 0 0-.105.316l.269-.202.264.182-.1-.307.26-.195-.319.012m1.826-.089-.1-.308c-.041.125-.076.226-.108.321l-.314.017.25.169-.106.315.27-.206.263.173-.097-.3.261-.2-.32.02m1.828-.132-.096-.302-.112.319-.315.025.25.16-.11.314.272-.21.262.165-.095-.294.263-.204c-.123.01-.224.02-.319.027m1.826-.17-.094-.295-.114.316c-.093.01-.192.02-.314.031l.247.153-.112.31.274-.212.26.155c-.036-.11-.064-.201-.093-.286l.265-.205-.319.033m1.822-.207a30.953 30.953 0 0 0-.092-.287c-.044.122-.08.22-.115.312l-.314.038.247.143-.115.307.274-.216.258.147a16.825 16.825 0 0 0-.09-.277l.265-.208-.318.04m-8.216 1.418-.102-.314-.105.32-.314.007.253.179-.104.316.267-.2c.08.054.162.112.264.185l-.1-.31.259-.193c-.123.005-.224.008-.318.01m1.817-.073-.098-.309-.108.32-.314.014.252.172-.106.316.268-.206.263.175-.098-.301.26-.199-.318.018m1.819-.12-.096-.302-.111.318-.313.023.25.162-.11.314.27-.209.262.167-.095-.296.262-.202-.318.025m1.819-.163a60.428 60.428 0 0 0-.093-.295l-.114.316-.314.03.248.154-.113.31.273-.212.26.156-.093-.287.264-.205-.318.033m1.819-.205-.091-.286-.117.311c-.092.011-.192.024-.313.037l.246.145-.115.307.274-.215.258.147-.09-.279.265-.208c-.123.017-.223.029-.317.04m-8.27 1.059-.11.32-.325.003.263.183-.107.315.278-.198.276.188c-.042-.12-.075-.218-.105-.31l.267-.191-.33.005-.107-.315m1.894-.055-.11.32-.327.013.262.174-.11.315.28-.204c.082.054.167.11.274.178-.04-.118-.073-.214-.102-.304l.269-.198-.33.017-.106-.31m1.895-.108-.114.319-.326.022.26.163-.11.316.279-.21.272.167-.1-.297.271-.203-.33.026-.102-.303m1.895-.159-.118.316-.325.031.258.155-.115.314.283-.216.269.158a22.466 22.466 0 0 0-.096-.29l.273-.207-.33.035-.099-.296m1.705.289-.118.31.285-.218.269.146-.094-.28.275-.21c-.129.015-.232.03-.331.041a83.227 83.227 0 0 1-.096-.285l-.12.313-.325.039c.099.056.18.1.255.144m1.892-.263-.12.306.287-.221.267.133a35.942 35.942 0 0 1-.091-.268l.275-.213-.331.051-.094-.275c-.046.12-.085.216-.121.308-.098.014-.2.03-.326.047.098.052.178.093.255.132M9.922 19.19l-.11.32c-.096.004-.199.007-.325.01l.262.178-.107.316.278-.203c.081.056.167.113.274.184l-.104-.308.268-.196-.33.013-.106-.313m1.888-.091c-.044.125-.08.226-.112.321-.096.007-.2.012-.325.02l.26.168-.109.317.279-.21.271.174-.101-.303.269-.202c-.127.01-.231.017-.329.023l-.103-.307m1.887-.144-.116.319c-.096.01-.199.018-.324.028l.258.159-.112.317.28-.215c.08.048.165.1.27.161l-.098-.293.27-.209c-.127.013-.23.022-.329.033-.03-.09-.06-.185-.1-.3m1.888-.198-.118.317-.325.039.256.146c-.033.094-.07.193-.115.316l.283-.22.268.15-.096-.285.273-.214-.33.042-.096-.291m1.888-.249c-.047.12-.084.22-.12.314l-.326.046.257.136-.119.313.286-.226.267.14-.094-.277.274-.216-.33.051-.095-.28m-8.39 1.814a49.851 49.851 0 0 0-.107-.316l-.108.321-.324.005c.1.07.185.128.262.18l-.106.318.276-.2.275.188-.105-.312.267-.192-.33.008m1.882-.073c-.03-.092-.064-.19-.105-.31l-.11.322-.323.015.26.173-.107.319.277-.207.272.177a42.01 42.01 0 0 1-.103-.307l.267-.2-.328.018m1.877-.132-.102-.304-.112.322c-.096.009-.198.017-.323.026l.258.163-.108.32.277-.214.27.167-.1-.3.268-.209-.328.03m1.876-.191-.099-.297-.115.322c-.096.012-.198.023-.323.035l.257.154-.112.321.28-.222.268.157-.098-.294.27-.215-.328.04m1.879-.247c-.03-.086-.06-.177-.097-.29l-.118.32-.323.046.255.141-.113.32.28-.228.269.145-.096-.284.272-.22c-.128.02-.232.034-.33.05m1.885-.305-.095-.279-.12.317-.325.055.256.13-.116.317.284-.233c.08.04.165.081.269.134l-.095-.276.273-.224-.33.059m-8.459 1.714-.106-.315-.108.323-.324.01.261.178-.105.319.275-.205.274.184-.105-.311.265-.198-.327.015m1.874-.107-.104-.31c-.043.126-.078.228-.11.326l-.322.02.259.17-.106.323.275-.214.271.174-.103-.307.266-.207-.326.025m1.869-.168-.101-.305c-.044.127-.08.23-.112.327-.096.01-.198.021-.321.032l.257.16-.109.326.277-.223.27.165-.101-.302.267-.215-.327.035m1.871-.228c-.03-.088-.06-.182-.1-.298-.045.126-.08.23-.114.327l-.322.042c.1.058.18.105.257.148l-.11.328.277-.23.27.154-.1-.295.27-.223-.328.047m1.877-.29-.098-.29-.117.326-.323.053.257.138c-.034.096-.07.2-.112.327l.28-.238.27.143-.099-.287.271-.23-.329.058m-8.431 1.621-.108-.317-.107.321-.324.005.262.182-.106.319.276-.201.276.19-.106-.314.266-.194-.329.01m1.876-.074-.107-.316-.107.327-.322.016.26.175c-.03.096-.064.198-.105.323l.273-.211.275.182c-.04-.12-.075-.219-.105-.312l.264-.204-.326.02m1.866-.138-.104-.312-.109.33a37.36 37.36 0 0 1-.32.028l.258.167-.105.327.273-.22.273.17a38.577 38.577 0 0 1-.105-.307l.265-.214-.326.031m1.864-.202-.102-.308-.11.333-.32.039.256.157-.104.33.272-.229c.082.05.167.1.274.162a25.637 25.637 0 0 1-.105-.302l.266-.225-.327.043m1.87-.268-.1-.3c-.045.128-.08.234-.114.334l-.322.05.258.146-.105.335.275-.239.273.152c-.042-.115-.074-.21-.105-.298l.268-.233-.328.054m1.944-.158.269-.24c-.128.025-.233.047-.331.065l-.102-.294-.114.335c-.097.018-.199.038-.324.06.1.054.181.096.26.136-.033.1-.066.207-.107.338l.278-.249.275.142a13.987 13.987 0 0 1-.104-.293" fill="#FFF"/></g></svg>