<svg width="32" height="32" xmlns="http://www.w3.org/2000/svg"><defs><radialGradient cx="50%" cy="0%" fx="50%" fy="0%" r="96.073%" gradientTransform="matrix(0 .92857 -1 0 .5 -.464)" id="a"><stop stop-color="#6671D1" offset="0%"/><stop stop-color="#C84278" offset="100%"/></radialGradient></defs><g fill="none" fill-rule="evenodd"><circle fill="#D8D8D8" cx="16" cy="16" r="16"/><path d="M20.301 9.682V7.849s-3.217-3.484-3.259-3.458l.001 14.563 3.355-3.568V14.33l1.454 1.5-7.007 6.907S14.723 1.651 14.723 0l-3.278 2.971-.008 19.766-7.065-6.872 1.336-1.535v1.056s2.45 2.554 3.51 3.568L9.219 4.39 5.71 7.849v1.833L0 15.442S12.95 28 13.028 28C14.327 26.733 26 15.442 26 15.442l-5.699-5.76Z" transform="translate(3 2)" fill="url(#a)"/></g></svg>