<svg width="32" height="32" xmlns="http://www.w3.org/2000/svg"><g fill="none"><circle fill="#443AC2" cx="16" cy="16" r="16"/><g fill="#FFF"><path d="M15.245 24.96c.13.29.388.422.747.422h.016c.36 0 .617-.133.747-.421l.009-.015 8.87-16.291h-4.401c-.158 0-.286.016-.396.056a.503.503 0 0 0-.326.33v.001l-4.519 8.266-4.528-8.27a.505.505 0 0 0-.308-.32c-.11-.042-.203-.049-.404-.049H6.365l8.872 16.277.008.015ZM20.5 9.07l.378.118-.355-.171-.014.025-.01.027Zm-5.263 15.877.355-.17-.357.167v.002l.002.001ZM7.67 9.418h3.105l5.218 9.53 5.217-9.544h3.12l-8.279 15.204-.013.024a.63.63 0 0 1-.03 0h-.016a.63.63 0 0 1-.03 0l-.013-.025L7.67 9.418Z"/><path d="M18.73 8.655c-.34 0-.447.043-.601.33l-3.714 6.809-3.713-6.808c-.077-.26-.262-.188-.601-.188H6.957c-.154 0-.308.159-.277.26l7.119 13.055c.108.23.308.36.616.36h.016c.308 0 .524-.115.616-.36l7.134-13.127c.047-.101.047-.173 0-.23-.046-.058-.154-.101-.277-.101H18.73Z"/></g></g></svg>