<svg width="32" height="32" xmlns="http://www.w3.org/2000/svg"><g fill="none"><path d="M16 32c8.837 0 16-7.163 16-16S24.837 0 16 0 0 7.163 0 16s7.163 16 16 16Z" fill="#070A0E"/><g fill="#FFF"><path d="M17.719 14.154c0 1.286-2.005 1.13-2.642 1.13v-2.265c.637 0 2.642-.202 2.642 1.135m.524 3.516c0 1.406-2.403 1.245-3.168 1.245v-2.494c.765.002 3.168-.218 3.168 1.25m1.582-4.025c-.129-1.34-1.283-1.79-2.743-1.928V9.87h-1.129v1.813c-.297 0-.6 0-.902.01V9.87H13.93v1.86h-2.287v1.21s.834-.015.82 0a.584.584 0 0 1 .642.497v5.094a.4.4 0 0 1-.427.375c.015.012-.821 0-.821 0l-.225 1.352h2.279v1.89h1.128v-1.863h.903v1.854h1.13V20.27c1.907-.116 3.237-.587 3.404-2.376.134-1.44-.542-2.082-1.62-2.342.655-.334 1.068-.923.97-1.905m3.73-4.571-.656.658a9.332 9.332 0 0 1 0 12.574l.656.657a10.272 10.272 0 0 0 0-13.905m-13.81.073a9.279 9.279 0 0 1 12.545 0l.657-.658a10.213 10.213 0 0 0-13.874 0m.059 13.84a9.333 9.333 0 0 1 0-12.567l-.656-.658a10.272 10.272 0 0 0 0 13.905m13.808-.073a9.279 9.279 0 0 1-12.545 0l-.657.658a10.213 10.213 0 0 0 13.873 0"/><path d="M15.998 4.936C9.89 4.939 4.943 9.893 4.947 16c.003 6.107 4.957 11.055 11.064 11.051 6.102-.004 11.048-4.95 11.05-11.053-.007-6.106-4.957-11.053-11.063-11.056v-.006Zm0 23.064C9.37 27.999 3.998 22.625 4 15.998 4.001 9.37 9.375 3.998 16.002 4 22.63 4.001 28 9.372 28 15.998 27.993 22.623 22.624 27.993 15.998 28Z"/></g></g></svg>