<svg width="32" height="32" xmlns="http://www.w3.org/2000/svg"><g fill="none" fill-rule="evenodd"><path d="M16 32c8.837 0 16-7.163 16-16S24.837 0 16 0 0 7.163 0 16s7.163 16 16 16Z" fill="#019BF5" fill-rule="nonzero"/><path d="M24.13 25.962c-5.486 3.87-10.963 3.839-16.326-.027l-1.536 1.397c5.48 5.009 14.339 4.73 19.324.104l-1.463-1.474m1.545-21.371C20.168-.444 11.181-.062 6.313 4.636L7.74 6.16c4.223-3.567 11.064-4.381 16.473-.06l1.46-1.51m.138 3.151c3.778 4.581 4.124 11.495.006 16.512l1.496 1.498c5.189-5.624 4.628-14.724.01-19.46l-1.512 1.45M4.605 6.313C-.6 12.133.222 21.138 4.651 25.638l1.418-1.378-2.021-3.376c.784 0 1.328.025 1.867-.01.372-.022.55.134.729.44 3.68 6.293 11.953 7.327 17.08 2.144 2.936-2.968 3.844-7.642 2.239-11.524-1.652-3.998-5.555-6.725-9.747-6.727-4.186-.002-7.365 1.848-9.57 5.405-.117.189-.323.434-.506.45-.615.057-1.24.022-2.018.022.342-.655.603-1.214.918-1.741.318-.535.69-1.038 1.015-1.52l-1.45-1.51M15.902 32c-.746 0-1.251-.075-1.77-.134C5.302 30.856-1.09 22.625.155 13.86 1.413 4.994 9.379-1.041 18.247.149c8.615 1.159 14.834 9.377 13.596 17.968-1.06 7.35-6.685 12.86-14.039 13.754-.581.07-1.138.129-1.902.129" fill="#020405"/><path d="m16.487 14.213-.338 1.758 3.215.44-.226.824-3.159-.44c-.225.715-.338 1.484-.62 2.144-.282.769-.564 1.538-.903 2.253-.45.934-1.24 1.593-2.312 1.758-.62.11-1.298.055-1.806-.33-.169-.11-.338-.33-.338-.494 0-.22.113-.495.282-.605.113-.055.395 0 .564.055.17.165.339.385.451.605.339.44.79.494 1.241.165.508-.44.79-1.044.96-1.649.338-1.319.676-2.583.958-3.901v-.22l-2.99-.44.113-.824 3.103.44.395-1.704-3.215-.494.112-.88 3.329.44c.112-.33.169-.604.282-.88.282-.988.564-1.977 1.24-2.856.678-.88 1.467-1.43 2.652-1.374.508 0 1.015.165 1.354.55.056.054.169.164.169.274 0 .22 0 .495-.17.66-.225.164-.507.11-.733-.11-.169-.165-.282-.33-.45-.495-.34-.44-.847-.495-1.242-.11-.282.275-.564.66-.733 1.044-.395 1.154-.677 2.363-1.072 3.572l3.103.44-.226.824-2.99-.44" fill="#000"/><path d="M4.155 16.231c.24-1.07.479-2.142.721-3.231h1.246l.728 3.154.135.013.818-3.16H9l-1.528 4.985H6.335l-.796-3.455c-.034.001-.066.003-.1.003L4.654 18h-1.1c-.51-1.645-1.025-3.297-1.553-4.991h1.258l.809 3.198.088.024" fill="#000407"/></g></svg>