<svg width="32" height="32" xmlns="http://www.w3.org/2000/svg"><defs><linearGradient x1="85.355%" y1="14.645%" x2="14.645%" y2="85.355%" id="a"><stop stop-color="#FF2D55" offset="0%"/><stop stop-color="#FFBC5B" offset="100%"/></linearGradient><linearGradient x1="49.966%" y1="0%" x2="49.966%" y2="100%" id="b"><stop stop-color="#A524B3" offset="0%"/><stop stop-color="#FF2D55" offset="100%"/></linearGradient><linearGradient x1="49.966%" y1="0%" x2="49.966%" y2="100%" id="c"><stop stop-color="#A524B3" offset="0%"/><stop stop-color="#FF2D55" offset="100%"/></linearGradient></defs><g fill="none" fill-rule="evenodd"><circle fill="#D8D8D8" cx="16" cy="16" r="16"/><circle stroke="#FF4A57" cx="16" cy="16" r="15.5"/><circle fill="url(#a)" fill-rule="nonzero" cx="16" cy="16" r="12.8"/><path fill="url(#b)" fill-rule="nonzero" d="M12.269 11.52v9.6h8z"/><path fill="#FFF" fill-rule="nonzero" d="M4.269 21.12h8v-9.6z"/><path d="M5.76 23.68a13.11 13.11 0 0 0 2.56 2.56h15.36a13.11 13.11 0 0 0 2.56-2.56H5.76Z" fill="#FC9965" fill-rule="nonzero"/><path d="M8.32 26.24A12.747 12.747 0 0 0 16 28.8c2.88 0 5.542-.954 7.68-2.56H8.32Z" fill="#FF2D55" fill-rule="nonzero"/><path fill="url(#c)" fill-rule="nonzero" d="M20.371 16.64v7.04h5.869z"/><path d="M20.371 21.12H4.27c.397.915.902 1.773 1.491 2.56h14.618v-2.56h-.007Z" fill="#FFBC5B" fill-rule="nonzero"/><path fill="#FFF" fill-rule="nonzero" d="M14.509 23.68h5.862v-7.04z"/><circle fill="#FFC95B" fill-rule="nonzero" cx="20.371" cy="11.52" r="3.2"/><circle fill="#FFC95B" fill-rule="nonzero" cx="12.269" cy="8" r="1.6"/></g></svg>