<svg width="32" height="32" xmlns="http://www.w3.org/2000/svg"><g fill="none" fill-rule="evenodd"><circle fill="#D8D8D8" cx="16" cy="16" r="16"/><path d="M26.994 15.832c.096-.057.166-.1.237-.14 1.143-.64 2.285-1.28 3.425-1.925.05-.028.106-.114.096-.16-.166-.73-.302-1.472-.526-2.186-.563-1.797-1.467-3.424-2.677-4.89a14.903 14.903 0 0 0-4.287-3.563 14.766 14.766 0 0 0-6.348-1.844 14.78 14.78 0 0 0-4.23.343 15.005 15.005 0 0 0-4.126 1.609 14.824 14.824 0 0 0-4.614 4.109c-1.446 1.96-2.338 4.144-2.718 6.531-.022.143.013.23.15.304.914.504 1.825 1.016 2.737 1.526.16.09.316.18.49.28-.044.033-.063.053-.087.066l-2.97 1.664c-.388.216-.388.213-.314.65.164.964.397 1.91.736 2.833a14.646 14.646 0 0 0 1.806 3.434 14.839 14.839 0 0 0 3.06 3.191 14.885 14.885 0 0 0 7.63 3.047c1.114.114 2.226.108 3.336-.024a14.82 14.82 0 0 0 3.078-.707 14.85 14.85 0 0 0 4.561-2.527 14.909 14.909 0 0 0 4.67-6.604c.309-.877.53-1.778.67-2.696.02-.13 0-.195-.12-.261a668.03 668.03 0 0 1-3.106-1.735c-.179-.101-.355-.206-.559-.325m-24.658-.004c-.449-.25-.87-.487-1.292-.723-.314-.176-.626-.356-.942-.527-.09-.049-.11-.108-.1-.2.226-2.099.816-4.09 1.828-5.957a15.961 15.961 0 0 1 2.51-3.447A15.99 15.99 0 0 1 10.975.79C11.976.46 13.004.214 14.06.12c.726-.066 1.456-.125 2.184-.118 2.046.02 4.018.426 5.906 1.203a15.945 15.945 0 0 1 5.475 3.727 15.757 15.757 0 0 1 3.577 5.824c.376 1.079.624 2.186.764 3.318.022.18-.02.257-.176.343-.84.46-1.67.933-2.53 1.415.251.141.484.274.717.404.637.358 1.276.715 1.915 1.07.08.043.117.086.106.193a15.712 15.712 0 0 1-1.592 5.53 15.83 15.83 0 0 1-2.74 3.89 15.972 15.972 0 0 1-6.683 4.197 15.682 15.682 0 0 1-3.561.717c-3.024.255-5.89-.277-8.598-1.613a15.904 15.904 0 0 1-4.92-3.776 15.749 15.749 0 0 1-3.222-5.668 16.838 16.838 0 0 1-.67-3.186c-.04-.344.05-.504.351-.657.631-.323 1.241-.686 1.859-1.033.028-.016.056-.034.114-.07" fill="#999898"/><path d="M24.852 9.381c-.541.943-.828 1.319-1.483 1.881-.53.456-1.106.845-1.777 1.078-.85.294-1.541.09-2.01-.6-.433-.642-.531-1.364-.477-2.112.006-.075.1-.168.18-.211.303-.17.62-.316.926-.484.844-.465 1.668-.958 2.36-1.632.352-.342.618-.73.703-1.22.093-.529-.088-.965-.514-1.173-.32-.157-.663-.177-1.012-.13-1.088.146-1.954.67-2.612 1.514-1.096 1.405-1.5 2.996-1.276 4.739.084.654.253 1.29.621 1.856.44.677 1.06 1.004 1.893.901.597-.073 1.13-.308 1.628-.622.957-.602 1.672-1.43 2.27-2.36.268-.42.501-.86.752-1.294l-.172-.13Zm-17.53 1.775c.044.078.07.126.1.171 1.275 2 2.55 4.001 3.831 5.998.077.12.087.206.013.337-1.277 2.237-2.547 4.476-3.818 6.714-.114.2-.228.403-.352.624.815 0 1.602.001 2.388-.006.048 0 .113-.06.141-.109l2.339-4.05c.23-.4.46-.8.697-1.209l.063.105c.963 1.71 1.928 3.421 2.888 5.134.056.1.115.138.233.137.845-.005 1.689-.003 2.533-.003.037 0 .074-.005.13-.009-.025-.049-.04-.082-.06-.115-1.379-2.408-2.756-4.816-4.14-7.221-.065-.115-.068-.198 0-.316 1.125-1.946 2.245-3.895 3.365-5.843l.187-.33c-.077-.005-.132-.009-.187-.01-.645 0-1.292.004-1.937-.001-.116 0-.18.033-.24.132-.841 1.398-1.688 2.795-2.533 4.192-.025.04-.055.076-.09.126a5.115 5.115 0 0 1-.097-.159c-.84-1.388-1.68-2.775-2.517-4.163-.055-.091-.112-.131-.224-.128-.375.007-.75.002-1.123.002h-1.59Zm19.673 4.676c.204.119.379.224.558.325 1.035.58 2.068 1.16 3.106 1.734.12.066.14.132.12.262a14.633 14.633 0 0 1-2.04 5.554 14.86 14.86 0 0 1-3.3 3.745 14.864 14.864 0 0 1-4.56 2.528 14.832 14.832 0 0 1-3.079.707c-1.11.132-2.222.138-3.336.024a14.927 14.927 0 0 1-3.556-.806 14.922 14.922 0 0 1-4.074-2.24 14.862 14.862 0 0 1-4.866-6.626 15.87 15.87 0 0 1-.736-2.833c-.074-.437-.073-.434.314-.65.99-.553 1.98-1.109 2.97-1.664.024-.014.044-.032.087-.066l-.49-.28c-.912-.51-1.823-1.022-2.738-1.526-.136-.074-.171-.162-.148-.304.378-2.386 1.272-4.571 2.717-6.53a14.826 14.826 0 0 1 4.614-4.11 15.031 15.031 0 0 1 4.126-1.61 14.784 14.784 0 0 1 4.23-.342c2.258.137 4.38.75 6.349 1.843a14.905 14.905 0 0 1 4.286 3.564c1.21 1.466 2.115 3.093 2.678 4.89.224.713.359 1.455.525 2.186.01.046-.047.133-.096.16-1.14.645-2.283 1.285-3.424 1.925-.072.04-.141.082-.237.14Z" fill="#9D0A0A"/><path d="M7.321 11.156h1.591c.374 0 .748.005 1.123-.002.112-.004.17.037.224.128.836 1.388 1.677 2.776 2.516 4.163l.098.158c.035-.048.065-.085.09-.126.845-1.396 1.692-2.792 2.532-4.19.06-.1.125-.133.241-.133.645.006 1.291.002 1.937.002.055 0 .11.005.186.008-.068.121-.125.227-.186.331-1.12 1.949-2.24 3.897-3.366 5.843-.068.117-.064.202.001.315 1.383 2.406 2.762 4.814 4.14 7.222.02.032.035.066.06.116-.057.003-.093.008-.13.008-.844 0-1.688-.003-2.533.003-.118 0-.177-.038-.233-.138-.96-1.712-1.925-3.422-2.889-5.134-.016-.029-.034-.057-.062-.103l-.698 1.207c-.779 1.351-1.557 2.702-2.338 4.051-.028.049-.093.109-.142.109-.785.007-1.572.005-2.387.005l.351-.623c1.272-2.239 2.542-4.478 3.819-6.713.074-.131.064-.217-.013-.338-1.28-1.997-2.556-3.998-3.832-5.997-.03-.046-.055-.094-.1-.172" fill="#FDFDFC"/><path d="M22.409 6.529c-.018-.35-.21-.686-.602-.89-.376-.196-.727-.093-1.04.153-.14.11-.267.24-.374.38-.602.8-.787 1.744-.959 2.691-.021.122.05.167.166.112.172-.083.344-.167.512-.257.688-.374 1.362-.766 1.921-1.32a1.17 1.17 0 0 0 .376-.87m2.444 2.853c.053.042.096.074.172.13-.252.435-.484.875-.753 1.294-.598.93-1.314 1.758-2.27 2.36-.497.315-1.031.55-1.628.624-.833.103-1.453-.224-1.893-.902-.368-.566-.536-1.202-.621-1.856-.223-1.743.18-3.334 1.276-4.739.657-.844 1.524-1.368 2.613-1.514.348-.047.692-.027 1.01.13.427.208.607.644.515 1.174-.085.49-.351.877-.702 1.22-.693.674-1.517 1.165-2.361 1.63-.305.17-.622.314-.926.484-.079.044-.174.137-.18.213-.054.747.044 1.469.478 2.11.468.69 1.16.895 2.009.6.67-.232 1.248-.62 1.777-1.077.655-.562.942-.939 1.484-1.88" fill="#FCFAFA"/><path d="M22.409 6.529a1.17 1.17 0 0 1-.376.87c-.559.553-1.233.945-1.921 1.319-.168.09-.34.174-.512.257-.115.055-.187.01-.166-.112.172-.947.357-1.892.96-2.69.106-.142.234-.272.374-.381.312-.246.663-.349 1.039-.153.391.204.584.54.602.89" fill="#9D0C0C"/></g></svg>