<svg width="32" height="32" xmlns="http://www.w3.org/2000/svg"><defs><linearGradient x1="35.535%" y1="2.791%" x2="51.434%" y2="54.537%" id="a"><stop stop-color="#FF985B" offset="0%"/><stop stop-color="#FFC865" offset="100%"/></linearGradient></defs><g fill="none" fill-rule="evenodd"><circle fill="#D8D8D8" cx="16" cy="16" r="16"/><path d="M18.728 3.589c5.478 3.522 8.427 8.495 6.847 10.878-.42.594-1.09.982-1.942 1.172l-2.388 3.607c.11.753.01 1.427-.33 1.98-1.598 2.438-7.301 1.707-12.786-1.828-5.486-3.535-8.696-8.185-7.102-10.726.102-.156.222-.3.356-.43l-.05-.035 4.594-6.835.01.008a2.38 2.38 0 0 1 .045-.07c1.686-2.383 7.374-1.45 12.746 2.279Z" fill="url(#a)" fill-rule="nonzero" transform="translate(3 5)"/><path d="m28.601 19.479-4.889 6.9c-1.7 2.334-7.44 1.319-12.86-2.232a31.853 31.853 0 0 1-2.976-2.233c.744-.101 1.7-.507 2.657-1.522 1.7-1.725 2.551-2.13 3.295-2.03.744 0 1.594.711 2.976 2.436s3.295 2.232 4.464 1.32c.106-.102.213-.102.319-.204.956-.71 1.275-1.014 3.082-4.262.425-.811 1.913-2.13 3.932-1.522.532 1.32.532 2.436 0 3.349Z" fill="#0E0F23" fill-rule="nonzero"/><path d="M8.734 8.609c0-.127-.136-.254-.273-.127-.136.127-.272.127-.272.253.136.38.272.634.272.887 0 .127.137.254.273.127.136 0 .273-.127.136-.253 0-.254 0-.507-.136-.887Zm.157 2.021c0-.1-.111-.202-.222-.1-.111.1-.111.1-.111.2 1.222 2.52 3.778 5.242 7.112 7.258.112.1.223 0 .334 0 .111-.101 0-.202 0-.303-3.445-2.015-5.89-4.636-7.113-7.055Zm13.505 9.735c-.105 0-.21 0-.21.137s0 .274.105.274c.314.138.734.275 1.048.412.105 0 .21 0 .21-.137s0-.275-.105-.275c-.315-.137-.734-.274-1.048-.411Zm2.029.725c-.098 0-.195.138-.195.275s.097.275.195.275c.779.137 1.655.274 2.336.137.097 0 .195-.137.195-.275 0-.137-.098-.274-.195-.274-.779.137-1.557 0-2.336-.137Z" fill="#FFF" fill-rule="nonzero"/><path d="M27.979 19.022c-1.494 2.08-6.723 1.04-11.739-2.391-5.122-3.43-8.11-7.797-6.616-9.877 1.494-2.08 6.723-1.04 11.739 2.391 5.015 3.431 8.003 7.798 6.616 9.877Zm-4.696-3.119c-.747 1.04-3.308.52-5.869-1.143-2.454-1.664-3.948-3.847-3.201-4.887.747-1.04 3.308-.52 5.869 1.144 2.454 1.663 3.948 3.846 3.201 4.886Z" fill="#FFF"/></g></svg>