<svg width="32" height="32" xmlns="http://www.w3.org/2000/svg"><g fill="none" fill-rule="evenodd"><path d="M16 0c8.835 0 16 7.165 16 16s-7.165 16-16 16S0 24.835 0 16 7.165 0 16 0Z" fill="#0076E6"/><g fill="#FFF" fill-rule="nonzero"><path d="M15.36 22.759V9.585h1.408V22.76z"/><path d="m22.533 13.974-4.352 1.175-.97-4.598 1.293-.298.51 2.18s1.177-1.964-.391-3.997c-.924-1.045-1.363-1.09-2.399-1.254-.912-.133-3.03.18-3.662 2.698-.267 1.621.034 2.821 2.088 4.392l-.115 1.748s-2.293-1.643-2.884-2.796c-.458-.912-1.242-2.714.174-5.222.762-1.254 2.265-2.457 4.912-2.33 1.332.056 4.583 1.713 4.079 5.582-.087.725-.457 1.691-.457 1.691l1.785-.405.39 1.434ZM20.048 24.282c-.797 1.232-2.33 2.394-4.972 2.198-1.332-.092-4.536-1.837-3.932-5.691.105-.722.5-1.675.5-1.675l-1.795.354-.351-1.44 4.383-1.058.853 4.623-1.304.263-.454-2.194s-1.226 1.928.286 4.006c.896 1.07 1.332 1.124 2.368 1.317.905.158 3.033-.101 3.73-2.6.308-1.612.037-2.822-1.972-4.45l.161-1.744s2.25 1.704 2.81 2.872c.429.928 1.166 2.752-.311 5.219Z"/></g></g></svg>