<svg width="32" height="32" xmlns="http://www.w3.org/2000/svg"><g fill="none" fill-rule="evenodd"><path d="M16 0c8.835 0 16 7.165 16 16s-7.165 16-16 16S0 24.835 0 16 7.165 0 16 0Z" fill="#36B1AF"/><g fill-rule="nonzero"><path fill="#49C1BF" d="m22.598 13.495-2.913 1.32-7.729 3.998 7.729 3.776v-6.242l2.913-1.334v9.221l-2.913 1.32-11.38-5.534v-2.942l7.877-3.927-7.876-3.847V6.32L11.266 5l11.332 5.544z"/><path fill="#81D4D2" d="m8.306 6.317 11.379 5.533 2.913-1.317L11.265 5z"/><path fill="#BFE9E8" d="m19.593 11.741 3.002-1.41v3.153l-3.002 1.41v-3.153z"/><path fill="#FFF" d="M8.306 6.407V9.36l7.81 3.807-7.81 3.886v2.912l11.282 5.477v-2.93l-7.663-3.742 7.663-3.956v-2.92z"/><path fill="#BFE9E8" d="m19.593 25.561 3.002-1.335v-9.324l-3.002 1.35z"/></g></g></svg>