<svg width="32" height="32" xmlns="http://www.w3.org/2000/svg"><g fill="none"><path d="M16 32c8.837 0 16-7.163 16-16S24.837 0 16 0 0 7.163 0 16s7.163 16 16 16Z" fill="#070A0E"/><path d="M21.456 19.46c.723.97 1.468 1.962 2.214 2.955-1.491 1.76-3.344 2.887-5.58 3.36-2.485.52-4.834.136-7.116-1.127 2.033-1.511 4.021-3 6.032-4.489.451.429.88.857 1.31 1.263.474.451.293.474.903.136a6.261 6.261 0 0 0 2.079-1.918c.022-.045.067-.09.09-.135-.023 0 0 0 .068-.045Zm-8.878 1.985c-.565.428-1.084.812-1.604 1.218-.384.293-.768.564-1.152.857-.158.135-.271.135-.452-.023-1.717-1.533-2.801-3.428-3.208-5.684-.406-2.278-.045-4.444 1.04-6.496.022-.045.067-.113.09-.158 0-.023.022-.023.068-.045 1.49 1.962 3.004 3.925 4.495 5.887-.045.068-.068.113-.113.158a40.38 40.38 0 0 1-1.378 1.398c-.135.136-.158.249-.068.406a6.676 6.676 0 0 0 1.943 2.256c.113.068.203.136.339.226Zm8.426-14.008c-.723.519-1.446 1.037-2.169 1.534-1.242.88-2.485 1.782-3.704 2.661-.159.113-.272.136-.407-.022-.407-.429-.836-.812-1.243-1.24-.112-.114-.225-.136-.384-.068-.97.496-1.739 1.195-2.371 2.075-.046.045-.09.113-.136.18-.361-.473-.7-.902-1.04-1.353-.36-.474-.7-.948-1.038-1.399-.113-.158-.136-.27.022-.428 1.74-1.918 3.886-3.046 6.461-3.316 2.033-.226 3.976.18 5.783 1.15.068.045.136.068.203.113 0 .068 0 .09.023.113Zm3.682 13.534c-.474-.609-.903-1.173-1.333-1.737-.994-1.308-1.988-2.639-3.004-3.947-.136-.18-.136-.294.022-.451.43-.43.836-.858 1.266-1.286.112-.113.158-.226.067-.384a6.69 6.69 0 0 0-2.055-2.368c-.068-.045-.136-.113-.226-.158.067-.068.135-.113.18-.158.859-.654 1.717-1.286 2.576-1.94.135-.113.248-.158.406 0 2.146 1.94 3.298 4.354 3.411 7.263.046 1.692-.338 3.294-1.106 4.805a1.7 1.7 0 0 0-.204.361Z" fill="#FFF"/></g></svg>